<?xml version="1.0" encoding="UTF-8"?>
<svg width="60px" height="31px" viewBox="0 0 60 31" version="1.1" xmlns="http://www.w3.org/2000/svg" xmlns:xlink="http://www.w3.org/1999/xlink">
    <title>Fill 40</title>
    <g id="Page-1" stroke="none" stroke-width="1" fill="none" fill-rule="evenodd">
        <g id="Design-System" transform="translate(-1025.000000, -1725.000000)" fill="#F06246">
            <g id="Group-4-Copy-2" transform="translate(849.000000, 1716.000000)">
                <path d="M179.863468,24.933978 C179.907593,25.7442911 180.335609,25.9638123 180.697436,26.1906999 C183.745023,28.1118785 186.417545,30.5398711 189.360702,32.5936464 C191.792005,34.2894106 194.326268,35.8378452 196.845822,37.3980662 C197.434159,37.7604971 197.765099,38.1906997 197.937187,38.8345303 C198.047501,39.2411601 198.08133,39.5991711 197.720973,39.8599446 C197.385621,40.1015652 196.98261,40.0912521 196.639904,39.8908838 C196.094221,39.5726518 195.56913,39.2175873 195.057277,38.8463166 C192.503893,36.9958563 189.628395,35.6227439 187.155908,33.6735727 C185.239399,32.1619705 183.389079,30.5678637 181.35049,29.2168509 C180.367967,28.5656538 179.316315,28.0116944 178.342616,27.3457644 C176.012801,25.7546042 176.077518,23.7347147 178.076394,21.8813077 C179.773747,20.3093004 181.625538,18.9229284 183.327303,17.3420813 C185.664473,15.1674957 188.060476,13.0444755 190.557968,11.039319 C191.121301,10.5840704 191.78318,10.2569986 192.305329,9.7000925 C193.211369,8.73655661 193.44082,8.87651978 194.414518,9.81648292 C194.964614,10.3453964 194.927842,10.760866 194.566015,11.2912527 C193.993857,12.1310317 193.217252,12.7616026 192.431822,13.3862803 C188.656168,16.3888585 184.886397,19.4002765 181.115156,22.4072746 C180.778332,22.6754145 180.398855,22.9096687 180.347375,23.3958565 C180.688611,23.7096687 181.082797,23.5667589 181.43727,23.5652856 C187.200033,23.5520259 192.965738,23.6743095 198.719676,23.4356355 C201.740787,23.3104053 204.783962,23.1336097 207.809486,22.9155619 C211.023278,22.6842543 214.247366,22.3586558 217.492045,22.3984348 C222.87386,22.4647331 228.245379,21.832689 233.637489,22.0065379 C234.753859,22.0433704 235.181875,22.5560775 235.511343,23.4253224 C235.734912,24.0161143 235.427505,24.3313998 234.918594,24.3107736 C232.95796,24.2267957 230.978205,24.6098528 229.039634,24.1118786 C228.598381,23.9999081 228.146832,23.8614182 227.729113,23.9969615 C226.04941,24.5420812 224.316757,24.1973298 222.619404,24.3549725 C218.893759,24.6997239 215.134284,24.4654698 211.442468,24.8352672 C209.008223,25.0783611 206.513673,24.6525784 204.122082,25.4304789 C203.742605,25.5557091 203.236635,25.4039596 202.818915,25.2802027 C202.18204,25.0916208 201.581936,25.0371088 200.970066,25.3406079 C200.083147,25.7811235 199.141808,25.3980664 198.23871,25.4231125 C193.761464,25.5557091 189.276864,25.6013813 184.802559,25.4260591 C183.166982,25.361234 181.48875,25.8989872 179.863468,24.933978" id="Fill-40" transform="translate(206.085366, 24.541250) scale(-1, 1) translate(-206.085366, -24.541250) "></path>
            </g>
        </g>
    </g>
</svg>