<?xml version="1.0" encoding="UTF-8" standalone="no"?>
<svg id="svg77953" xmlns:rdf="http://www.w3.org/1999/02/22-rdf-syntax-ns#" xmlns="http://www.w3.org/2000/svg" height="498" viewBox="0 0 359 498" width="359" version="1.1" xmlns:cc="http://creativecommons.org/ns#" xmlns:dc="http://purl.org/dc/elements/1.1/">
<path id="path77963" d="m52.776 496.58c-21.048-6.06-28.636-23.06-24.198-54.23 4.5337-31.837 57.681-29.988 55.02 1.9144-0.59311 7.1119-0.48884 7.862 1.0516 7.5653 2.0026-0.38567 12.236-14.542 12.304-17.02 0.02541-0.93004 0.44417-1.9369 0.93056-2.2376 1.3907-0.85947 8.3094-20.449 7.6177-21.568-0.34-0.55-1.35-1-2.26-1-0.90047 0-3.3428-1.182-5.4274-2.6266s-5.7914-3.0004-8.2374-3.4574c-18.245-3.41-24.338-13.21-20.544-33.03 1.35-7.06 3.706-25.43 4.474-34.89 0.33491-4.125 0.8053-9.6563 1.0453-12.292 0.34948-3.8373-0.13235-5.9287-2.4191-10.5-2.8536-5.7045-4.4855-11.614-5.6179-20.343-0.721-5.55-1.58-6.37-12.513-11.95-23.413-11.95-32.581-33.36-27.963-65.31 1.1294-7.8131 0.24888-9.6946-5.7189-12.221-5.4376-2.3018-5.2203-3.7661 0.98492-6.6364 2.0918-0.96758 3.5278-2.2051 3.191-2.75-1.0308-1.6678-3.0305-1.1134-5.5123 1.5284-2.3801 2.5335-4.3748 2.8139-4.607 0.64746-0.069-0.65-0.181-1.62-0.25-2.17s-0.753-1-1.521-1c-1.98 0-7.604-6.68-7.604-9.03 0-1.63 0.6903-1.97 4-1.97 2.9288 0 4-0.41093 4-1.5344 0-1.2613-0.8823-1.4174-4.9571-0.87686l-4.9571 0.65758 0.59587-3.8731c0.32773-2.1302 0.9646-4.3466 1.4153-4.9252 0.9885-1.26 0.0387-5.44-1.2384-5.44-1.6468 0-3.0469-5.2642-1.9846-7.4616 1.3547-2.802 0.85195-9.4716-0.7904-10.487-1.7252-1.0662-0.67828-7.3133 1.5331-9.1486 1.4076-1.1682 1.38-1.4348-0.27646-2.6686-1.7508-1.304-1.7066-1.4786 0.9097-3.5902 3.3328-2.6898 3.3866-3.3005 0.5-5.6731l-2.25-1.8494 2.1412-2.1744c1.9508-1.981 2.4736-2.0647 5.878-0.94112l3.7368 1.2333-0.6031 5.6302c-0.3317 3.0966-0.72682 6.4908-0.87802 7.5427-0.20408 1.4197 0.57918 2.14 3.0397 2.7953 4.8386 1.2887 4.0026 4.3748-1.1032 4.072-3.8615-0.229-4.2064 0.2713-3.0811 4.4701 0.74738 2.7888 2.9561 2.9397 3.6595 0.25 0.56988-2.1792 3.1653-2.6908 4.304-0.8483 0.39149 0.63344-0.03196 1.6956-0.94098 2.3602-2.1975 1.6068-2.1908 1.6272 1.902 5.8415 1.9551 2.0131 3.2628 4.1328 2.9059 4.7102-0.93016 1.505 0.41008 6.1342 1.5687 5.4182 2.1606-1.3354 1.0657-8.262-1.6428-10.392-3.3265-2.6166-2.5718-5.3588 1.3504-4.9064 1.836 0.21175 3.1838 1.2298 4.0603 3.067 1.5085 3.1621 5.0934 3.8366 11.925 2.2438 1.829-0.4264 2.1236-1.0129 1.6638-3.312-0.77647-3.8824 1.9583-6.2658 4.3943-3.8298 1.3863 1.3863 1.465 2.025 0.44981 3.6505-0.676 1.09-1.23 3.24-1.23 4.79 0 1.5475-0.50079 3.3144-1.1129 3.9264-1.5596 1.5596-0.15839 3.3745 2.438 3.1577 5.2242-0.43621 5.9548-0.0202 5.3423 3.0422-0.75073 3.7537 1.6793 5.431 10.977 7.5765 3.7708 0.8702 8.1843 2.1286 9.8077 2.7964 5.9489 2.4473 22.105 10.944 24.048 12.647 1.1 0.96422 5.6 4.1863 10 7.1601s8.1472 5.736 8.327 6.1381c0.98827 2.2094 9.7533 6.8782 12.568 6.6945 1.7077-0.11142 3.7799 0.0584 4.6049 0.37734 0.825 0.31896 2.3868 0.7224 3.4707 0.89653 1.2768 0.20512 2.5092 1.7969 3.5 4.5204 0.93707 2.576 2.8846 5.1774 5.0293 6.718 7.5866 5.4497 12.56 8.5249 13.817 8.543 0.7242 0.0104 2.7492 1.0985 4.5 2.4179 3.0635 2.3086 16.08 8.6011 17.792 8.6011 0.45763 0 3.2079 1.0792 6.1117 2.3983 11.776 5.3492 17.316 6.9092 28.28 7.9635 1.1 0.10577 2.9601 0.73043 4.1336 1.3881 2.5663 1.4384 14.303 3.3213 19.866 3.1871 2.2-0.0531 5.098 0.0519 6.4399 0.23325 1.8682 0.25246 2.8054-0.37319 4-2.6703 0.85807-1.65 1.668-3.1829 1.7999-3.4065 0.1319-0.22356 2.026 0.39897 4.209 1.3834 3.6261 1.6351 4.2537 1.6579 7.2602 0.26352 1.9499-0.90435 4.6733-1.3115 6.6831-0.99904 3.2859 0.51081 3.3704 0.44057 2.6967-2.2434-0.6915-2.7552-0.67268-2.767 3.3579-2.1225 3.6093 0.57715 4.0533 0.42779 4.0533-1.3637 0-2.2079 0.73284-2.4663 2.9744-1.0488 1.0388 0.65691 2.0105 0.35693 3.289-1.0153 0.99801-1.0712 2.495-1.9477 3.3266-1.9477 0.83164 0 2.1448-1.5144 2.9182-3.3653 1.1762-2.8151 2.067-3.471 5.4478-4.0116 2.4395-0.3901 4.5339-1.4345 5.2834-2.6347 0.79652-1.2754 2.3307-1.9884 4.2787-1.9884 1.6703 0 4.145-0.77608 5.4992-1.7246 1.3542-0.94854 3.4218-1.5989 4.5945-1.4452 1.1869 0.15554 2.3895-0.39098 2.7125-1.2327 0.31913-0.83165 2.4017-2.662 4.628-4.0673 2.5864-1.6327 4.0478-3.2965 4.0478-4.6084 0-3.1759 1.6509-5.5345 4.7817-6.8313 2.4145-1.0001 2.7909-1.6423 2.4247-4.1372-0.33678-2.2946-0.0497-2.9533 1.287-2.9533 1.2454 0 1.5222-0.48319 1.0024-1.75-1.3004-3.1692-1.0413-4.7536 0.7541-4.6111 2.6916 0.21362 2.1049-1.282-2-5.0984-6.079-5.6517-9.65-4.4668-9.65 3.2019 0 3.4249-3.7504 4.9139-4.8909 1.9418-0.27771-0.72369-3.1384-1.923-6.357-2.6651-3.2186-0.74212-6.6238-2.0055-7.567-2.8075-1.1391-0.96852-2.6501-1.2259-4.5-0.76649-1.5318 0.38041-4.135 0.8103-5.785 0.9553s-4.4402 1.0142-6.2003 1.9316c-1.7602 0.91739-4.5727 1.668-6.25 1.668-1.7345 0-3.9279 0.8782-5.0861 2.0365-1.1201 1.1201-2.4009 1.8112-2.8463 1.536-0.85009-0.52538-7.5105 0.55255-15.117 2.4466-2.475 0.61627-6.75 1.4931-9.5 1.9486-2.75 0.45546-6.7325 1.1653-8.8501 1.5773-2.782 0.54136-4.0779 0.38053-4.6714-0.57971-0.67449-1.0914-1.5759-1.1029-5.0421-0.0643-6.341 1.8998-13.929 2.9208-14.526 1.9546-0.29078-0.4705-2.8646-0.87129-5.7197-0.89064-2.855-0.0194-9.466-0.64433-14.691-1.3888-5.225-0.74449-9.8572-1.1399-10.294-0.87871-0.4366 0.26119-1.4495-0.0692-2.2508-0.7343-0.80135-0.66506-3.7655-1.371-6.587-1.5686-2.8215-0.1977-6.5336-0.77134-8.2492-1.2748-1.7156-0.50342-6.2692-1.858-10.119-3.0103-3.85-1.1522-8.35-2.3922-10-2.7556-1.65-0.36335-4.5683-1.4916-6.4852-2.5072-4.5308-2.4005-6.7251-2.3348-7.5378 0.22579-0.41547 1.309-1.2071 1.8615-2.1492 1.5-0.79-0.32-2.37-0.58-3.48-0.58-1.1708 0-2.2305-0.83606-2.5348-2-0.29547-1.1299-1.364-2-2.456-2-2.7872 0-7.8337-2.8214-7.8337-4.3797 0-0.73056-1.2291-2.6315-2.7314-4.2243-1.5022-1.5928-3.9393-5.8694-5.4157-9.5036-2.66-6.56-6.56-11.89-8.69-11.89-0.61175 0-1.8546-1.1329-2.7618-2.5175-1.2928-1.9731-1.9465-2.271-3.0231-1.3776-0.887 0.74-1.375 0.78-1.375 0.11 0-0.57151 0.5625-1.2359 1.25-1.4764 0.91622-0.32048 0.78271-0.96456-0.5-2.4121-0.9625-1.0862-1.76-2.6144-1.7722-3.3961-0.01223-0.78169-0.86559-2.5185-1.8964-3.8596s-1.6476-3.0286-1.3708-3.75c0.291-0.77-0.201-1.32-1.171-1.32-1.22 0-1.502 0.54-1.04 2 0.50201 1.5817 0.1797 2-1.541 2-1.7937 0-2.0706-0.41896-1.5771-2.3856 0.37889-1.5096 0.05151-2.8397-0.89159-3.6224-0.819-0.68-1.49-2.12-1.49-3.21 0-1.122-0.851-2.1937-1.9754-2.4878-1.2873-0.33663-2.1975-1.7006-2.613-3.9157-0.46409-2.4738-1.2875-3.5622-3.0246-3.9982-1.313-0.33-2.387-1.02-2.387-1.53 0-2.6196-7.9532-8.9024-10.47-8.2708-2.0275 0.50888-3.0082 0.0804-4.6798-2.0446-1.9474-2.4757-2.5022-2.6352-7.0122-2.0149-2.983 0.41027-5.3952 0.26049-6.1707-0.38315-0.7003-0.5812-4.6245-1.1301-8.7204-1.2198-11.793-0.26-19.166-2.92-8.088-2.92 2.0575 0 4.2434-0.50245 4.8575-1.1166 3.195-3.195 28.334-0.52591 30.34 3.2213 0.55787 1.0424 2.0684 1.8952 3.3567 1.8952s2.9026 0.675 3.5873 1.5c0.68469 0.825 1.8321 1.5 2.5499 1.5 1.289 0 4.9133 3.9735 5.7466 6.3002 0.83465 2.3305 1.9631-0.29077 2.8018-6.5083 1.6243-12.041 2.1095-13.833 4.0241-14.857 2.9856-1.5978 7.5705 3.6424 5.3417 6.1052-1.4135 1.5619-1.4065 1.8751 0.075 3.3566 3.013 3.013 7.9384 6.3649 10.461 7.1188 1.375 0.41099 3.6945 1.5882 5.1544 2.6161 1.4599 1.0278 3.2245 1.8688 3.9213 1.8688 0.69679 0 1.9773 0.59748 2.8456 1.3277 0.86831 0.73026 5.6287 2.5969 10.579 4.148 4.95 1.5512 10.575 3.4451 12.5 4.2087 4.9477 1.9626 37.694 10.357 42.5 10.894 2.2 0.2461 8.275 1.1234 13.5 1.9494 18.204 2.8781 38.241 4.3642 52.485 3.8925 24.143-0.79947 26.101-1.0516 35.312-4.5487 1.2634-0.47966 3.9634-0.88642 6-0.90391 5.9995-0.0515 7.6033-1.9398 6.8745-8.0936-0.49956-4.218-0.29141-5.4472 1.1066-6.5349 1.6276-1.2664 1.6261-1.4141-0.0281-2.6999-2.0145-1.5658-2.5084-13.515-0.74986-18.14 0.68734-1.8078 0.65837-3.2692-0.0926-4.6725-0.79029-1.4767-0.79033-2.3443-0.00014-3.1345 0.61-0.599 1.1-2.785 1.1-4.856 0-2.7885 0.53889-4.0532 2.0781-4.877 3.7805-2.0233 5.1981-0.50428 4.4786 4.7989-1.4388 10.603-1.6631 17.156-0.75791 22.136 0.87548 4.8168 0.75663 5.4817-1.4483 8.1022-1.4526 1.7263-1.9966 3.1053-1.3763 3.4887 0.56419 0.34869 1.0258 1.7018 1.0258 3.0069 0 4.2937 4.9803 6.7222 14.567 7.103 4.8601 0.19309 9.61 0.96323 11.286 1.8298 1.5916 0.82304 3.1239 1.2663 3.4051 0.98512 0.28123-0.28123 2.6764 0.86172 5.3226 2.5399s6.0731 3.0512 7.6155 3.0512c1.5423 0 2.8042 0.4749 2.8042 1.0553 0 0.58043 2.475 2.1884 5.5 3.5733 4.464 2.0437 5.5 2.9751 5.5 4.9447 0 1.3347 0.5846 2.4267 1.2991 2.4267 1.2634 0 3.7009 5.269 3.7009 8 0 0.7469-1.56 2.7869-3.4667 4.5334-3.1188 2.8567-3.3272 3.3656-2.0763 5.071 1.1981 1.6335 1.174 2.1355-0.17439 3.6303-1.1836 1.3121-1.4184 2.9705-0.96397 6.8075 0.58833 4.9676 0.529 5.1152-2.8589 7.1141-3.23 1.9-4.72 4.84-2.46 4.84 1.5861 0 1.1695 1.969-1 4.7271-1.1 1.3984-2 3.368-2 4.3769 0 2.2133-3.8786 9.8959-4.9961 9.8959-1.35 0-9.4686 8.3453-10.945 11.25-0.76852 1.5125-1.7826 2.75-2.2536 2.75-0.47094 0-3.6811 2.6279-7.1337 5.8399-3.4526 3.2119-7.116 6.3091-8.1408 6.8827-1.1524 0.64493-1.9454 2.3276-2.0782 4.4101-0.11815 1.852-2.06 8.5423-4.3153 14.867-5.0498 14.162-5.0534 13.679 0.11995 15.896 4.4921 1.9255 10.56 7.9163 13.211 13.044 0.87024 1.6829 2.0412 3.0597 2.602 3.0597 8.5939 0 7.0537 13.412-1.8252 15.894-2.7006 0.75485-4.8916 2.1782-6 3.8977-2.9565 4.5866-11.553 12.877-15.391 14.842-2.0046 1.0266-5.4786 4.1988-7.72 7.0493-3.65 4.6417-4.8352 5.4165-11.355 7.4228-10.194 3.1368-25.607 25.033-29.831 42.379-2.5836 10.61-4.2606 15.325-6.9284 19.483-1.6615 2.5892-3.0209 4.9858-3.0209 5.3257 0 0.33992-1.1539 2.3184-2.5642 4.3966-4.23 6.22-8.44 16.27-8.44 20.11 0 1.4063-0.40932 3.9388-0.9096 5.6279-3.51 11.851-3.4085 11.698-11.59 17.413-4.1772 2.9176-31.665 6.3936-33.786 4.2724-0.46009-0.46009-2.4965-0.24377-4.5254 0.48071-4.9229 1.7579-9.3423 1.7273-12.825-0.0888-1.5754-0.82161-3.6579-1.4966-4.6279-1.5-0.96996-0.003-2.545-0.42937-3.5-0.94664-0.95504-0.51726-3.7714-1.6642-6.2587-2.5489-2.4872-0.88462-5.1872-2.6638-6-3.9538-6.9386-11.013-15.655-21.583-17.766-21.544-1.082 0.02-6.2145 11.203-6.2128 13.537 0.00082 1.1275-0.37099 2.4775-0.82622 3-1.3594 1.5602-7.1723 15.344-7.1723 17.007 0 0.84658-1.575 4.0014-3.5 7.0106-1.925 3.0093-3.5 5.7592-3.5 6.111 0 1.8892-15.514 15.268-19.264 16.613-2.334 0.84-6.265 2.29-8.74 3.24-5.9064 2.2587-17.242 2.7707-23.224 1.0489zm20.224-4.5c6.1173-1.5216 13.435-4.5226 15.439-6.3317 1.0662-0.9625 2.2654-1.75 2.6648-1.75 2.4669 0 12.316-17.241 14.853-26 0.71676-2.475 1.9713-6.0263 2.7878-7.8917 3.7163-8.4902 2.6952-12.47-3.5178-13.713-2.9933-0.59866-3.1755-0.41983-6.2337 6.1214-1.7327 3.7059-5.2522 8.9859-7.8213 11.733-3.738 3.9974-4.671 5.701-4.671 8.5294 0 4.6525-1.8656 5.1114-5.3996 1.3283-3.267-3.49-4.42-8.83-4.181-19.35 0.092-4.09-0.256-6.75-0.884-6.75-0.57 0-1.036-1.54-1.036-3.43 0-4.53-8.932-10.57-15.626-10.57-2.7283 0-1.2985 1.7916 1.9102 2.3936 13.488 2.5304 5.5365 12.694-8.6651 11.075-8.804-1.0037-9.9695-1.8214-9.3353-6.55 0.60436-4.5058-1.5443-4.2226-4.7185 0.6218-2.0707 3.1602-1.4782 5.1624 1.9087 6.4501 1.3891 0.52813 2.5256 1.5982 2.5256 2.378 0 2.0384-2.7542 2.8022-5.0146 1.3906-5.7185-3.5713-7.8823 20.462-3.0119 33.453 4.656 12.42 23.07 20.59 38.026 16.87zm124-41.177c1.375 0.008 4.3231 0.2971 6.5513 0.6415 7.9435 1.2278 17.449-9.6328 17.449-19.937 0-1.3833 0.51324-3.7737 1.1405-5.3121 0.62729-1.5384 1.7737-4.372 2.5475-6.297 0.77384-1.925 1.8367-4.175 2.3619-5 4.1424-6.5072 3.8788-12.5-0.54989-12.5-2.4489 0-3.0581 0.45923-3.3165 2.5-0.61467 4.855-2.2724 10-3.222 10-1.3278 0-1.2141-6.3474 0.13788-7.6993 1.8299-1.8299 0.0697-5.3007-2.6882-5.3007-2.6462 0-3.3599 1.1867-5.5469 9.2238-1.2109 4.4498-3.1828 6.6878-4.3 4.8802-0.27488-0.44476 0.38935-3.2376 1.4761-6.2063 2.2565-6.1644 1.9786-7.9041-1.259-7.8824-3.4754 0.0233-4.417 1.0498-5.9416 6.477-1.6013 5.7004-5.7004 8.3212-4.4686 2.8571 2.1966-9.7441 2.2804-9.351-1.9903-9.3341-5.6034 0.0221-6.239 0.79521-6.5773 8.0006-0.24495 5.2165-0.64128 6.5284-2.0535 6.7974-2.1222 0.40427-2.5945-9.5688-0.55-11.613 1.913-1.913-0.42606-3.3783-4.8182-3.0182-3.7938 0.31101-3.8888 0.41456-4.1893 4.5682-0.16912 2.3375-0.79279 4.25-1.3859 4.25-0.69699 0-0.86798-1.5354-0.48344-4.3409 0.71-5.17-0.41-6.66-5.02-6.66-3.1048 0-3.3 0.20707-3.3 3.5 0 1.925-0.42344 3.5-0.94098 3.5-1.7159 0-2.0484-1.732-0.94194-4.906 1.31-3.77-0.11-6.09-3.74-6.09-2.05 0-2.38 0.48-2.38 3.5 0 1.925-0.45 3.5-1 3.5s-1-1.6046-1-3.5657c0-1.9612-0.46583-4.4362-1.0352-5.5-1.291-2.4122-3.9596-2.5358-3.9801-0.18426-0.0283 3.2299-1.8576 5.0277-3.0527 3-1.7043-2.8918-3.4124-2.0603-9.8039 4.7722-8.8615 9.473-9.268 12.835-2.0002 16.543 5.563 2.838 14.872 11.707 14.872 14.169 0 1.7853-0.25086 1.7328-3.0767-0.64506-1.69-1.43-3.74-2.59-4.55-2.59-1.5716 0-8.8003-6.9196-11.438-10.948-2-3.05-4.93-2.18-4.93 1.47 0 2.3342 5.1644 8.475 7.1274 8.475 0.37493 0 2.033 2.3944 3.6846 5.3209s5.6759 7.6366 8.9429 10.467l5.94 5.1459 14.403 1.4692c7.9214 0.80806 17.103 1.2481 20.403 0.97779 3.3-0.27029 7.125-0.48453 8.5-0.47611zm-8.25-23.637c-5.47-2.24-4.61-3.26 2.75-3.26 6.8494 0 7.9401 0.87793 4.2775 3.4433-2.5727 1.802-2.1821 1.8118-7.0275-0.17618zm-73.204 3.5224c0.38783-1.7658 1.4776-4.3533 2.4218-5.75 0.94415-1.3967 3.4254-5.2395 5.5138-8.5395 6.2726-9.9116 14.501-20.448 17.345-22.212 5.9255-3.6737 7.3189-5.4563 5.4029-6.9114-2.309-1.7535-6.6981-1.7219-8.176 0.0588-0.65535 0.78965-2.4781 1.7183-4.0505 2.0636-5 1.11-22.01 19.53-22.01 23.84 0 0.67504-0.61097 2.115-1.3577 3.1999-0.74674 1.0849-1.9304 3.7725-2.6303 5.9725-0.69994 2.2-1.7065 4.5474-2.2368 5.2164-1.5172 1.914-0.47298 3.4464 3.2692 4.7974 5.2238 1.8859 5.7389 1.7493 6.5019-1.7243zm-2.55-27.73c0-4.4825 17.853-19.607 25.492-21.596 2.9646-0.77198 4.0912-1.618 4.3275-3.25 0.39755-2.7448-0.94662-2.8284-3.3196-0.20632-2.4084 2.6613-4.1122 2.5214-6.092-0.5-1.1019-1.6818-2.5548-2.5-4.439-2.5-7.5211 0-12.994-20.775-8.6384-32.792 0.69818-1.9263 0.14798-2.9158-3.45-6.2046-4.845-4.4288-3.6436-6.4837 2.0648-3.5318 1.9032 0.9842 6.7011 1.8099 12.266 2.1109 9.335 0.50493 19.056 3.4431 24.89 7.523 7.1564 5.0045 17.792 4.6646 28.148-0.89976 8.8328-4.7459 8.571-5.202-3-5.227-15.838-0.0343-24.566-3.8501-31.404-13.729-1.9483-2.8147-3.6854-4.2522-5.1438-4.2566-1.2111-0.004-3.552-0.93037-5.202-2.0594-1.65-1.1291-3.9-2.475-5-2.991s-2.675-1.3193-3.5-1.7852c-4.643-2.6216-6.636-3.2552-13.142-4.178-11.102-1.5745-16.619-5.0244-20.608-12.885-9.0388-17.814 2.6796-37.172 16.459-27.19 4.29 3.1077 5.8543 5.3597 11.875 17.096 11.61 22.631 19.879 26.959 25.086 13.128 5.6355-14.97 24.669-25.66 45.537-25.577 13.203 0.0525 16.332-1.4928 6.1229-3.0238-6.4261-0.96364-11.283-3.4901-11.969-6.2268-0.4-1.58-1.31-2.3-2.91-2.3-1.2829 0-2.6107-0.45-2.9506-1-1.3552-2.1927-9.2728 0.41465-8.7351 2.8765 0.14571 0.66717-1.2845 1.8604-3.1783 2.6517-2.2202 0.92767-3.5575 2.2282-3.7649 3.6614-0.19676 1.3594-1.7372 2.9662-3.966 4.1369-2.0044 1.0528-4.1322 2.985-4.7286 4.2938-0.6 1.31-1.77 2.38-2.61 2.38-0.92 0-1.52 0.91-1.52 2.3 0 2.4521-4.2508 4.6698-9.071 4.7325l-2.429 0.0316 2.9116 2.5595c2.341 2.0578 2.635 2.7374 1.5 3.4672-2.6926 1.7313-4.4011 0.521-4.7218-3.3452-0.20391-2.4578-0.9748-4.0944-2.25-4.7769-2.8271-1.513-2.3726-3.6312 0.92057-4.2899 1.5732-0.31464 4.2257-1.7209 5.8944-3.125s3.5315-2.5529 4.1396-2.5529 1.1056-0.45 1.1056-1-0.675-1-1.5-1-1.5 0.45-1.5 1-0.4813 1-1.0696 1c-2.869 0-0.16288-4.6264 3.802-6.5 5.0623-2.3921 5.402-3.5 1.0732-3.5h-3.1943l3.4443-2.5093c6.9145-5.0375 10.803-9.1014 9.9808-10.432-0.61924-1.002-1.5053-0.77247-3.925 1.0165-4.453 3.2922-6.4853 1.2737-3.1964-3.1748 2.0896-2.8263 2.1572-3.2571 0.73423-4.6801-1.4229-1.4229-1.6608-1.3211-2.5835 1.106-1.642 4.3189-6.0658 2.8045-6.0658-2.0765 0-4.5065-2.8313-8.112-8.4621-10.776-3.4976-1.6546-6.1812-3.7795-7.5303-5.9623-1.1528-1.8653-5.7344-6.2312-10.181-9.7019-4.4469-3.4707-10.389-8.2586-13.206-10.64-32.116-27.154-62.922-35.266-73.592-19.379-2.3225 3.4581-3.317 6.8206-7.0903 23.973-2.5188 11.45-0.29503 13.463 3.0018 2.7185 2.519-8.18 4.07-10.31 4.07-5.6 0 1.65-0.45 3.2781-1 3.618-1.3041 0.806-1.3041 8.5 0 8.5 0.55 0 1-1.9699 1-4.3776 0-4.7704 2.1889-7.8335 4.1771-5.8454 0.78976 0.78976 0.62211 2.2675-0.60528 5.335-2.478 6.19-2.961 36.89-0.581 36.89 0.40889 0 0.97322-5.7375 1.2541-12.75 0.28084-7.0125 0.83872-13.538 1.2397-14.5 1.595-3.83 2.515-1.34 2.515 6.81 0 5.4514 0.36308 8.3346 1 7.941 0.55-0.33992 1-2.3547 1-4.4772 0-4.74 0.811-7.02 2.5-7.02 2.0451 0 2.5194 2.6246 1.4723 8.1461-1.6503 8.7022-0.97071 19.589 1.1414 18.284 0.487-0.3 0.886-3.65 0.886-7.44 0-6.37 1.399-11.99 2.983-11.99 0.3643 0 0.6822 6.1875 0.70644 13.75 0.03598 11.225 0.38485 14.485 1.8997 17.75l1.8557 4 0.52736-13.703c0.34199-8.886 0.9609-14.135 1.7607-14.933 1.8028-1.799 2.7837-0.22538 1.4882 2.3875-1.1929 2.406-1.0188 16.993 0.26854 22.498 1.201 5.13 2.511 3.8 2.511-2.56 0-3.5594 0.56855-6.5606 1.4682-7.75 1.325-1.7518 1.4713-1.024 1.5 7.4639 0.03159 9.3408 0.04545 9.3926 2.0318 7.595 1.9583-1.7722 2-1.7466 2 1.2284 0 2.2336 0.5494 3.182 2.0742 3.5808 1.1408 0.29833 2.3216 1.4884 2.624 2.6447 0.3943 1.5078 1.0773 1.9348 2.4154 1.5101 1.6916-0.53691 1.8073-0.16639 1.2401 3.972-0.389 2.84-0.24 4.56 0.394 4.56 1.206 0 6.253-9.97 6.253-12.35 0-0.91 0.45-1.65 1-1.65 2.3323 0-0.01274 10.456-4.09 18.236-3.257 6.2151 0.67702 15.476 10.193 23.996 7.5664 6.7744 8.2752 8.0715 4.1467 7.5887l-2.75-0.32-0.71574 18c-0.39366 9.9-1.154 20.025-1.6897 22.5-0.53569 2.475-1.2465 6.1875-1.5796 8.25-0.75394 4.6687-2.5033 4.784-4.9055 0.32335-1.3439-2.4955-1.6674-4.4656-1.1905-7.25 2.6907-15.709 1.7672-22.883-4.4822-34.823-5.0066-9.5655-5.3409-9.1286-6.1109 7.9846-0.37081 8.2415-1.6607 20.959-2.8665 28.262-3.0886 18.706 0.2038 25.183 14.151 27.841 7.2578 1.3829 10.95 2.9952 17.158 7.4923 3.8204 2.7675 7.7316 2.7538 7.7316-0.0272zm-6.08-34.3-3.09-4.25 0.7-14.5c0.38532-7.975 0.87308-14.688 1.0839-14.917 0.94317-1.0252 1.2986 1.3157 2.2286 14.677 0.80201 11.522 1.3883 14.882 3.0729 17.608 4.2262 6.8382 0.8263 8.0144-3.9958 1.3824zm-62.754-150.81c0.18378-1.2557 0.93451-2.4809 1.6683-2.7228 0.90651-0.29877 1.227 0.29208 1 1.8433-0.18378 1.2557-0.93451 2.4809-1.6683 2.7228-0.90651 0.29877-1.227-0.29208-1-1.8433zm191.84 182.81c2.1205-3.4779 2.5501-5.75 1.0872-5.75-1.4197 0-4.9657 6.1816-4.3967 7.6646 0.73705 1.9208 1.0985 1.7117 3.3094-1.9146zm-27.21-2.95c0.72219-0.72219 1.2-4.2173 1.2-8.7778 0-6.3546 0.32467-7.8558 2.0114-9.3 4.072-3.4866 4.6224-2.5359 2.4236 4.1866-2.3806 7.2784-1.6403 13.509 1.6506 13.892 3.7552 0.43652 5.1963-2.0195 5.4552-9.2973 0.14807-4.1621 0.76424-6.9512 1.7544-7.9414 0.83942-0.83941 1.7298-2.0967 1.9786-2.7941 1.2595-3.53 1.7719 0.93019 0.81525 7.0961-1.56 10.06-1.44 12.14 0.71 12.14 3.3153 0 4.2-2.1485 4.2-10.2 0-4.5333 0.4188-7.8 1-7.8 0.55 0 1 1.3796 1 3.0657 0 3.4004 1.5468 6.9343 3.0352 6.9343 0.53065 0 0.96482-1.6053 0.96482-3.5674 0-3.0753 0.26754-3.4825 1.9397-2.9518 2.3464 0.74474 4.0459-4.1719 4.0547-11.731 0.005-4.6247 1.2068-6.274 2.3672-3.25 0.95517 2.4892 2.4478 1.7072 4.2952-2.25 1.9647-4.2086 6.9806-11.722 11.882-17.799 2.4886-3.0854 3.0393-4.4538 2.3139-5.75-2.5748-4.601-7.3459-0.68248-13.709 11.259-6.2043 11.644-7.3832 12.052-10.225 3.54-2.6966-8.0763-4.9007-8.5496-8.1492-1.75-1.8649 3.9036-2.8039 4.8095-5.2693 5.0837-1.65 0.18352-3.6896 0.95213-4.5324 1.708-1.3021 1.1678-2.2032 1.1432-5.9968-0.16375-5.4859-1.8901-5.368-1.7674-4.0555-4.2198 1.4178-2.6492 0.44341-4.966-2.2499-5.3496-5.9294-0.84465-2.4386-7.3617 6.3346-11.826 3.025-1.5392 8.3915-5.315 11.926-8.3907 3.534-3.0756 7.1941-5.592 8.1334-5.592 4.0274 0 2.6745-8.3904-1.616-10.022-4.046-1.5383-14.808 3.4853-17.963 8.3851-1.1108 1.7251-4.4858 4.5678-7.5 6.317-10.429 6.0524-12.501 7.4526-17.284 11.678-4.7975 4.2391-7.2241 5.6974-15.697 9.4333-6.52 2.88-10.93 4.21-13.93 4.21-2.2564 0-2.8222 0.64277-3.9612 4.5-0.73078 2.475-1.659 4.5-2.0628 4.5-0.96477 0-6.0452 4.3773-6.0452 5.2086 0 2.6998 8.6108 4.4004 11.441 2.2596 3.0963-2.3419 5.5589-1.8692 5.5589 1.067 0 2.1545-0.2771 2.3869-1.8454 1.5476-3.7499-2.0069-10.756 9.3019-8.8461 14.279 2.0586 5.3647 8.6543-0.0356 8.6859-7.1117 0.003-0.6875 0.48741-1.25 1.0763-1.25 0.67178 0 0.97748 2.2848 0.82046 6.1321-0.27215 6.6684 1.1497 8.8679 5.7325 8.8679 2.7513 0 3.184-1.3659 3.5406-11.176 0.22656-6.2326-0.057-8.0476-1.5078-9.6507-1.3443-1.4854-1.4829-2.1623-0.55973-2.7328 1.1488-0.71002 1.7353-0.1637 6.2988 5.8674 0.99346 1.313 1.133 2.818 0.5099 5.5-2.2478 9.6751-0.79082 14.192 4.5774 14.192 4.1922 0 6.5351-10.317 4.1443-18.25-1.4747-4.8932-0.89022-5.8342 2.351-3.7846 1.1869 0.75055 1.4172 3.0289 1.1682 11.559l-0.31013 10.624 2.8318-0.32432c2.8263-0.32369 2.8324-0.34035 3.122-8.5607 0.25145-7.1359 0.5664-8.3842 2.3574-9.3426 3.1446-1.683 4.1396 0.14742 2.3754 4.3698-2.93 7.03-1.64 14.71 2.48 14.71 0.88 0 2.14-0.54 2.8-1.2zm-55.235-16.292c0.8728-4.6524 0.0182-6.5075-2.998-6.5075-4.3116 0-5.8309 4.7356-2.5666 8 2.9857 2.9857 4.8166 2.4946 5.5646-1.4925zm95.918-34.253c4.101-4.2446 6.5175-7.5815 6.5175-9 0-2.5327 2.6778-3.0323 6.1868-1.1543 3.1982 1.7116 7.9871 1.3109 14.936-1.25l6.3769-2.35-9.3396-0.65684c-10.727-0.75445-20.556-4.7539-24.374-9.9185-3.1622-4.2771-8.7862-4.2667-8.7862 0.0163 0 1.6175 0.45 3.2191 1 3.559 1.4567 0.9003 1.1659 4.6966-0.5318 6.9411-0.80751 1.0676-1.4682 3.6286-1.4682 5.691s-0.40666 4.0012-0.90368 4.3084c-0.9962 0.61568 1.9522 10.534 3.1362 10.55 0.40289 0.005 3.6654-3.0257 7.25-6.7359zm-44.115-19.185c6.6688-3.387 9.3484-6.1011 8.0682-8.1725-0.36101-0.58412 0.74318-3.0109 2.4538-5.3928s3.1101-4.6377 3.1101-5.0129c0-0.37518 0.95887-2.0288 2.1308-3.6746 13.56-19.05-22.6-39.41-48.12-27.1-26.776 12.907-29.858 42.032-5.5 51.989 6.9516 2.8418 30.271 1.2126 37.868-2.6455zm-34.774-2.0786c-15.711-6.1351-18.683-21.031-6.8164-34.166 24.46-27.074 64.988-9.0102 48.904 21.797-6.1932 11.862-27.414 18.099-42.088 12.369zm116.97-0.0589c2.2362-1.0624 4.7548-1.9316 5.597-1.9316 7.4016 0 20.237-18.535 20.298-29.313l0.039-6.8128-5.076-4.8422c-8.3611-7.9759-19.209-9.3904-30.536-3.9818-29.47 14.072-37.082 40.624-13.566 47.325 10.452 2.9786 16.273 2.8674 23.243-0.44405zm-20.825-2.295c-14.598-5.465-14.425-17.145 0.46085-31.188 24.179-22.809 51.002-11.491 37.221 15.705-6.3001 12.433-25.145 20.176-37.681 15.482zm21.261-5.638c3.205-2.2822 4.2068-6.8881 4.4587-20.499 0.0814-4.4 0.49576-9.1813 0.92076-10.625 0.77061-2.618-4.4368-4.9892-6.5957-3.0033-0.75732 0.69661 1.7784 9.0387 3.1854 10.48 0.45714 0.46814 0.42563 2.2652-0.07 3.9934-0.49565 1.7282-0.90118 4.5527-0.90118 6.2767 0 3.534-2.4251 9.9467-4.5743 12.096-3.4187 3.4188-0.76211 4.3706 3.5763 1.2814zm10.574-7.2486c5.3472-6.2522 5.7138-9.9952 1.245-12.713-4.39-2.67-4.82-2.04-4.82 7.02 0 8.4446 0.51695 9.2674 3.5757 5.691zm6.43-16.3c0-3.3869-3.0603-7.5822-5.2975-7.2623-3.3555 0.47977-3.3892 3.8513-0.0651 6.5113 3.3288 2.6637 5.3627 2.9485 5.3627 0.75101zm-60.223 20.379c-1.1656-3.4969-11.419-7.0685-14.905-5.192l-3.3712 1.8145 5.074 0.535c2.7907 0.29426 6.1657 1.2939 7.5 2.2214 2.8107 1.9538 6.2725 2.3308 5.7026 0.62111zm-97.78-3.77c0-4.6795-0.91659-5.5062-3.837-3.4606-2.5941 1.817-2.7143 3.1349-0.50798 5.5728 2.7535 3.0426 4.345 2.2689 4.345-2.1122zm-20.653-6.3781c-0.37704-0.64949-2.5618-3.678-4.855-6.7299-2.2932-3.052-5.8597-8.5715-7.9255-12.266-5.6526-10.108-8.7475-10.862-11.435-2.7862-3.4395 10.334 1.377 16.982 14.676 20.256 2.5811 0.63543 5.5537 1.7417 6.6058 2.4583 2.1455 1.4613 3.9845 0.87673 2.9341-0.93272zm115.11-1.6463c0.8479-0.7037 1.5416-2.7469 1.5416-4.5404 0-2.4199 0.51581-3.3958 2-3.7839 1.3592-0.35545 2-1.364 2-3.148 0-1.5905 0.68964-2.8762 1.75-3.2623 0.9625-0.35053 3.1689-1.8594 4.9031-3.353s3.7592-2.9364 4.5-3.2063c2.4546-0.89411-0.45573-2.5109-5.7914-3.2173-4.5132-0.59753-5.3165-0.42586-6.6032 1.4111-2.6048 3.719-8.9291 3.314-10.689-0.68442-1.5779-3.585-2.615-3.9083-5.5107-1.7182-1.0676 0.80751-3.4301 1.4682-5.25 1.4682-3.9867 0-3.9801-0.0713-0.63086 6.7743 1.611 3.2928 2.8349 7.7152 3.0718 11.1 0.2166 3.0943 0.52922 6.076 0.6947 6.626 0.43408 1.4427 12.185 1.0524 14.014-0.46544zm81.159-3.6481c0.92238-3.6751-1.6608-6.2007-3.975-3.8865-1.6127 1.6127-2.2538 6.5557-1.0114 7.7982 1.163 1.163 4.3378-1.3276 4.9864-3.9116zm-196.19-6.13c-2.0348-3.7125-5.2249-9.5247-7.0892-12.916-7.5783-13.786-18.026-16.749-21.189-6.009-1.9245 6.5344 0.56393 9.1714 2.8875 3.0599 2.948-7.7539 9.669-5.1067 16.088 6.3368 3.38 6.03 10.99 16.28 12.08 16.28 0.50786 0-0.74146-3.0375-2.7763-6.75zm144.1-14.27c1.98-1.64 0.91-2.98-2.37-2.98-2.95 0-7.16 2.46-7.16 4.19 0 1.3896 7.5508 0.42936 9.5282-1.2118zm-51.72-5.23c0.26729-1.4024-0.37622-1.75-3.2398-1.75-3.7535 0-4.3943 0.77898-2.335 2.8383 1.7098 1.7098 5.1702 1.0343 5.5748-1.0883zm76.782-3.5c0.2928-0.9625 1.251-3.2152 2.1293-5.006 0.87832-1.7908 1.319-3.5339 0.97939-3.8735-1.2944-1.2944-3.8536 0.74374-5.3096 4.2283-1.3464 3.2223-1.8302 3.564-4.3368 3.0627-3.2032-0.64064-4.1602-0.0927-3.3816 1.9363 0.83955 2.1878 9.2375 1.8934 9.9192-0.34777zm-131.09-9.25c0.33992-0.55 1.9415-1 3.559-1 3.1608 0 3.7578-1.0772 1.5928-2.874-1.0286-0.85368-1.7765-0.64566-3.155 0.87755-1 1.1-2.42 2-3.15 2-0.74 0-1.35 0.45-1.35 1s0.42344 1 0.94098 1 1.2191-0.45 1.559-1zm44.208-65.422c-2.05-1.56-18.71-2.08-18.71-0.59 0 0.81953 4.4321 1.2988 16.5 1.7841 3.5686 0.14352 3.8068 0.0143 2.2084-1.198zm-21.71-1.25c0-0.36919-0.74474-1.4942-1.655-2.5-1.49-1.65-1.49-1.83-0.05-1.83 2.144 0 3.205-1.909 1.8269-3.2871-1.67-1.66-1.35-2.71 0.82-2.71 1.0675 0 2.2191-0.45 2.559-1 0.33992-0.55 0.14148-1-0.44098-1-0.58 0-1.06-0.67-1.06-1.49 0-0.81852 0.7875-1.4222 1.75-1.3416 0.9625 0.0807 2.875 0.0468 4.25-0.0752l2.5-0.22183-2.3949-0.95801c-1.3172-0.5269-3.2297-0.69305-4.25-0.36922-2.0982 0.66594-2.7359-2.8836-0.73971-4.1173 0.67432-0.41675 0.92243-2.4011 0.62745-5.0182-0.30476-2.7038-0.0665-4.4869 0.63463-4.7498 0.74361-0.27885 0.58406-0.98787-0.47263-2.1003-3.7479-3.9457 0.57819-11.955 5.9502-11.017 2.5097 0.43851 3.2457 0.25489 2.9213-0.72881-0.25553-0.77472-2.6611-1.5332-5.855-1.846-2.9817-0.29205-6.3213-1.0266-7.4213-1.6324-3.4293-1.8885-10.1-3.0289-12.507-2.1383-1.5485 0.57283-2.8041 0.40462-3.8898-0.52111-1.31-1.1-9.28-4.67-10.46-4.67-0.17004 0-0.27343 1.0125-0.22976 2.25 0.0607 1.7202-0.39151 2.1663-1.9206 1.8947-1.1-0.19544-4.25-0.57442-7-0.84219-7.4737-0.72772-4.3306 1.6997 3.3777 2.6086 7.0626 0.83275 8.1223 1.5175 5.8558 3.784-1.4049 1.4049-2.2228 1.475-5.5565 0.47619-4.645-1.3917-7.5064-1.5132-6.7483-0.2865 0.57449 0.92954 4.4202 1.86 11 2.6614 4.8325 0.58857 5.426 1.1083 3.1587 2.7662-0.97148 0.71037-1.6136 2.1682-1.427 3.2397 0.29916 1.7175-0.34131 1.9836-5.4107 2.248-6.5168 0.3399-7.9057 1.9274-1.6864 1.9274 2.235 0 4.575 0.51137 5.2 1.1364 0.625 0.625 1.9464 1.1364 2.9364 1.1364 2.0466 0 2.3201 1.0799 0.68713 2.7129-1.4845 1.4845-0.25648 3.2871 2.2393 3.2871 1.5533 0 1.8645 0.45318 1.3736 2-0.45047 1.4193-0.1797 2 0.93261 2 1.243 0 1.1228 0.44462-0.58068 2.1481-1.7697 1.7697-2.4784 1.9418-4.023 0.97715-1.3594-0.84898-2.4262-0.8759-3.8799-0.0979-2.6242 1.4044-1.4873 3.1311 1.8921 2.8737 4.5755-0.34859 6.159 0.0497 6.159 1.5493 0 0.79767-0.7875 1.9488-1.75 2.558-1.2532 0.79327-1.3952 1.2568-0.5 1.633 0.6875 0.28891 1.25 1.5646 1.25 2.835 0 2.4861 1.6092 3.4793 5.8318 3.5997 1.4675 0.0418 4.2432 0.68261 6.1682 1.4239 3.7175 1.4316 10 1.9522 10 0.82874zm-162-15.44c0-0.49-0.9-0.89-2-0.89-1.9492 0-2.606 1.0607-1.4022 2.2644 0.801 0.81 3.402-0.24 3.402-1.37zm184.5 0.11c0.36852-0.59628-0.84262-1-3-1s-3.3685 0.40372-3 1c0.33992 0.55 1.6899 1 3 1s2.6601-0.45 3-1zm-54.996-6.0071c0.74-1.19-0.46-1.63-6.5-2.39l-4.5-0.56284 3.5 1.8712c4.0245 2.1517 6.6122 2.5243 7.5044 1.0806zm47.412-0.63362c0.24-0.2-1.25-0.36-3.3-0.36-2.2382 0-3.478 0.40071-3.1054 1.0037 0.53512 0.86585 5.2074 0.3965 6.4144-0.64435zm-170.11-4.56c1.361-1.361 1.612-3.8 0.39113-3.8-1.7434 0-4.4577 2.7597-3.7849 3.8483 0.90966 1.4718 1.8875 1.4579 3.3938-0.0483zm126.97-0.6125c0.26449-0.79345-1.0255-1.1875-3.8875-1.1875-4.2546 0-4.4747 1.3093-0.38333 2.2807 2.6581 0.63109 3.7929 0.34063 4.2708-1.0932zm-142.31-6.12c0.555-0.9-3.092-4.07-4.681-4.07-1.195 0-0.92196 2.4555 0.42251 3.8 1.4327 1.4327 3.4592 1.5604 4.2577 0.26842zm226.04 84.93c-0.33992-0.55-3.0986-1-6.1304-1-3.5666 0-6.0419-0.52948-7.0124-1.5-1.3867-1.3867-7.4229-2.1176-13.217-1.6004-1.2982 0.11587-3.1784-0.52971-4.1783-1.4346-1.1989-1.085-2.5722-1.4059-4.0328-0.94232-3.01 0.96-15.93-2.85-15.93-4.7 0-0.5142-1.9125-1.8556-4.25-2.9809-5.1755-2.4916-9.0937-4.6384-13.868-7.5984-1.99-1.23-4.35-2.24-5.25-2.24s-1.63-0.45-1.63-1-0.60526-1-1.345-1c-0.73976 0-2.1128-0.84835-3.0511-1.8852-0.93836-1.0369-3.0437-2.1528-4.6786-2.4797-3.5747-0.71495-4.3744-2.4278-3.4453-7.38 0.65459-3.4893 0.79-3.6064 2.0995-1.8155 0.7699 1.0529 1.7018 1.6124 2.0709 1.2433 0.36909-0.3691 1.1612 0.29459 1.7603 1.4748 0.59909 1.1802 1.7643 2.4637 2.5893 2.852 0.825 0.38835 2.9752 1.478 4.7783 2.4214 2.1627 1.1316 4.2895 1.4932 6.25 1.0626 1.8634-0.40927 2.9717-0.25011 2.9717 0.42675 0 0.59371 0.83026 1.0795 1.845 1.0795 1.9725 0 5.155 2.9378 5.155 4.7586 0 0.60561 2.019 2.1095 4.4868 3.3419 2.4677 1.2324 4.7477 3.063 5.0666 4.0678 0.74302 2.341 4.2779 3.2265 7.6947 1.9274 2.3598-0.89719 2.9419-0.66772 5.01 1.9748 1.6273 2.0793 3.5433 3.1801 6.2909 3.6143 2.173 0.3434 4.297 1.1173 4.7199 1.7197 0.52178 0.74323 1.2002 0.53277 2.1102-0.65463 1.6236-2.1184 5.1953-2.301 5.9614-0.30478 0.41891 1.0917 1.2765 1.2382 3.5058 0.59883 1.8763-0.53812 3.3397-0.45796 4.0177 0.22007 1.4743 1.4743 9.1328 1.0358 11.057-0.63312 2.32-2.0126 4.3526-2.4774 6.3467-1.4514 1.21 0.62257 2.4629 0.42225 3.9725-0.63513 2.8356-1.9861 4.7601-1.9686 4.7601 0.0434 0 1.9523 7.5181 1.0596 10.079-1.1968 0.86831-0.76512 2.2183-1.3911 3-1.3912 0.78169-0.00002 2.6445-1.533 4.1395-3.4067 1.8935-2.3731 3.8656-3.609 6.5-4.0736 5.7664-1.0168 10.742-3.7563 11.078-6.0989 0.64564-4.5046 13.459-13.21 15.258-10.366 1.3228 2.0908 1.3016 2.1388-2.805 6.3408-2.0625 2.1104-4.4265 5.2473-5.2534 6.9708-1.0554 2.1999-2.3218 3.228-4.25 3.4501-2.1564 0.24843-2.7466 0.83939-2.7466 2.75 0 2.2596-1.4183 3.0633-4.4099 2.4987-1.4679-0.27704-13.944 4.2066-15.669 5.6309-0.86831 0.71718-1.9238 1.304-2.3456 1.304-0.42179 0-2.0605 0.92116-3.6416 2.047-3.17 2.25-12.4 4.95-16.93 4.95-1.5907 0-3.1703 0.45-3.5102 1-0.33992 0.55-1.4649 1-2.5 1s-2.1601-0.45-2.5-1zm-118.43-39.87c-0.55189-1.0312-3.0427-2.8335-5.5352-4.0051-5.1197-2.4065-6.2027-5.6624-2.2163-6.663 2.9384-0.73749 11.005 4.2657 10.211 6.3335-0.32054 0.83533 0.26854 1.6048 1.469 1.9187 2.3001 0.60149 2.5052 1.3898 0.80413 3.0908-1.7378 1.7378-3.5826 1.4748-4.7331-0.67495zm21.43-0.19c-1.65-1.0516-3.9073-2.3176-5.0162-2.8133-2.4323-1.0872-2.3223-9.8695 0.13541-10.813 2.0068-0.77007 4.3808 1.5272 4.3808 4.2392 0 1.4319 0.76034 2.5515 2 2.9449 1.1 0.34913 2 1.4779 2 2.5084s0.45 2.1517 1 2.4916c1.4297 0.88359 1.2378 3.5139-0.25 3.4269-0.6875-0.0402-2.6-0.93352-4.25-1.9852zm-36.38-14.99c-1.2414-1.6791-3.351-3.5513-4.6881-4.1605-1.34-0.61-2.43-1.66-2.43-2.33 0-0.67257-0.90206-1.4588-2.0046-1.7471-1.3952-0.36484-1.9272-1.2363-1.75-2.8666 0.262-2.41-1.73-2.97-5.245-1.48-1.768 0.74-4-3.37-4-7.37 0-2.8239-2.0672-7.9796-3.2045-7.9922-0.3875-0.004-1.7696-1.0203-3.0713-2.2578s-3.5722-3.1005-5.0455-4.1401c-3.1838-2.2465-3.5856-6.4792-0.84998-8.9549 3.157-2.86 5.171-1.52 5.171 3.45 0 1.3512 0.89747 2.1227 2.9456 2.5323 2.223 0.44459 3.1011 1.2971 3.5795 3.475 0.34862 1.5872 1.2843 2.8859 2.0794 2.8859 0.80616 0 1.7109 1.3269 2.0455 3 0.33 1.65 0.96386 3 1.4086 3 0.44472 0 0.95097 1.2375 1.125 2.75 0.28977 2.5184 0.71651 2.7757 5.0664 3.0548 4.5475 0.2918 4.75 0.43318 4.75 3.3157 0 4.2412 1.6798 6.8795 4.3802 6.8795 2.6396 0 5.0118 2.2707 6.5221 6.2432 2.293 6.031-2.8174 8.0681-6.7833 2.704zm-42.453-25.62c-0.367-0.36-0.667-1.94-0.667-3.5 0-3.096 1.961-3.7902 3.9469-1.3972 1.9423 2.3404-1.1783 6.9992-3.2803 4.8972zm10.333-2.33c0-2.2139 0.75168-2.4606 3-0.98469 1.3333 0.87528 1.3333 1.0941 0 1.9694-2.2483 1.4759-3 1.2292-3-0.98469zm19.464-0.059c-0.39586-0.64052-0.0996-1.5574 0.65836-2.0375 2.1138-1.3389 3.0575-1.0721 2.7014 0.76362-0.40244 2.0751-2.3972 2.8314-3.3598 1.2738zm-63.89-10.61c-0.85508-2.2283 0.66163-3.5776 3.5605-3.1674 1.5604 0.22077 2.4741 1.1003 2.6849 2.5847 0.40251 2.8341-5.1815 3.3552-6.2453 0.58278zm16.426-0.89c0-1.4514 0.43284-2.2915 1-1.941 0.55 0.33992 1 1.4915 1 2.559 0 1.07-0.45 1.94-1 1.94s-1-1.1516-1-2.559zm20.8-2.52c-1.6396-1.2238-2.476-2.6005-2.1292-3.5044 0.542-1.42-7.815-10.42-9.669-10.42-1.6307 0-2.0643 3.3857-0.54267 4.2372 1.6378 0.91656 2.1393 3.7628 0.66302 3.7628-0.48266 0-1.4153-0.64798-2.0726-1.44-0.65729-0.79198-2.1749-1.6348-3.3724-1.873l-2.177-0.44 2.25-0.74358c1.8302-0.60485 2.25-1.4836 2.25-4.7103 0-2.7457-0.38475-3.8288-1.25-3.5185-1.564 0.56078-4.75-1.0142-4.75-2.3481 0-1.8735 3.0722-2.1781 4.938-0.48957 1.223 1.1068 2.0897 1.3204 2.5218 0.62128 1.077-1.7427 4.4345-1.2134 6.3 0.99316 1.5647 1.8507 5.0799 3.8567 9.2402 5.2731 1.2348 0.4204 1.2095 0.52464-0.14301 0.58963-3.0974 0.14884-3.0085 3.0858 0.14778 4.8818 3.3139 1.8856 3.7351 3.3382 1.5049 5.1891-0.9431 0.7827-1.2705 2.1128-0.89159 3.6224 0.7185 2.8628 0.6204 2.8734-2.8185 0.30658zm-42.262-1.27c-2.286-1.67-1.222-3.65 1.962-3.65 2.947 0 4.0673 1.6115 2.4636 3.5438-1.4926 1.7985-2.0933 1.8131-4.4253 0.1079zm159.48-13.77c-1.3637-0.54409-3.2321-1.6704-4.152-2.5029-0.91993-0.83253-2.2925-1.3713-3.0501-1.1974-0.75763 0.17398-1.3642-0.13367-1.348-0.68367 0.0492-1.6657 15.02-0.13406 16.122 1.6494 1.7437 2.8214-3.0317 4.546-7.5718 2.7345zm-152.77-7.1c-3.557-1.7155-0.85259-4.7502 4.25-4.7692 1.1-0.004 3.35-0.12058 5-0.25887 2.6368-0.221 3.04 0.0988 3.3302 2.641 0.32477 2.8452 0.2635 2.8835-3.7498 2.3452-2.244-0.30098-4.3316-0.14007-4.6392 0.35758-0.6885 1.114-1.3264 1.066-4.1912-0.31567zm248.49-1.3773c-1.3114-1.3114 0.45095-3.4923 1.8702-2.3144 0.75472 0.62636 1.1256 1.5378 0.8242 2.0255-0.63262 1.0236-1.8312 1.1521-2.6944 0.28892zm-270.12-4.86c-2.173-3.32 0.324-11.54 3.505-11.54 1.645 0 3.3556 4.9242 2.1347 6.1451-0.60395 0.60395-0.84589 2.6004-0.54203 4.4729 0.68792 4.2391-2.5406 4.82-5.0978 0.9172zm35.385-6.04c0.685-0.82 1.865-1.5 2.622-1.5 0.758 0 1.378 0.68 1.378 1.5 0 0.95201-0.95805 1.5-2.6224 1.5-2.2177 0-2.4303-0.23152-1.3776-1.5zm224.75-0.2008c-3.0015-0.7647-1.9189-3.1586 1.9062-4.2147 4.7335-1.307 6.4732-0.34534 4.5785 2.5307-0.93081 1.4129-4.2081 2.264-6.4847 1.684zm-118.08-6.9659c-1.4563-1.4563-0.52902-2.4499 2.0062-2.1498 3.444 0.40771 4.3652 2.8164 1.0771 2.8164-1.3292 0-2.7167-0.3-3.0833-0.66667zm-6-1c-1.26-1.25-0.67-4.33 0.83-4.33 0.93333 0 1.5 0.94444 1.5 2.5 0 2.4279-0.97373 3.1929-2.3333 1.8333zm-39.041-2.866c-1.2309-3.2077-0.69713-4.6165 1.6242-4.2869 1.6444 0.23353 2.25 0.98881 2.25 2.8059 0 2.8759-2.9118 3.989-3.8742 1.481zm62.032 0.85736c-1.2287-1.2287-0.66493-4.108 0.9238-4.7177 2.28-0.871 2.42-0.799 2.42 1.278 0 2.0866-2.3149 4.4742-3.342 3.4471zm7.1503-1.7885c-2.3878-3.1869-0.0611-6.5504 4.4984-6.5029l3.1933 0.03327-2.2634 1.8879c-1.2449 1.0383-2.8199 2.0752-3.5 2.3041-0.96854 0.32601-0.95511 0.75738 0.0619 1.9898 0.71421 0.86548 0.93921 1.7923 0.5 2.0596s-1.5598-0.52999-2.4902-1.7718zm-55.31 0.47c-0.33992-0.55-1.4915-1-2.559-1-2.7936 0-2.393-1.6804 0.53388-2.2399 2.26-0.431 5.53 1.68 5.53 3.57 0 1.05-2.81 0.79-3.5-0.33zm-27.155-3.543c-0.326-0.849-0.341-1.794-0.035-2.1 0.876-0.876 2.69 0.609 2.69 2.202 0 1.9189-1.9076 1.8455-2.6549-0.10214zm5.3424 0.8973c-1.31-1.3-0.68-2.35 1.39-2.35 1.1638 0 1.9086 0.52417 1.6875 1.1875-0.48711 1.4613-2.1569 2.0931-3.0833 1.1667zm27.51-1.55c-1.4235-1.4235-1.5626-3.4579-0.29024-4.2442 1.7424-1.0769 4.0902 0.67453 4.0902 3.0512 0 2.5671-1.8462 3.1468-3.8 1.193zm87.3-4.385-3-2.405 3.1276-0.005c3.7046-0.0059 6.0825 2.1635 4.1348 3.7724-0.91519 0.75595-2.0873 0.3813-4.2623-1.3624zm56.199 1.378c-1.3114-0.83364-1.0096-0.94418 2.984-1.093 1.4758-0.055 2.8627 0.43801 3.0819 1.0956 0.43631 1.3089-4.0057 1.307-6.0659-0.0026zm-184.74-1.343c-2.5321-3.051-0.05431-8.8026 4.2504-9.8661 4.0796-1.0079 4.8553-2.5615 3.5368-7.0837-3.7403-12.829-2.2634-29.93 3.0288-35.069 3.3506-3.2541 3.4738-3.5985 2.1628-6.048-2.0216-3.7773 2.0139-7.2999 5.6405-4.9237 2.2215 1.4556 2.3086 1.3989 2.6102-1.6958 0.25667-2.6335 0.75572-3.2187 2.812-3.2978 7.5135-0.28889 8-0.44546 8-2.5747 0-1.8327 0.47177-2.0543 3.5968-1.6895 2.9717 0.34693 3.7389 0.04617 4.4144-1.7306 0.99749-2.6236 15.668-2.5351 19.749 0.11913 1.662 1.0809 2.7694 1.1973 4.1843 0.44013 1.06-0.565 3.29-1.028 4.96-1.028 1.6699 0 5.412-1.0834 8.3157-2.4075 2.9038-1.3241 7.4227-2.7261 10.042-3.1154 2.6193-0.38932 4.9745-1.0512 5.2338-1.4709 0.25935-0.41965 4.0788-1.3488 8.4877-2.0648 6.46-1.0478 8.02-1.6406 8.02-3.0429 0-1.5059 1.0824-1.7486 8-1.7938 8.4416-0.055164 9.8725 0.87612 5.1212 3.3331-3.4007 1.7586-4.7225 4.3947-2.6101 5.2053 0.81256 0.31181 1.2149 0.99163 0.89411 1.5107-0.35205 0.56963-1.1187 0.49945-1.9338-0.17704-2.3048-1.9128-6.9271-0.78837-7.291 1.7737-0.39104 2.7534-0.65623 2.7742-3.1804 0.25-3.7075-3.7075-10.125-2.1018-11.299 2.8271-0.44556 1.8709 0.11748 2.7234 2.8723 4.3488 5.3126 3.1345 4.295 10.246-1.1662 8.1502-1.1412-0.43793-1.4816-1.563-1.2008-3.9686 0.21558-1.8466 0.14482-3.3431-0.15724-3.3256-1.5694 0.09088-4.0492 2.9344-4.0492 4.6432 0 1.2239-1.2149 2.5277-3.25 3.4879-4.1075 1.938-5.5869 1.4345-4.9881-1.6979 0.52982-2.7716-2.1166-3.5893-3.1236-0.96511-0.31658 0.825-1.4346 1.5-2.4845 1.5s-2.4691 0.675-3.1538 1.5c-1.0382 1.251-0.90198 1.5 0.82085 1.5 1.1362 0 2.6538 0.83881 3.3724 1.864 1.5482 2.2085 7.8067 1.8257 7.8067-0.47752 0-1.929 4.6416-1.7627 5.3922 0.19314 0.46743 1.2181 1.3501 1.4121 3.857 0.84758 1.788-0.40263 4.8203-0.79431 6.7385-0.87041 2.7128-0.10762 3.9579-0.83613 5.6042-3.2791 1.9856-2.9465 2.2218-3.0367 3.8177-1.4592s1.8725 1.4728 4.4705-1.6915c2.891-3.5213 6.2691-3.7867 7.4962-0.58889 0.3 0.805 1.26 1.463 2.12 1.463 1.2389 0 1.3501-0.40452 0.53138-1.9343-1.4416-2.6937-1.4836-2.6614 2.9156-2.2418 2.7675 0.26392 4.4072 1.0733 5.4746 2.7025 0.83815 1.2792 3.0452 2.8759 4.9045 3.5482 3.5314 1.277 9.6372 9.8244 9.702 13.582 0.0433 2.5095 2.5887 5.6963 3.9017 4.8848 0.62545-0.38656 1.0665 0.20535 1.0665 1.4312 0 1.1497 0.675 2.3494 1.5 2.666 2.34 0.899 1.93 5.361-0.5 5.361-1.5476 0-2 0.66667-2 2.9471 0 1.6209-1.125 5.0629-2.5 7.6489s-2.5 5.2175-2.5 5.8478c0 0.63025-2.2038 3.5305-4.8973 6.4451l-4.8973 5.2991-6.3527-0.54075c-3.494-0.29741-6.8027-0.60483-7.3527-0.68316-4.2308-0.60249-14.183 1.5143-15.627 3.3241-1.6251 2.0354-1.6293 2.0349-2.8997-0.37489-1.6255-3.0832-2.859-3.879-6.0425-3.8979-1.5263-0.0091-3.5147-1.1022-4.8971-2.6921l-2.3275-2.6768 2.8971-2.3182c3.13-2.503 4.92-2.907 5.9-1.328 1.142 1.8478 4.2536 1.0491 4.8697-1.25 1.2202-4.5532 0.72196-6.4993-1.7868-6.9789-2.0755-0.39676-2.3935-0.1008-2.25 2.0942 0.24633 3.7682-3.0813 4.1891-3.5107 0.4441-0.24567-2.1424-0.91571-2.8804-2.8222-3.1085-4.5303-0.54188-5.1701-1.0145-4.0945-3.0245 2.1812-4.0755-4.1076-10.464-8.6027-8.7392-2.18 0.839-1.45 2.563 1.09 2.563 2.472 0 3.9182 1.9262 2.7645 3.6819-0.83 1.278-11.15 1.52-11.15 0.261 0-0.519-0.91-0.943-2.03-0.943-2.2426 0-4.0334-3.1451-2.1485-3.7734 1.3-0.43335 1.6202-3.837 0.42991-4.5713-0.4125-0.25448-2.5379 1.294-4.7232 3.441-4.3024 4.2272-6.8524 4.824-9.6793 2.2657-1.4756-1.3354-2.0906-1.4051-3.3287-0.37756-2.2451 1.8633-4.6928-0.4426-3.8853-3.6601 0.48524-1.9334 0.16844-2.5634-1.5097-3.0022-1.16-0.305-2.12-1.186-2.12-1.958 0-0.97581 0.72049-1.2216 2.3685-0.80796 1.821 0.45705 2.919-0.08529 4.75-2.3463 2.559-3.16 8.4363-5.0365 9.1486-2.921 0.70471 2.0932 3.5957-1.0979 3.0131-3.3258-0.35-1.353-0.01-1.963 1.1-1.963 1.04 0 1.62 0.856 1.62 2.393 0 2.2544 2.4753 4.3459 3.3297 2.8133 1.871-3.3562 1.5821-6.2894-0.72304-7.3397-1.3404-0.61075-2.6582-1.9556-2.9283-2.9886-0.36-1.372-1.41-1.878-3.89-1.878-4.3095 0-6.0756-1.6045-4.6658-4.2388 1.3121-2.4517 1.4383-2.3801-5.3778-3.0509-4.4749-0.44033-5.75-0.26228-5.75 0.80293 0 2.3162-1.9649 2.7398-4.6248 0.99697-2.81-1.846-5.37-1.39-5.37 0.959 0 0.966-0.92 1.531-2.5 1.531-1.38 0-2.5 0.417-2.5 0.927 0 0.757-5.42 4.073-6.65 4.073-0.19 0-0.35-0.727-0.35-1.617 0-1.1885-0.59587-1.4569-2.25-1.0137-1.2375 0.33164-2.7591 0.60912-3.3813 0.61663-0.6222 0.0075-1.6388 2.0292-2.2591 4.4927-0.84917 3.3724-1.8668 4.8612-4.1187 6.0257-2.23 1.154-2.99 2.252-2.99 4.322 0 1.5259-0.52093 3.2952-1.1576 3.9319-1.3281 1.3281 0.71205 4.6358 2.2667 3.675 1.7764-1.0979 3.3813 4.4783 1.6791 5.8342-3.6998 2.9471-3.028 11.17 1.2707 15.556 2.1676 2.2113 3.9343 4.3934 3.9258 4.8491-0.0468 2.5345-2.166 3.6498-7.1303 3.7527-4.4842 0.09295-5.3907 0.42632-5.6913 2.0932-0.89237 4.9477-6.8405 8.7813-9.2048 5.9324zm61.042-44.356c0-0.49851 0.9-0.67102 2-0.38337 1.1 0.28766 2 0.09344 2-0.43159s-1.575-1.0138-3.5-1.0862c-3.3089-0.12439-4.3283 0.64588-2.8333 2.1409 0.96 0.96 2.33 0.819 2.33-0.24zm33.541-29.16c0.97288-1.5742-0.10629-2.2063-2.4803-1.4528-1.1494 0.36482-1.8318 1.0809-1.5163 1.5913 0.7773 1.2577 3.1853 1.1742 3.9966-0.13853zm-44.156 73.627c-0.67058-1.7475 1.6316-6.7556 3.3651-7.3202 0.83393-0.27164 1.25 0.719 1.25 2.9762 0 4.6838-3.2947 7.785-4.6151 4.3441zm109.62-1.561c0-0.55 1.4625-0.99311 3.25-0.98469 2.4662 0.01162 2.8883 0.24909 1.75 0.98469-1.9655 1.2702-5 1.2702-5 0zm-137.53-1.044c-0.35481-0.57409-0.0967-1.7046 0.57366-2.5123 1.39-1.669 3.96-0.254 3.96 2.178 0 1.6053-3.5782 1.8691-4.5271 0.33375zm39.73-0.156c-1.76-1.76-1.4783-3.3988 1.05-6.1077 2.7936-2.9931 6.7537-2.9145 7.8898 0.15659 0.71664 1.9373 0.58814 2.0759-1.0913 1.1771-3.3371-1.786-7.4526 1.8931-5.554 4.9651 0.87 1.407-0.83 1.265-2.29-0.191zm-17.514-3.1755c-0.31058-0.80936 0.4686-1.8296 1.893-2.4786 2.7695-1.2619 3.3241 0.09373 0.99229 2.4255-1.7775 1.7775-2.2204 1.7857-2.8853 0.05303zm167.98-5.291c-2.65-2.647 0.15-9.333 3.91-9.333 3.4109 0 5.0407 2.5987 2.487 3.9654-1.23 0.658-2.07 2.103-2.07 3.57 0 2.3881-2.6456 3.4859-4.3333 1.7981zm-184.58-2.172c-0.82627-1.5439-0.6982-2.0956 0.60234-2.5946 1.6707-0.6411 3.5279 1.1467 2.9829 2.8714-0.57339 1.8146-2.5475 1.6622-3.5852-0.27677zm31.905-0.67174c-0.981-1.182-0.981-1.7959 0-2.978 1.5-1.812 3-1.068 3 1.489 0 2.5568-1.5049 3.3015-3.0091 1.489zm12.25 0.044c-1.92-2.223-1.57-2.533 2.82-2.533 3.3391 0 4.0135 0.31543 3.7414 1.75-0.41891 2.209-4.8752 2.7403-6.5648 0.7827zm-38.65-0.269c-0.33-0.328-0.6-1.407-0.6-2.395 0-0.98898-0.92888-2.2953-2.0642-2.9029-2.1022-1.125-2.0249-6.0818 0.13062-8.3767 1.5522-1.6526 5.9336-1.5888 5.9336 0.0863 0 0.89648-0.57524 1.318-1.3781 1.0099-2.027-0.77781-3.3915 1.069-2.8568 3.8664 0.29 1.533 1.15 2.449 2.29 2.449 2.309 0 3.2422 1.4803 2.4689 3.9166-0.63443 1.9989-2.9148 3.3617-3.9287 2.3479zm15.438-5.9954c0.0407-3.1339 4.2108-8.8526 5.7581-7.8963 0.75745 0.46814 0.59998 8.4765-0.18163 9.2366-1.9786 1.9242-5.6075 1.052-5.5764-1.3403zm13.001-2.6713c-1.5821-4.1612-1.4072-6.486 0.31114-4.1361 0.81808 1.1188 1.8433 1.538 2.6071 1.0659 0.94065-0.58135 1.077-0.17763 0.53931 1.5972-1.183 3.9054-2.3446 4.4002-3.4576 1.473zm127.04-0.289c-0.04-1.205-0.53-2.469-1.08-2.809-2.2401-1.3844-0.9901-4.252 2.125-4.875 4.7156-0.94313 5.875-0.77046 5.875 0.875 0 0.93026-0.94233 1.5-2.481 1.5-1.8928 0-2.6247 0.65195-3.0875 2.75-0.95358 4.3236-1.2676 4.9177-1.3526 2.559zm33.92-1.213c0-2.1552 4.5655-5.8643 5.7546-4.6751 1.0507 1.0507-2.0873 6.0192-4.0389 6.395-1.17 0.226-1.72-0.321-1.72-1.72zm-184-3.096c0-2 0.5-3 1.5-3 1.57 0 1.9214 1.7383 0.89301 4.4182-1 2.612-2.39 1.788-2.39-1.418zm34 2.0818c0-1.9528 1.2516-4.0443 2.1048-3.517 1.49 0.917 1.01 4.435-0.6 4.435-0.82 0-1.5-0.413-1.5-0.918zm98.026-4.0323c-1.5749-2.9427-0.86827-3.434 3.6769-2.5567 3.6504 0.70462 3.7014 0.76896 1.3249 1.6699-1.3595 0.51535-2.7736 1.4254-3.1425 2.0223-0.41253 0.66748-1.1283 0.23036-1.8592-1.1355zm-139.52-4.034c-0.35-0.559-1.73-1.016-3.07-1.016-1.6522 0-2.4459-0.56546-2.4563-1.75-0.0117-1.3409-0.21308-1.438-0.86127-0.41546-0.6332 0.99892-0.9966 0.75842-1.445-0.95633-0.74235-2.8387-0.77012-2.8153 2.5716-2.1733 1.5125 0.29055 2.75 1.1508 2.75 1.9117 0 0.76 0.85 1.383 1.89 1.383 1.0412 0 2.1465 0.66059 2.4563 1.468 0.65889 1.717-0.91574 3.0426-1.8393 1.5483zm146.54-1.457c-0.6576-0.79235-2.4002-1.5799-3.8724-1.75-2.3183-0.26792-2.6768-0.76584-2.6768-3.7174 0-4.0048-1.8586-5.0919-3.6905-2.1586-0.71 1.137-1.86 2.067-2.55 2.067-2.7157 0-0.70036-6.0126 3.0269-9.0308 1.9202-1.5549 1.9289-1.7111 0.23817-4.2914-1.9131-2.9198-3.1109-3.3693-3.8043-1.4278-0.24554 0.6875-0.83251 0.88803-1.3044 0.44563-0.47187-0.4424-0.23156-1.1915 0.53402-1.6647 1.1681-0.72194 1.1196-1.276-0.30201-3.4456-1.67-2.551-3.65-3.454-3.65-1.665 0 0.50574-2.3625 0.78241-5.25 0.61482s-6.2625-0.35638-7.5-0.41953c-3.2154-0.16408-2.9453-4.0745 0.51012-7.385 3.0752-2.9462 4.591-2.5667 6.1526 1.5405 1.0141 2.6674 3.0873 3.7836 3.0873 1.6623 0-0.60114 0.84702-0.79855 1.9391-0.45194 1.3145 0.41719 2.2674 0.0021 2.9581-1.2887 1.1126-2.0789-3.1535-6.9273-5.6188-6.3857-1.3803 0.30323-2.8049-4.1454-1.8317-5.7201 2.9202-4.725-3.7008-7.4656-14.947-6.1867-2.0662 0.23496 5.1119 4.0876 7.6276 4.094 2.9109 0.0073 5.6458 2.4106 3.9417 3.4638-0.56535 0.3494-1.9944 0.118-3.1757-0.51422-2.3862-1.277-4.1506 0.2235-3.194 2.7163 0.28 0.737 0.07 1.34-0.48 1.34-0.5447 0-1.2257-0.9-1.5134-2-0.29181-1.1159-1.364-2-2.4255-2-4.0025 0-6.0164-2.534-3.8854-4.8888 2.4107-2.6638 0.44542-3.6618-5.3773-2.7307-7.34 1.1747-5.35-2.7789 2.98-5.9228 5.2-1.962 10.51-2.0016 13.45-0.1004 1.13 0.7298 3.4 1.6581 5.05 2.0629 3.9568 0.97086 6.5 3.3655 6.5 6.1203 0 3.8334 4.0119 5.5956 10.107 4.4397 4.2544-0.80683 5.5317-0.71133 6.8867 0.5149 0.92 0.828 2.57 1.505 3.68 1.505 1.109 0 2.8177 0.88552 3.7971 1.9678 1.2391 1.3692 2.275 1.7071 3.405 1.1109 2.5181-1.3286 18.362-0.14679 20.205 1.5072 0.86963 0.78016 1.88 1.1196 2.2452 0.7544 0.36524-0.36523 3.0287-0.75534 5.9188-0.8669s7.1673-0.54797 9.5048-0.96979c4.1177-0.74307 4.25-0.685 4.25 1.8647 0 2.2574 0.42664 2.6317 3 2.6317 1.65 0 3 0.45 3 1 0 2.1553 0.18435 2.5673 2.0253 4.5269 1.818 1.9352 1.8765 4.1445 0.22437 8.4731-0.31489 0.825-0.61238 4.9703-0.66108 9.2117-0.11245 9.7924-1.6798 12.029-6.4535 9.209-3.4656-2.0472-4.3408-4.2205-2.5858-6.4207 1.4274-1.7895 2.5442-10.824 1.4236-11.517-0.43178-0.26686-0.54982-1.3847-0.26231-2.4842 0.38-1.438 0.03-1.999-1.23-1.999-0.96601 0-2.3542-0.7875-3.0848-1.75-1.1178-1.4726-1.3335-1.5043-1.3602-0.2-0.0175 0.8525 0.5007 2.0825 1.1515 2.7333 1.7873 1.7873 0.56007 2.2903-3.0569 1.2529-1.7826-0.51124-3.8903-0.6804-4.6838-0.37591-0.93284 0.35797-1.4539-0.10265-1.4745-1.3034-0.082-4.7871-4.9638-6.798-4.9719-2.048-0.008 4.8594-3.7887 9.057-6.5358 7.2571-2.33-1.53-2.46-1.508-2.46 0.411 0 1.113 0.45 2.023 1 2.023s1 1.575 1 3.5c0 3.8986 1.2131 4.4419 3.6259 1.624 0.88346-1.0318 2.3959-1.6695 3.361-1.4172 1.2431 0.32508 1.9437-0.29417 2.403-2.124 0.9286-3.6998 2.6102-3.1879 2.6102 0.79471 0 3.7128-2.5948 6.8962-3.8998 4.7845-0.54294-0.8785-1.2484-0.65573-2.5788 0.8143-2.78 3.078-9.52-0.659-9.52-5.282 0-0.99674-0.45-1.5341-1-1.1942-0.55 0.33992-1 2.1114-1 3.9366s-0.62854 3.8402-1.3968 4.4778c-0.76822 0.63757-1.1657 2.0427-0.88336 3.1224 0.63417 2.4251-2.811 2.7632-4.7199 0.46323-1.4063-1.6945-4-2.0187-4-0.5 0 3.4291-5.8758 6.0596-7.9507 3.5594zm42.95-29.118c0-2.7018-1.4624-3.2844-2.3616-0.94098-0.73444 1.9139 0.28976 4.6624 1.4664 3.9352 0.5-0.304 0.9-1.651 0.9-2.994zm-22.339 28.053c-1.01-0.7385-1.6824-2.1416-1.4944-3.1181 0.28311-1.4701 0.65587-1.2962 2.1678 1.0113 2.1344 3.2576 1.9007 3.989-0.67338 2.1068zm-33.66-0.687c0-1.529 1.91-3.807 3.2-3.807 0.44 0 0.8 0.9 0.8 2s-0.1882 2-0.41821 2c-0.23002 0-1.13 0.27314-2 0.60699-0.9805 0.37625-1.5818 0.07215-1.5818-0.8zm-128-1.251c0-0.87072-0.55123-2.4658-1.225-3.5446-0.97062-1.5542-0.96382-2.2226 0.0327-3.2192 1.0103-1.0103 1.3709-0.82498 1.8329 0.94192 0.31637 1.2098 1.4522 2.478 2.5241 2.8182 2.5938 0.82322 1.9356 3.8591-0.92506 4.2672-1.51 0.215-2.24-0.196-2.24-1.264zm-16.06-8.806c3.8938-9.8638 7.0949-13.663 5.72-6.7887-0.38806 1.9403-0.0864 3.4672 0.875 4.4286 2.3531 2.3531 1.755 3.6177-1.4115 2.9844-1.6369-0.32738-3.1722-0.10091-3.559 0.525-1.2733 2.0603-2.5383 1.1654-1.6246-1.1493zm135.05 0.07332c-0.008-1.2778-0.285-3.3358-0.61664-4.5733-0.48178-1.7978-0.1909-2.25 1.4472-2.25 1.4788 0 2.155-0.7665 2.4263-2.75 0.32007-2.3406 0.49861-2.4794 1.1993-0.93254 0.49305 1.0885 0.34177 2.7171-0.37719 4.0605-0.66024 1.2337-1.0575 3.5498-0.88288 5.147 0.23211 2.1225-0.15336 3.0005-1.4324 3.2628-1.2649 0.25938-1.7538-0.28522-1.7636-1.9645zm-108.58-0.199c-0.84721-2.2078 0.27991-3.3349 1.8074-1.8074 0.9019 0.90191 0.90574 1.4609 0.0161 2.3506-0.88962 0.88962-1.3233 0.76045-1.8235-0.54313zm11.108-9.7815c0.89447-4.1723 1.3433-4.6688 2.5431-2.8136 1.4421 2.2298 0.67026 5.4067-1.4099 5.8034-1.609 0.30684-1.7565-0.08234-1.1332-2.9898zm47.21-6.539c-1.45-2.571-1.67-6.303-0.37-6.303 1.9444 0 3.8726 2.5637 3.4741 4.6191-0.36331 1.8737-2.378 2.9669-3.1027 1.6837zm31.828-9.2089c-0.30801-0.49837-1.4088-0.68416-2.4462-0.41288s-2.1885 0.004-2.558-0.59388c-1.06-1.697 4.01-1.313 5.44 0.413 0.68469 0.825 0.99135 1.5 0.68146 1.5-0.30988 0-0.81543-0.40775-1.1234-0.90612z"/>
</svg>
