<?xml version="1.0" encoding="UTF-8" standalone="no"?>
<!-- Created with Inkscape (http://www.inkscape.org/) -->

<svg
   version="1.1"
   id="svg6726"
   width="880"
   height="880"
   viewBox="0 0 880 880"
   sodipodi:docname="door-do-not-disturb-publicdomain.svg"
   inkscape:version="1.2 (dc2aedaf03, 2022-05-15)"
   xmlns:inkscape="http://www.inkscape.org/namespaces/inkscape"
   xmlns:sodipodi="http://sodipodi.sourceforge.net/DTD/sodipodi-0.dtd"
   xmlns="http://www.w3.org/2000/svg"
   xmlns:svg="http://www.w3.org/2000/svg">
  <defs
     id="defs6730">
    <clipPath
       clipPathUnits="userSpaceOnUse"
       id="clipPath6758">
      <path
         d="M 0,660 H 660 V 0 H 0 Z"
         id="path6756" />
    </clipPath>
  </defs>
  <sodipodi:namedview
     id="namedview6728"
     pagecolor="#ffffff"
     bordercolor="#000000"
     borderopacity="0.25"
     inkscape:showpageshadow="2"
     inkscape:pageopacity="0.0"
     inkscape:pagecheckerboard="0"
     inkscape:deskcolor="#d1d1d1"
     showgrid="false"
     inkscape:zoom="0.95113636"
     inkscape:cx="441.05137"
     inkscape:cy="440.52569"
     inkscape:window-width="1920"
     inkscape:window-height="1017"
     inkscape:window-x="-8"
     inkscape:window-y="-8"
     inkscape:window-maximized="1"
     inkscape:current-layer="g6734">
    <inkscape:page
       x="0"
       y="0"
       id="page6732"
       width="880"
       height="880" />
  </sodipodi:namedview>
  <g
     id="g6734"
     inkscape:groupmode="layer"
     inkscape:label="Page 1"
     transform="matrix(1.3333333,0,0,-1.3333333,0,880)">
    <path
       d="M 0,0.173 H 659.173 V 659.345 H 0 Z"
       style="fill:#e6d19a;fill-opacity:1;fill-rule:nonzero;stroke:none"
       id="path6736" />
    <path
       d="M 0,0.173 H 659.173 V 25.047 L 0,25.047 Z"
       style="fill:#bfa769;fill-opacity:1;fill-rule:nonzero;stroke:none"
       id="path6738" />
    <g
       id="g6740"
       transform="translate(9e-4,659.3445)">
      <path
         d="m 0,0 v -125.264 l 659.173,-446.721 v 359.834 L 106.687,0 Z"
         style="fill:#eddcb2;fill-opacity:1;fill-rule:nonzero;stroke:none"
         id="path6742" />
    </g>
    <path
       d="m 142.647,0.173 h 373.877 v 544.44 H 142.647 Z"
       style="fill:#ffffff;fill-opacity:1;fill-rule:nonzero;stroke:none"
       id="path6744" />
    <path
       d="m 163.686,0.173 h 331.8 v 526.886 h -331.8 z"
       style="fill:#823103;fill-opacity:1;fill-rule:nonzero;stroke:none"
       id="path6746" />
    <path
       d="m 171.584,0.173 h 316.005 v 517.67 H 171.584 Z"
       style="fill:#a6450d;fill-opacity:1;fill-rule:nonzero;stroke:none"
       id="path6748" />
    <path
       d="M 214.176,272.54 H 444.998 V 488.22 H 214.176 Z"
       style="fill:#823103;fill-opacity:1;fill-rule:evenodd;stroke:none"
       id="path6750" />
    <g
       id="g6752">
      <g
         id="g6754"
         clip-path="url(#clipPath6758)">
        <g
           id="g6760"
           transform="translate(214.1758,283.8398)">
          <path
             d="m 0,0 v 10.751 h 44.132 c 1.086,0 1.974,-0.888 1.974,-1.975 V 1.975 C 46.106,0.888 45.218,0 44.132,0 Z"
             style="fill:#662601;fill-opacity:1;fill-rule:evenodd;stroke:none"
             id="path6762" />
        </g>
        <path
           d="M 223.802,281.535 H 435.37 V 479.224 H 223.802 Z"
           style="fill:#bf591f;fill-opacity:1;fill-rule:evenodd;stroke:none"
           id="path6764" />
        <g
           id="g6766"
           transform="translate(258.9521,283.9482)">
          <path
             d="m 0,0 h -35.15 v 10.643 h 34.506 c 1.085,0 1.974,-0.888 1.974,-1.975 V 1.866 C 1.33,1.006 0.773,0.269 0,0"
             style="fill:#ad4e16;fill-opacity:1;fill-rule:evenodd;stroke:none"
             id="path6768" />
        </g>
        <g
           id="g6770"
           transform="translate(223.8022,479.2241)">
          <path
             d="M 0,0 H 167.412 C 153.018,-88.674 86.319,-159.79 0,-180.676 Z"
             style="fill:#cf6629;fill-opacity:1;fill-rule:evenodd;stroke:none"
             id="path6772" />
        </g>
        <path
           d="M 214.176,29.796 H 444.998 V 245.479 H 214.176 Z"
           style="fill:#823103;fill-opacity:1;fill-rule:evenodd;stroke:none"
           id="path6774" />
        <path
           d="M 223.802,38.793 H 435.37 V 236.481 H 223.802 Z"
           style="fill:#bf591f;fill-opacity:1;fill-rule:evenodd;stroke:none"
           id="path6776" />
        <g
           id="g6778"
           transform="translate(223.8022,236.4814)">
          <path
             d="M 0,0 H 168.107 C 155.305,-90.803 87.802,-164.02 0,-185.266 Z"
             style="fill:#cf6629;fill-opacity:1;fill-rule:evenodd;stroke:none"
             id="path6780" />
        </g>
        <g
           id="g6782"
           transform="translate(181.5117,325.2002)">
          <path
             d="m 0,0 h 22.6 c 2.896,0 5.266,-2.37 5.266,-5.267 v -73.721 c 0,-2.897 -2.37,-5.267 -5.266,-5.267 H 0 c -2.896,0 -5.266,2.37 -5.266,5.267 V -5.267 C -5.266,-2.37 -2.896,0 0,0"
             style="fill:#f2e9e4;fill-opacity:1;fill-rule:evenodd;stroke:none"
             id="path6784" />
        </g>
        <g
           id="g6786"
           transform="translate(209.3774,294.5908)">
          <path
             d="m 0,0 v -10.751 h -19.526 c -1.087,0 -1.975,0.888 -1.975,1.975 v 6.801 c 0,1.087 0.888,1.975 1.975,1.975 z"
             style="fill:#e0d5ce;fill-opacity:1;fill-rule:evenodd;stroke:none"
             id="path6788" />
        </g>
        <g
           id="g6790"
           transform="translate(175.1167,306.4355)">
          <path
             d="m 0,0 h 35.845 c 2.816,0 5.121,-2.305 5.121,-5.121 v -85.344 c 0,-2.815 -2.305,-5.121 -5.121,-5.121 H 0 c -2.816,0 -5.121,2.306 -5.121,5.121 v 53.98 h 23.043 c 7.541,0 13.655,6.114 13.655,13.655 0,7.541 -6.114,13.655 -13.655,13.655 -7.182,0 -13.069,-5.546 -13.613,-12.589 h -9.43 V -5.121 C -5.121,-2.305 -2.816,0 0,0"
             style="fill:#ff6666;fill-opacity:1;fill-rule:evenodd;stroke:none"
             id="path6792" />
        </g>
        <path
           d="m 178.371,243.121 h 29.337 v -6.402 h -29.337 z m 0,-9.762 h 29.337 v -6.401 h -29.337 z m 0,19.523 h 29.337 v -6.401 h -29.337 z"
           style="fill:#ffdd30;fill-opacity:1;fill-rule:evenodd;stroke:none"
           id="path6794" />
        <g
           id="g6796"
           transform="translate(189.8511,297.7725)">
          <path
             d="m 0,0 h 68.457 c 1.085,0 1.974,-0.889 1.974,-1.975 v -6.802 c 0,-1.086 -0.889,-1.974 -1.974,-1.974 H 0 c -1.086,0 -1.975,0.888 -1.975,1.974 v 6.802 C -1.975,-0.889 -1.086,0 0,0"
             style="fill:#ffffff;fill-opacity:1;fill-rule:evenodd;stroke:none"
             id="path6798" />
        </g>
      </g>
    </g>
  </g>
</svg>
