<?xml version="1.0" encoding="UTF-8"?>
<!DOCTYPE svg PUBLIC "-//W3C//DTD SVG 1.1//EN" "http://www.w3.org/Graphics/SVG/1.1/DTD/svg11.dtd">
<svg version="1.1" xmlns="http://www.w3.org/2000/svg" xmlns:xlink="http://www.w3.org/1999/xlink" x="0" y="0" width="947.606" height="672.893" viewBox="0, 0, 947.606, 672.893">
  <defs>
    <clipPath id="Clip_1">
      <path d="M339.865,235.319 L955.801,235.319 L955.801,671.255 L339.865,671.255 z"/>
    </clipPath>
    <clipPath id="Clip_2">
      <path d="M339.865,235.319 L955.801,235.319 L955.801,671.255 L339.865,671.255 z"/>
    </clipPath>
    <clipPath id="Clip_3">
      <path d="M339.865,235.319 L955.801,235.319 L955.801,671.255 L339.865,671.255 z"/>
    </clipPath>
    <clipPath id="Clip_4">
      <path d="M339.865,235.319 L955.801,235.319 L955.801,671.255 L339.865,671.255 z"/>
    </clipPath>
  </defs>
  <g id="Layer_1">
    <path d="M611.62,516.755 C591.37,513.152 598.567,492.002 602.62,488.852 C606.22,481.655 608.923,455.555 609.82,415.955 C610.72,376.355 632.77,345.305 659.77,333.602 C686.77,321.908 720.067,340.805 720.97,347.555 C729.97,348.005 754.72,358.805 758.32,389.852 C760.492,414.479 757.825,436.892 755.62,464.102 C754.27,480.752 754.72,493.805 755.62,498.302 C759.67,503.705 765.067,521.252 740.317,522.602" fill="#1A1919" id="path144878"/>
    <path d="M611.62,516.755 C591.37,513.152 598.567,492.002 602.62,488.852 C606.22,481.655 608.923,455.555 609.82,415.955 C610.72,376.355 632.77,345.305 659.77,333.602 C686.77,321.908 720.067,340.805 720.97,347.555 C729.97,348.005 754.72,358.805 758.32,389.852 C760.492,414.479 757.825,436.892 755.62,464.102 C754.27,480.752 754.72,493.805 755.62,498.302 C759.67,503.705 765.067,521.252 740.317,522.602" fill-opacity="0" stroke="#1A1919" stroke-width="5.4" stroke-linecap="round" stroke-linejoin="round" id="path144880"/>
    <g clip-path="url(#Clip_1)" id="g144886">
      <path d="M707.47,645.455 C705.22,654.455 706.12,673.352 706.12,675.152 C706.12,675.152 682.72,675.602 679.12,675.152 L675.07,657.602 L671.023,657.155 L671.92,675.152 C670.12,675.152 646.27,675.152 643.57,673.352 C642.22,669.305 636.37,647.249 636.37,644.102 L707.47,645.455" fill="#B1D4E6" id="path144882"/>
      <path d="M707.47,645.455 C705.22,654.455 706.12,673.352 706.12,675.152 C706.12,675.152 682.72,675.602 679.12,675.152 L675.07,657.602 L671.023,657.155 L671.92,675.152 C670.12,675.152 646.27,675.152 643.57,673.352 C642.22,669.305 636.37,647.249 636.37,644.102 z" fill-opacity="0" stroke="#1A1919" stroke-width="5.4" stroke-linecap="round" stroke-linejoin="round" id="path144884"/>
    </g>
    <path d="M713.317,589.655 C715.57,612.602 731.32,642.752 733.567,645.005 C735.37,646.352 738.97,645.455 738.97,645.455 C744.37,642.752 750.22,644.102 747.97,651.755 C745.72,659.402 735.82,664.352 726.817,664.352 C717.823,664.352 708.37,655.355 699.817,655.805 C691.273,656.252 678.22,665.705 670.12,664.808 C662.02,663.905 651.22,654.455 645.37,655.805 C639.517,657.155 625.12,664.808 609.82,660.755 C594.52,656.708 595.87,645.455 596.773,643.655 C597.67,641.852 602.62,645.005 602.62,645.005 C613.873,647.249 626.92,605.402 628.72,594.152 C630.523,582.905 631.87,541.502 632.317,527.102 C632.773,512.705 634.57,501.905 641.77,499.652 C646.516,498.17 660.67,497.852 660.67,497.852 L699.817,499.205 C699.817,499.205 717.439,503.981 721.42,509.102 C727.72,517.205 716.02,567.602 713.317,589.655" fill="#F4DE9A" id="path144888"/>
    <path d="M713.317,589.655 C715.57,612.602 731.32,642.752 733.567,645.005 C735.37,646.352 738.97,645.455 738.97,645.455 C744.37,642.752 750.22,644.102 747.97,651.755 C745.72,659.402 735.82,664.352 726.817,664.352 C717.823,664.352 708.37,655.355 699.817,655.805 C691.273,656.252 678.22,665.705 670.12,664.808 C662.02,663.905 651.22,654.455 645.37,655.805 C639.517,657.155 625.12,664.808 609.82,660.755 C594.52,656.708 595.87,645.455 596.773,643.655 C597.67,641.852 602.62,645.005 602.62,645.005 C613.873,647.249 626.92,605.402 628.72,594.152 C630.523,582.905 631.87,541.502 632.317,527.102 C632.773,512.705 634.57,501.905 641.77,499.652 C646.516,498.17 660.67,497.852 660.67,497.852 L699.817,499.205 C699.817,499.205 717.439,503.981 721.42,509.102 C727.72,517.205 716.02,567.602 713.317,589.655 z" fill-opacity="0" stroke="#1A1919" stroke-width="5.4" stroke-linecap="round" stroke-linejoin="round" id="path144890"/>
    <path d="M720.118,548.201 C717.694,563.435 714.559,579.53 713.317,589.655 C715.57,612.602 731.32,642.752 733.567,645.005 C735.37,646.352 738.97,645.455 738.97,645.455 C744.37,642.752 750.22,644.102 747.97,651.755 C745.72,659.402 735.82,664.352 726.817,664.352 C717.823,664.352 708.37,655.355 699.817,655.805 C691.273,656.252 678.22,665.705 670.12,664.808 C662.02,663.905 651.22,654.455 645.37,655.805 C639.517,657.155 625.12,664.808 609.82,660.755 C594.52,656.708 595.87,645.455 596.773,643.655 C597.67,641.852 602.62,645.005 602.62,645.005 C613.873,647.249 626.92,605.402 628.72,594.152 C630.154,585.2 631.303,557.144 631.936,538.805 L640.87,539.252 C640.42,525.302 642.22,507.305 644.953,498.983 C647.095,498.662 649.69,498.425 652.15,498.254 C649.87,510.905 648.97,534.305 648.97,539.705 C654.82,541.955 682.27,544.205 690.82,542.405 C690.37,539.705 701.59,506.045 708.358,501.947 C710.905,502.877 713.647,503.993 716.014,505.211 C712.42,511.802 701.623,539.705 701.17,543.755 C702.52,544.655 711.613,547.7 720.118,548.201" fill="#A82754" id="path144892"/>
    <path d="M720.118,548.201 C717.694,563.435 714.559,579.53 713.317,589.655 C715.57,612.602 731.32,642.752 733.567,645.005 C735.37,646.352 738.97,645.455 738.97,645.455 C744.37,642.752 750.22,644.102 747.97,651.755 C745.72,659.402 735.82,664.352 726.817,664.352 C717.823,664.352 708.37,655.355 699.817,655.805 C691.273,656.252 678.22,665.705 670.12,664.808 C662.02,663.905 651.22,654.455 645.37,655.805 C639.517,657.155 625.12,664.808 609.82,660.755 C594.52,656.708 595.87,645.455 596.773,643.655 C597.67,641.852 602.62,645.005 602.62,645.005 C613.873,647.249 626.92,605.402 628.72,594.152 C630.154,585.2 631.303,557.144 631.936,538.805 L640.87,539.252 C640.42,525.302 642.22,507.305 644.953,498.983 C647.095,498.662 649.69,498.425 652.15,498.254 C649.87,510.905 648.97,534.305 648.97,539.705 C654.82,541.955 682.27,544.205 690.82,542.405 C690.37,539.705 701.59,506.045 708.358,501.947 C710.905,502.877 713.647,503.993 716.014,505.211 C712.42,511.802 701.623,539.705 701.17,543.755 C702.52,544.655 711.613,547.7 720.118,548.201 z" fill-opacity="0" stroke="#1A1919" stroke-width="5.4" stroke-linecap="round" stroke-linejoin="round" id="path144894"/>
    <path d="M706.567,547.805 C703.423,552.752 694.666,586.217 705.22,590.102 C713.77,593.249 718.735,592.667 723.22,584.255 C726.817,577.505 732.67,558.152 734.47,546.902 L706.567,547.805" fill="#F4DE9A" id="path144896"/>
    <path d="M706.567,547.805 C703.423,552.752 694.666,586.217 705.22,590.102 C713.77,593.249 718.735,592.667 723.22,584.255 C726.817,577.505 732.67,558.152 734.47,546.902 z" fill-opacity="0" stroke="#1A1919" stroke-width="5.4" stroke-linecap="round" stroke-linejoin="round" id="path144898"/>
    <path d="M662.02,489.755 C662.923,493.352 662.467,496.955 660.67,497.852 C663.82,502.352 678.67,508.655 699.37,500.555 C697.57,498.752 695.32,490.655 694.87,487.502 L662.02,489.755" fill="#F4BB9D" id="path144900"/>
    <path d="M662.02,489.755 C662.923,493.352 662.467,496.955 660.67,497.852 C663.82,502.352 678.67,508.655 699.37,500.555 C697.57,498.752 695.32,490.655 694.87,487.502 z" fill-opacity="0" stroke="#1A1919" stroke-width="5.4" stroke-linecap="round" stroke-linejoin="round" id="path144902"/>
    <path d="M621.46,414.473 C619.51,410.183 611.593,408.548 608.98,412.91 C603.127,422.666 613.27,452.711 623.023,449.978 L621.46,414.473" fill="#F4BB9D" id="path144904"/>
    <path d="M621.46,414.473 C619.51,410.183 611.593,408.548 608.98,412.91 C603.127,422.666 613.27,452.711 623.023,449.978 z" fill-opacity="0" stroke="#1A1919" stroke-width="5.4" stroke-linecap="round" stroke-linejoin="round" id="path144906"/>
    <path d="M622.666,406.517 C621.883,413.54 618.151,438.551 619.543,455.288 C620.713,469.331 645.181,488.699 670.261,492.737 C682.357,494.69 719.032,486.107 729.565,467.768 C730.735,465.818 731.512,464.648 733.855,460.358 C733.462,461.918 733.462,466.988 738.538,464.648 C743.611,462.311 750.631,454.115 752.971,441.242 C755.314,428.366 752.581,417.443 746.341,422.513 C745.951,426.416 740.488,439.679 735.808,442.409 C737.365,433.439 736.975,415.487 735.415,407.3 C729.175,408.47 705.379,379.988 703.429,367.112 C702.256,366.338 700.693,364.775 700.693,364.775 C685.087,382.331 653.488,395.597 638.272,399.104 C637.879,398.324 649.975,379.988 649.975,379.988 C647.242,380.768 624.223,401.057 622.666,406.517" fill="#F4BB9D" id="path144908"/>
    <path d="M622.666,406.517 C621.883,413.54 618.151,438.551 619.543,455.288 C620.713,469.331 645.181,488.699 670.261,492.737 C682.357,494.69 719.032,486.107 729.565,467.768 C730.735,465.818 731.512,464.648 733.855,460.358 C733.462,461.918 733.462,466.988 738.538,464.648 C743.611,462.311 750.631,454.115 752.971,441.242 C755.314,428.366 752.581,417.443 746.341,422.513 C745.951,426.416 740.488,439.679 735.808,442.409 C737.365,433.439 736.975,415.487 735.415,407.3 C729.175,408.47 705.379,379.988 703.429,367.112 C702.256,366.338 700.693,364.775 700.693,364.775 C685.087,382.331 653.488,395.597 638.272,399.104 C637.879,398.324 649.975,379.988 649.975,379.988 C647.242,380.768 624.223,401.057 622.666,406.517 z M671.044,423.683 C671.434,422.123 675.334,422.513 675.334,422.513" fill-opacity="0" stroke="#1A1919" stroke-width="5.4" stroke-linecap="round" stroke-linejoin="round" id="path144910"/>
    <path d="M654.37,415.058 C653.854,420.968 651.691,425.603 649.543,425.414 C647.398,425.228 646.072,420.281 646.588,414.374 C647.107,408.467 649.27,403.826 651.418,404.012 C653.563,404.204 654.886,409.148 654.37,415.058" fill="#1A1919" id="path144912"/>
    <path d="M712.393,419.435 C711.874,425.345 709.711,429.98 707.566,429.791 C705.418,429.602 704.095,424.658 704.614,418.751 C705.13,412.844 707.293,408.203 709.438,408.389 C711.583,408.581 712.909,413.525 712.393,419.435" fill="#1A1919" id="path144914"/>
    <path d="M660.67,442.505 C665.17,439.352 685.42,441.602 694.87,447.002 C693.97,452.852 687.517,471.383 674.17,469.955 C661.57,468.602 657.97,448.802 660.67,442.505" fill="#1A1919" id="path144916"/>
    <path d="M662.731,460.595 C665.038,465.422 668.782,469.376 674.17,469.955 C687.517,471.383 693.97,452.852 694.87,447.002 C689.521,443.948 680.707,441.899 673.252,441.269 L671.92,452.402 C671.92,452.402 663.439,455.732 662.731,460.595" fill="#E05541" id="path144918"/>
    <path d="M692.905,453.866 C693.982,451.085 694.627,448.583 694.87,447.002 C688.276,443.234 672.367,441.002 664.276,441.065 C663.37,442.955 664.273,449.705 664.273,449.705 C664.273,449.705 690.484,453.527 692.905,453.866" fill="#FFFFFE" id="path144920"/>
    <path d="M722.32,552.752 C729.523,554.555 739.87,543.755 744.37,530.705 C748.87,517.655 738.07,510.005 732.67,507.752 C729.07,506.402 720.067,503.705 715.57,507.752 C711.073,511.802 707.02,519.002 715.57,521.252 C712.87,522.602 713.317,528.458 716.02,530.705 C713.317,531.155 712.42,535.655 713.77,538.802 C711.97,541.502 712.42,545.102 713.317,547.352 C714.22,549.602 720.97,552.302 722.32,552.752" fill="#F4BB9D" id="path144922"/>
    <path d="M722.32,552.752 C729.523,554.555 739.87,543.755 744.37,530.705 C748.87,517.655 738.07,510.005 732.67,507.752 C729.07,506.402 720.067,503.705 715.57,507.752 C711.073,511.802 707.02,519.002 715.57,521.252 C712.87,522.602 713.317,528.458 716.02,530.705 C713.317,531.155 712.42,535.655 713.77,538.802 C711.97,541.502 712.42,545.102 713.317,547.352 C714.22,549.602 720.97,552.302 722.32,552.752 z M715.57,521.252 C717.82,521.252 725.023,521.705 727.27,523.055 M716.02,530.705 L721.87,534.305 M714.22,540.602 L719.17,542.852" fill-opacity="0" stroke="#1A1919" stroke-width="5.4" stroke-linecap="round" stroke-linejoin="round" id="path144924"/>
    <path d="M620.551,543.941 C613.168,544.673 604.498,532.478 601.942,518.918 C599.392,505.352 611.188,499.352 616.861,497.912 C620.617,497.102 629.917,495.74 633.778,500.402 C637.642,505.064 640.597,512.774 631.813,513.752 C634.288,515.483 632.989,521.21 629.995,523.04 C632.599,523.877 632.833,528.464 631.042,531.383 C632.428,534.317 631.459,537.812 630.241,539.906 C629.023,542 621.952,543.692 620.551,543.941" fill="#F4BB9D" id="path144926"/>
    <path d="M620.551,543.941 C613.168,544.673 604.498,532.478 601.942,518.918 C599.392,505.352 611.188,499.352 616.861,497.912 C620.617,497.102 629.917,495.74 633.778,500.402 C637.642,505.064 640.597,512.774 631.813,513.752 C634.288,515.483 632.989,521.21 629.995,523.04 C632.599,523.877 632.833,528.464 631.042,531.383 C632.428,534.317 631.459,537.812 630.241,539.906 C629.023,542 621.952,543.692 620.551,543.941 z M631.813,513.752 C629.587,513.431 622.402,512.828 619.975,513.833 M629.995,523.04 L623.683,525.749 M630.331,533.099 L625.111,534.602" fill-opacity="0" stroke="#1A1919" stroke-width="5.4" stroke-linecap="round" stroke-linejoin="round" id="path144928"/>
    <path d="M612.52,541.955 C612.52,540.602 635.923,542.852 637.72,542.852 C638.62,551.405 638.224,562.604 636.82,575.252 C635.923,583.352 628.723,585.155 624.22,584.705 C619.72,584.255 615.652,580.559 614.32,572.552 C612.52,561.752 612.52,541.955 612.52,541.955" fill="#F4DE9A" id="path144930"/>
    <path d="M612.52,541.955 C612.52,540.602 635.923,542.852 637.72,542.852 C638.62,551.405 638.224,562.604 636.82,575.252 C635.923,583.352 628.723,585.155 624.22,584.705 C619.72,584.255 615.652,580.559 614.32,572.552 C612.52,561.752 612.52,541.955 612.52,541.955 z" fill-opacity="0" stroke="#1A1919" stroke-width="5.4" stroke-linecap="round" stroke-linejoin="round" id="path144932"/>
    <g clip-path="url(#Clip_2)" id="g144944">
      <path d="M698.5,657.593 C698.5,657.593 698.488,658.667 698.476,660.284" fill-opacity="0" stroke="#1A1919" stroke-width="2.7" stroke-linejoin="round" id="path144934"/>
      <path d="M698.458,664.187 C698.458,666.122 698.464,668.213 698.494,670.055" fill-opacity="0" stroke="#1A1919" stroke-width="2.7" stroke-dasharray="3.9,3.9" stroke-linejoin="round" id="path144936"/>
      <path d="M698.533,671.996 C698.563,673.169 698.611,674.117 698.677,674.69 M658.87,659.852 C658.87,659.852 659.278,660.869 659.854,662.363" fill-opacity="0" stroke="#1A1919" stroke-width="2.7" stroke-linejoin="round" id="path144938"/>
      <path d="M660.946,665.261 C661.477,666.71 662.032,668.261 662.491,669.68" fill-opacity="0" stroke="#1A1919" stroke-width="2.7" stroke-dasharray="3.108,3.108" stroke-linejoin="round" id="path144940"/>
      <path d="M662.956,671.165 C663.28,672.251 663.508,673.172 663.574,673.787" fill-opacity="0" stroke="#1A1919" stroke-width="2.7" stroke-linejoin="round" id="path144942"/>
    </g>
    <path d="M652.762,434.345 C652.408,438.803 647.398,442.04 641.575,441.578 C635.752,441.113 631.321,437.123 631.678,432.665 C632.035,428.207 637.039,424.967 642.862,425.429 C648.688,425.894 653.119,429.884 652.762,434.345" fill="#EB9174" id="path144946"/>
    <path d="M723.415,441.992 C723.055,446.456 718.051,449.693 712.228,449.228 C706.405,448.763 701.971,444.773 702.325,440.318 C702.685,435.854 707.689,432.617 713.515,433.082 C719.335,433.544 723.766,437.534 723.415,441.992" fill="#EB9174" id="path144948"/>
    <path d="M660.67,442.505 C665.17,439.352 685.42,441.602 694.87,447.002 C693.97,452.852 687.517,471.383 674.17,469.955 C661.57,468.602 657.97,448.802 660.67,442.505 z" fill-opacity="0" stroke="#1A1919" stroke-width="5.4" stroke-linecap="round" stroke-linejoin="round" id="path144950"/>
    <g clip-path="url(#Clip_3)" id="g144956">
      <path d="M482.035,623.762 L482.872,637.169 C482.872,637.169 484.549,642.2 486.223,646.385 C487.9,650.579 492.088,675.065 492.088,675.065 L529.801,674.225 L524.767,645.548 C524.767,645.548 537.34,653.096 542.365,659.798 C547.393,666.497 555.301,675.53 555.301,675.53 L588.817,673.019 C588.817,673.019 573.367,647.225 571.693,643.871 C575.047,632.981 571.111,624.413 568.468,619.898 L482.035,623.762" fill="#688190" id="path144952"/>
      <path d="M482.035,623.762 L482.872,637.169 C482.872,637.169 484.549,642.2 486.223,646.385 C487.9,650.579 492.088,675.065 492.088,675.065 L529.801,674.225 L524.767,645.548 C524.767,645.548 537.34,653.096 542.365,659.798 C547.393,666.497 555.301,675.53 555.301,675.53 L588.817,673.019 C588.817,673.019 573.367,647.225 571.693,643.871 C575.047,632.981 571.111,624.413 568.468,619.898 z" fill-opacity="0" stroke="#1A1919" stroke-width="5.4" stroke-linecap="round" stroke-linejoin="round" id="path144954"/>
    </g>
    <path d="M627.283,513.338 C628.171,513.779 632.626,513.779 632.626,513.779 C632.626,508.445 635.299,499.538 638.41,498.203 C641.527,496.862 644.191,501.314 643.312,510.221 C650.431,509.336 669.565,512.447 669.565,516.455 C669.565,520.457 665.563,520.457 665.563,520.457 C665.563,520.457 674.023,527.138 666.013,529.808 C668.23,532.031 670.462,536.93 664.672,536.93 C665.122,540.488 664.678,545.39 658.444,544.055 C652.21,542.717 635.296,537.824 635.296,537.824 L624.61,538.265 L627.283,513.338" fill="#F4BB9D" id="path144958"/>
    <path d="M627.283,513.338 C628.171,513.779 632.626,513.779 632.626,513.779 C632.626,508.445 635.299,499.538 638.41,498.203 C641.527,496.862 644.191,501.314 643.312,510.221 C650.431,509.336 669.565,512.447 669.565,516.455 C669.565,520.457 665.563,520.457 665.563,520.457 C665.563,520.457 674.023,527.138 666.013,529.808 C668.23,532.031 670.462,536.93 664.672,536.93 C665.122,540.488 664.678,545.39 658.444,544.055 C652.21,542.717 635.296,537.824 635.296,537.824 L624.61,538.265 z" fill-opacity="0" stroke="#1A1919" stroke-width="4.86" stroke-linecap="round" stroke-linejoin="round" id="path144960"/>
    <path d="M420.742,502.547 C419.767,502.736 415.477,501.545 415.477,501.545 C416.908,496.4 416.722,487.106 414.079,484.982 C411.436,482.861 407.671,486.434 406.141,495.248 C399.514,492.479 380.242,490.355 379.171,494.216 C378.094,498.071 381.952,499.145 381.952,499.145 C381.952,499.145 372.016,503.312 379.021,508.031 C376.276,509.585 372.823,513.701 378.4,515.252 C377.011,518.564 376.129,523.4 382.489,523.79 C388.855,524.174 406.462,523.982 406.462,523.982 L416.638,527.276 L420.742,502.547" fill="#F4BB9D" id="path144962"/>
    <path d="M420.742,502.547 C419.767,502.736 415.477,501.545 415.477,501.545 C416.908,496.4 416.722,487.106 414.079,484.982 C411.436,482.861 407.671,486.434 406.141,495.248 C399.514,492.479 380.242,490.355 379.171,494.216 C378.094,498.071 381.952,499.145 381.952,499.145 C381.952,499.145 372.016,503.312 379.021,508.031 C376.276,509.585 372.823,513.701 378.4,515.252 C377.011,518.564 376.129,523.4 382.489,523.79 C388.855,524.174 406.462,523.982 406.462,523.982 L416.638,527.276 z" fill-opacity="0" stroke="#1A1919" stroke-width="4.86" stroke-linecap="round" stroke-linejoin="round" id="path144964"/>
    <path d="M476.254,513.824 C465.064,508.49 421.885,495.164 419.752,495.164 C418.69,499.433 411.226,526.085 408.028,529.28 C410.692,529.811 470.392,544.205 474.124,545.273 C471.994,549.533 468.262,603.908 480.523,625.76 C483.718,629.489 543.952,629.489 564.739,624.158 C565.807,624.158 568.468,619.898 568.468,619.898 C568.468,619.898 557.809,558.068 558.877,552.734 C561.007,551.669 621.772,543.137 626.569,543.137 C631.366,543.137 631.366,543.137 631.366,543.137 C631.366,543.137 628.702,515.426 628.171,511.694 C619.108,513.29 561.007,522.881 556.744,523.415 C552.478,523.955 539.689,522.35 539.689,522.35 L476.788,515.42 L476.254,513.824" fill="#FFFFFE" id="path144966"/>
    <path d="M476.254,513.824 C465.064,508.49 421.885,495.164 419.752,495.164 C418.69,499.433 411.226,526.085 408.028,529.28 C410.692,529.811 470.392,544.205 474.124,545.273 C471.994,549.533 468.262,603.908 480.523,625.76 C483.718,629.489 543.952,629.489 564.739,624.158 C565.807,624.158 568.468,619.898 568.468,619.898 C568.468,619.898 557.809,558.068 558.877,552.734 C561.007,551.669 621.772,543.137 626.569,543.137 C631.366,543.137 631.366,543.137 631.366,543.137 C631.366,543.137 628.702,515.426 628.171,511.694 C619.108,513.29 561.007,522.881 556.744,523.415 C552.478,523.955 539.689,522.35 539.689,522.35 L476.788,515.42 z" fill-opacity="0" stroke="#1A1919" stroke-width="5.4" stroke-linecap="round" stroke-linejoin="round" id="path144968"/>
    <path d="M462.247,444.128 C458.323,441.677 451.948,443.147 450.478,450.503 C449.008,457.859 452.44,478.949 459.304,479.93 C466.171,480.905 465.682,446.093 465.682,446.093 L462.247,444.128" fill="#F4BB9D" id="path144970"/>
    <path d="M462.247,444.128 C458.323,441.677 451.948,443.147 450.478,450.503 C449.008,457.859 452.44,478.949 459.304,479.93 C466.171,480.905 465.682,446.093 465.682,446.093 z" fill-opacity="0" stroke="#1A1919" stroke-width="5.4" stroke-linecap="round" stroke-linejoin="round" id="path144972"/>
    <path d="M587.296,468.65 C592.198,466.688 600.214,471.491 597.103,482.375 C593.182,496.109 580.435,505.919 575.038,504.446 L574.057,492.185 L587.296,468.65" fill="#F4BB9D" id="path144974"/>
    <path d="M587.296,468.65 C592.198,466.688 600.214,471.491 597.103,482.375 C593.182,496.109 580.435,505.919 575.038,504.446 L574.057,492.185 z" fill-opacity="0" stroke="#1A1919" stroke-width="5.4" stroke-linecap="round" stroke-linejoin="round" id="path144976"/>
    <path d="M572.092,396.563 C581.413,398.033 591.217,406.859 591.709,408.335 C592.198,409.805 588.766,410.786 588.766,410.786 C592.198,414.71 605.44,444.617 593.671,470.612 C581.902,496.601 583.375,489.731 580.432,493.166 C577.489,496.601 461.755,463.256 461.755,463.256 C460.285,461.783 457.342,440.696 463.717,425.492 C465.682,420.104 473.038,408.335 479.902,401.957 C479.902,401.957 475,402.938 475,401.468 C479.413,398.033 498.538,371.066 554.44,385.283 L550.519,380.378 C555.424,380.867 569.644,388.718 572.092,396.563" fill="#50341D" id="path144978"/>
    <path d="M572.092,396.563 C581.413,398.033 591.217,406.859 591.709,408.335 C592.198,409.805 588.766,410.786 588.766,410.786 C592.198,414.71 605.44,444.617 593.671,470.612 C581.902,496.601 583.375,489.731 580.432,493.166 C577.489,496.601 461.755,463.256 461.755,463.256 C460.285,461.783 457.342,440.696 463.717,425.492 C465.682,420.104 473.038,408.335 479.902,401.957 C479.902,401.957 475,402.938 475,401.468 C479.413,398.033 498.538,371.066 554.44,385.283 L550.519,380.378 C555.424,380.867 569.644,388.718 572.092,396.563 z" fill-opacity="0" stroke="#1A1919" stroke-width="5.4" stroke-linecap="round" stroke-linejoin="round" id="path144980"/>
    <path d="M468.622,437.261 C464.698,451.484 460.777,464.729 459.796,485.321 C459.256,496.601 475.336,528.095 513.739,532.892 C521.584,533.87 556.657,536.372 573.565,507.389 C576.997,501.503 581.902,486.305 585.823,469.139 C586.807,466.688 583.861,443.639 578.959,434.321 C578.959,443.147 578.47,450.014 578.47,452.468 C575.038,452.468 560.815,440.207 559.345,436.283 C553.459,434.321 545.614,426.965 539.239,411.764 C532.861,418.631 506.869,436.772 488.239,435.302 C490.201,429.422 498.121,417.008 499.027,415.199 C494.122,416.669 474.016,429.422 468.622,437.261" fill="#F4BB9D" id="path144982"/>
    <path d="M468.622,437.261 C464.698,451.484 460.777,464.729 459.796,485.321 C459.256,496.601 475.336,528.095 513.739,532.892 C521.584,533.87 556.657,536.372 573.565,507.389 C576.997,501.503 581.902,486.305 585.823,469.139 C586.807,466.688 583.861,443.639 578.959,434.321 C578.959,443.147 578.47,450.014 578.47,452.468 C575.038,452.468 560.815,440.207 559.345,436.283 C553.459,434.321 545.614,426.965 539.239,411.764 C532.861,418.631 506.869,436.772 488.239,435.302 C490.201,429.422 498.121,417.008 499.027,415.199 C494.122,416.669 474.016,429.422 468.622,437.261 z M519.22,461.858 C522.7,461.057 529.432,463.862 529.432,463.862" fill-opacity="0" stroke="#1A1919" stroke-width="5.4" stroke-linecap="round" stroke-linejoin="round" id="path144984"/>
    <path d="M498.598,453.299 C497.338,458.603 494.752,462.539 492.82,462.08 C490.891,461.621 490.348,456.944 491.608,451.637 C492.868,446.33 495.457,442.394 497.389,442.853 C499.315,443.312 499.861,447.989 498.598,453.299" fill="#1A1919" id="path144986"/>
    <path d="M558.43,463.595 C557.17,468.902 554.578,472.838 552.649,472.379 C550.717,471.92 550.177,467.24 551.437,461.939 C552.694,456.626 555.286,452.693 557.215,453.152 C559.147,453.608 559.69,458.288 558.43,463.595" fill="#1A1919" id="path144988"/>
    <path d="M515.209,513.275 C533.356,518.18 546.499,499.985 548.065,489.248 C537.091,478.643 498.949,473.978 495.106,478.46 C493.144,494.636 497.557,509.351 515.209,513.275" fill="#1A1919" id="path144990"/>
    <path d="M504.343,508.454 C507.211,510.638 510.799,512.294 515.209,513.275 C533.356,518.18 546.499,499.985 548.065,489.248 C542.221,483.602 528.67,479.633 516.697,477.842 L514.228,488.753 C514.228,488.753 504.421,494.147 503.932,495.617 C503.44,497.09 503.29,506.093 504.343,508.454" fill="#E05541" id="path144992"/>
    <path d="M546.445,494.858 C547.264,492.881 547.813,490.97 548.065,489.248 C539.611,481.082 515.029,476.435 502.432,476.783 C501.478,481.4 501.478,486.305 501.478,486.305 C501.478,486.305 544.828,494.096 546.445,494.858" fill="#FFFFFE" id="path144994"/>
    <path d="M515.209,513.275 C533.356,518.18 546.499,499.985 548.065,489.248 C537.091,478.643 498.949,473.978 495.106,478.46 C493.144,494.636 497.557,509.351 515.209,513.275 z" fill-opacity="0" stroke="#1A1919" stroke-width="5.4" stroke-linecap="round" stroke-linejoin="round" id="path144996"/>
    <path d="M490.981,469.367 C490.42,473.117 486.382,475.616 481.96,474.959 C477.541,474.293 474.415,470.72 474.976,466.964 C475.54,463.214 479.578,460.715 483.997,461.378 C488.416,462.038 491.545,465.611 490.981,469.367" fill="#EB9174" id="path144998"/>
    <path d="M568.852,485.123 C568.297,488.879 564.256,491.378 559.834,490.715 C555.418,490.055 552.292,486.476 552.853,482.726 C553.417,478.976 557.452,476.477 561.871,477.134 C566.293,477.8 569.419,481.373 568.852,485.123" fill="#EB9174" id="path145000"/>
    <path d="M559.234,559.733 C539.635,558.392 491.731,554.501 472.801,553.163 C472.513,556.046 472.267,559.559 472.099,563.504 C492.754,564.944 542.497,568.397 560.461,569.468 C559.951,565.781 559.531,562.454 559.234,559.733" fill="#DC3E38" id="path145002"/>
    <path d="M559.234,559.733 C539.635,558.392 491.731,554.501 472.801,553.163 C472.513,556.046 472.267,559.559 472.099,563.504 C492.754,564.944 542.497,568.397 560.461,569.468 C559.951,565.781 559.531,562.454 559.234,559.733 z" fill-opacity="0" stroke="#1A1919" stroke-width="5.4" stroke-linecap="round" stroke-linejoin="round" id="path145004"/>
    <g clip-path="url(#Clip_4)" id="g145014">
      <path d="M797.188,623.798 C798.127,631.754 804.679,664.985 810.295,676.682 L883.771,676.217 C885.643,675.278 903.427,633.158 905.77,618.653 L797.188,623.798" fill="#2E806C" id="path145006"/>
      <path d="M797.188,623.798 C798.127,631.754 804.679,664.985 810.295,676.682 L883.771,676.217 C885.643,675.278 903.427,633.158 905.77,618.653 z M830.887,633.158 C829.951,638.309 829.483,671.537 829.951,676.682" fill-opacity="0" stroke="#1A1919" stroke-width="5.4" stroke-linecap="round" stroke-linejoin="round" id="path145008"/>
      <path d="M766.849,347.393 C749.815,288.011 782.914,271.952 788.266,270.005 C797.515,259.784 806.011,253.583 818.929,250.049 C836.314,245.294 900.208,239.828 929.416,308.939 C958.618,378.056 939.151,384.383 930.385,398.501 C921.625,412.616 926.983,427.217 930.874,428.675 C926.005,435.002 890.959,441.329 864.679,430.619 C855.919,432.569 817.954,441.818 802.867,424.778 C787.78,407.744 777.556,409.691 771.718,367.838 L766.849,347.393" fill="#2D2118" id="path145010"/>
      <path d="M766.849,347.393 C749.815,288.011 782.914,271.952 788.266,270.005 C797.515,259.784 806.011,253.583 818.929,250.049 C836.314,245.294 900.208,239.828 929.416,308.939 C958.618,378.056 939.151,384.383 930.385,398.501 C921.625,412.616 926.983,427.217 930.874,428.675 C926.005,435.002 890.959,441.329 864.679,430.619 C855.919,432.569 817.954,441.818 802.867,424.778 C787.78,407.744 777.556,409.691 771.718,367.838 z" fill-opacity="0" stroke="#1A1919" stroke-width="5.4" stroke-linecap="round" stroke-linejoin="round" id="path145012"/>
    </g>
    <path d="M767.236,416.009 C763.963,416.477 755.068,419.753 761.155,431.453 C762.088,433.79 763.492,453.917 776.131,452.51 C776.131,452.51 779.875,469.355 779.875,471.23 C790.639,473.57 796.723,466.55 801.871,464.213 C802.336,462.341 797.188,448.301 797.188,448.301 C798.127,445.964 797.659,431.456 797.188,426.77 C796.723,422.096 792.511,415.538 791.107,413.666 C789.7,411.794 786.427,408.989 782.683,411.326 C778.939,413.666 774.724,413.201 774.724,413.201 L767.236,416.009" fill="#F4BB9D" id="path145016"/>
    <path d="M767.236,416.009 C763.963,416.477 755.068,419.753 761.155,431.453 C762.088,433.79 763.492,453.917 776.131,452.51 C776.131,452.51 779.875,469.355 779.875,471.23 C790.639,473.57 796.723,466.55 801.871,464.213 C802.336,462.341 797.188,448.301 797.188,448.301 C798.127,445.964 797.659,431.456 797.188,426.77 C796.723,422.096 792.511,415.538 791.107,413.666 C789.7,411.794 786.427,408.989 782.683,411.326 C778.939,413.666 774.724,413.201 774.724,413.201 z" fill-opacity="0" stroke="#1A1919" stroke-width="5.4" stroke-linecap="round" stroke-linejoin="round" id="path145018"/>
    <path d="M806.59,461.876 C805.189,462.812 776.641,467.024 774.769,467.024 C773.362,469.361 774.304,472.637 776.644,480.128 C778.978,487.613 782.26,500.252 785.536,507.269 C788.809,514.289 794.896,527.393 811.744,522.245 C825.781,515.696 817.36,481.532 806.59,461.876" fill="#C0DCA5" id="path145020"/>
    <path d="M806.59,461.876 C805.189,462.812 776.641,467.024 774.769,467.024 C773.362,469.361 774.304,472.637 776.644,480.128 C778.978,487.613 782.26,500.252 785.536,507.269 C788.809,514.289 794.896,527.393 811.744,522.245 C825.781,515.696 817.36,481.532 806.59,461.876 z" fill-opacity="0" stroke="#1A1919" stroke-width="5.4" stroke-linecap="round" stroke-linejoin="round" id="path145022"/>
    <path d="M919.384,627.791 C920.788,617.963 913.867,588.02 908.326,573.683 C901.834,556.889 895.516,541.442 894.064,533.477 C892.726,526.109 904.363,473.102 904.828,465.149 C905.299,457.196 904.828,447.362 903.427,445.022 C902.026,442.688 888.448,430.982 880.492,427.241 C879.088,426.305 829.015,429.113 823.399,430.514 C821.056,431.921 806.551,437.537 804.679,439.874 C802.807,442.217 793.444,474.506 794.851,485.738 C796.255,496.973 797.659,499.778 803.743,513.353 C809.824,526.925 808.891,536.75 808.891,541.433 C804.679,550.325 786.004,600.413 784.6,625.682 C799.339,638.321 900.43,639.725 919.384,627.791" fill="#F1A948" id="path145024"/>
    <path d="M919.384,627.791 C920.788,617.963 913.867,588.02 908.326,573.683 C901.834,556.889 895.516,541.442 894.064,533.477 C892.726,526.109 904.363,473.102 904.828,465.149 C905.299,457.196 904.828,447.362 903.427,445.022 C902.026,442.688 888.448,430.982 880.492,427.241 C879.088,426.305 829.015,429.113 823.399,430.514 C821.056,431.921 806.551,437.537 804.679,439.874 C802.807,442.217 793.444,474.506 794.851,485.738 C796.255,496.973 797.659,499.778 803.743,513.353 C809.824,526.925 808.891,536.75 808.891,541.433 C804.679,550.325 786.004,600.413 784.6,625.682 C799.339,638.321 900.43,639.725 919.384,627.791 z" fill-opacity="0" stroke="#1A1919" stroke-width="5.4" stroke-linecap="round" stroke-linejoin="round" id="path145026"/>
    <path d="M832.759,413.666 C832.759,415.073 834.163,422.096 834.631,424.43 C834.631,424.43 823.867,430.514 821.995,431.453 C821.995,434.258 826.207,445.49 826.207,445.49 C830.887,446.894 853.816,446.426 859.435,445.49 C860.839,443.618 879.562,429.578 882.364,428.642 C880.027,427.712 870.199,422.096 868.327,418.814 C866.455,415.538 862.711,403.844 862.711,403.844 L832.759,413.666" fill="#F4BB9D" id="path145028"/>
    <path d="M832.759,413.666 C832.759,415.073 834.163,422.096 834.631,424.43 C834.631,424.43 823.867,430.514 821.995,431.453 C821.995,434.258 826.207,445.49 826.207,445.49 C830.887,446.894 853.816,446.426 859.435,445.49 C860.839,443.618 879.562,429.578 882.364,428.642 C880.027,427.712 870.199,422.096 868.327,418.814 C866.455,415.538 862.711,403.844 862.711,403.844 z" fill-opacity="0" stroke="#1A1919" stroke-width="5.4" stroke-linecap="round" stroke-linejoin="round" id="path145030"/>
    <path d="M778.531,348.854 C774.151,345.449 759.55,343.013 763.93,361.508 C768.313,380 777.556,383.897 779.503,382.436 C781.45,380.978 778.531,348.854 778.531,348.854" fill="#F4BB9D" id="path145032"/>
    <path d="M778.531,348.854 C774.151,345.449 759.55,343.013 763.93,361.508 C768.313,380 777.556,383.897 779.503,382.436 C781.45,380.978 778.531,348.854 778.531,348.854 z" fill-opacity="0" stroke="#1A1919" stroke-width="5.4" stroke-linecap="round" stroke-linejoin="round" id="path145034"/>
    <path d="M790.699,280.715 C787.291,282.659 776.584,287.528 776.095,330.845 C775.612,374.165 773.176,376.598 776.584,387.305 C779.992,398.009 808.705,422.84 837.91,420.887 C867.115,418.94 893.326,392.615 898.264,384.383 C899.725,381.953 901.186,379.517 902.647,375.134 C908.485,377.084 920.872,363.158 924.061,356.153 C928.927,345.449 926.98,318.191 907.999,329.384 C907.513,333.278 904.591,355.667 902.647,361.508 C902.158,357.128 896.806,335.228 893.881,330.359 C890.962,330.359 860.788,323.543 830.608,300.668 C831.097,303.104 841.315,319.166 842.293,321.599 C833.527,321.599 816.568,313.673 810.658,308.945 C803.353,303.104 793.132,293.369 790.699,280.715" fill="#F4BB9D" id="path145036"/>
    <path d="M790.699,280.715 C787.291,282.659 776.584,287.528 776.095,330.845 C775.612,374.165 773.176,376.598 776.584,387.305 C779.992,398.009 808.705,422.84 837.91,420.887 C867.115,418.94 893.326,392.615 898.264,384.383 C899.725,381.953 901.186,379.517 902.647,375.134 C908.485,377.084 920.872,363.158 924.061,356.153 C928.927,345.449 926.98,318.191 907.999,329.384 C907.513,333.278 904.591,355.667 902.647,361.508 C902.158,357.128 896.806,335.228 893.881,330.359 C890.962,330.359 860.788,323.543 830.608,300.668 C831.097,303.104 841.315,319.166 842.293,321.599 C833.527,321.599 816.568,313.673 810.658,308.945 C803.353,303.104 793.132,293.369 790.699,280.715 z M813.088,379.517 C821.362,383.897 839.371,386.819 852.511,367.349 M795.079,350.315 C794.593,343.985 798.484,334.739 804.814,346.907 M842.293,343.013 C842.293,333.278 849.589,330.845 854.944,339.608" fill-opacity="0" stroke="#1A1919" stroke-width="5.4" stroke-linecap="round" stroke-linejoin="round" id="path145038"/>
    <path d="M770.536,406.751 C767.725,405.35 761.47,408.14 761.938,414.227 C762.874,415.634 769.039,416.846 769.039,416.846 C769.039,418.721 771.247,433.274 777.064,436.601 C780.34,438.476 782.212,439.874 784.555,439.874 C784.555,439.874 790.639,459.065 794.383,464.681 C786.802,464.681 812.659,450.05 813.103,449.705 C813.103,449.705 807.955,438.47 806.083,434.729 C805.615,431.921 807.487,422.096 806.551,416.009 C805.615,409.922 803.743,406.178 803.743,406.178 C803.743,406.178 795.205,393.296 786.895,394.946 C784.102,395.501 784.366,397.781 784.366,397.781 C780.628,394.79 776.143,396.659 776.518,401.516 C772.777,400.769 769.597,403.01 770.536,406.751" fill="#F4BB9D" id="path145040"/>
    <path d="M770.536,406.751 C767.725,405.35 761.47,408.14 761.938,414.227 C762.874,415.634 769.039,416.846 769.039,416.846 C769.039,418.721 771.247,433.274 777.064,436.601 C780.34,438.476 782.212,439.874 784.555,439.874 C784.555,439.874 790.639,459.065 794.383,464.681 C786.802,464.681 812.659,450.05 813.103,449.705 C813.103,449.705 807.955,438.47 806.083,434.729 C805.615,431.921 807.487,422.096 806.551,416.009 C805.615,409.922 803.743,406.178 803.743,406.178 C803.743,406.178 795.205,393.296 786.895,394.946 C784.102,395.501 784.366,397.781 784.366,397.781 C780.628,394.79 776.143,396.659 776.518,401.516 C772.777,400.769 769.597,403.01 770.536,406.751 z M915.79,335.711 C911.407,338.63 907.513,346.418 908.971,347.393 C910.432,348.365 915.298,352.748 913.351,354.209 M854.944,289.961 C855.919,283.634 861.271,280.715 868.573,292.88 M788.266,305.048 C785.344,302.126 782.914,299.696 783.4,310.406" fill-opacity="0" stroke="#1A1919" stroke-width="5.4" stroke-linecap="round" stroke-linejoin="round" id="path145042"/>
    <path d="M816.379,445.022 C814.039,446.426 792.511,464.681 789.7,467.486 C799.999,483.869 828.13,510.617 843.991,512.882 C857.095,514.754 881.638,500.585 899.758,478.283 C905.839,470.792 914.575,453.326 902.08,444.908 C891.43,437.726 863.647,462.809 854.287,473.57 C851.629,475.955 848.527,476.732 845.392,474.506 C843.055,474.977 818.719,449.231 816.379,445.022" fill="#C0DCA5" id="path145044"/>
    <path d="M816.379,445.022 C814.039,446.426 792.511,464.681 789.7,467.486 C799.999,483.869 828.13,510.617 843.991,512.882 C857.095,514.754 881.638,500.585 899.758,478.283 C905.839,470.792 914.575,453.326 902.08,444.908 C891.43,437.726 863.647,462.809 854.287,473.57 C851.629,475.955 848.527,476.732 845.392,474.506 C843.055,474.977 818.719,449.231 816.379,445.022 z" fill-opacity="0" stroke="#1A1919" stroke-width="5.4" stroke-linecap="round" stroke-linejoin="round" id="path145046"/>
    <path d="M876.802,350.591 C877.702,355.418 872.899,360.368 866.062,361.652 C859.225,362.933 852.949,360.065 852.043,355.238 C851.137,350.411 855.943,345.461 862.78,344.177 C869.62,342.893 875.896,345.761 876.802,350.591" fill="#EB9174" id="path145048"/>
    <path d="M805.678,361.706 C806.578,366.53 801.775,371.483 794.938,372.767 C788.098,374.048 781.822,371.177 780.919,366.35 C780.013,361.523 784.819,356.573 791.656,355.289 C798.493,354.005 804.769,356.873 805.678,361.706" fill="#EB9174" id="path145050"/>
    <path d="M813.088,341.066 C813.571,343.985 814.063,358.589 805.3,361.508 L809.194,367.349" fill-opacity="0" stroke="#1A1919" stroke-width="5.4" stroke-linecap="round" stroke-linejoin="round" id="path145052"/>
    <path d="M764.554,426.56 C764.182,427.685 766.051,433.664 768.292,434.786 C770.536,435.908 773.152,433.292 773.527,430.673" fill-opacity="0" stroke="#1A1919" stroke-width="2.7" stroke-linecap="round" stroke-linejoin="round" id="path145054"/>
    <path d="M29.173,223.148 C22.666,205.994 17.407,167.828 29.407,131.828 C41.407,95.828 60.175,66.149 73.174,80.147 C78.175,57.149 108.226,-0.319 219.175,3.149 C315.175,6.149 342.175,62.15 356.173,81.149 C385.795,91.373 400.243,168.431 390.613,236.819 L29.173,223.148" fill="#2D2118" id="path145056"/>
    <path d="M29.173,223.148 C22.666,205.994 17.407,167.828 29.407,131.828 C41.407,95.828 60.175,66.149 73.174,80.147 C78.175,57.149 108.226,-0.319 219.175,3.149 C315.175,6.149 342.175,62.15 356.173,81.149 C385.795,91.373 400.243,168.431 390.613,236.819 z" fill-opacity="0" stroke="#1A1919" stroke-width="6" stroke-linecap="round" stroke-linejoin="round" id="path145058"/>
    <path d="M318.907,36.557 C312.964,31.652 306.127,26.921 298.261,22.622 C287.38,38.3 255.403,77.393 240.352,88.484 L283.696,98.117 C283.696,98.117 309.55,62.795 318.907,36.557" fill="#66462B" id="path145060"/>
    <path d="M318.907,36.557 C312.964,31.652 306.127,26.921 298.261,22.622 C287.38,38.3 255.403,77.393 240.352,88.484 L283.696,98.117 C283.696,98.117 309.55,62.795 318.907,36.557 z" fill-opacity="0" stroke="#1A1919" stroke-width="6" stroke-linecap="round" stroke-linejoin="round" id="path145062"/>
    <path d="M283.18,15.524 C279.157,13.91 274.906,12.419 270.427,11.063 C250.378,34.184 210.499,76.919 200.86,86.558 L219.16,95.228 C237.109,78.836 270.229,34.001 283.18,15.524" fill="#66462B" id="path145064"/>
    <path d="M283.18,15.524 C279.157,13.91 274.906,12.419 270.427,11.063 C250.378,34.184 210.499,76.919 200.86,86.558 L219.16,95.228 C237.109,78.836 270.229,34.001 283.18,15.524 z" fill-opacity="0" stroke="#1A1919" stroke-width="6" stroke-linecap="round" stroke-linejoin="round" id="path145066"/>
    <path d="M134.695,409.097 L122.794,417.599 C113.446,416.747 30.145,454.997 56.494,534.047 C59.896,540.851 80.296,550.196 90.496,554.444 C87.946,563.801 79.447,646.247 83.695,665.795 C89.644,670.898 291.805,670.898 323.254,665.801 C324.106,656.45 329.347,596.099 321.697,552.749 C327.646,552.749 344.644,544.247 351.445,534.047 C382.894,462.644 298.747,425.249 285.997,418.448 L276.646,409.946 L134.695,409.097" fill="#F6EB3D" id="path145068"/>
    <path d="M134.695,409.097 L122.794,417.599 C113.446,416.747 30.145,454.997 56.494,534.047 C59.896,540.851 80.296,550.196 90.496,554.444 C87.946,563.801 79.447,646.247 83.695,665.795 C89.644,670.898 291.805,670.898 323.254,665.801 C324.106,656.45 329.347,596.099 321.697,552.749 C327.646,552.749 344.644,544.247 351.445,534.047 C382.894,462.644 298.747,425.249 285.997,418.448 L276.646,409.946 z M222.244,428.648 L221.512,442.229 C240.418,448.241 253.063,464.753 269.629,467.144 C272.824,473.348 287.692,425.852 289.39,421.604 M206.095,444.797 L200.146,460.946 C200.146,460.946 202.33,644.144 203.179,668.795 M240.097,432.047 C240.097,432.047 225.643,452.45 223.945,459.251 C222.244,466.049 225.745,662.198 227.449,669.851" fill-opacity="0" stroke="#1A1919" stroke-width="6" stroke-linecap="round" stroke-linejoin="round" id="path145070"/>
    <path d="M285.997,418.448 C298.747,425.249 382.894,462.644 351.445,534.047 C344.644,544.247 335.296,553.601 314.044,556.997 C308.947,559.547 228.196,552.749 197.596,544.247 C200.995,528.95 207.796,489.851 207.796,489.851 C223.945,488.15 303.844,485.597 312.346,487.301" fill="#F6EB3D" id="path145072"/>
    <path d="M285.997,418.448 C298.747,425.249 382.894,462.644 351.445,534.047 C344.644,544.247 335.296,553.601 314.044,556.997 C308.947,559.547 228.196,552.749 197.596,544.247 C200.995,528.95 207.796,489.851 207.796,489.851 C223.945,488.15 303.844,485.597 312.346,487.301 M126.196,415.898 C126.196,415.898 144.286,455.303 153.637,473.156 C157.036,466.358 183.847,449.894 196.597,443.948" fill-opacity="0" stroke="#1A1919" stroke-width="6" stroke-linecap="round" stroke-linejoin="round" id="path145074"/>
    <g id="g145080">
      <path d="M47.173,219.149 C47.173,198.149 27.175,190.148 17.173,213.149 C2.764,246.287 -1.268,273.833 8.173,291.146 C14.173,302.147 29.173,312.146 40.174,294.146" fill="#F4BB9D" id="path145076"/>
      <path d="M47.173,219.149 C47.173,198.149 27.175,190.148 17.173,213.149 C2.764,246.287 -1.268,273.833 8.173,291.146 C14.173,302.147 29.173,312.146 40.174,294.146" fill-opacity="0" stroke="#1A1919" stroke-width="6" stroke-linecap="round" stroke-linejoin="round" id="path145078"/>
    </g>
    <path d="M369.172,219.149 C369.172,198.149 389.173,190.148 399.172,213.149 C413.581,246.287 417.619,273.833 408.172,291.146 C402.172,302.147 387.175,312.146 376.174,294.146" fill="#F4BB9D" id="path145082"/>
    <path d="M369.172,219.149 C369.172,198.149 389.173,190.148 399.172,213.149 C413.581,246.287 417.619,273.833 408.172,291.146 C402.172,302.147 387.175,312.146 376.174,294.146" fill-opacity="0" stroke="#1A1919" stroke-width="6" stroke-linecap="round" stroke-linejoin="round" id="path145084"/>
    <path d="M183.148,415.049 C183.148,415.049 206.098,433.745 210.349,440.549 C211.198,437.999 235.921,417.632 235.921,417.632 L183.148,415.049" fill="#F4BB9D" id="path145086"/>
    <path d="M183.148,415.049 C183.148,415.049 206.098,433.745 210.349,440.549 C211.198,437.999 235.921,417.632 235.921,417.632 z" fill-opacity="0" stroke="#1A1919" stroke-width="6" stroke-linecap="round" stroke-linejoin="round" id="path145088"/>
    <path d="M43.174,235.148 C34.174,221.147 19.174,224.147 19.174,270.146" fill="#F4BB9D" id="path145090"/>
    <path d="M43.174,235.148 C34.174,221.147 19.174,224.147 19.174,270.146" fill-opacity="0" stroke="#1A1919" stroke-width="6" stroke-linecap="round" stroke-linejoin="round" id="path145092"/>
    <path d="M366.175,229.148 C380.173,214.148 397.174,221.147 399.175,263.147" fill="#F4BB9D" id="path145094"/>
    <path d="M366.175,229.148 C380.173,214.148 397.174,221.147 399.175,263.147" fill-opacity="0" stroke="#1A1919" stroke-width="6" stroke-linecap="round" stroke-linejoin="round" id="path145096"/>
    <path d="M323.173,89.147 C340.171,98.147 364.174,137.147 374.173,202.148 C375.172,207.149 376.174,229.148 376.174,229.148 C378.172,240.149 383.173,272.147 379.174,322.148 C376.75,352.466 354.175,431.144 242.173,443.144 C226.174,452.144 199.174,452.144 179.173,443.144 C67.174,431.144 35.602,349.466 33.175,319.148 C29.173,269.147 38.173,238.148 40.174,227.147 C40.174,227.147 41.173,207.149 42.175,202.148 C48.175,143.15 76.174,98.147 93.175,89.147 C109.174,72.149 146.173,66.149 160.174,67.148 C174.175,68.147 203.173,84.149 227.173,85.148 C251.173,86.147 292.171,66.146 323.173,89.147" fill="#F4BB9D" id="path145098"/>
    <path d="M323.173,89.147 C340.171,98.147 364.174,137.147 374.173,202.148 C375.172,207.149 376.174,229.148 376.174,229.148 C378.172,240.149 383.173,272.147 379.174,322.148 C376.75,352.466 354.175,431.144 242.173,443.144 C226.174,452.144 199.174,452.144 179.173,443.144 C67.174,431.144 35.602,349.466 33.175,319.148 C29.173,269.147 38.173,238.148 40.174,227.147 C40.174,227.147 41.173,207.149 42.175,202.148 C48.175,143.15 76.174,98.147 93.175,89.147 C109.174,72.149 146.173,66.149 160.174,67.148 C174.175,68.147 203.173,84.149 227.173,85.148 C251.173,86.147 292.171,66.146 323.173,89.147 z M189.1,188.168 C176.641,209.912 143.326,263.228 206.506,264.545 C263.494,265.736 248.254,229.412 236.776,204.167 L228.091,188.981 M170.956,420.761 C193.213,429.023 226.024,433.769 252.478,419.825" fill-opacity="0" stroke="#1A1919" stroke-width="6" stroke-linecap="round" stroke-linejoin="round" id="path145100"/>
    <path d="M143.374,190.148 C143.374,200.09 137.464,208.148 130.174,208.148 C122.881,208.148 116.974,200.09 116.974,190.148 C116.974,180.209 122.881,172.148 130.174,172.148 C137.464,172.148 143.374,180.209 143.374,190.148" fill="#1A1919" id="path145102"/>
    <path d="M299.377,190.148 C299.377,200.09 293.464,208.148 286.174,208.148 C278.881,208.148 272.974,200.09 272.974,190.148 C272.974,180.209 278.881,172.148 286.174,172.148 C293.464,172.148 299.377,180.209 299.377,190.148" fill="#1A1919" id="path145104"/>
    <path d="M127.048,123.527 C127.048,123.527 99.148,127.346 96.478,129.038 C93.805,130.73 87.235,141.629 87.235,141.629 C87.235,141.629 84.127,120.761 87.769,118.832 C91.411,116.9 119.782,119.147 127.048,123.527" fill="#50341D" id="path145106"/>
    <path d="M127.048,123.527 C127.048,123.527 99.148,127.346 96.478,129.038 C93.805,130.73 87.235,141.629 87.235,141.629 C87.235,141.629 84.127,120.761 87.769,118.832 C91.411,116.9 119.782,119.147 127.048,123.527 z" fill-opacity="0" stroke="#1A1919" stroke-width="6" stroke-linecap="round" stroke-linejoin="round" id="path145108"/>
    <path d="M285.751,122.849 C285.751,122.849 313.648,126.668 316.321,128.36 C318.994,130.052 325.564,140.951 325.564,140.951 C325.564,140.951 328.669,120.086 325.027,118.154 C321.385,116.222 293.014,118.469 285.751,122.849" fill="#50341D" id="path145110"/>
    <path d="M285.751,122.849 C285.751,122.849 313.648,126.668 316.321,128.36 C318.994,130.052 325.564,140.951 325.564,140.951 C325.564,140.951 328.669,120.086 325.027,118.154 C321.385,116.222 293.014,118.469 285.751,122.849 z" fill-opacity="0" stroke="#1A1919" stroke-width="6" stroke-linecap="round" stroke-linejoin="round" id="path145112"/>
    <path d="M118.174,218.15 C118.174,227.537 108.325,235.148 96.175,235.148 C84.025,235.148 74.176,227.537 74.176,218.15 C74.176,208.76 84.025,201.149 96.175,201.149 C108.325,201.149 118.174,208.76 118.174,218.15" fill="#EA8E79" id="path145114"/>
    <path d="M344.173,218.15 C344.173,227.537 334.324,235.148 322.174,235.148 C310.024,235.148 300.175,227.537 300.175,218.15 C300.175,208.76 310.024,201.149 322.174,201.149 C334.324,201.149 344.173,208.76 344.173,218.15" fill="#EA8E79" id="path145116"/>
    <path d="M121.945,519.176 C114.295,514.079 109.195,502.178 109.195,502.178 L103.246,492.827 C96.445,486.878 91.345,478.376 93.895,474.977 C96.445,471.581 98.995,472.43 104.095,474.122 C101.545,470.726 98.143,467.327 100.696,464.777 C103.246,462.227 105.796,462.227 110.044,463.928 C106.645,460.529 106.78,458.999 110.044,456.275 C115.144,452.027 119.395,459.68 122.794,462.227 C122.794,462.227 116.845,455.426 122.794,452.876 C128.749,450.329 140.644,462.227 148.294,468.176 C149.146,461.372 146.596,456.275 153.394,457.124 C160.198,457.979 161.044,472.43 161.044,479.228 C161.044,479.228 166.147,496.229 169.546,499.622" fill="#F4BB9D" id="path145118"/>
    <path d="M121.945,519.176 C114.295,514.079 109.195,502.178 109.195,502.178 L103.246,492.827 C96.445,486.878 91.345,478.376 93.895,474.977 C96.445,471.581 98.995,472.43 104.095,474.122 C101.545,470.726 98.143,467.327 100.696,464.777 C103.246,462.227 105.796,462.227 110.044,463.928 C106.645,460.529 106.78,458.999 110.044,456.275 C115.144,452.027 119.395,459.68 122.794,462.227 C122.794,462.227 116.845,455.426 122.794,452.876 C128.749,450.329 140.644,462.227 148.294,468.176 C149.146,461.372 146.596,456.275 153.394,457.124 C160.198,457.979 161.044,472.43 161.044,479.228 C161.044,479.228 166.147,496.229 169.546,499.622 M122.794,462.227 L132.166,472.4 M110.044,463.928 L119.938,475.658 M104.095,474.122 L109.342,480.551" fill-opacity="0" stroke="#1A1919" stroke-width="6" stroke-linecap="round" stroke-linejoin="round" id="path145120"/>
    <path d="M209.494,511.946 L219.697,511.097 C227.347,515.351 251.143,510.245 263.893,494.099 C266.446,490.7 286.846,489.851 289.393,487.301 C291.946,484.751 290.248,480.497 287.695,478.799 C290.248,477.95 292.795,476.249 291.097,473.696 C289.393,471.146 285.145,469.448 285.145,469.448 C287.695,466.898 286.528,465.761 284.995,464.735 C283.294,458.783 257.119,453.662 243.52,459.614 C229.924,465.569 201.844,481.349 197.596,483.047 C193.345,484.751 207.796,511.097 207.796,511.097" fill="#F4BB9D" id="path145122"/>
    <path d="M209.494,511.946 L219.697,511.097 C227.347,515.351 251.143,510.245 263.893,494.099 C266.446,490.7 286.846,489.851 289.393,487.301 C291.946,484.751 290.248,480.497 287.695,478.799 C290.248,477.95 292.795,476.249 291.097,473.696 C289.393,471.146 285.145,469.448 285.145,469.448 C287.695,466.898 286.528,465.761 284.995,464.735 C283.294,458.783 257.119,453.662 243.52,459.614 C229.924,465.569 201.844,481.349 197.596,483.047 C193.345,484.751 207.796,511.097 207.796,511.097" fill-opacity="0" stroke="#1A1919" stroke-width="6" stroke-linecap="round" stroke-linejoin="round" id="path145124"/>
    <path d="M59.032,470.291 C50.899,487.343 48.004,508.577 56.494,534.047 C59.896,540.851 69.244,550.196 79.447,554.444 C133.846,563.801 194.197,539.999 214.597,528.101 C215.446,524.696 206.095,482.198 200.143,468.599 C196.744,467.747 116.845,480.497 105.796,484.751 C103.246,486.446 98.995,489.851 97.294,494.099" fill="#F6EB3D" id="path145126"/>
    <path d="M59.032,470.291 C50.899,487.343 48.004,508.577 56.494,534.047 C59.896,540.851 69.244,550.196 79.447,554.444 C133.846,563.801 194.197,539.999 214.597,528.101 C215.446,524.696 206.095,482.198 200.143,468.599 C196.744,467.747 116.845,480.497 105.796,484.751 C103.246,486.446 98.995,489.851 97.294,494.099 M254.431,471.692 C256.876,470.063 269.104,468.434 277.258,470.063 M259.324,482.291 C261.766,479.843 273.181,479.027 278.884,479.843" fill-opacity="0" stroke="#1A1919" stroke-width="6" stroke-linecap="round" stroke-linejoin="round" id="path145128"/>
    <path d="M215.842,460.928 C215.842,463.259 213.952,465.146 211.621,465.146 C209.29,465.146 207.4,463.259 207.4,460.928 C207.4,458.597 209.29,456.71 211.621,456.71 C213.952,456.71 215.842,458.597 215.842,460.928" fill="#1A1919" id="path145130"/>
    <path d="M215.842,562.22 C215.842,564.551 213.952,566.444 211.621,566.444 C209.29,566.444 207.4,564.551 207.4,562.22 C207.4,559.886 209.29,557.999 211.621,557.999 C213.952,557.999 215.842,559.886 215.842,562.22" fill="#1A1919" id="path145132"/>
    <path d="M216.895,600.206 C216.895,602.537 215.008,604.43 212.677,604.43 C210.346,604.43 208.456,602.537 208.456,600.206 C208.456,597.872 210.346,595.985 212.677,595.985 C215.008,595.985 216.895,597.872 216.895,600.206" fill="#1A1919" id="path145134"/>
    <path d="M219.007,641.354 C219.007,643.688 217.117,645.575 214.786,645.575 C212.458,645.575 210.568,643.688 210.568,641.354 C210.568,639.023 212.458,637.136 214.786,637.136 C217.117,637.136 219.007,639.023 219.007,641.354" fill="#1A1919" id="path145136"/>
    <path d="M123.301,273.743 C120.235,318.218 264.382,371.888 316.522,275.279 M129.436,261.476 C129.436,261.476 120.235,276.812 109.501,276.812 M310.387,261.476 C310.387,261.476 310.387,276.812 322.657,278.345" fill-opacity="0" stroke="#1A1919" stroke-width="6" stroke-linecap="round" stroke-linejoin="round" id="path145138"/>
    <path d="M219.16,83.669 C219.16,83.669 247.093,93.299 255.76,101.969 C254.797,98.117 256.726,76.925 249.019,72.11" fill="#2D2118" id="path145140"/>
    <path d="M219.16,83.669 C219.16,83.669 247.093,93.299 255.76,101.969 C254.797,98.117 256.726,76.925 249.019,72.11" fill-opacity="0" stroke="#1A1919" stroke-width="6" stroke-linecap="round" stroke-linejoin="round" id="path145142"/>
  </g>
</svg>
