<?xml version="1.0" encoding="UTF-8" standalone="no"?>
<svg id="svg4340" xmlns:rdf="http://www.w3.org/1999/02/22-rdf-syntax-ns#" xmlns="http://www.w3.org/2000/svg" height="768" viewBox="0 0 558 768" width="558" version="1.1" xmlns:cc="http://creativecommons.org/ns#" xmlns:dc="http://purl.org/dc/elements/1.1/">
<path id="path4350" d="m80.028 766.83c-4.562-1.7186-5.4631-7.0078-2.0181-11.846 1.1056-1.5526 4.0173-6.8325 6.4705-11.733l4.4604-8.91 7.2795-3.635c4.0037-1.9992 8.5045-3.8818 10.002-4.1835 3.6589-0.73722 6.3009-3.7256 10.344-11.7 1.8614-3.6716 3.8455-6.9606 4.4092-7.309 2.1345-1.3192 1.1587-4.5808-1.2251-4.0949-7.6085 1.5508-12.669 1.5765-13.936 0.0708-0.72254-0.85838-1.9359-2.2476-2.6963-3.0872-4.1821-4.6173-9.1951-21.534-9.032-30.48l0.16064-8.814-5.0224-4.892c-5.0014-4.8715-5.0252-4.9251-5.682-12.805-0.36278-4.3521-0.74568-8.5566-0.8509-9.3434-0.2316-1.7319-9.8488 11.967-11.969 17.05-0.83054 1.9906-2.3453 4.2406-3.3662 5-1.0209 0.75938-3.1058 3.0544-4.6332 5.1001-6.9452 9.302-26.707 8.8168-33.951-0.83355-8.6855-11.57-9.7483-19.88-3.5242-27.557 4.8806-6.0199 5.4884-8.496 2.7191-11.076-1.9843-1.8487-2.1623-2.7413-1.6469-8.2606 0.656-7.03-1.167-9.58-12.48-17.4-8.4472-5.85-8.3263-4.78-5.0345-44.58 1.3215-15.97 11.926-25.5 28.388-25.5h7.5624l2.2818-6.25c2.9377-8.0465 4.9112-10.54 6.5587-8.2869 1.0671 1.4593 1.2196 1.458 1.785-0.0155 1.199-3.13 0.683-7.45-0.891-7.45-0.82976 0-3.3723-1.35-5.65-3-2.2778-1.65-4.9041-3-5.8364-3-1.8267 0-4.332-2.4573-5.3028-5.2011-0.33102-0.9356 0.29838-4.9497 1.3987-8.9202 3.0345-10.95 2.4943-13.371-2.9928-13.411-3.8069-0.0277-4.8201-0.52726-7.606-3.75-1.768-2.05-3.955-3.72-4.86-3.72-0.90513 0-3.2284-2.2031-5.1629-4.8957s-5.0777-6.0859-6.9849-7.5406c-4.5263-3.4524-5.8375-6.0693-5.6412-11.259 0.11975-3.166-0.60718-5.5001-2.8462-9.139-4.0471-6.5774-3.1937-11.495 3.9498-22.759 2.4606-3.88 3.043-5.88 3.043-10.42 0-7.9953 1.79-16.64 4.5895-22.164 1.3258-2.6163 2.4149-6.2344 2.4202-8.0402 0.0066-2.2288 1.119-4.6786 3.4636-7.628 1.8996-2.3896 4.3818-6.8896 5.5159-10s2.4616-6.5553 2.95-7.6553c3.3394-7.5217 6.9437-17.909 7.981-23 0.67236-3.3 1.8857-8.7 2.6963-12 0.81062-3.3 1.8523-7.8 2.3149-10 3.2034-15.236 4.6431-20.55 8.6815-32.045 2.5031-7.1251 4.9338-15.071 5.4014-17.657 1.9932-11.024 3.8892-13.368 12.442-15.385l7.6663-1.8073 3.6886-6.3288c2.0287-3.4808 4.4609-7.7519 5.4048-9.4912 3.5718-6.5814 4.8951-7.2413 10.673-5.3222 6.0976 2.0253 10.145 1.0991 14.261-3.2632 1.5835-1.6783 6.2742-4.1883 11.654-6.2359 9.9122-3.7728 11.046-4.9046 11.868-11.846 0.49597-4.1877 0.19063-5.2536-2.6657-9.306-2.179-3.0914-3.392-6.1562-3.738-9.4442-0.33326-3.1677-1.3178-5.7407-2.8191-7.3676-1.2689-1.375-2.6169-3.7535-2.9957-5.2856-0.46119-1.8655-1.7625-3.2343-3.9395-4.1439-13.351-5.5782-13.868-30.735-0.81343-39.581 5.7047-3.8657 5.5154-6.2729-0.74056-9.415-25.8-12.955-38.026-29.255-30.191-40.248 6.605-9.268 18.231-4.627 18.231 7.279 0 1.293 0.7875 3.6169 1.75 5.1643 3.67 5.894 8.63 12.235 9.58 12.235 0.54235 0 2.3786 1.0537 4.0805 2.3415 7.8323 5.9265 10.02 4.3418 11.153-8.0803 0.71637-7.85 1.7782-11.796 5.0832-18.891 1.6992-3.6479 2.7128-8.4155 3.5077-16.5 1.9339-19.668 18.582-29.741 28.802-17.427 1.9065 2.2972 2.773 1.9394 4.5932-1.8962 6.0357-12.719 31.347-2.7484 31.477 12.4 0.0387 4.503 3.5709 10.568 10.725 18.416 4.1143 4.5134 7.946 9.9027 9.3452 13.144 3.6542 8.4651 7.5263 5.3777 15.811-12.607 5.2946-11.494 16.308-14.733 22.499-6.617 7.7664 10.182-2.8455 26.816-27.267 42.74-2.2053 1.4379-2.2685 1.768-1.1404 5.9574 0.65684 2.4393 1.1772 6.6379 1.1563 9.3301-0.0278 3.5845 0.50575 5.47 1.9927 7.0426 3.8986 4.1231 6.0564 9.7108 6.0564 15.683 0 6.54-0.20864 7.02-7.1082 16.352-2.8005 3.7877-5.0918 7.291-5.0918 7.7852 0 0.49417-0.7875 2.099-1.75 3.5663s-2.2643 5.1789-2.893 8.248c-0.62864 3.0691-2.1105 7.6385-3.2929 10.154l-2.15 4.5738 3.2929 3.4869c1.8111 1.9178 4.1929 4.9896 5.2929 6.8261 2.5342 4.2311 24.832 13.556 30 12.546 1.65-0.32245 4.8-0.94859 7-1.3914 8.41-1.6928 12.091 1.0258 14.047 10.374 2.43 11.67 13.44 13.47 13.44 2.19 0-4.0987 2.6771-8.1988 6.9099-10.583 2.7084-1.5254 4.0152-3.2262 5.3211-6.9251 2.3635-6.6944 7.7755-9.018 14.193-6.0939 5.6926 2.5937 30.744-7.1222 27.284-10.582-0.86755-0.86754-1.8815-2.5872-2.2532-3.8214-0.8-2.65-6.36-8.74-7.98-8.74-4.5283 0-15.449-11.253-16.673-17.181-1.0864-5.2596-1.6351-6.2138-4.0594-7.0589-6.498-2.2652-8.0335-15.251-2.6664-22.549 3.5703-4.8549 3.4832-7.1766-0.33829-9.0082-3.1717-1.5201-3.26-2.0173-1.2246-6.8887 1.8824-4.5052 1.4734-4.9265-3.3727-3.4746-17.407 5.2153-15.448-17.237 2.0122-23.057 0.7703-0.25677 0.41016-3.5871-1.1708-10.827-5.87-26.837 0.81-42.151 24.51-56.224 5.33-3.167 13.73-6.8341 16.91-7.3837 1.7-0.2946 5.11-1.1493 7.59-1.8994 12.075-3.6594 48.195-4.8875 52.834-1.7963 1.4662 0.977 5.1408 2.6141 8.1658 3.6379 12.495 4.229 19.47 16.588 22.487 39.84 0.77456 5.9709 2.5055 7.3704 10.879 8.7954 9.31 1.586 16.63 7.559 16.63 13.579 0 1.733-5.82 9.491-7.12 9.491-0.44 0-3.08 1.35-5.88 3-2.7984 1.65-6.1557 3-7.4607 3-2.9156 0-3.4028 1.2901-2.445 6.4742 1.0344 5.5988-0.40143 11.902-4.4476 19.526-20.406 38.446 6.4995 85.554 45.141 79.036 9.1002-1.5349 9.5715-1.3285 16.592 7.2663l5.8793 7.1978-0.58559 8.3198-0.58559 8.3198 4.2062 4.6802c2.3134 2.5741 4.4704 4.8058 4.7933 4.9592 1.1719 0.55698-0.81438 9.2622-2.5513 11.181-1.7275 1.9089-1.6937 2.0091 1.0908 3.2351 1.5804 0.69588 4.6285 2.5116 6.7735 4.0348 2.145 1.5233 4.62 2.7887 5.5 2.8121 0.87998 0.0233 4.75 1.1202 8.6 2.4374l7 2.3949 5.2196 9.3126c11.401 20.34 10.542 29.719-4.3053 47.048-3.4061 3.9754-5.9885 8.4941-8.4143 14.723-4.2262 10.852-3.2472 10.35-20.5 10.52l-14 0.13819 0.10226 3.4412c0.17316 5.8266 4.2233 35.095 5.7346 41.441 0.78588 3.3 2.4078 10.395 3.6042 15.767 1.1964 5.3719 2.7648 11.222 3.4853 13 3.0126 7.4347 2.8432 14.1-0.43825 17.244-3.367 3.2258-3.6696 5.6444-1.6335 13.057 0.745 2.7123 1.9119 7.4065 2.5931 10.432 0.6812 3.025 1.8497 7.75 2.5966 10.5 6.304 23.21 6.4212 29.208 0.70809 36.239-2.6138 3.2166-5.2102 6.6634-5.7698 7.6596-0.55962 0.99621-6.4096 4.2763-13 7.2891-19.69 9.0013-18.896 6.0739-17.978 66.312 0.4902 32.15 0.33631 46.37-0.58978 54.5-0.68917 6.05-1.1446 16.07-1.0121 22.266 0.21813 10.199 0.0264 11.613-2.0253 14.933-2.2673 3.6686-2.9706 11.752-2.0711 23.802 0.16424 2.2 0.001 6.5056-0.36262 9.5679-0.452 3.806-0.11238 8.0349 1.0733 13.364 2.0051 9.0127 1.5523 15.728-1.4836 21.999-1.1184 2.3103-2.0478 4.846-2.0653 5.6349-0.10782 4.8621-8.5796 8.8817-18.784 8.9123-4.0237 0.0121-8.138 0.46201-9.143 0.99985-1.2695 0.67942-3.4533 0.495-7.1548-0.60422-3.6023-1.0698-7.1182-1.3845-10.857-0.97177-26.57 2.9328-31.322 0.77142-28.486-12.957 2.7076-13.108 5.4145-17.131 18.635-27.692 0.8626-0.68909 2.759-5.7529 4.2142-11.253 1.4552-5.5 3.9872-12.556 5.6267-15.679 3.2241-6.1426 3.6312-9.3804 1.8119-14.412-1.2942-3.5791 0.43872-15.934 3.7042-26.409 2.2296-7.1522 2.1547-20.398-0.15692-27.748-1.4743-4.6871-1.5556-6.3314-0.55336-11.184 1.7329-8.3899 1.4635-10.95-1.8376-17.459-2.09-4.14-2.98-7.35-2.98-10.75 0-17.023-6.2297-62.107-9.6244-69.651-1.3066-2.9038-2.3756-5.6366-2.3756-6.0728 0-0.43624-1.3253-3.5292-2.9452-6.8731-8.8823-18.336-20.998-19.672-32.351-3.5655-3.0203 4.2851-6.4353 8.6446-7.5889 9.688-5.9546 5.3853-19.518 33.057-21.617 44.103-3.2304 16.998-3.7656 19.098-5.6616 22.215-3.4372 5.65-4.0356 9.4159-4.3351 27.285-0.23819 14.209-0.689 18.861-2.3973 24.737-2.3714 8.1575-2.5403 14.819-0.76633 30.235 1.2318 10.705-0.0813 21.174-4.4564 35.527-2.312 7.585-1.6567 13.3 2.4824 21.649 3.6751 7.413 3.7435 7.7432 2.2143 10.7-0.86783 1.6782-1.5779 3.9045-1.5779 4.9473s-0.67987 3.2588-1.5108 4.9245c-0.83095 1.6657-1.9962 5.6542-2.5895 8.8634-2.7575 14.917-9.7966 21.252-22.447 20.203-12.807-1.0621-23.053-16.427-19.476-29.205l1.2692-4.5331-4.873-5.3556c-16.54-18.17-20.79-39.61-11.77-59.46 1.32-2.9 2.4-5.54 2.4-5.85 0-0.31533 2.7-3.7026 6-7.5273l6-6.954v-7.2131c0-4.1407 0.85189-10.287 2-14.43 1.1-3.9695 2-10.237 2-13.928 0-3.6909 0.53099-10.383 1.18-14.872 1.0887-7.5296 1.0006-8.8285-1.138-16.787-2.8534-10.618-2.5514-13.41 3.4198-31.611 3.4501-10.516 4.6223-15.838 5.2411-23.796l0.79713-10.25-3.7898 0.00044c-7.8377 0.00093-13.931 4.8287-15.481 12.267-1.7416 8.355-4.8238 11.721-10.729 11.716-6.6124-0.005-19.5-3.9944-19.5-6.0359 0-1.66-3.3074-1.8073-7.041-0.3134-5.2513 2.1012-6.7654 0.83986-7.1596-5.9645-0.34047-5.8768-0.9709-6.0825-11.299-3.687-8.2484 1.913-30.378 2.0218-34.29 0.16861-2.791-1.3222-3.7766-1.3611-6.5-0.25632-1.7656 0.71625-4.8425 1.6376-6.8376 2.0475-13.432 2.7596-36.794 19.423-36.991 26.385-0.22458 7.941-0.84746 15.172-1.9087 22.158-0.58617 3.8585-1.6837 11.065-2.439 16.015l-1.3733 9 5.3764 8 5.3764 8-0.0359 8.2523c-0.0511 11.754 4.994 26.577 10.641 31.263 4.036 3.3496 9.481 20.539 9.481 29.93 0 4.8587 3.0271 8.9001 9.4033 12.554 4.8805 2.797 7.7296 32.683 3.7656 39.5-1.4392 2.475-3.6206 6.9358-4.8474 9.9129-2.5 6.0667-3.9072 7.4032-6.8214 6.4785-1.1-0.34902-3.816-0.84251-6.0355-1.0966l-4.0355-0.46206-2.1424 6.3336c-1.1783 3.4835-2.4249 8.0462-2.7702 10.139-1.346 8.1591-10.336 10.753-30.759 8.8739-10.634-0.97837-29.576-0.86199-39.258 0.2412-1.65 0.18801-4.1123-0.0772-5.4718-0.58935zm65.892-4.7054c6.8886-0.97593 6.8074-3.5843-0.0894-2.8725-2.9912 0.30872-7.6643 0.14493-10.385-0.36399-23.557-4.407-39.777-5.1074-48.946-2.1133-9.3463 3.0519-6.6001 3.7136 16 3.855 16.474 0.10311 21.97 0.47701 25.5 1.7349 4.4071 1.5704 5.2168 1.5595 17.92-0.24018zm2.9428-8.0723c1.6861-0.44558 2.7896-1.9031 3.8528-5.0891 0.81946-2.4556 2.0317-5.1397 2.6938-5.9647 0.66213-0.825 1.6871-2.625 2.2778-4 4.63-10.76 14.32-14.83 14.32-6.01 0 3.1174 1.6786 1.5699 4.6794-4.314 5.7469-11.269 3.831-34.834-3.2057-39.429-4.8324-3.1555-4.7701-3.1926-10.474 6.25-5.9622 9.8706-9.2542 11.696-5.8625 3.25 4.0324-10.041 3.7649-11.471-0.79571-4.2518-1.563 2.474-3.4043 4.499-4.0918 4.5-1.91 0.003-1.4929-2.1107 0.92431-4.6838 1.6351-1.7404 1.8055-2.3144 0.6871-2.3144-0.81798 0-2.7288 1.2959-4.2462 2.8798-2.4772 2.5857-7.5458 5.5628-13.115 7.7034-1.902 0.73104-1.8869 0.78837 0.30763 1.1699 3.7055 0.64417 1.9153 2.7191-2.6354 3.0545-3.9024 0.28761-5.4877-0.87651-3.156-2.3176 0.55897-0.34546 0.75288-1.0544 0.4309-1.5753-0.87-1.39-2.45-0.07-2.45 2.04 0 1.0087-0.62552 2.074-1.39 2.3674-0.76453 0.29337-2.0318 1.804-2.816 3.357-0.78429 1.553-2.0542 3.8156-2.8221 5.0281-1.9413 3.0654-0.9541 3.5533 3.7976 1.8768 4.9003-1.7289 10.838-0.39258 11.806 2.657 0.8331 2.6248 0.45052 2.7862-4.1037 1.7303-7.4246-1.7214-14.262-1.2292-15.518 1.117-1.3886 2.5946-1.2376 2.7378 3.6042 3.4185 13.873 1.9506 13.062 5.0244-1.0842 4.1099-16.316-1.0549-24.015 2.169-30.962 12.965-6.2094 9.6494-5.6699 10.676 4.392 8.3565 6.5445-1.5086 13.642-1.3056 22.596 0.64617 14.567 3.1752 24.25 3.6156 32.363 1.4717zm-16.743-12.43c-1.7998-1.8569-5.0329-4.2194-7.1847-5.25-3.76-1.8-5.1-3.37-2.88-3.37 4.2692 0 10.288 2.6289 12.944 5.6537 5.4911 6.254 2.8957 8.93-2.8808 2.9701zm32.88-24.07c0-0.24589 1.125-2.5629 2.5-5.1489 3.7493-7.0515 3.0095-8.4719-1.25-2.4-3.8645 5.5087-6.25 7.2884-6.25 4.6627 0-0.825 0.39048-1.65 0.86774-1.8333 0.47725-0.18333 3.567-4.4853 6.8662-9.5599 8.6239-13.265 11.325-10.569 6.563 6.5483-1.0741 3.8608-1.8734 5.171-2.9114 4.7727-0.78697-0.30199-2.3207 0.34072-3.4082 1.4282-1.91 1.91-2.98 2.46-2.98 1.53zm-34.307-4.2532c-3.2788-0.84973-1.4992-3.7728 2.5-4.1062 2.8048-0.23381 3.9205 0.14989 4.7065 1.6185 1.6042 2.9974-1.3305 4.0104-7.2065 2.4876zm29.31-4.87c0-1.6676 7.5464-15.422 8.707-15.87 1.4384-0.55514 0.61995 1.8862-3.0805 9.1888-2.3142 4.567-5.6265 8.5003-5.6265 6.6815zm161.88 40.965c3.1897-1.325 3.3454-1.6154 2.761-5.1507-0.3406-2.0606-0.63854-5.5466-0.66209-7.7466-0.0641-5.9873-2.2077-8.366-5.7417-6.3714-3.1049 1.7524-11.785 3.7741-17.738 4.1314-6.5576 0.39355-5.8285 7.9417 1.4014 14.509 3.9802 3.6151 12.169 3.8729 19.979 0.62881zm128.57 0.72c-4.5456-4.1967-42.607-7.0484-45.62-3.418-2.0853 2.5126 1.0203 3.301 11.67 2.9626 5.5-0.17479 12.7-0.0126 16 0.36033 9.1823 1.0378 19.028 1.09 17.95 0.0951zm8.55-6.12c0-0.55-0.9-1-2-1s-2 0.45-2 1 0.9 1 2 1 2-0.45 2-1zm5-2.4319c0-2.7-11.96-9.57-16.66-9.57-3.5098 0-2.0483 1.2728 3.4402 2.9961 2.354 0.73912 5.954 2.8236 8 4.6323 4.1329 3.6534 5.22 4.0574 5.22 1.9398zm-25.611-1.749c-0.86604-1.4002 1.5341-1.7732 6.0193-0.93523 2.5462 0.47568 4.848 0.51129 5.1151 0.0791 0.2671-0.43217-1.2038-1.0316-3.2686-1.3321-2.0648-0.30051-5.6898-0.83383-8.0554-1.1852-4.6304-0.68769-5.1811-2.4349-1.1247-3.5684 2.175-0.6078 2.0898-0.68821-0.82414-0.77758-2.1079-0.0647-3.25-0.60313-3.25-1.5323 0-2.0024 2.2601-2.4118 11.786-2.1352 8.8382 0.25669 9.9233-1.0321 1.6732-1.9872-12.341-1.4287-13.054-4.1269-0.81733-3.0925 4.6 0.39 7.36 0.25 7.36-0.36 0-0.55-1.29-0.99-2.88-0.99-1.5826 0-3.487-0.7343-4.2318-1.6318-1.7964-2.1645-19.806-1.406-24.391 1.0272-1.65 0.87572-3.5011 1.595-4.1136 1.5984-2.9089 0.0161-12.147 13.583-11.102 16.304 0.33296 0.86677 4.9325 1.202 16.493 1.202 8.8174 0 15.842-0.30641 15.611-0.6809zm28.936-8.4771c1.16-1.16-1.49-3.34-4.06-3.34h-2.4883l2.3608 1.9667c2.5895 2.1573 3.2021 2.3586 4.1854 1.3753zm6.67-4.11c0-2.6704-2.5022-0.54827-2.7726 2.3516-0.26007 2.7882-0.20246 2.8334 1.25 0.98175 0.83-1.07 1.52-2.57 1.52-3.33zm-4-3.73c0-0.825-0.9-2.4-2-3.5-3.9457-3.9457-5.6711-1.4077-1.8257 2.6856 2.51 2.67 3.83 2.95 3.83 0.81zm-151.28-2.1713c0.24807-0.74511-0.35856-0.97557-1.6671-0.63337-1.1314 0.29587-2.0571 0.96845-2.0571 1.4946 0 1.3276 3.2454 0.57706 3.7242-0.86127zm-0.44869-4.3095c-2.6654-5.319 0.55431-19.593 6.3682-28.233l3.4581-5.1388-2.1944-9.5738c-1.2069-5.2656-3.1423-13.396-4.3009-18.068l-2.1066-8.4938-6-1.0608c-5.6135-0.99244-14.127-0.56828-22.29 1.1105-10.197 2.097-19.581 31.172-14.641 45.36 2.007 5.7639 4.4087 9.0935 12.645 17.53 3.7326 3.8237 6.7866 7.2073 6.7866 7.5192 0 0.31189 5.1833 0.56707 11.518 0.56707 9.9708 0 11.416-0.20412 10.757-1.5192zm145.66-4.1319c-0.69055-1.2903-1.8636-2.9541-2.6068-3.6973-1.35-1.37-0.96-3.19 0.7-3.19 0.4984 0 2.5522 1.4452 4.5639 3.2115l3.6577 3.2115-0.75715-5.4615c-0.41-3-0.82-7.94-0.9-10.96-0.18251-6.6098-0.89501-7.9918-3.7371-7.2486-1.9959 0.52195-2.1103 0.28543-1.5452-3.1965l0.61018-3.7602-3.7038 0.85262c-6.3218 1.4553-16.364 0.92135-20.131-1.0704-4.2789-2.262-5.3791-1.145-7.1968 7.3071-0.66426 3.0888-1.9798 7.1909-2.9233 9.1159-0.94357 1.925-2.2919 6.2-2.9964 9.5-0.70445 3.3-1.9525 6.7875-2.7734 7.75-1.9416 2.2765-0.44033 2.338 6.4085 0.26219 8.5459-2.5901 19.468-3.0502 23.456-0.98795 7.9284 4.1 12.554 3.3347 9.8928-1.6369zm-11.773-5.7641c-0.73333-0.46435-4.3855-0.62589-8.1158-0.35898-7.2651 0.51981-10.506-0.41033-9.1382-2.623 1.7982-2.9095 21.852-0.93606 20.856 2.0524-0.52815 1.5845-1.9773 1.9584-3.6021 0.92958zm-10.91-7.85c-3.6701-0.45545-4.179-1.709-1.3157-3.2414 4.2162-2.2564 11.066-0.97403 11.066 2.0718 0 1.9645-1.7007 2.1685-9.75 1.1696zm6.75-8.4024c-1.375-0.54947-3.9625-0.72555-5.75-0.3913-3.7869 0.70814-4.2665-0.65752-1.0275-2.9262 4.6267-3.2407 12.968-1.1004 11.421 2.9306-0.66325 1.7284-1.1788 1.7714-4.6433 0.38692zm-318.69 6.0812c9.79-1.43 14.69-3.61 14.69-6.55 0-4.7625 5.139-18.539 6.4955-17.414 0.9608 0.79739 1.7876 0.18905 3.356-2.4691 1.1446-1.94 2.5463-3.5272 3.1148-3.5272 1.461 0 1.414 0.13505-2.383 6.8527-6.4485 11.409-7.3098 17.056-1.8228 11.954 1.5068-1.4012 4.0001-3.3477 5.5407-4.3256 4.7628-3.0231 6.0124-6.602 4.2683-12.225-0.81143-2.616-1.9784-7.3439-2.5933-10.506-1.5411-7.9263-3.2248-7.356-5.9047 2-1.2209 4.2625-2.3974 8.3125-2.6143 9-0.21693 0.6875-0.91103 1.25-1.5424 1.25-0.72657 0-0.89686-0.82598-0.46387-2.25 0.37628-1.2375 1.0324-3.6 1.458-5.25 0.42561-1.65 1.4957-4.3928 2.378-6.095 1.9946-3.8482 0.42885-10.954-4.8263-21.905-1.8831-3.924-3.7667-9.8563-4.2865-13.5-0.7924-5.5547-0.94519-5.8911-1.0507-2.3134-0.0679 2.3027-0.9982 7.8492-2.0674 12.326-1.2408 5.1951-1.743 9.8352-1.3885 12.829 0.36882 3.1142 0.0312 5.9444-1.005 8.4244-2.3077 5.5232 0.25054 4.986 6.2993-1.3228 4.6002-4.798 7.4053-5.3656 5.0844-1.0289-0.57543 1.0752-1.0462 2.9027-1.0462 4.0612 0 1.1584-0.88418 3.3255-1.9648 4.8157-1.0807 1.4902-2.3821 4.5095-2.8921 6.7095s-1.6464 6.475-2.5253 9.5c-0.87895 3.025-2.3804 8.3125-3.3364 11.75-0.9561 3.4375-2.0855 6.25-2.5098 6.25-1.2426 0-0.88796-4.6582 0.62544-8.2161 4.2096-9.8963 7.4778-26.846 3.5737-18.534-0.7104 1.5125-2.0879 2.75-3.0611 2.75-1.7027 0-2.3309 1.582-6.7177 16.918-1.2234 4.277-3.1349 3.7001-2.0414-0.61614 0.52978-2.0912 1.4044-5.6022 1.9436-7.8022s1.219-4.7875 1.5106-5.75c0.3823-1.2618-0.0301-1.75-1.4782-1.75-2.6144 0-2.8421 0.44483-5.2314 10.22-2.6896 11.004-2.7948 11.28-3.8829 10.192-0.5632-0.5632-0.009-4.4252 1.4219-9.9172 2.7804-10.668 3.2925-9.5566-3.9494-8.5738-15.409 2.0911-18.552-9.1202-13.013-46.421 0.73512-4.95 1.3564-11.459 1.3806-14.464 0.0242-3.0049 0.33184-7.1674 0.68368-9.25 0.80452-4.7619 0.14261-4.7692-2.9918-0.0328-1.9216 2.9037-2.6174 5.5643-3.0727 11.75-0.32 4.4-1.03 12.5-1.569 18-0.54031 5.5-1.2421 12.707-1.5595 16.015-0.39617 4.1291-0.03959 8.0481 1.1374 12.5 0.94296 3.5668 1.8103 8.5101 1.9275 10.985 0.11718 2.475 0.93421 6.075 1.8156 8 0.88141 1.925 2.3227 5.7703 3.2028 8.545 3.2077 10.113 5.4612 10.941 22.884 8.4104zm333.34-26.554c0.0836-2.1456 0.3086-4.799 0.5-5.8964 0.29819-1.7095-0.26755-2.0304-3.9513-2.2412-2.3646-0.1353-5.1475-0.69996-6.1843-1.2548-4.2592-2.2795-5.6996-1.3315-6.3525 4.1808-0.68673 5.7983-3.0966 9.4524-4.2506 6.4451-0.36309-0.9462 0.11945-4.1989 1.0723-7.2283 1.5221-4.8391 1.5555-5.7143 0.27542-7.2072-0.80137-0.93458-1.7652-2.562-2.1418-3.6164-1.053-2.9483-2.1738-0.7804-3.5025 6.7747-1.2194 6.9337-0.0439 11.643 2.9063 11.643 0.53732 0 0.97695 0.65917 0.97695 1.4648 0 1.8563 3.3772 3.7114 5.3668 2.9479 0.83144-0.31905 2.2888-0.14524 3.2385 0.38626 3.9512 2.2112 11.875-1.9972 12.047-6.3978zm7.1312 1.0381c4.4783-3.1367 8.0037-27.434 3.9811-27.439-2.1809-0.002-9.7644 2.5392-9.7644 3.2724 0 3.0192 2.1294 4.5801 5.5014 4.0329 3.3238-0.53937 4.8358 0.74946 2.5423 2.167-0.52598 0.32507-0.69182 1.2803-0.36854 2.1228 0.34986 0.91171-0.25884 2.1248-1.5038 2.9967-1.1938 0.83616-2.3522 3.0623-2.6988 5.1862-0.33403 2.0467-0.83775 4.9588-1.1194 6.4713-0.5834 3.1331 0.24485 3.4203 3.4301 1.1893zm-355.26-7.4547c0.66504-0.55193 1.444-3.9286 1.7309-7.5038 0.28698-3.5752 0.97021-7.0584 1.5183-7.7406 0.54809-0.68215 1.0588-3.7153 1.135-6.7403s0.56849-8.2 1.094-11.5c0.52556-3.3 1.6431-11.175 2.4835-17.5 4.2801-32.214 6.7372-48.405 7.9654-52.486 0.7472-2.4828 1.0314-4.5141 0.63155-4.5141-1.3083 0-8.0764 19.751-8.1122 23.674-0.0192 2.1045-0.71399 7.4264-1.544 11.826-0.83002 4.4-2.1502 12.5-2.9337 18-0.78353 5.5-1.8688 12.025-2.4118 14.5-0.54294 2.475-1.4876 10.575-2.0993 18-1.1121 13.5-2.9845 20.093-2.9676 10.45 0.0128-7.3104 5.5055-49.721 8.509-65.7 0.98029-5.2153-0.50072-4.6804-4.1526 1.5-3.3177 5.6147-4.9522 12.923-5.8711 26.25-0.30337 4.4-1.0052 12.275-1.5596 17.5-1.9111 18.012-2.5276 32.006-1.4579 33.093 1.1331 1.1513 6.1529 0.45943 8.042-1.1084zm11.093-1.1077c0.61138-0.49067 1.3935-3.0262 1.738-5.6345 4.129-31.263 4.742-34.484 6.2702-32.956 0.59968 0.59968-2.0998 29.291-3.299 35.063-0.49324 2.3742-0.28948 2.7912 1.2217 2.5 2.2333-0.43029 3.2158-3.7351 4.5632-15.349 0.57427-4.95 1.6854-12.067 2.4692-15.815 0.78379-3.7484 1.4251-8.7503 1.4251-11.115 0-2.7856 0.70432-5.1952 2-6.8424 2.5329-3.22 2.5413-5.9273 0.0255-8.204-1.086-0.98278-2.2413-2.6275-2.5674-3.655-1.23-3.8754-2.1846-1.588-2.8274 6.7748-0.92927 12.089-3.4104 19.135-3.7356 10.607-0.0969-2.5418-0.19155-2.4723-1.25 0.91815-1.3795 4.4189-2.4921 5.6975-3.5161 4.0407-0.68065-1.1013 1.412-18.324 3.8528-31.709 0.50148-2.75 2.0801-11.75 3.5081-20s2.9644-16.688 3.4143-18.75c0.85261-3.9088-0.49639-5.1512-2.7044-2.4907-1.0256 1.2357-3.4658 13.372-4.6731 23.241-0.33642 2.75-1.2749 8.3784-2.0856 12.508-1.4467 7.3689-4.1232 25.711-6.9303 47.492-0.77968 6.05-2.1057 15.05-2.9468 20-2.0788 12.235-2.1482 11.784 1.6859 10.964 1.7875-0.38221 3.7502-1.0964 4.3616-1.587zm207.84-1.4608c0.9044-4.8209-0.1588-9.099-2.7044-10.882-1.8345-1.2849-1.9468-1.7966-0.89898-4.0962 3.2575-7.1494-3.0776-17.482-9.2632-15.108-2.465 0.94591-2.5008 6.5899-0.0541 8.5145 2.8157 2.2148 4.4538 5.584 7.9762 16.406 3.1405 9.6482 3.9458 10.49 4.9444 5.1662zm-283.6 1.5223c5.4095-1.1601 7.5264-2.9518 8.5441-7.2317 0.36678-1.5424 1.6584-3.1933 2.8843-3.6866 1.6824-0.67696 1.8023-0.90867 0.49508-0.9567-1.7462-0.0642-1.5971-5.0318 0.22695-7.5634 0.85175-1.1821 2.0756-8.5 1.4216-8.5-0.24788 0-1.3241 0.54547-2.3917 1.2122-2.9603 1.8488-3.5403 0.24174-1.5254-4.2266 1.0007-2.2191 1.7504-5.7967 1.666-7.9502-0.11261-2.874 1.307-7.0235 5.337-15.6 5.5385-11.787 6.5601-16.598 4.5946-21.638-0.492-1.28-1.468-4.33-2.168-6.81s-2.723-7.2-4.496-10.5c-10.009-18.64-10.632-20.51-9.416-28.3 0.57755-3.7013 1.9616-7.962 3.0923-9.5193 1.9285-2.6562 1.9554-3.0119 0.46573-6.1511-0.87-1.83-1.581-3.8-1.581-4.37 0-0.57192-0.3783-1.2737-0.84068-1.5594-0.46237-0.28576-0.80425 2.1617-0.75972 5.4388 0.07968 5.8648 0.0026 6.0354-4.9093 10.866-6.7562 6.6445-11.848 6.5195-11.314-0.27777l0.324-4.13-5.638-0.3c-8.1002-0.42607-18.138 7.7427-19.722 16.05-5.701 29.903-3.5031 43.04 7.9976 47.804 1.5441 0.6396 3.9419 2.2142 5.3284 3.4992 2.8067 2.6012 6.3183-0.17177 3.6264-2.8636-2.8242-2.8242 4.7418-7.6224 8.1999-5.2003 1.5262 1.069 4.7385 1.5076 11.04 1.5076 16.948 0 21.561 5.2982 13.824 15.878-11.297 15.45-12.199 17.12-9.216 17.12 2.5358 0 3.641 1.8394 1.5804 2.6302-0.92763 0.35596-1.4821 1.5052-1.3134 2.7221 0.2238 1.6142-0.35934 2.2277-2.4968 2.6269-1.6493 0.30802-3.293 1.5423-4.0228 3.0208-1.3073 2.6485-5.6651 3.7246-10.336 2.5524-2.2662-0.56877-2.3004-0.70237-0.77543-3.0297 0.8774-1.3391 1.3376-2.8516 1.0227-3.3611-0.93611-1.5147 3.368-6.1603 5.7228-6.1768 3.1112-0.0219 3.6882-0.59204 9.575-9.462 2.9119-4.3875 6.6012-9.6273 8.1984-11.644 4.3073-5.4384 1.2524-8.438-6.5894-6.4698-1.562 0.39-2.507 0.2-2.507-0.5 0-0.70835-1.4794-0.98301-4-0.74263-2.2 0.2098-4 0.0883-4-0.26996 0-0.91963-5.7029-1.9527-7.331-1.3279-2.1555 0.82714-6.1128 8.4265-4.388 8.4265 0.77495 0 2.2235-0.9 3.219-2 1.9976-2.2073 4.0245-2.5785 5.0468-0.92423 0.36568 0.59168-1.6869 3.1821-4.5612 5.7566-6.8705 6.1537-7.0651 10.59-0.21313 4.8606 2.3499-1.9648 5.1624-3.8548 6.25-4.2 1.087-0.34 1.977-1.04 1.977-1.56 0-0.51 0.45-0.93 1-0.93 1.9239 0 0.96308 1.8248-3.6799 6.9889-3.747 4.1676-4.4735 5.5358-3.6444 6.8634 0.56957 0.91203 0.67734 2.3308 0.23949 3.1529-0.43785 0.82209-1.0377 2.6575-1.3331 4.0788-0.29533 1.4212-1.9575 4.3462-3.6936 6.5-5.6702 7.034-7.0481 11.274-5.3067 16.328 2.6991 7.8341 4.2143 9.8073 9.5868 12.485 6.0392 3.0095 5.2961 2.9114 11.683 1.5417zm-7.85-39.95c0-1.33 6.976-9 8.189-9 1.095 0-6.296 9.89-7.439 9.96-0.412 0.02-0.75-0.41-0.75-0.96zm53.563 22.901c0.29487-4.6219 1.1889-13.79 1.9867-20.374 0.797-6.58 1.45-12.1 1.45-12.25s-0.378-0.28-0.839-0.28c-1.9099 0-3.336 6.1334-4.7431 20.399-0.81921 8.3054-1.7135 15.841-1.9874 16.745-0.45919 1.5167 2.3066 5.4521 3.2023 4.5564 0.21682-0.21681 0.63547-4.1757 0.93034-8.7976zm363.67 7.2654c2.0874-2.0874-0.45492-7.1365-4.1036-8.15-5.09-1.41-6.13-1.28-6.13 0.78 0 0.99-0.46475 2.2648-1.0328 2.8328-1.414 1.414-0.30303 3.887 2.3411 5.2115 2.2557 1.1299 7.5157 0.73171 8.9229-0.6755zm-14.643-14.009c-1.787-1.787-2.7443-1.158-3.1309 2.0572-0.15095 1.2555-0.58884 3.0702-0.97307 4.0328-0.52871 1.3244-0.20055 1.75 1.3494 1.75 1.1264 0 2.412 0.5625 2.857 1.25 0.49561 0.76576 0.93097-0.45434 1.1238-3.1495 0.2127-2.9726-0.185-4.8993-1.2262-5.9405zm-143.59 2.84c1.1732-0.7582 0.91378-0.97271-1.191-0.98469-1.48-0.008-2.9691 0.43469-3.309 0.98469-0.78917 1.2769 2.5241 1.2769 4.5 0zm173.03-1.5246c3.1856-2.8829 2.9435-15.91-0.27717-14.914-8.5245 2.6358-13.709 10.843-10.316 16.332 0.98217 1.5892 8.3623 0.60169 10.593-1.4174zm-13.61-3.63c0.82602-6.2268 0.1227-7.0735-5.5391-6.668l-4.38 0.32-0.30865 4.2736c-0.28863 3.9964-0.094 4.3668 3 5.7109 5.6825 2.4684 6.4775 2.0694 7.2336-3.6306zm-369.54-3.45c0.11082-7.3872-0.26385-8.5705-2.4483-7.7322-1.4139 0.54256-1.3256 9.507 0.13939 14.149 0.98375 3.1171 2.2173-0.31109 2.3089-6.4167zm214.62 2.35c1.1-0.0515 3.5913 0.24093 5.5361 0.64993 3.747 0.78799 3.7304 0.81905 3.0451-5.6678-0.11245-1.0645-5.2518 0.25613-7.0812 1.8196-0.8498 0.72626-2.7029 1.0489-4.2751 0.74431-2.2657-0.43893-2.5143-0.74481-1.3545-1.6662 1.8348-1.4576 3.7755-16.604 2.3572-18.397-0.70635-0.89294-0.44439-1.886 0.88438-3.3526 1.3963-1.5411 2.0182-4.1472 2.388-10.006l0.5-7.9226-2.892 0.63584-2.892 0.63584 2.2466-2.3607c4.0809-4.2881 4.692-6.1076 4.2634-12.696-0.39791-6.1166-0.49512-6.3142-2.819-5.731-3.2515 0.81607-3.0447-0.78485 0.59311-4.5914 3.79-3.97 4.46-11.84 1-11.84-2.5256 0-2.5437-1.09-0.0535-3.2222 3.4442-2.949 6.7789-21.778 3.857-21.778-2.6131 0-5.3995 4.3599-7.6694 12-1.2255 4.125-3.0911 10.127-4.1456 13.339-1.7822 5.4272-1.8073 6.1322-0.35582 10 0.85885 2.2886 1.9212 6.6362 2.3607 9.6612 0.43952 3.025 1.119 6.2875 1.5099 7.25 0.39093 0.9625 0.30907 1.75-0.18192 1.75-1.045 0-1.069 0.16403-2.1127 14.5-0.44048 6.05-1.3426 11.983-2.0047 13.184-0.66211 1.2013-1.2038 3.7623-1.2038 5.691s-0.46864 3.7964-1.0414 4.1504c-0.57279 0.354-0.93985 2.9681-0.81569 5.809 0.12415 2.841-0.156 6.0197-0.62257 7.0639-0.79113 1.7706-0.51713 1.8495 4.0657 1.1712 2.7027-0.40001 5.814-0.76947 6.914-0.82101zm141.5-5.25c0-4.3604-0.0957-4.5-3.0833-4.5-1.6958 0-2.9311 0.3375-2.745 0.75 0.18608 0.4125 0.98898 2.4375 1.7842 4.5 2.0278 5.2593 4.0441 4.8853 4.0441-0.75zm-115.61-2.0818c2.3174-6.0389 0.4808-10.61-5.6015-13.943l-2.7085-1.4839-2.0415 6.6096c-2.5836 8.3647-2.5819 8.3851 0.70851 8.4692 1.5125 0.0386 3.65 0.45702 4.75 0.92971 3.0271 1.3008 4.2253 1.1584 4.893-0.58179zm-16.6-2.2617c0.71139-0.91107 1.5372-2.7815 1.8352-4.1565 0.29798-1.375 1.1784-4.1966 1.9566-6.2702 1.9599-5.223 1.8239-5.7298-1.5382-5.7298-6.7713 0-9.3265 2.9343-10.605 12.179-0.9551 6.9034 4.1638 9.3412 8.3519 3.9775zm145.97-0.92707c0.23714-0.72218-0.91655-1.7355-2.673-2.3478-1.7664-0.61579-3.0928-1.785-3.0964-2.7294-0.003-0.90869-0.67839-2.9411-1.5-4.5165-0.82-1.58-1.49-3.44-1.49-4.15 0-1.33-2.14-2.49-4.58-2.49-0.78 0-1.42 0.73-1.42 1.62 0 1.4599-0.25219 1.4498-2.6258-0.10548-5.046-3.3063-5.9246 2.0502-1.3679 8.3404 3.5712 4.9299 4.8362 5.1877 5.6437 1.15 0.89914-4.4957 2.35-3.6126 2.35 1.4304 0 3.7929 0.32377 4.496 2.25 4.8859 3.8529 0.77996 8.0773 0.24061 8.5132-1.087zm16.047-9.2092c0.17057-3.0106 0.0683-5.2319-0.22738-4.9363-0.52539 0.52538-1.3604 4.2012-1.5084 6.6404-0.0409 0.67338-1.3951 1.9073-3.0094 2.7421-3.8444 1.988-4.6179-0.0233-3.1217-8.1168 0.58126-3.1443 1.0568-6.0691 1.0568-6.4995 0-0.43044-1.5989 0.16074-3.553 1.3137l-3.553 2.0964 0.48943 7.1199c0.26918 3.916 0.51805 7.6689 0.55303 8.3399 0.0449 0.86044 1.9056 0.56484 6.3136-1.003l6.25-2.223 0.31012-5.4738zm-386.39-2.08c5.6059-8.4711 4.5726-25.164-1.9959-32.242-2.404-2.59-2.716-5.7-0.572-5.7 1.6623 0 8.0852 7.8972 8.7226 10.725 2.465 10.934 3.693 13.157 4.9971 9.0484 0.39379-1.2407 2.3886-4.2848 4.4328-6.7645 2.0442-2.4798 4.792-6.5311 6.106-9.0031 1.314-2.4719 3.1062-5.2937 3.9827-6.2706 0.87641-0.97687 2.1851-5.0294 2.9081-9.0056 1.5115-8.3118 2.1659-9.2462 10.781-15.394 7.7196-5.5086 8.0163-6.2311 6.982-17.005-0.92662-9.6535 0.0649-12.7 3.208-9.8552 0.98323 0.88981 2.903 1.3646 4.6066 1.1394 2.7438-0.36279 5.4433-1.477 21.3-8.7915 3.5086-1.6185 8.2336-3.684 10.5-4.59 2.2664-0.90604 7.4957-3.4964 11.621-5.7564 4.125-2.26 10.095-5.1471 13.267-6.4159 5.943-2.3772 9.0924-4.9163 4.6393-3.7403-3.2534 0.85919-20.71 5.1077-29.718 7.2323-11.831 2.7907-12.422-0.59331-0.6887-3.9423 24.087-6.8749 31.333-8.5396 39-8.9593 5.8437-0.31988 12.5-2.778 12.5-4.6161 0-0.50243 1.7521-2.9379 3.8936-5.4121 5.7328-6.6237 7.7557-12.467 5.6955-16.451-0.98-1.88-1.59-5.59-1.59-9.59 0-5.7477-0.26484-6.6501-2.25-7.6667-1.2375-0.63372-2.925-1.9455-3.75-2.9151-8.6526-10.169-9.283-11.12-8.1317-12.271 0.9078-0.9078 2.7059 0.43189 7.7762 5.7937l6.5953 6.9746-0.54416-5.5c-1.218-12.31-2.969-13.508-17.779-12.167-9.5741 0.86725-11.65 0.78508-14.5-0.57398-3.2322-1.5413-3.4963-1.4954-9.3515 1.6253-10.029 5.3453-23.563 8.0056-48.276 9.4896l-8.7102 0.52302-7.7338-8.9485c-8.916-10.316-8.1183-10.02-14.452-5.3706-2.6807 1.9678-6.4492 4.0128-8.3744 4.5444-1.9252 0.53158-5.5571 2.7465-8.0708 4.9221-10.595 9.1699-34.963-3.0826-43.842-22.044-0.38631-0.825-1.7876-3.3-3.1139-5.5-2.4549-4.072-4.0252-6.9111-8.9874-16.25-2.698-5.07-4.5-6.63-4.5-3.9 0 0.73334 0.33076 1.6641 0.73503 2.0684 0.40427 0.40426 0.79857 8.2418 0.87623 17.417 0.07766 9.1749 0.1969 17.65 0.26497 18.834 0.08169 1.4209 1.9344 3.3546 5.4499 5.6881 6.9014 4.5809 8.2814 6.2222 6.7666 8.0474-1.2925 1.5574-0.72264 7.0764 1.5862 15.362 1.6337 5.8627 3.8039 6.8812 4.8185 2.2615 1.4289-6.5056 2.0967-3.2733 1.9221 9.3023-0.29753 21.421 0.88432 24.788 4.0125 11.434 1.0626-4.5363 2.7752-10.273 3.8059-12.748 1.0306-2.475 2.3156-5.5706 2.8554-6.8792 1.6896-4.0954 2.0065-1.6552 0.38274 2.947-3.37 9.5516-7.3589 28.781-7.661 36.932-0.37722 10.177 1.1133 11.498 3.0132 2.6712 1.9014-8.8344 7.0167-24.409 9.7454-29.671 3.1029-5.9844 3.0436-2.7193-0.11394 6.2688-1.3972 3.9772-3.409 11.105-4.4707 15.839-1.0617 4.7343-2.4032 9.8515-2.9812 11.372-0.75506 1.986-0.73183 3.1482 0.08255 4.1295 0.62335 0.7511 0.85657 2.087 0.51825 2.9686-2.5557 6.66 1.6228 1.3668 6.0914-7.7165 9.718-19.754 13.247-24 21.034-25.316 4.6262-0.78159 11.405-5.1899 15.266-9.9274 1.375-1.6873 4.1875-4.6153 6.25-6.5067 4.106-3.7653 4.9483-5.8224 1.6643-4.0649-2.9644 1.5865-3.4409 0.52261-0.84787-1.8932 3.3864-3.1549 20.917-11.394 28.045-13.18 12.8-3.2 15.89-3.27 15.89-0.34 0 1.6229-2.8941 2.9846-8.1495 3.8344-4.0713 0.65832-6.2697 2.7057-6.3182 5.8841-0.0201 1.3203-0.78514 2.2479-2.0323 2.4642-1.1 0.19076-4.925 1.5028-8.5 2.9158-3.575 1.4129-8.2391 2.9662-10.365 3.4518-4.1206 0.94137-5.3508 2.0934-11.748 11.001-2.2433 3.1238-4.8233 6.0115-5.7332 6.4171-0.90994 0.40559-5.2462 2.1247-9.6362 3.8203-9.8869 3.8187-13.232 8.2939-25.101 33.583-4.2592 9.075-9.4706 18.995-11.581 22.043-3.7388 5.402-4.7936 9.583-2.9029 11.507 2.5257 2.5696 15.084 29.04 17.531 36.95 1.5308 4.95 4.3645 12.269 6.297 16.264 3.1635 6.5404 3.4596 7.861 2.971 13.25-0.63918 7.049 0.05722 7.413 3.6875 1.9272zm-18.332-57.82c-3.432-2.85-3.827-6.12-0.738-6.12 1.8155 0 6.9561 6.6958 6.1464 8.0059-0.91432 1.4794-1.6607 1.2187-5.4084-1.8893zm34.412-5.12c-1.068-1.7281 6.2084-7.5415 17.028-13.605 1.6275-0.91197 2.023-2.3636 2.2667-8.3183 0.20517-5.0138 0.65669-7.093 1.4807-6.8183 3.7694 1.2565 2.5539 19.741-1.2982 19.741-2.2992 0-5.4243 1.6773-11.644 6.25-5.3148 3.9071-6.7966 4.4273-7.8332 2.75zm-21.619-100.9c-5.334-3.82-8.881-7.84-8.881-10.06 0-1.9019 1.9621-1.0666 5.6371 2.3998 3.4091 3.2156 9.3823 6.703 13.78 8.0453 2.2954 0.70066 1.1466 2.1158-2.4346 2.9989-1.9329 0.47664-3.8139-0.30763-8.1013-3.3778zm26.758 3.2047c-1.1609-1.1609-0.66611-5.354 1.0154-8.6058 3.6146-6.99 10.113-14.962 11.498-14.106 1.7634 1.0899 0.73906 5.4594-2.021 8.6206-1.5774 1.8066-4.0438 5.6154-5.481 8.464-2.7056 5.3626-3.9164 6.7221-5.0116 5.6269zm84.5-13.89c-5.5898-3.4112-4.1115-4.4595 5.3138-3.768 12.006 0.88076 14.94 4.6267 4.5468 5.8054-4.8197 0.5466-6.0393 0.29462-9.8606-2.0374zm138.99 172.1c2.7892-7.7565 0.35199-14.669-6.4041-18.162-3.1244-1.6157-4.6211-1.1502-4.543 1.4129 0.029 0.95167-0.27046 4.2053-0.66546 7.2303-0.70684 5.4131-0.66523 5.5385 2.6336 7.9377 1.8435 1.3407 3.9398 3.2532 4.6585 4.25 1.9229 2.6669 2.5385 2.2867 4.3204-2.6686zm124.87 1.55c0-3.2104-1.4695-4.8839-2.3268-2.6497-0.69 1.79 0.29 5.59 1.45 5.59 0.48 0 0.88-1.32 0.88-2.94zm-380-9.58c0-2.3183-1.5639-1.7283-2.8395 1.0712-2.1322 4.6796-1.4859 7.4989 0.84322 3.6788 1.098-1.8 1.996-3.94 1.996-4.75zm239.16 2.765c2.42-2.42 2.1713-15.941-0.30459-16.562-6.5073-1.6332-9.3585 2.745-8.2379 12.65l0.66612 5.8877 3.5223-0.57159c1.9373-0.31438 3.8966-0.94589 4.3541-1.4034zm140.72-3.49c0.51612-1.7875 0.98588-2.575 1.0439-1.75 0.23642 3.3612 1.7143 4.2367 5.9455 3.5219 4.4777-0.7565 5.9067-2.7382 8.0979-11.23 0.59719-2.3143 1.4726-4.4468 1.9453-4.739 1.3051-0.80658 2.2869-7.352 1.4771-9.847-0.98319-3.0291-2.6138 2.5575-1.7505 5.9973 0.43339 1.7268 0.15083 2.2964-1.139 2.2964-1.0608 0-1.5101-0.53509-1.1773-1.4022 1.1513-3.0003-0.91869-2.5328-10.301 2.3264-0.81249 0.42079-1.7328 1.8475-2.0451 3.1704-0.31231 1.323-0.99754 2.1937-1.5227 1.9349-0.52521-0.25874-0.82269-1.0462-0.66108-1.75 0.21-0.89-1.05-1.28-4.16-1.28-7.6963 0-8.0156 0.48647-4.2169 6.4248 1.8415 2.8788 3.6582 6.2108 4.0371 7.4046 1.0177 3.2066 3.3626 2.6359 4.4354-1.0795zm-10.88 0.16c0-5.0477-9.6624-18.583-11.765-16.481-0.82029 0.82028 2.2189 7.0377 6.5102 13.318 3.8502 5.635 5.2547 6.4803 5.2547 3.1625zm-113.5-17.45c0-8.9385-3.671-12.199-8.0584-7.1573-3.1916 3.6676-3.2862 8.4158-0.19161 9.6174 1.2375 0.48053 3.15 1.7908 4.25 2.9116 3.1343 3.1937 4 2.0311 4-5.3718zm121.93 1.5616c2.2627-0.86028 2.5633-1.5381 2.5498-5.75-0.0199-6.1988-0.40767-6.6384-7.2813-8.254-3.1881-0.74937-6.0272-1.7356-6.309-2.1916-0.28-0.45-1.16-0.82-1.95-0.82-3.9321 0-0.65536 16.226 3.5034 17.348 2.923 0.78897 6.9233 0.65267 9.4905-0.32336zm-136.69-1.8436c2.1108-1.3405 1.4569-14.005-0.78507-15.205-6.6842-3.5773-10.141-0.0873-8.7432 8.8269 1.1423 7.2844 4.5301 9.5521 9.5282 6.3778zm119.89-7.4523c-0.20169-5.8263-0.80632-9.0647-2.0456-10.956-1.7098-2.6095-1.3929-5.3891 0.48225-4.2302 0.54276 0.33544 0.9309-2.5352 0.9309-6.8849v-7.4602l-3.5572-2.0988c-1.95-1.16-3.75-2.1-3.99-2.1-0.74617 0 0.6196 20.238 1.7001 25.192 0.56284 2.5806 0.71971 5.6486 0.34859 6.8179-0.67155 2.1159 3.7412 9.9902 5.5985 9.9902 0.45285 0 0.69453-3.722 0.53704-8.2711zm28.435 5.113c4.1331-2.3229 4.7843-3.3224 5.9235-9.0919 0.91163-4.617-0.19269-4.8005-7.741-1.2862l-5.25 2.4442v5.046c0 5.8772 1.0126 6.291 7.0675 2.8879zm-131.03-11.43c2.0402-5.3662-5.0166-17.293-10.284-17.381-2.4691-0.0414-2.6181 12.424-0.15976 13.367 0.87464 0.33562 2.0037 0.35472 2.509 0.0424 1.9273-1.1912 5.0044 0.65944 4.378 2.633-1.3128 4.1364 2.0166 5.3897 3.5568 1.3388zm121.47-10.41c0-4.675-0.11879-8.9534-0.26398-9.5076-0.14584-0.55669-3.8022-1.06-8.1702-1.1246l-7.9062-0.11694-0.37554 6.6246c-0.41496 7.32 0.41288 10.117 3.0012 10.14 0.94315 0.008 3.5148 0.67202 5.7148 1.475 7.4451 2.7173 8 2.1978 8-7.49zm9.5834 7.4706c5.2689-1.859 5.9578-2.84 4.8083-6.8479-0.49-1.71-0.89-5.98-0.89-9.49v-6.3874l-3.6902 0.59884c-6.8376 1.1096-8.936 7.1056-6.7939 19.413 0.84019 4.8271 0.72828 4.7808 6.5676 2.7206zm-147.67-3.0776c1.2141-0.46591 1.5818-2.0929 1.5818-7l0.01-6.39h-5.0314c-5.5682 0-5.5408-0.0332-6.3305 7.6951l-0.53085 5.1951 4.1964 0.38017c2.308 0.2091 4.2721 0.45879 4.3646 0.55488 0.0925 0.0961 0.88002-0.0984 1.75-0.43228zm22.82-8.89c2.1326-5.5732 2.9706-11.724 1.8352-13.471-1.3768-2.118-1.7637-1.3457-3.5034 6.9936-2.5772 12.354-1.7739 15.473 1.6682 6.4774zm-5.0634-2.5817c0.36654-1.3301 1.165-5.1183 1.7743-8.4183l1.1079-6-3.2365-2.75c-5.018-4.2637-6.2342-3.6988-8.6728 4.0282-2.48 7.87-2.67 10.22-0.79 10.22 0.74438 0 2.6569 1.3125 4.25 2.9166 3.3517 3.3749 4.6333 3.3753 5.563 0.002zm-15.216-5.388c1.04-0.64 5.05-13.16 5.05-15.77 0-1.7471-2.8931-2.7254-8.1182-2.7452-3.8914-0.0147-5.4547 3.3053-7.3852 15.684l-0.6546 4.1973 5.0603-0.37675c2.7832-0.20721 5.505-0.65162 6.0486-0.98758zm132.8-1.16c2.1491-0.57594 2.25-1.0659 2.25-10.927 0-12.031 0.26217-11.731-9.4756-10.848l-7.52 0.68v8.7396c0 9.5401 0.32696 10.183 6 11.804 4.2933 1.2266 5.8583 1.325 8.75 0.55004zm10.747-3.8038c6.79-2.84 5.26-21.57-1.77-21.57-3.5286 0-5.2329 6.7765-4.1792 16.616 0.74352 6.9429 0.88824 7.0633 5.9472 4.9496zm-27.89-2.1477c-0.34-0.87-0.61-4.85-0.61-8.84v-7.2599l-3.75-1.1281c-3.93-1.18-7.65-5.19-4.82-5.19 0.7972 0 1.7276 0.45 2.0675 1 2.2677 3.6693 6.6166 0.95425 6.0067-3.75-1.1656-8.9898-1.0265-8.7872-7.2177-10.51-7.3855-2.0556-7.5043-1.4058-3.2475 17.76 0.48861 2.2 1.4261 6.5888 2.0833 9.753 0.972 4.6798 1.7713 6.1224 4.2851 7.7332 3.7799 2.4222 6.0327 2.6094 5.1972 0.43208zm37.23-7.17c0.15509-3.7125 0.36619-7.6328 0.46912-8.7117 0.11467-1.2021-0.53161-2.1096-1.6691-2.3438-3.0376-0.62528-3.8165 1.0788-2.6944 5.8946 0.56528 2.426 1.2783 6.0983 1.5845 8.1608 0.87192 5.8732 2.0004 4.4075 2.3098-3zm-129.84 3.69c0-0.52-0.45-0.94-1-0.94s-1 0.70156-1 1.559c0 0.85746 0.45 1.2809 1 0.94098s1-1.0415 1-1.559zm-0.14397-13.687c1.61-4.18 3.14-5.57 3.14-2.87 0 0.75783-0.70299 3.0604-1.5622 5.1167-1.532 3.6667-1.3659 6.5054 0.38079 6.5054 0.48475 0 2.0941-2.8535 3.5764-6.3411s4.2498-8.7019 6.15-11.587c3.8566-5.8559 4.3238-7.6507 1.705-6.55-0.9625 0.40457-2.7886 0.96016-4.058 1.2346-1.2694 0.27449-2.1186 1.0041-1.8872 1.6214 2.0031 5.3429 1.9744 5.4048-2.1534 4.65-2.1457-0.39237-5.2645-1.6841-6.9307-2.8705-4.4281-3.1531-5.8391-2.7074-8.5565 2.703-3.8184 7.6024-4.3189 12.475-1.4758 14.369 1.2714 0.84705 3.4124 2.5088 4.7577 3.6928l2.4461 2.1526 1.41-3.7873c0.77547-2.083 2.1497-5.6982 3.0539-8.0336zm-33.896 3.2941c1.322-1.593 4.4618-15.459 3.678-16.243-1.2405-1.2405-4.4646 1.0684-6.2223 4.4559-3.5172 6.7786-1.408 16.549 2.5444 11.787zm17.04-2.4c0-1.0244 1.3108-5.0412 2.9129-8.9264 3.2436-7.8657 3.08-8.2238-3.7447-8.1964-6.4201 0.0258-8.437 1.7679-9.8357 8.4954-2.19 10.57-2.23 10.49 4.67 10.49 5.1856 0 6-0.25279 6-1.8625zm126.75-2.7678c2.0955-0.56157 2.25-1.1521 2.25-8.5998v-7.9969l-3.25 0.61387c-1.7875 0.33763-6.04 0.89851-9.45 1.2464l-6.2 0.63252 0.60212 6.6171c0.33116 3.6394 1.0962 6.9477 1.7 7.3518 1.3235 0.88567 11.2 0.97862 14.348 0.13502zm-179.55-8.3771c4.7811-9.6805 6.3085-14.439 8.2617-25.74 0.87906-5.0859 1.8045-9.8109 2.0566-10.5 0.45567-1.2456 0.83952-3.749 3.9488-25.753 2.2314-15.792 2.1577-15.548 5.7258-18.883l3.1769-2.9691-1.7875-3.9639c-1.0266-2.2765-1.5084-4.843-1.132-6.0291 0.36052-1.1359 1.0363-4.2229 1.5017-6.86 1.7016-9.6414 11.517-56.338 12.652-60.194 1.0436-3.5441-7.9429 3.2169-10.078 7.5823-2.2575 4.6153-7.6739 28.737-10.624 47.317-0.56774 3.575-2.5869 14.15-4.4871 23.5s-3.8959 19.172-4.4349 21.826c-0.53904 2.6545-0.98007 5.917-0.98007 7.25s-0.45 2.4237-1 2.4237-0.98611-0.7875-0.96912-1.75c0.0486-2.7549 1.8295-15.846 2.5417-18.683 0.95144-3.7908-1.1052-3.1946-4.3284 1.2548-2.7604 3.8106-2.7663 3.8542-2.0632 15.25 0.38777 6.2857 0.76809 16.153 0.84514 21.928 0.077 5.775 0.5656 12.171 1.0857 14.213 0.71188 2.7957 0.56777 4.6177-0.58311 7.3721-0.84079 2.0123-1.5287 4.4284-1.5287 5.3692 0 1.9075-6.5034 7.5258-10.447 9.0252-3.6864 1.4016-3.1508 2.5907 1.6972 3.7683 6.495 1.5777 6.9836 1.2763 10.951-6.7556zm18.8-109.68c0.00039-4.1113 7.2627-37.307 8.6543-39.559 2.1298-3.4461 1.483 2.6896-1.684 15.976-2.0681 8.6758-4.0716 17.684-4.4523 20.019-0.70229 4.3067-2.5183 6.8773-2.518 3.5643zm-229.53 112.74c2.0071-3.8812 1.9385-4.2474-0.72432-3.8692-1.7245 0.24492-2.3232 1.0786-2.5634 3.5696-0.3907 4.0521 1.269 4.2034 3.2877 0.29966zm398.94 2.3434c1.159-0.44476 1.5818-1.9833 1.5818-5.7566 0-2.8323 0.44831-6.7128 0.99624-8.6233 0.54792-1.9105 1.2842-8.4326 1.6362-14.493 0.35198-6.0608 1.0704-11.856 1.5964-12.877 1.7439-3.3866-0.63808-3.74-6.0094-0.89139-6.4111 3.4-6.3925 3.3493-5.045 13.788l1.1047 8.5579 2.8604-0.62825c3.5674-0.78353 3.5671-0.34971-0.003 3.7459-2.6273 3.0144-2.8454 3.8611-2.6492 10.285 0.26037 8.5208 0.15768 8.3408 3.9304 6.893zm23.313-8.9066c4.0397-1.9175 7.7059-3.4864 8.1471-3.4864 6.7711 0 21.921-13.767 20.658-18.773-0.37822-1.5-1.3052-6.1022-2.0599-10.227-1.4571-7.9635-2.4722-12.657-5.5151-25.5-1.0425-4.4-2.1824-9.6715-2.5332-11.714-0.35075-2.0429-1.2953-4.2601-2.099-4.9272-3.467-2.8773-6.0669-10.488-8.9145-26.094-2.9078-15.936 4.7904-11.029 9.7836 6.2359 1.095 3.7863 1.6979 4.5 3.8014 4.5 3.204 0 3.1108-1.4702-0.79292-12.5-4.7527-13.429-11.431-50.522-11.287-62.689 0.0951-8.0317 0.0903-8.0386-6.026-8.7923-2.4433-0.3011-5.0009-1.3131-5.7616-2.2798-1.1905-1.513-1.2772-1.1551-0.66835 2.7616 0.3847 2.475 1.3296 8.55 2.0999 13.5 1.8648 11.985 1.853 16.5-0.0434 16.5-2.5525 0-5.2106-7.0264-5.8638-15.5-1.4203-18.425-1.9045-21.01-5.2916-28.25-5.3028-11.335-7.0681-6.8397-3.4363 8.75 1.0743 4.6116 1.4991 7.4041 2.5863 17 2.5232 22.271 2.5716 131.89 0.0709 160.37l-0.51536 5.868 3.158-0.63161c1.7369-0.34738 6.4632-2.2005 10.503-4.118zm-174.84-1.68c6.08-3.69 11.91-19.8 7.17-19.8-2.7879 0-8.3052 6.9369-9.5721 12.035-0.74692 3.0057-1.6628 6.4774-2.0353 7.7149-0.84543 2.8087-0.11436 2.8174 4.438 0.0528zm39.466-3.9919 3.4346-5.1244-4.9902-3.9445c-5.6341-4.4535-5.7521-4.4052-8.6693 3.5455-2.7268 7.4319-2.7707 7.1759 1.6265 9.4895 4.4931 2.3641 4.294 2.456 8.5984-3.9662zm-15.194-1.0263c0.44829-0.70652 0.82197-1.8718 0.83039-2.5894 0.008-0.71768 0.95464-3.3668 2.1027-5.887 2.4074-5.2846 2.0062-5.8576-4.8246-6.8906-6.8662-1.0384-9.0204-0.0276-10.32 4.8422-0.62216 2.3322-1.7168 5.8999-2.4325 7.9284-1.5947 4.5197 11.904 6.9133 14.644 2.5965zm118.59-2.01c1.5413-1.2506 1.5845-5.1849 0.14735-13.437-1.2107-6.9523-1.1894-6.9348-6.0252-4.9429-1.8547 0.76398-5.7346 1.7062-8.6221 2.0938-4.051 0.54383-5.25 1.102-5.25 2.4442 0 1.5938 1.797 12.189 2.4759 14.598 0.36889 1.3091 15.548 0.64479 17.274-0.756zm-20.382-2.8027c-0.26065-6.8628-3.751-12.62-9.3802-15.473-6.9551-3.5244-6.2507-5.5319 1.5119-4.3091 2.2295 0.35123 2.2302 0.32946 0.24165-8.6849-0.72795-3.3-1.7551-5.9744-2.2826-5.9431-10.195 0.60472-15.333 1.8364-15.912 3.8139-1.1674 3.9876-3.9504-1.9249-5.073-10.778l-1.0263-8.093-2.9737 0.26992c-1.6355 0.14845-5.4487 0.61067-8.4737 1.0272l-5.5 0.75724 0.21264 4.4728c0.11696 2.4601 0.97487 6.1649 1.9065 8.233 2.0401 4.5288 1.5 5.2453-3.672 4.8719-5.2788-0.38114-9.9472 0.71687-9.9472 2.3396 0 0.97485-0.96522 0.81732-3.75-0.61203-2.8866-1.4816-5.592-1.8885-11.75-1.7671-6.2251 0.12269-9.7749-0.4219-16-2.4547-9.614-3.1394-11.5-3.2641-11.5-0.76031 0 1.0326-0.675 2.4378-1.5 3.1224-2.1891 1.8168-1.9084 5 0.44098 5 1.0675 0 2.2191 0.45 2.559 1 0.33992 0.55 4.3764 1 8.9699 1 5.3538 0 10.512 0.67221 14.368 1.8726 4.1834 1.302 6.3349 1.5542 7.0614 0.82764 1.0875-1.0875 8.1002 1.9661 8.1002 3.5272 0 1.5594 2.2925 0.68534 7.809-2.9774 6.4644-4.2922 18.579-5.7621 26.351-3.1973 4.0578 1.3392 6.0147 0.72177 4.0236-1.2694-1.4126-1.4126-1.542-2.7833-0.26279-2.7833 0.5063 0 1.2041 1.291 1.5506 2.8688 0.46627 2.1229 1.8379 3.488 5.2754 5.25 5.6606 2.9016 14.002 11.031 14.871 14.493 1.1175 4.4525-1.0606 4.8787-4.9673 0.97197-4.5107-4.5107-7.4176-4.9683-5.2781-0.83097 4.0918 7.9127 14.253 10.972 13.996 4.2143zm-78.87-4.72c0.39033-0.9625 1.5258-4.0735 2.5233-6.9133l1.8136-5.1633-2.8214-1.1686c-4.4368-1.8378-7.2991-0.92967-9.2239 2.9265l-1.7126 3.4312 3.7126 4.2246c4.2521 4.8385 4.7348 5.0637 5.7084 2.663zm9.4922-3.7514c4.1761-4.1265 5.2095-5.7012 4.3232-6.5875-1.8113-1.8113-5.8306-0.25387-7.2641 2.8148-5.1384 11-4.8053 11.427 2.9409 3.7726zm-47.282-3.0658c3.3626-2.275 5.9958-6.5762 6.2183-10.157 0.11044-1.7772-5.2504-4.2646-7.7707-3.6055-3.16 0.82637-2.6756-1.5211 0.56844-2.7544 1.9304-0.73394 3.4495-0.70316 5.2251 0.10587 2.1538 0.98134 2.7513 0.83452 4.2783-1.0513 2.5355-3.1312 2.3956-9.6386-0.2251-10.47-3.4545-1.0964-5.7723 0.24017-5.2405 3.022 0.27189 1.4223 0.005 2.478-0.62604 2.478-1.4827 0-6.4023-9.8569-5.7578-11.536 1.9241-5.0142-6.7926-19.178-10.422-16.935-2.4048 1.4863 5.1545 20.329 10.652 26.55 1.7895 2.0253 1.9728 5.8991 0.19495 4.1213-3.5237-3.5237-5.4672 2.5112-3.5925 11.155 0.61371 2.8297 1.0751 6.6074 1.0253 8.3949-0.10925 3.921 0.56273 4.0049 5.4729 0.68281zm27.009-4.3283c2.1638-2.841 1.3861-3.8376-3.4644-4.4389-2.6125-0.32391-6.8768-0.88849-9.4763-1.2546-4.9679-0.69971-7.7089 1.9885-6.1554 6.0368 1.1198 2.9182 16.827 2.6359 19.096-0.3432zm105-3.8381c3.5683-1.6797 3.7926-2.0568 3.9398-6.6235l0.15603-4.8424-3.156 0.60759c-12.505 2.4075-15.28 1.4654-5.8957-2.0016 7.7495-2.8629 11.646-10.656 4.4897-8.9788-21.47 5.0324-23.654 7.5265-18.175 20.754 1.732 4.1813 10.927 4.7165 18.641 1.085zm17.61-7.26c1.0344 0 1.4214-1.4603 1.4577-5.5 0.0544-6.0498-0.2048-6.3046-3.8132-3.75-1.3595 0.9625-3.8221 2.2-5.4725 2.75-2.556 0.85182-3.048 1.5776-3.3199 4.8982-0.41251 5.0377 1.1706 5.9734 5.9667 3.5266 2.0751-1.0586 4.4066-1.9248 5.1812-1.9248zm-100.04-8.0156c-0.28989-1.1086-0.92277-2.2601-1.4064-2.559-0.48361-0.29889-0.88618-1.7544-0.8946-3.2344-0.0244-4.2792-1.1221-5.0469-8.2624-5.7784-7.692-0.78807-8.1774-0.0896-5.1665 7.4354 1.5953 3.987 3.0352 4.5604 15.101 6.0129 0.68614 0.0826 0.94204-0.68043 0.62929-1.8764zm17.71 1.42c0-8.5888-4.2273-13.488-11-12.749-7.2524 0.79162-7.4429 1.0862-4.9724 7.6892l2.11 5.66h6.9282c3.81 0 6.93-0.27 6.93-0.6zm-351.45-2.48c0.36708-0.59395-0.22921-1.7079-1.3251-2.4755-1.0959-0.76759-2.2819-2.9382-2.6356-4.8235-0.671-3.58-2.075-4.62-6.236-4.62-1.3662 0-3.3544-0.46583-4.4182-1.0352-1.522-0.81-1.934-0.7-1.934 0.5 0 0.85 0.675 1.54 1.5 1.54 1.9036 0 9.5 7.5298 9.5 9.4167 0 2.2812 4.3417 3.4575 5.5494 1.5034zm314.45-0.87c0-1.0741-0.41886-2.9866-0.93079-4.25-0.51194-1.2634-1.1729-3.4444-1.4688-4.8468-0.58729-2.7834-14.647-6.3038-16.755-4.1955-2.6089 2.6089 4.0342 11.157 9.95 12.803 3.1376 0.87312 6.1548 1.7442 6.7048 1.9358 2.0531 0.71522 2.5 0.45659 2.5-1.4467zm77-7.7854v-7.4118l-9.25 0.70127c-11.179 0.84753-10.732 0.61711-10.13 5.2172 1.5396 11.769 0.89878 11.248 12.106 9.8275l7.27-0.93v-7.4118zm36.66 5.74c3.4955 0 7.3375-4.2874 7.3375-8.1881 0-4.6447 0.17212-4.6396-7.709-0.2322-7.6703 4.2895-9.5534 7.5487-6.0482 10.468 2.2126 1.8427 2.2842 1.841 3.6291-0.0839 0.76-1.08 2.01-1.96 2.79-1.96zm-421.81 2.1097c0.74745-0.47361 0.93766-1.1187 0.42354-1.4364-1.3506-0.83474-5.3586 0.39101-4.71 1.4404 0.689 1.1148 2.5235 1.1131 4.2865-0.004zm8.9666-1.7886c-0.423-2.23-2.202-2.28-2.627-0.07-0.21 1.09 0.28 1.75 1.31 1.75 1.0034 0 1.5203-0.65585 1.3233-1.6789zm390.68-2.9c10.949-3.1701 12.023-3.6907 11.917-5.7785-0.0458-0.90255-0.15834-3.891-0.25-6.641-0.20041-6.0123 0.0737-5.9714-12.578-1.8759-10.807 3.4982-11.407 4.1438-10.813 11.626 0.48821 6.1445 0.0593 6.0468 11.724 2.6695zm-112.51-2.9256c-0.6875-0.82839-1.5416-2.9659-1.898-4.75-0.47513-2.3784-1.575-3.7122-4.1224-4.9992l-3.4744-1.7554-0.3388 2.7373c-0.82 6.64 1.49 10.28 6.5 10.28 3.9681 0 4.4148-0.20188 3.3323-1.5062zm-292.81-0.99c-0.26321-1.4714-2.4398-1.2174-2.9607 0.3455-0.28754 0.86262 0.19537 1.2215 1.3456 1 0.98673-0.19002 1.7136-0.7955 1.6152-1.3455zm5.2784-0.4309c0.73954-1.1966-1.1416-2.3822-2.4736-1.559-1.118 0.69-0.383 2.49 1.017 2.49 0.48508 0 1.1409-0.41891 1.4573-0.9309zm91.993-2.26c0.53-0.45-0.16-0.81-1.55-0.81-2.4302 0-4.9 1.6021-4.9 3.1786 0 0.80842 4.7849-0.94863 6.45-2.3685zm-85.45 0.69c0-0.83333-0.88889-1.5-2-1.5s-2 0.66667-2 1.5 0.88889 1.5 2 1.5 2-0.66667 2-1.5zm416.7-3.5107c7.5676-3.692 7.4626-3.3728 7.446-22.629-0.0152-17.712 0.0388-17.535-4.259-13.919-7.3191 6.1586-26.698 14.113-40.388 16.579-5.2382 0.94338-11.761 2.517-17.25 4.1616-3.2282 0.96721-3.25 1.0168-3.25 7.3962 0 7.8296-0.60134 7.698 17.695 3.871 1.8227-0.38125 2.2471-1.2514 2.5-5.1257 0.18956-2.9044 0.83488-4.8413 1.709-5.1294 1.1293-0.37229 1.279 0.45208 0.76409 4.2086-0.91122 6.6481 3.2654 6.6856 18.582 0.16716l3.75-1.596v-7.0456c0-8.4284 1.5184-8.3855 2.4998 0.0706 0.87333 7.5247 1.6408 7.5253 8.9125 0.008 3.1889-3.2967 6.2019-5.7444 6.6955-5.4393 1.478 0.91343-0.60131 3.7302-7.5554 10.235-11.369 10.635-9.9383 20.084 2.1485 14.187zm-81.92 1.01c1.2241 0 1.3938-1.0319 0.92182-5.6053-0.70873-6.8669 0.26318-6.2576-9.0006-5.6429l-7.7993 0.51751 0.29929 4.5915c0.36995 5.6755 3.0196 7.5024 9.6889 6.6803 2.4143-0.2976 5.0647-0.54109 5.8899-0.54109zm-18.752-5.2363c-0.83-8.19-14.03-10.44-14.03-2.38 0 5.918 1.8784 7.2573 10.528 7.5064l4.0278 0.116-0.52776-5.2363zm39.578 2.9148c0.0711-0.0982 0.4363-2.991 0.8115-6.4285l0.68219-6.25-2.7996 0.0997c-1.5398 0.0548-3.9247 0.41286-5.2997 0.79563-1.375 0.38278-4.075 0.14552-6-0.52724-5.1566-1.8021-6.1777-0.36157-5.3509 7.5489l0.66191 6.3328 8.5826-0.69639c4.7204-0.38301 8.6408-0.77672 8.712-0.8749zm-383.27-1.15c0.81518-0.81518 1.7191-2.0527 2.0086-2.75 0.38113-0.91786 0.94927-0.74379 2.058 0.63052 1.2817 1.5887 1.787 1.6864 3.0976 0.59873 1.3198-1.0954 1.9142-0.9247 3.7813 1.0856l2.2153 2.3852 0.31955-2.234c0.34349-2.4013 3.0047-3.0097 4.8954-1.1191 0.81987 0.81987 1.4972 0.35677 2.5597-1.75 4.5606-9.0434 2.5337-11.774-6.3634-8.5729l-5.9595 2.1442-8.7258-3.8353c-4.8-2.11-8.727-4.44-8.727-5.18 0-2.2011 6.6405-3.0759 8.2647-1.0888 1.0032 1.2273 1.4977 1.3364 1.8814 0.415 0.618-1.48 3.354-1.69 3.354-0.25 0 1.5807 4.6937 1.1635 6.4286-0.57143 2.0769-2.0769 2.1624-7.8693 0.1045-7.0796-1.594 0.61168-11.461-1.9842-12.95-3.4069-0.5441-0.5199-0.13731-1.1207 1-1.477 1.0545-0.33032 3.8418-1.4701 6.194-2.5328s5.2772-1.9324 6.5-1.9327c2.0572-0.00048 2.2232-0.46096 2.2232-6.1661 0-7.6619-0.85114-7.9948-7.3357-2.869-2.8107 2.2217-6.81 4.9825-8.8873 6.1351-11.701 6.49-14.959 15.74-8.8171 25.02 1.8381 2.78 2.5401 5.17 2.5401 8.66 0 6.764 4.3327 9.7459 8.3393 5.7393zm326.64-3.27c-0.0235-5.7529-1.0918-6.6354-9.4616-7.8161-8.705-1.228-8.5231-1.3069-8.5231 3.6976 0 4.8931 4.8797 7.463 14.75 7.7681 3.1093 0.0961 3.2493-0.0619 3.2347-3.6496zm-19.98-5.23c0-3.65-6.23-9.02-10.47-9.02-3.2359 0-0.10366 9.2928 3.7168 11.027 6.0965 2.7673 6.75 2.5727 6.75-2.0101zm-42.565-7.8192c1.0439-6.0545 6.4558-36.042 8.1567-45.198 0.86855-4.675 2.2806-10.873 3.138-13.773 1.6601-5.6154 1.1746-7.5598-1.2758-5.1094-2.8944 2.8944-14.453 54.486-14.453 64.51 0 7.8286 3.0618 7.5315 4.4346-0.43033zm28.662 5.5524c0.899-11.598-5.2009-17.731-6.6736-6.7096-0.54984 4.1149-0.37668 4.5928 2.2404 6.183 3.4094 2.0716 4.3052 2.178 4.4332 0.52661zm66.4 0.29c3.2902-0.79469 1.6212-2.304-2.0382-1.8432-1.079 0.13586-3.8887-0.37811-6.2439-1.1422-4.6448-1.5068-7.0067-0.5514-5.8821 2.3794 0.64883 1.6908 8.3148 2.0188 14.164 0.606zm-17.17-2.04c-1.0434-8.9865-4.7676-12.848-9.3942-9.7406-4.4635 2.998-5.5507 9.3512-1.74 10.168 1.2696 0.27212 3.2084 0.69448 4.3084 0.93858 3.7762 0.83799 7.0067 0.19153 6.8258-1.366zm-197.83-5.84c19.05-3.97 36.21-10.16 28.17-10.16-4.4084 0-6.082-4.6497-4.77-13.253 0.69178-4.5361 1.5626-10.947 1.9351-14.247 0.37252-3.3 1.461-7.1126 2.4189-8.4725s1.7416-3.0543 1.7416-3.7654c0-0.71108 1.5693-3.6564 3.4873-6.5451s6.1245-11.328 9.3478-18.755c3.2233-7.4262 6.4616-14.465 7.1963-15.641 1.193-1.9103 1.0222-2.5075-1.5978-5.5874-1.61-1.9-3.61-4.31-4.43-5.35-12.62-15.96-12.39-14.16-7.46-57.39 1.9697-17.274 3.5081-35.284 3.0528-35.739-0.2086-0.2086-1.7579 2.0304-3.4429 4.9755-5.7377 10.028-16.689 21.232-32.151 32.89-7.745 5.8399-11.784 8.5992-27.757 18.963-2.8912 1.8759-5.5091 4.1983-5.8174 5.1608-1.6227 5.0656-14.957-5.1908-20.926-16.096-4.9707-9.0811-1.4118-31.313 7.2821-45.491 1.93-3.1474 2.1757-4.3453 1.3671-6.665-0.54221-1.5554-0.72258-3.0912-0.40082-3.413 0.32176-0.32175-0.3608-0.58501-1.5168-0.58501-1.3244 0-3.143 1.4943-4.9167 4.0399-6.97 10.01-13.44 17.49-27.191 31.46-14.105 14.32-24.119 25.74-24.119 27.5 0 0.45019-1.8 3.0957-4 5.8789s-4.0155 5.8611-4.0343 6.8398c-0.01889 0.97868-1.3658 5.6044-2.9932 10.279-1.6479 4.734-2.9619 10.589-2.9657 13.215-0.0055 3.8408-0.58125 5.3695-3.1048 8.2436-5.922 6.7448-10.368 24.571-7.9525 31.888 0.92645 2.8072 0.92412 4.3603-0.0104 6.9446-1.0777 2.9803-0.94366 3.7414 1.2801 7.2685 1.3661 2.1668 4.0028 6.8647 5.8594 10.44 4.7177 9.0844 8.8499 15.205 16.67 24.689 7.09 8.5994 9.2076 9.9667 22.957 14.824l6.2055 2.192 2.7945-2.3043c24.124-19.893 25.169-20.182 32.726-9.0595 8.172 12.027 9.5879 12.795 22.568 12.256 5.225-0.21721 11.75-0.86397 14.5-1.4372zm252.5-3.1c26.064-4.5909 43.854-12.355 51.04-22.276l3.03-4.1828-0.53932-13.551c-0.81344-20.439-2.4269-43.82-3.4884-50.551-0.52041-3.3-1.4653-10.5-2.0997-16-0.63443-5.5-1.624-11.27-2.199-12.821l-1.0455-2.8212-7.1317 0.6683c-11.79 1.1-18.56-2.27-18.56-9.27 0-1.0606-1.7683-3.3494-3.9296-5.0863-4.7402-3.8093-5.5891-6.0749-4.0378-10.775 1.134-3.4361 1.0448-3.6886-2.4276-6.8692-3.6941-3.3837-4.9092-8.9255-2.7159-12.387 0.49414-0.77983 0.41457-2.5303-0.18753-4.1254-2.31-6.13 7.59-27.02 12.8-27.02 2.4858 0 3.4724-1.5092 1.4313-2.1896-1.3998-0.46661-3.1841-14.843-2.6823-21.612 0.48764-6.5793-0.78946-7.7094-2.2361-1.9785-2.5329 10.034-11.669 27.623-20.153 38.802-1.4522 1.9132-4.5458 6.6286-6.8745 10.479-2.3287 3.85-7.2155 10.286-10.86 14.303-10.225 11.269-14.035 16.365-15.29 20.447-1.6966 5.5198-3.6585 4.7311-9.9495-4-11.938-16.568-15.61-36.257-11.582-62.091 1.4856-9.5281 0.41745-28.515-1.3297-23.637-0.38972 1.0881-1.7288 4.4534-2.9758 7.4784s-3.5254 9.325-5.0632 14-6.2132 18.85-10.39 31.5c-12.728 38.551-15.137 49.422-12.009 54.197 1.5362 2.3445 1.5449 3.2088 0.11193 11.172-0.85419 4.7471-1.7851 12.338-2.0687 16.868-0.51181 8.1767-2.0073 12.713-5.0142 15.208-0.86127 0.71478-1.5659 2.2251-1.5659 3.3562s-0.42933 3.4385-0.95407 5.1276c-0.52474 1.689-2.3919 10.046-4.1492 18.571s-4.028 17.933-5.0459 20.907c-3.3254 9.7139 1.9856 20.014 12.46 24.165 1.7543 0.69516 3.7967 1.7306 4.5387 2.301 8.3035 6.3831 16.882 5.8531 25.137-1.5531 6.6165-5.9361 12.014-7.8496 12.014-4.2592 0 0.85792 2.3625 4.066 5.25 7.129l5.25 5.5691 17-0.58538c9.9391-0.34224 21.776-1.4267 28.5-2.611zm-10-139.59c0-0.92032 1.5545-4.6641 3.4545-8.3196 1.9-3.6554 4.4041-9.2252 5.5647-12.377 2.2774-6.1848 3.652-7.7895 4.5865-5.354 1.1422 2.9766-8.8395 27.044-11.366 27.405-1.55 0.22-2.24-0.19-2.24-1.35zm-127.53 132.76c0.99843-8.007 3.8649-22.101 8.0665-39.663 2.7397-11.451-0.91948-7.915-4.9688 4.8017-5.4383 17.079-7.9257 33.421-6.0044 39.448 0.80042 2.5108 2.3208 0.11164 2.9066-4.5867zm28.378 3.1984c1.4132-3.1017 0.58332-5.0314-1.4412-3.3512-1.5139 1.2564-1.9642 5.9261-0.57149 5.9261 0.46172 0 1.3674-1.1587 2.0127-2.5749zm-99.85-0.45c0-2.0566-4.0651-16.113-5.1728-17.887-0.62855-1.0065-0.84148-2.6152-0.47317-3.575 1.4432-3.7608 5.8644 3.3673 9.5101 15.333l1.7207 5.6475 5.2788 0.0392c6.368 0.0473 7.0921-0.72241 3.2522-3.4567-2.67-1.9-7.11-8.84-7.11-11.11 0-2.1608 3.0701-0.76111 5.214 2.3771 3.8522 5.6388 8.1759 10.093 11.049 11.382 3.9317 1.7645 3.6421-0.52615-0.8027-6.3492-1.9471-2.5509-3.3723-5.1423-3.1671-5.7586 0.86669-2.6033 3.4781-1.356 6.9792 3.3337 5.853 7.8399 11.922 8.4001 8.0419 0.74229-2.9596-5.8416-3.3832-9.3203-2.2956-18.856 0.61225-5.3681 0.59925-8.6236-0.037-9.2598-1.65-1.65-1.1-2.58 1.52-2.58 3.3821 0 3.4543-3.6867 0.0971-4.9631-2.6043-0.99017-4.1542-2.8132-3.2015-3.7659 0.32775-0.32775 1.7913-0.0513 3.2523 0.6144 1.8951 0.86345 2.9646 0.90212 3.7318 0.13492 1.636-1.636-0.57116-4.4283-3.9744-5.0281-1.7784-0.31342-3.0199-1.2295-3.2441-2.394-0.32142-1.669 0.0867-1.8143 3.5438-1.2615 12.773 2.0425 2.5836-17.694-13.04-25.257-7.1865-3.4789-11.562-1.4878-13.501 6.1442-0.97782 3.8482-7.2417 16.783-16.115 33.276-2.9925 5.5625-3.1818 6.474-2.596 12.5 0.34755 3.575 0.86086 10.1 1.1407 14.5 0.73128 11.499 0.99489 12.235 5.171 14.44 4.3028 2.2718 5.235 2.4573 5.235 1.042zm32.25-60.013c-2.5457-1.0232-2.9498-2.763-0.83079-3.5762 1.5312-0.58757 6.5808 2.2687 6.5808 3.7224 0 1.1108-2.7999 1.0396-5.75-0.14617zm-46.087 45.444c0.35146-4.4189-0.17964-6.0637-1.5239-4.7194-0.98787 0.98787-0.75562 9.3062 0.25983 9.3062 0.49461 0 1.0635-2.064 1.2641-4.5868zm81.35-5.16c0.67301-4.2168 2.8318-12.619 4.8853-19.014 1.5455-4.8131 0.55375-6.415-1.8588-3.0024-3.3 4.66-7.12 25.77-4.66 25.77 0.56886 0 1.3036-1.6875 1.6328-3.75zm-10.714-23.08c0.28167-6.874 0.1174-7.4702-3.9733-14.42-2.3469-3.9872-5.2271-9.2745-6.4005-11.75-5.2358-11.044-26.318-25.443-30.273-20.677-1.3547 1.6323-0.5235 2.6773 2.1295 2.6773 13.549 0 31.646 24.541 35.25 47.801 1.0396 6.7095 2.9295 4.6088 3.2672-3.6316zm-9.3 4.24c-4.1372-3.4662-6.2839-4.5733-6.9085-3.5627-0.68827 1.1136 3.3306 4.8086 5.9085 5.4322 3.8244 0.92518 3.9826 0.62936 1-1.8696zm36.75-36.844c2.6126-1.5183 4.4895-3.1825 4.1708-3.6981-0.32134-0.51995-2.2143 0.0366-4.2502 1.2496-2.019 1.2029-5.1361 3.056-6.927 4.118s-2.9868 2.3669-2.6574 2.8998c0.3645 0.58977 1.443 0.42544 2.7562-0.41996 1.1866-0.76389 4.295-2.6312 6.9076-4.1495zm227.2-13.226 7.753-0.65537 1.8592-4.0946c3.0452-6.7066 7.1172-12.971 12.702-19.542 9.6119-11.308 11.512-17.35 8.3671-26.611-2.2807-6.7169-8.074-17.834-8.8757-17.033-0.2905 0.2905 0.17143 1.5959 1.0265 2.901 1.7663 2.6957 1.8037 8.8314 0.0573 9.411-1.181 0.39197-1.7723-1.618-2.8994-9.8552l-0.63401-4.6339-4.8396-0.64201c-6.627-0.8791-15.328-5.0255-16.965-8.0848-0.73-1.37-1.8-2.5-2.36-2.5-2.71 0-6.64-5.44-6.64-9.19 0-2.09 0.38-3.81 0.84-3.81 3.4009 0 2.8327-4.913-0.99748-8.624-6.5472-6.3437-8.1766-11.033-6.6853-19.238 1.367-7.5212-2.7076-13.459-8.6567-12.615-14.585 2.0686-15.946 1.8955-26.189-3.33-6.0461-3.0844-7.1964-2.5787-4.9416 2.1728 2.2898 4.8254 2.0669 6.374-1.5026 10.439l-3.1335 3.5688 2.8835 2.4683c1.5859 1.3576 5.3206 4.635 8.2993 7.2831l5.4158 4.8147-1.2976 8.3413-1.2976 8.3413 2.7807 4.4388c6.0545 9.665 5.9626 9.6792 6.1572-0.95274 0.0959-5.2376-0.19979-10.222-0.65701-11.076-2.22-4.14 4.17-22.03 7.87-22.03 3.344 0 4.6319 2.6556 3.2035 6.6058-3.2943 9.1102-7.2297 31.539-6.4298 36.644 0.91992 5.8716 2.4561 4.5229 7.7916-6.8408 4.7719-10.163 7.6188-13.709 9.0924-11.325 0.37046 0.59941 0.17276 1.5906-0.43931 2.2027-0.61208 0.61208-1.1129 1.7582-1.1129 2.5469 0 0.78872-1.8 4.9667-4 9.2845-5.5312 10.856-5.5295 10.863 3.0824 12.308 2.8173 0.47279 3.9717 0.17106 5.405-1.4127 5.6936-6.2913 28.732 5.939 32.431 17.217 2.1443 6.5372-1.0286 7.8759-5.5958 2.3608-1.5525-1.8748-5.2001-5.0043-8.1056-6.9545-12.373-8.3048-15.714-9.2116-16.39-4.448-0.36508 2.5759-7.0842 3.9545-9.1593 1.8794-3.0569-3.0569-3.6209 0.69476-0.70981 4.7223 5.0913 7.044 7.5907 28.079 4.9559 41.71-0.53157 2.75-1.237 7.1375-1.5676 9.75l-0.60113 4.75h6.4764c3.562 0 9.9652-0.29492 14.229-0.65537zm-15.45-4.37c0-3.2978 2.8555-9.1822 4.2358-8.7288 1.6781 0.55111 2.1104 4.7201 0.83695 8.0697-1.253 3.2956-5.0727 3.792-5.0727 0.65914zm9.0056-0.71788c0.01-3.1242 1.9926-9.0036 3.4418-10.206 2.7272-2.2634 4.0149 2.4574 2.0638 7.5661-1.7343 4.5413-5.5175 6.3555-5.5056 2.6402zm9.5261-0.1987c-0.88198-1.4271 1.4803-9.8164 3.1556-11.207 1.9668-1.6323 3.5384 0.71003 2.7882 4.1555-1.4631 6.7191-4.1668 9.9265-5.9438 7.0513zm-28.137 1.1987c5.1755-17.117 2.5984-41.541-5.7624-54.611-6.0996-9.5352-6.7178-8.2972-2.4906 4.9881 3.3686 10.587 4.6437 30.489 2.1492 33.545-0.59624 0.73051-1.6582 3.3532-2.3599 5.8282-0.70169 2.475-1.9172 5.2591-2.7012 6.187-1.8634 2.2053-0.78272 3.8092 2.5795 3.8283 1.48 0.008 3.366 0.45153 4.191 0.98469 2.2612 1.4613 3.8054 1.1977 4.3944-0.75zm-4.15-4.91c-1.5266-0.61602-1.6528-3.9707-0.18347-4.8788 1.3627-0.8422 1.6221-0.54781 2.4606 2.7932 0.67591 2.693 0.23314 3.0986-2.2771 2.0857zm-188.17-6.34c1.6068 0 0.98703-2.0364-0.83179-2.733-0.9625-0.36864-5.7706-3.5045-10.685-6.9686-8.66-6.11-11.78-7.38-13.06-5.3-0.34096 0.55168 0.37482 1 1.5966 1 2.5173 0 7.1395 3.2828 14.403 10.23 2.75 2.63 5.5993 4.5542 6.3318 4.276 0.73248-0.27819 1.745-0.50579 2.25-0.50579zm-56.852-1.6719c2.3486-0.91955 5.7484-2.9446 7.555-4.5s3.9385-2.8281 4.7374-2.8281c2.7016 0 6.4505-7.3933 5.7955-11.43-1.1814-7.2804-12.841-11.667-18.877-7.1023-2.038 1.5415-7.4411 2.0892-7.4411 0.75431 0-1.9514 3.3065-5.1923 5.2962-5.1912 10.715 0.006 16.704-1.3654 16.704-3.8256 0-8.4155-19.723-10.844-28.652-3.528-7.1944 5.8953-8.1802 2.8199-1.2766-3.9825 2.9855-2.9417 5.9703-6.214 6.633-7.2719 1.1643-1.8585 1.2272-1.8474 1.8666 0.3267 0.83479 2.8385 2.0305 2.8622 3.5249 0.0698 1.099-2.0535 1.2421-2.0773 2.4618-0.4093 0.90468 1.2372 1.9574 1.5606 3.4932 1.0732 1.3821-0.43865 2.4948-0.21789 2.997 0.5946 0.65173 1.0545 1.5392 1.0479 4.823-0.0358 9.6288-3.1778 3.9733-7.5789-12.598-9.804l-11.639-1.5628-2.8936 3.4121c-6.0772 7.1663-8.0298 12.504-6.6061 18.059 1.132 4.417 1.0679 5.3216-0.59658 8.4124-1.847 3.4297-1.8441 3.4854 0.29858 5.7662 1.512 1.6094 2.1636 3.5731 2.1636 6.52 0 4.3133 0.14873 4.4702 5.3159 5.6062 2.0516 0.45106 3.2224 1.6273 4.3136 4.3335 2.8828 7.1497 6.3935 8.9726 12.6 6.5425zm-5.2364-9.1324c-1.4954-1.211-2.0998-2.4758-1.6915-3.5399 0.90522-2.359 2.3932-2.0508 4.3237 0.89559 2.2745 3.4713 0.54037 5.2134-2.6323 2.6443zm6.5978-1.7475c-1.9176-1.9176-1.6448-3.8086 0.6125-4.2466 0.90535-0.17569 1.7832 0.63979 2.1344 1.9828 0.80807 3.09-0.68784 4.3229-2.7469 2.2639zm6.61-1.65c-1.5675-1.5675-1.5217-3.2881 0.12379-4.6538 1.75-1.45 3.68 0.42 3.68 3.55 0 2.4865-1.8717 3.0283-3.8 1.1zm224.17-12.779c3.1811-8.9531 3.2195-13.988 0.19034-24.974-2.7604-10.011-5.8535-13.709-7.1491-8.5473-1.1192 4.4594-3.3715 2.2818-3.4461-3.3318-0.01-1.47-0.67-3.79-1.46-5.17-0.78602-1.375-1.4451-3.4341-1.4646-4.5757-0.0953-5.5819-8.984-9.817-20.73-9.8772-10.925-0.056-10.858-0.10511-13.849 10.133-1.2567 4.3012-2.5964 8.6078-2.9773 9.5703-1.1116 2.8094 1.2825 2.0797 6.0829-1.8538 3.6227-2.9685 4.2252-3.9265 3.4183-5.4343-1.24-2.32-1.27-5.96-0.05-5.96 0.51175 0 1.0742 1.0079 1.25 2.2398 0.4218 2.9565 3.8196 3.698 3.8196 0.83354 0-1.14 0.45-2.07 1-2.07s1 0.45 1 1 1.2949 1 2.8776 1c5.3824 0 5.8122 2.5416 0.94596 5.5944-15.276 9.5829-20.196 16.393-15.374 21.279 2.6003 2.6348 5.0205 2.0333 4.2148-1.0475-0.42372-1.6203-0.0594-1.8961 2.1629-1.6371 2.1266 0.2478 2.7378-0.14848 2.9922-1.9402 0.26054-1.8346 0.76703-2.1393 2.735-1.6454 1.9546 0.49057 2.6027 0.11296 3.3984-1.9798 0.9747-2.5636 3.0713-2.8182 8.7969-1.0681 2.7263 0.83333 1.0015 3.56-3.6808 5.8188-4.2644 2.0572-11.541 7.2669-15.889 11.376-0.72752 0.6875-1.7406 1.25-2.2513 1.25-1.5717 0-1.026 5.6742 0.68202 7.0918 3.6984 3.0694 10.389 1.2253 10.389-2.8633 0-1.0198 0.75566-1.3171 2.5-0.98369 2.1226 0.40577 2.5 0.10388 2.5-2 0-1.9615 0.40502-2.372 1.9432-1.9698 1.1498 0.30068 2.6334-0.2545 3.6336-1.3598 1.8626-2.0581 2.8824-1.794 4.4609 1.1554 0.83911 1.5679 0.69041 2.0889-0.74463 2.609-0.98621 0.35743-3.6169 2.2632-5.846 4.2352-2.2291 1.9719-5.3389 4.5039-6.9108 5.6266-2.3646 1.689-2.7406 2.5089-2.1781 4.75 0.85061 3.3891 4.7322 3.7111 6.8206 0.56583 1.1786-1.775 2.405-2.1428 7.144-2.1428 5.1125 0 5.6587-0.19694 5.1338-1.8509-0.45501-1.4336-0.20569-1.7044 1.1059-1.201 1.1109 0.42629 2.2768-0.12373 3.3896-1.599l1.6963-2.2488 1.7072 2.6055c1.6646 2.5404 1.6464 2.6286-0.7271 3.531-3.6811 1.3996-3.9834 2.7991-0.94819 4.3894 3.9492 2.0692 4.5594 1.4883 7.689-7.3196zm-197.27 1.5227 5.3018-2.4564 3.35 2.0704c4.4493 2.7498 5.0003 1.8625 1.3019-2.0966-2.3376-2.5024-3.5057-3.0613-5.2794-2.5259-2.9865 0.90149-10.774 5.7539-10.776 6.7148-0.003 1.0769 0.2414 1.0086 6.1015-1.7064zm40.9-2.38c0-2.111 1.6116-9.1986 3.5814-15.75s4.1677-13.937 4.8844-16.412c0.71666-2.475 2.6902-8.0513 4.3858-12.392l3.0827-7.8918-2.0352-2.8582c-4.61-6.47-14.9-3.52-14.9 4.27 0 2.6409-2.2837 15.564-5.6066 31.726-0.36053 1.7536-0.98311 2.2243-2.4388 1.8436-2.3018-0.60194-2.4559 0.12847-0.59677 2.8291 0.74684 1.0849 1.5921 4.1148 1.8784 6.7331 0.95772 8.7599 7.7638 15.686 7.7638 7.9011zm-183.73-3.41c5.1763-3.0695 11.934-7.4635 21.404-13.918 7.9076-5.3897 12.308-9.4499 19.134-17.656 2.36-2.85 4.86-5.18 5.55-5.18 5.6615 0 23.671-29.219 27.463-44.556 3.51-14.19 3.45-13.44 1.2-13.44-1.4259 0-2.0203 0.66103-2.0234 2.25-0.0118 6.0815-6.7796 20.75-9.5737 20.75-0.90475 0-2.5688 2.3542-4.0643 5.75-4.8131 10.929-5.4788 11.082-20.739 4.7762-7.3495-3.037-12.319-4.4865-15.473-4.5133-2.5552-0.0217-5.9515-0.0463-7.5472-0.0545-5.4552-0.0283-19.962 5.8764-21.725 8.8431-0.88234 1.4842-3.2535 5.3949-5.2693 8.6904-11.519 18.832-12.132 34.503-1.7875 45.677 6.3073 6.8126 6.3136 6.8138 13.451 2.5815zm9.7767-31.197c-1.052-1.2676-0.98763-1.9906 0.36056-4.0482 2.29-3.5 4.59-3.25 4.59 0.5 0 1.65 0.1125 3.3375 0.25 3.75 0.49375 1.4812-3.9526 1.3132-5.2058-0.19674zm240.42 12.316c3.1216-3.3717 6.6576-7.5916 7.8577-9.3774s6.8094-10.067 12.465-18.403c15.552-22.922 18.042-28.572 24.19-54.892 1.1105-4.7542 0.99917-12.43-0.42264-29.14-0.36714-4.3149-2.1222-3.3101-9.4806 5.4282-6.36 7.54-19.57 18.51-22.3 18.51-0.4984 0-3.7363 1.3649-7.1953 3.0332s-9.1682 3.4973-12.687 4.0646c-17.613 2.8394-18.593 3.5409-17.904 12.818 0.62069 8.3539 3.0958 11.643 9.9143 13.175 5.5839 1.2546 5.8318 0.99582 6.5631-6.8512 1.17-12.57 1.58-14.24 3.46-14.24 2.1862 0 3.844 3.5304 4.5683 9.7292 1.1494 9.8359 1.5516 11.072 4.1599 12.781 3.2811 2.1498 8.926 1.4068 15.576-2.0502 5.2916-2.7509 8.7684-3.1688 8.7684-1.054 0 2.0008-11.37 7.0602-19.176 8.5332-7.1406 1.3473-7.8237 2.2349-7.8237 10.166 0 1.5701-0.62201 4.5514-1.3822 6.625-0.76024 2.0736-2.1469 8.2702-3.0815 13.77-0.93459 5.5-2.0747 11.35-2.5335 13-3.4004 12.227-1.8123 13.302 6.4576 4.3696zm-80.448-1.7265c0.007-2.5536 0.68781-7.118 1.514-10.143 0.82615-3.025 1.7901-10.571 2.1422-16.77 0.733-12.906 0.86538-13.157 8.5309-16.176 4.9626-1.9548 5.5581-2.4704 4.6089-3.9903-1.9335-3.0961-0.11893-8.3103 3.8503-11.064 4.2461-2.9455 10.949-9 9.9632-9-0.37703 0-2.301 0.675-4.2755 1.5-4.2163 1.7617-11.61 1.9641-14.536 0.39798-3.0415-1.6278-6.8424 1.6316-9.4602 8.1123-1.7369 4.3-2.776 5.5329-5.3997 6.4072-2.7576 0.91882-3.4298 1.801-4.4448 5.8332-1.3585 5.3967-3.3941 8.0467-7.4818 9.7399-1.5579 0.64529-3.0942 2.1489-3.4141 3.3414-0.95175 3.5482-0.6872 10.502 0.4257 11.189 0.56902 0.35167 2.8467 4.3157 5.0616 8.809s4.3761 8.524 4.8028 8.957c0.42669 0.43308 0.65596-6.1976 0.50948-14.735-0.24261-14.14 0.535-19.469 2.2056-15.116 0.32996 0.85986 1.2268 1.5634 1.9929 1.5634 1.6078 0 1.8821 15.305 0.49285 27.5-0.89158 7.8262-0.58946 9.6251 1.4829 8.8299 0.93877-0.36024 1.4212-2.1114 1.4291-5.1869zm61.61-9.64c0.2954-1.65 1.1743-4.418 1.9531-6.1511 0.77878-1.7331 1.416-3.8015 1.416-4.5964 0-0.79488 0.7655-2.9769 1.7011-4.8489 1.4093-2.8199 3.6794-11.646 4.5883-17.839 0.12561-0.85588-1.0001-1.7161-2.7894-2.1314-3.5048-0.81355-9.2914-3.6174-11.651-5.6451-5.0228-4.317-4.0694 44.462 0.97863 50.069 1.7993 1.9984 1.9027 1.7575 3.8031-8.8572zm-52.604-11c2.0727-12.739 2.1082-13.489 0.61191-12.915-0.90472 0.34717-1.6078 3.118-2.0614 8.1236-0.37862 4.1782-0.94791 8.9905-1.2651 10.694-0.40676 2.1846-0.25957 2.8026 0.4995 2.0973 0.59191-0.55 1.5887-4.15 2.2151-8zm149.51-14.798c-0.90515-1.3814-2.6828-2.772-3.9502-3.0901-1.2675-0.31812-4.1781-2.611-6.468-5.0952-4.9733-5.3954-5.7822-5.4946-9.9273-1.218-3.715 3.8329-2.9062 5.7012 2.468 5.7012 4.1821 0 13.286 3.5747 15.704 6.1659 2.6312 2.8205 4.3556 0.86607 2.1738-2.4638zm-337.69-14.426c0.24221-9.3817-1.3385-8.6763-2.1831 0.97429-0.45017 5.1435-0.28441 6.75 0.69647 6.75 0.92135 0 1.3439-2.1956 1.4867-7.7243zm60.476 7.0663c0.36189-0.3619 0.19837-1.2118-0.36339-1.8887-0.691-0.83262-0.69611-2.6414-0.0158-5.592 2.061-8.9388 0.37687-9.0116-2.9471-0.12743-2.0219 5.404-2.041 5.7617-0.37361 6.981 1.9801 1.4479 2.7488 1.5782 3.6999 0.62712zm-7.71-5.09c0.30618-0.9625 1.4458-3.4375 2.5326-5.5 1.6894-3.2062 1.7509-3.75 0.42446-3.75-1.9483 0-6.9066 7.6976-6.1792 9.593 0.74924 1.9525 2.553 1.7604 3.2221-0.34305zm12.468-3.5c0.70552-1.7875 1.462-3.5875 1.6812-4 0.21912-0.4125-0.006-0.75-0.49971-0.75-0.7681 0-4.2686 6.1782-4.2686 7.5339 0 1.7301 2.0269-0.0978 3.0871-2.7839zm-30.254-0.60171c0.60505-4.2745-0.7315-6.7953-7.4511-14.053-10.265-11.087-14.183-12.382-16.391-5.4152-0.66575 2.101-2.0126 5.2261-2.993 6.9447l-1.7825 3.1247 10.715-0.50787 10.715-0.50787 2.1774 2.7681c2.6051 3.3118 2.7511 5.0779 0.52287 6.3249-2.3963 1.341-0.9423 4.3972 1.9 3.9936 1.4845-0.2108 2.3682-1.1233 2.5874-2.6718zm10.555-0.46746c1.1531-4.2994 0.6474-5.303-1.4211-2.82-2.3063 2.7684-2.6715 6.3469-0.56527 5.5387 0.7708-0.29578 1.6647-1.5192 1.9863-2.7186zm-22.4-1.57c0-2.6971-2.0475-4.7261-3.4022-3.3714-1.0008 1.0008-0.66877 3.7934 0.60223 5.0644 1.9292 1.9292 2.8 1.4027 2.8-1.693zm17-4.11c0-0.55-0.42344-1-0.94098-1s-1.2191 0.45-1.559 1c-0.33992 0.55 0.0835 1 0.94098 1 0.85746 0 1.559-0.45 1.559-1zm35.161-8.5985c2.7359-5.5528 2.5846-6.0515-1.3643-4.4978-1.2634 0.49708-6.122 1.6563-10.797 2.576-7.8259 1.5396-17.355 3.9817-21 5.3817-1.7853 0.68575 8.9382 1.5786 21.5 1.7901l9 0.15153 2.6614-5.4015zm-35.52-8.15c-0.1029-1.2965 0.50899-1.6841 2.3611-1.4957 12.316 1.2528 15.989 1.3432 19.145 0.4715 2.9198-0.8064 3.9515-0.70051 5.1841 0.53214 2.4626 2.4626 13.466-1.0396 19.44-6.1872 7.1785-6.1859 8.6801-10.749 9.3921-28.545 0.36371-9.0894 1.2045-20.351 1.8684-25.026 2.4697-17.39 1.7386-23.188-3.1386-24.888-4.369-1.523-5.487-0.36888-2.6618 2.7478 3.0839 3.4021 5.0097 7.8745 3.7311 8.6648-0.53029 0.32774-1.3856-0.51248-1.9006-1.8672-1.6061-4.2244-13.062-5.4931-21.785-2.4126-4.0709 1.4377-4.8979 0.63546-2.74-2.6579 1.959-2.9899 1.3039-3.1469-4.5351-1.0868-2.3383 0.825-6.9107 1.5-10.161 1.5-5.6141 0-5.8556 0.10071-4.8312 2.0148 1.6683 3.1173-1.2633 3.5956-5.019 0.81889-4.5932-3.3959-15.293-3.0176-21.755 0.7693-4.0933 2.3988-4.6791 2.5087-5.7283 1.0739-1.5043-2.0572-6.0535-3.7876-7.997-3.0418-1.7856 0.68522-1.7671 0.55495-0.53789 3.7881 1.8679 4.913-4.4497 8.5472-7.2989 4.1988-1.8119-2.7654-7.2419-4.1162-10.922-2.717-9.1598 3.4825-9.0765 22.789 0.12844 29.797 1.6419 1.25 5.1216 1.7585 5.1216 0.74847 0-1.5127-3.213-6.2696-5.9338-8.7851-4.4294-4.0951-4.3006-9.3476 0.35391-14.427 1.881-2.0526 3.7578-3.3942 4.1706-2.9814 0.41281 0.41281-0.17449 1.7613-1.3051 2.9966-2.772 3.0288-3.6238 6.2456-2.3058 8.7083 1.4691 2.7451 3.4441 2.566 5.4491-0.4941 2.268-3.4614 3.7092-2.1841 2.9428 2.6084-0.49207 3.0773-0.10391 4.9612 1.7478 8.483l2.3804 4.5272-2.4641 1.8724c-2.7929 2.1224-1.5926 6.4121 2.1242 7.5917 1.422 0.45131 1.8399 1.5908 1.8399 5.0166 0 3.2734 0.39227 4.4326 1.5 4.4326 1.7688 0 1.9408 1.1592 0.40066 2.6993-3.471 3.471 7.6951 14.064 18.099 17.171 1.925 0.57481 5.975 1.9494 9 3.0547 6.7704 2.4737 6.8096 2.4756 6.6389 0.32486zm-0.53461-6.1405c-0.76764-0.49922-1.121-1.6235-0.78529-2.4984 0.42826-1.116-0.11799-1.7736-1.8305-2.2034-2.73-0.69-9.49-7.66-9.49-9.79 0-2.3964-2.6636-3.9386-3.416-1.9779-1.3428 3.4994-3.0141-0.54479-2.8388-6.8694 0.13144-4.7422 0.61803-6.5623 2.0684-7.7367 1.0431-0.84457 2.1845-2.3541 2.5366-3.3545 0.4613-1.311 1.2242-1.6335 2.7319-1.155 3.8729 1.2292 8.2921-0.40601 10.918-4.0399 4.6088-6.378 11.578-6.6244 10.326-0.3651-0.71425 3.5713 4.0228 6.2125 11.317 6.3101 6.9163 0.0926 9.7686-2.3263 9.0511-7.6756-0.60089-4.48 1.755-5.3348 3.3247-1.2063 0.83598 2.1988-0.0164 10.032-1.1799 10.843-0.18634 0.12983-1.637 1.2198-3.2237 2.4221-7.5154 5.695-20.565 1.1808-24.014-8.3074-0.7066-1.9435-0.76791-1.9363-2.4452 0.28728-2.5216 3.3429-7.2708 6.1921-10.334 6.1996-2.9356 0.007-6.1958 2.5918-5.2335 4.1489 1.7594 2.8468 17.351 4.9366 38.912 5.2154 12.436 0.16083 13.861-0.93839 9.7132-7.4899-1.7798-2.8109-1.2695-7.8944 0.78676-7.8387 2.541 0.0689 6.1715 8.438 5.1238 11.812-1.9185 6.1777-2.9471 12.119-2.4362 14.072 0.62163 2.3771-1.3358 3.6236-3.2264 2.0546-1.1478-0.95261-1.9766-0.86014-3.9644 0.44236-2.3285 1.5257-7.7246 2.5479-22.997 4.3562l-6 0.71045 5 0.51159c3.5504 0.36326 5 0.94646 5 2.0116 0 1.7478-11.012 2.6598-13.396 1.1095zm29.89-15.11c3.1094-0.99581 2.104-1.1872-5.5-1.0468-3.3 0.0609-7.575-0.40502-9.5-1.0354-1.925-0.63042-7.325-1.4667-12-1.8585-4.675-0.39174-9.3489-1.087-10.386-1.5451-1.3703-0.605-1.766-0.47167-1.4464 0.48732 1.2806 3.8416 30.643 7.6212 38.833 4.9985zm7.1743-33.314c-2.9157-3.1037-2.7672-3.9578 1.3113-7.5388 1.9171-1.6832 3.6046-3.628 3.75-4.3218 0.37337-1.7813-6.2541-1.0738-8.4668 0.90378-2.07 1.86-4.76 0.24-4.76-2.87 0-5.7629 13.137-7.8651 17.411-2.7861 7.1195 8.4611-1.8089 24.515-9.2368 16.609zm-44.374-3.2246c-1.0738-2.3567-0.80295-2.8519 3.7714-6.896l4.9283-4.357-3.7854-0.72197c-3.5724-0.68135-5.9426-0.47093-12.098 1.074-5.7923 1.4538-2.476-3.227 4.1536-5.8625 11.371-4.5203 19.465 6.4091 12.629 17.052-2.1444 3.3388-8.0265 3.1616-9.5988-0.28901zm206.38 50.265c1.77-1.72 10.99-7.74 11.83-7.74 0.3691 0 1.5133-1.5638 2.5426-3.4751 1.7668-3.2808 4.1481-5.1536 5.2067-4.095 0.96496 0.96496-0.83618 5.5034-3.3874 8.5353-3.6478 4.3352-2.4567 4.7679 5.897 2.1421 19.884-6.2501 41.863-28.243 40.291-40.316-0.23574-1.8103-0.45899-3.8655-0.49611-4.5671-0.0879-1.6622-5.2697 0.92253-9.8523 4.9144-3.6415 3.1721-6.3377 3.6236-8.2046 1.3741-1.69-2.04-0.54-4.51 2.11-4.51 17.146 0 22.646-38.833 5.6295-39.745-9.0213-0.4838-10.258 0.05422-10.909 4.7454-0.28921 2.0846-0.83688 2.4642-3.2964 2.2843-1.8849-0.13786-4.1756 0.7194-6.346 2.3749l-3.3965 2.5906-3.653-1.9447c-4.2348-2.2544-4.279-2.7183-1.2895-13.537 3.0481-11.031 2.1976-15.204-2.8635-14.051-15.141 3.4499-26.834 7.1924-33.5 10.722-4.4 2.3295-10.7 5.2788-14 6.554-9.1341 3.5297-9.0759 4.3 0.26469 3.5021 9.11-0.782 13.24 0.631 13.24 4.52 0 2.2555-1.1929 2.498-3.9176 0.79634-3.7265-2.3272-15.526 1.4947-22.03 7.1354-4.3026 3.7317-5.2255 2.5669-3.5788-4.5168 1.007-4.3322 1.0107-5.438 0.0178-5.438-4.0768 0-5.2863 6.7395-2.0622 11.491 1.414 2.0837 2.571 4.5695 2.571 5.524s0.27122 3.0916 0.60271 4.749c0.55374 2.7687 0.30934 3.1104-3.0077 4.2051-7.9203 2.6139-7.4082 10.538 0.95885 14.837 2.6943 1.3842 5.4932-0.11988 2.9116-1.5646-3.8916-2.1778 4.4558-7.1728 10.153-6.0755 3.9178 0.75449 0.1979 9.789-4.0558 9.8502-3.2732 0.0472-3.7444 1.7087-1.6492 5.8156 3.4543 6.7711 7.3122 7.6502 17.892 4.0773 7.3784-2.4917 7.2414-1.9384 1.7759-7.1753-4.722-4.5245-6.6384-9.0846-4.6462-11.056 0.91326-0.90382 1.4181-0.77086 2.1765 0.57322 0.54308 0.9625 1.6259 1.75 2.4063 1.75 0.87454 0 1.1893 0.59837 0.82042 1.5597-0.39502 1.0294 0.0942 1.7408 1.4389 2.0924 1.1206 0.29304 2.2724 1.4315 2.5597 2.53 0.38228 1.4618 1.0547 1.8282 2.5083 1.3669 1.0923-0.34668 2.2754-0.16203 2.6292 0.41034 0.35375 0.57238 1.9185 1.0407 3.4772 1.0407 1.5966 0 3.0853 0.65493 3.4096 1.5 0.31658 0.825 1.2489 1.5 2.0718 1.5 2.2384 0 3.3789 2.9093 3.7412 9.5435 0.3768 6.8987-2.2453 8.9446-3.1747 2.4771l-0.5-3.4794-3.8218 4.67c-2.5706 3.1412-5.1896 5.126-8 6.0628-2.298 0.766-4.1782 2.0302-4.1782 2.8094 0 2.3571 6.164 2.3125 10.209-0.0739 4.5088-2.6602 6.0894-1.0659 3.4461 3.476-2.3396 4.02-9.8789 4.8339-14.325 1.5464-3.1451-2.3252-3.3173-2.1972-1.7299 1.2867 2.114 4.6397 13.73 7.6372 17.079 4.4073zm10.37-29.99c-2.1287-6.9071-1.1823-12.21 2.0678-11.586 3.385 0.65006 2.6505 12.836-0.77366 12.836-0.49992 0-1.0823-0.5625-1.2942-1.25zm-37.62-26.04c-5.5947-5.0276-7.3942-8.4676-5.8949-11.269 3.9045-7.2957 19.97-5.1731 19.97 2.6384 0 1.7568-3.9366 0.9051-5-1.0818-2.549-4.7628-6.14-0.1285-4.0862 5.2734l1.0248 2.6954 3.5734-2.1084c3.8286-2.2589 5.5827-1.8325 3.8567 0.93755-0.94351 1.5143-8.0872 6.2021-9.3688 6.148-0.275-0.0116-2.1087-1.4667-4.0748-3.2336zm74.664-7.7892c-3.0589-3.6354-3.1041-4.0526-0.88919-8.2229 1.3189-2.4834 1.784-2.8053 2.0759-1.4368 0.20693 0.96998 1.6921 2.444 3.3003 3.2757 3.0826 1.594 3.715 4.1143 1.8889 7.5265-1.4702 2.7471-3.393 2.4026-6.3759-1.1425zm-5.59-10.29c0-0.75083 0.9-2.5093 2-3.9077s2-3.2591 2-4.1349c0-1.9681 9.8952-2.297 11.8-0.39227 1.2937 1.2937 1.571 4.6695 0.59301 7.2182-0.98706 2.5722-2.393 1.8075-2.393-1.3016 0-5.452-6.6104-5.137-9.9202 0.47272-2.05 3.49-4.08 4.51-4.08 2.05zm-68.877 54.407c-1.1452-0.84829-4.3507-3.1174-7.1232-5.0424s-5.3137-4.5454-5.6472-5.8232c-0.39848-1.527-0.9442-1.9853-1.5924-1.3371-3.0142 3.0142 11.72 17.667 15.015 14.932 1.2175-1.0105 1.1206-1.4161-0.65218-2.7292zm17.515 1.2755c2.57-1.69 7.36-8.39 7.36-10.3 0-1.771-2.5668-1.1256-9.8626 2.4801-3.8951 1.925-7.7429 3.5-8.5507 3.5-2.0896 0-2.599 1.2647-1.2481 3.0988 2.368 3.2151 8.348 3.8078 12.299 1.2191zm-123.56-18.5c7.6376-9.3529 8.143-16.396 1.6859-23.493-2.9837-3.2792-4.7686-1.9184-4.7686 3.6355 0 2.6091-0.42083 6.0484-0.93518 7.643-3.7386 11.59-1.365 18.806 4.0178 12.214zm-1.4163-6.0661c0.45367-1.787 0.76975-5.1838 0.7024-7.5486-0.0988-3.4684 0.19208-4.2401 1.5044-3.9917 3.4659 0.65602 2.147 12.802-1.544 14.218-1.224 0.46971-1.3415-0.005-0.66284-2.6782zm-64.66-34.26c27.91-1.1443 55.231-7.5909 66.716-15.742 2.52-1.7886 6.4273-4.5343 8.683-6.1016 8.53-5.922 19.6-19.69 19.6-24.37 0-4.0427-7.1553-6.4556-11.896-4.0113-2.7102 1.3974-5.0407 6.0318-2.5532 5.0773 2.021-0.77554 1.9116 3.8527-0.1881 7.9576-3.2465 6.3469-7.2893 10.286-15.503 15.105-4.6 2.697-9.04 5.45-9.86 6.118-17.13 13.857-88.51 18.227-101.21 6.193-0.71-0.673-3.54-2.263-6.29-3.535-7.02-3.247-14.833-13.484-15.043-19.711-0.304-8.982-5.913-12.282-10.868-6.393-7.612 9.046 16.121 31.856 38.411 36.923 3.025 0.68707 6.4 1.6282 7.5 2.0915 3.0406 1.2804 7.379 1.677 14 1.2796 3.3-0.19804 11.625-0.59069 18.5-0.87256zm232.2-14.69c-0.93333-0.93333-1.4667-0.93333-2.4 0-0.93333 0.93333-0.66667 1.2 1.2 1.2s2.1333-0.26667 1.2-1.2zm10.202-6.963c2.1096-3.0119 0.71504-4.6993-1.5609-1.8886-1.01 1.251-1.84 2.674-1.84 3.163 0 1.62 1.8635 0.92222 3.4016-1.2738zm-10.595-0.89958c1.5102-2.4183 0.79155-5.4938-1.4882-6.3686-2.2422-0.86042-2.6723-0.09795-1.3444 2.3833 0.62503 1.1679 0.85616 3.0064 0.51363 4.0856-0.81969 2.5826 0.68409 2.5176 2.319-0.10032zm6.18-2.187c0.0187-2.1401-1.8302-2.3163-2.6231-0.25-0.91908 2.3951 0.49987 5.3331 1.6768 3.472 0.51199-0.80959 0.93779-2.2595 0.94621-3.222zm11.786 1.4375c0.22-0.654-0.32-1.188-1.19-1.188s-1.58 0.712-1.58 1.583c0 1.7659 2.1528 1.4584 2.7708-0.39583zm-7.01-6.938c0.44198-1.3421-2.4698-1.6804-5.2571-0.61084-1.3321 0.51119-1.3986 0.81267-0.33179 1.5057 1.8023 1.1709 5.0815 0.64581 5.5889-0.89489zm-241.26-5.354c29.895-2.4991 43.267-5.9358 39.202-10.075-5.3744-5.4733-9.6848-14.916-9.6969-21.243-0.0175-9.1424-18.165-16.183-21.469-8.3286-1.4317 3.4034-1.0407 5.4027 0.51355 2.6255 1.1708-2.0921 5.9517-1.2953 5.9465 0.99106-0.005 2.0239-3.6121 8.1984-5.7744 9.8834-5.14 4.01-14.22-1.223-14.22-8.196 0-6.9744-8.47-7.7058-14.78-1.2763-4.1664 4.2453-4.2004 4.34-4.7578 13.25-0.53885 8.6139-3.6122 20.831-5.5401 22.022-3.8728 2.3935 4.9153 2.4937 30.578 0.34834z"/>
</svg>
