<?xml version="1.0" encoding="UTF-8" standalone="no"?>
<!-- Created with Inkscape (http://www.inkscape.org/) -->
<svg id="svg2" xmlns:rdf="http://www.w3.org/1999/02/22-rdf-syntax-ns#" xmlns="http://www.w3.org/2000/svg" height="295.67mm" width="197.56mm" version="1.1" xmlns:cc="http://creativecommons.org/ns#" xmlns:dc="http://purl.org/dc/elements/1.1/" viewBox="0 0 700.00001 1047.6666">
 <metadata id="metadata7">
  <rdf:RDF>
   <cc:Work rdf:about="">
    <dc:format>image/svg+xml</dc:format>
    <dc:type rdf:resource="http://purl.org/dc/dcmitype/StillImage"/>
    <dc:title/>
   </cc:Work>
  </rdf:RDF>
 </metadata>
 <g id="layer1" transform="translate(672.86 -327.19)">
  <path id="path4151" fill="#fa0b20" d="m-672.86 327.19v1047.7h700v-1047.7h-700zm354.17 35.009c8.1346-0.0107 8.2939 0.15077 5.1233 5.1652-3.8512 6.0909-3.3046 8.5708 1.1612 5.2691 3.0772-2.2751 3.8308-1.4744 3.9074 4.1499 0.10384 7.6231-0.68543 8.604-4.406 5.4733-2.3106-1.9442-3.5364-1.5029-3.5364 1.2742 0 1.667 0.39554 2.4596 1.8266 3.6641 8.3546 7.032 8.5108 15.461 0.3737 20.102-5.242 2.99-9.582 2.1584-13.979-2.6797-4.6125-5.0752-2.2768-14.662 4.2283-17.357 1.7134-0.70972 3.123-3.2649 2.7836-5.0449-0.31876-1.6717-2.619-1.6286-4.6585 0.0875-3.411 2.8702-4.2578 2.0289-4.4488-4.4206-0.19882-6.7106 0.54097-8.0427 3.2557-5.8643 4.863 3.9023 7.0171 2.0522 3.2931-2.8282-4.6855-6.1406-4.0766-6.9788 5.0759-6.9909zm-4.8827 28.583c-0.75887-0.016-2.3131 2.8387-1.9049 3.4991 0.21837 0.35333 1.0949 0.56161 1.9469 0.46302 2.4163-0.27963 2.3779-3.9111-0.0419-3.9621zm8.2706 0.57422c-1.3679 0-1.896 0.86524-1.4283 2.3388 0.43208 1.3614 3.2065 1.6508 3.2065 0.33451 0-1.594-0.71789-2.6733-1.7782-2.6733zm13.513 8.2232c0.98882 0.009 2.0463 0.35436 3.0616 1.153 2.4006 1.8883 2.1901 5.292-0.42748 6.9098-2.627 1.6236-3.4566 1.5373-5.5745-0.5806-3.2494-3.2495-0.59115-7.5132 2.9404-7.4822zm-37.139 1.6671c1.0454-0.0282 2.1306 0.25048 3.1081 0.93515 2.2792 1.5964 1.6655 5.5688-1.0792 6.9882-2.3536 1.2171-5.0876 0.34248-6.3602-2.0353-1.5809-2.9539 1.1952-5.8033 4.3312-5.888zm18.03 0.0346c-4.9971-0.0111-5.5641 1.3452-1.3781 3.2986 2.0028 0.93462 3.1976 0.9202 5.5635-0.0684 4.0998-1.713 2.1523-3.2161-4.1854-3.2302zm31.277 2.9085c5.1716 0 6.8666 5.5388 2.4017 7.8476-2.2126 1.1442-2.3507 1.129-4.2829-0.45299-2.8862-2.3631-1.6061-7.3947 1.8812-7.3947zm-61.843 0.0492c1.0075-0.0167 2.0087 0.41663 2.8401 1.3016 1.6825 1.7909 1.6162 4.1879-0.16406 5.9682-4.0355 4.0355-9.4682-1.7084-5.5553-5.8734 0.85769-0.91297 1.8718-1.3796 2.8793-1.3964zm74.328 4.5272c0.72321-0.0182 1.5152 0.12129 2.3415 0.43841 1.1936 0.45802 1.8044 3.8679 0.97161 5.4241-1.4905 2.785-7.0328 1.2342-7.0328-1.9678 0-2.365 1.55-3.84 3.7197-3.8947zm-85.652 0.99713c0.72226 0.0301 1.4627 0.28299 2.1574 0.82943 1.973 1.5519 2.2691 3.0767 0.97982 5.0422-1.7854 2.7216-3.7117 2.9157-6.2253 0.62891-2.8241-2.5693-0.0418-6.6307 3.088-6.5005zm26.719 0.88685c3.4219-0.12177 4.9886 2.4414 7.0465 8.9979 0.90628 2.8875 2.1396 6.811 2.7408 8.7181 1.7572 5.575 1.0928 7.8892-2.0398 7.103-1.3972-0.35068-1.7841-1.2601-4.3668-10.279-2.2673-7.9179-4.4188-10.511-6.8214-8.2214-0.30479 0.29042-1.9979 0.92115-3.7625 1.4018-4.238 1.1544-8.0981 2.5505-10.007 3.6194-0.85158 0.47688-1.8207 0.86679-2.1538 0.86679-1.3952 0-12.333 5.6069-12.336 6.3237-0.002 0.43008 1.1326 2.1363 2.5211 3.7917 4.5 5.3647 7.9229 13.487 7.2242 17.142-0.56739 2.9681 0.52052 3.8883 2.3324 1.9733 6.6618-7.0408 17.795-0.0844 16.902 10.561-0.69083 8.2402-7.4001 13.852-7.4001 6.1897 0-5.753-7.5044-7.0377-10.894-1.8648-9.0494 13.811 16.818 24.178 28.695 11.5 6.9542-7.4239 6.5803-14.585-0.49401-9.46-4.8047 3.4805-5.1644 2.7317-4.9319-10.273 0.1966-10.995 0.59881-11.602 4.6822-7.0574 5.4053 6.0154 5.5391 2.0017 0.29622-8.8694-1.7874-3.7061-1.3517-3.8974 8.8885-3.9065 10.411-0.009 10.528 0.0535 8.524 4.5846-4.5898 10.378-3.8357 13.322 2.0253 7.9115 4.5778-4.2262 4.8322-3.7704 4.8781 8.7163 0.0451 12.278-0.0132 12.407-4.1535 9.1811-7.1535-5.5732-6.8096 3.4224 0.40651 10.639 10.137 10.137 29.282 1.643 25.638-11.375-2.0561-7.3438-12.226-5.6636-12.226 2.0198 0 3.6199-4.2697-1.6514-5.2427-6.4723-2.3705-11.746 10.781-21.06 17.248-12.216 1.1497 1.5724 1.8322 0.26148 2.1282-4.087 0.38912-5.715 2.577-10.795 7.0118-16.281 3.5562-4.399 0.39714-6.8208-15.312-11.738-15.808-4.9478-15.81-4.9478-17.247 2.8036-0.23513 1.2684-0.9129 3.7259-1.5066 5.4605-0.59373 1.7346-1.0801 3.7587-1.0801 4.498 0 1.1802-1.9847 3.7386-2.8811 3.7142-2.2263-0.0607-2.5145-4.5645-0.63893-9.9841 0.65256-1.8856 1.1867-3.9433 1.1867-4.5728 0-0.62951 0.38742-2.0071 0.86041-3.0607 0.473-1.0536 1.1423-3.043 1.4875-4.4206 0.81149-3.238 2.1854-3.8001 6.7703-2.769 1.8827 0.4234 5.2102 1.1729 7.3938 1.6652 2.1835 0.49231 4.2835 1.1474 4.6667 1.4556 0.38313 0.30821 1.6152 0.75749 2.738 0.99804 1.1228 0.24054 3.2228 0.95824 4.6667 1.5951 6.0874 2.6849 7.4565 3.3145 10.638 4.8964 5.7862 2.8772 17.289 9.579 19.795 11.533 0.8565 0.66784 3.1639 2.3953 5.1279 3.8391 3.1483 2.3143 3.5504 2.8321 3.4006 4.375-0.30493 3.1419-2.6523 2.7099-7.7055-1.4192-2.3818-1.9462-4.5727-3.5392-4.869-3.5392-0.29633 0-1.0144-0.525-1.595-1.1667-0.5807-0.64167-1.3431-1.1837-1.6944-1.205-0.35132-0.0213-1.8202-0.94069-3.2639-2.0426-5.4471-4.1573-7.6681-4.0852-5.5471 0.17956 1.7433 3.5054 1.9439 13.507 0.35182 17.527-1.9506 4.9257-0.88963 7.4096 1.8156 4.2501 3.8432-4.4885 14.498-0.48806 16.147 6.063 1.9324 7.6743-3.865 18.977-9.7335 18.977-1.9844 0-2.5775-1.3891-1.1867-2.78 2.7585-2.7585-0.67404-9.47-4.8435-9.47-7.2416 0-9.1072 11.758-2.8574 18.008 8.5893 8.5893 22.147 5.1427 29.428-7.4812 4.0491-7.0199 3.4655-8.2743-2.4418-5.2509-6.0821 3.1129-7.0753 1.9052-4.2228-5.1333 1.0067-2.484 2.0765-5.8032 2.378-7.3755 1.0034-5.2324 2.8075-5.7956 5.7951-1.8083 3.5706 4.7654 4.7895 2.1535 2.0417-4.375-2.5747-6.1173-2.0346-6.8837 3.9156-5.5599 8.3059 1.8479 8.7683 2.5518 5.9491 9.0599-1.163 2.6849-1.3675 4.03-1.2524 8.2414l0.13763 5.0322-2.3434 2.8428c-2.3908 2.8996-4.0956 6.7493-7.0693 15.967-0.9703 3.0077-0.66932 6.5524 1.0154 11.958 1.7897 5.7428 1.6247 6.3077-3.7342 12.781-2.6318 3.1793-5.477 6.2921-6.3228 6.918l-1.5376 1.1384-5.4624-1.8165c-10.553-3.5096-12.51-4.0772-18.004-5.2254-35.785-7.4783-93.941-3.919-118.21 7.2352-2.9206 1.3421-2.2982 1.7203-10.911-6.6309-5.1192-4.9637-4.8044-3.8154-3.3077-12.067 1.4341-7.9059-1.9839-22.566-6.1332-26.306-3.4484-3.1076-4.6216-6.61-3.3824-10.099 1.0173-2.8643 1.016-2.8839-0.63073-7.8394-2.0905-6.2913-1.8362-7.6828 1.5641-8.5622 1.3603-0.35186 3.5228-1.017 4.8061-1.4784 5.1863-1.8647 8.3796-0.8069 5.96 1.9742-1.4232 1.6358-5.6657 10.135-5.3302 10.678 0.71732 1.1606 2.3463 0.32649 5.2783-2.7006 3.4748-3.5876 4.7014-3.9661 5.199-1.6042 0.76409 3.6275 2.7266 11.108 3.5574 13.562 2.1425 6.3286 1.4765 8.0733-2.0444 5.3548-9.3032-7.183-11.154-4.5516-4.2255 6.0074 7.5879 11.564 26.334 11.095 31.599-0.79024 4.1159-9.2901-5.1334-18.11-12.046-11.487l-2.6979 2.5849 0.20872 3.9776c0.36062 6.8873-4.8996 4.1771-7.7146-3.9749-3.7226-10.78 6.5597-22.895 15.695-18.492 3.4851 1.6796 4.1676 0.88239 2.5211-2.9449-1.7196-3.9974-1.7624-12.149-0.0857-16.403 2.3104-5.8614 1.7295-5.9323-5.9737-0.72916-3.2062 2.1656-6.493 4.3769-7.3035 4.9137-0.81054 0.53679-1.6329 1.2048-1.8275 1.4839-3.8478 5.5171-13.028 7.8309-10.324 2.6022 0.52718-1.0194 1.333-1.8539 1.7901-1.8539 0.45707 0 1.0415-0.37598 1.2988-0.83581 0.39137-0.69934 4.9577-4.3842 11.84-9.5539 2.1038-1.5803 13.2-7.8641 16.625-9.4154 7.2938-3.3032 9.7434-4.3375 16.625-7.021 1.4438-0.56297 4.0688-1.6155 5.8333-2.3388 2.5425-1.0422 4.4812-1.6527 6.0366-1.7081zm16.443 0.18138c3.7934-0.0347 6.464 4.648 3.0579 7.0337-1.2458 0.87258-3.1558 1.0612-5.2208 0.51497-2.7103-0.71691-2.3472-6.1482 0.48307-7.2242 0.57331-0.21798 1.1379-0.31952 1.6798-0.32448zm53.378 4.0542c0.80309 0.0354 1.6719 0.34413 2.5229 1.0135 1.8971 1.4922 1.968 3.4326 0.18685 5.106-1.7407 1.6353-3.3769 1.6081-4.9647-0.082-2.6402-2.8104-0.61323-6.164 2.255-6.0375zm-106.6 0.78932c0.91595 0.009 1.8275 0.24832 2.419 0.73919 1.3561 1.1255 1.1392 3.8799-0.3901 4.951-3.5204 2.4658-7.4138-1.1964-4.9109-4.6193 0.52008-0.71126 1.7044-1.0821 2.882-1.071zm53.492 4.1854 1.75 1.246c1.8915 1.3468 2.4636 4.5369 1.0208 5.6912-2.6296 2.1038-5.889 0.89234-6.156-2.2878-0.15024-1.7892 0.0949-2.3059 1.6042-3.3806l1.781-1.2688zm62.609 0.8595c0.96127 0.001 1.9569 0.41837 2.6824 1.3408 1.5367 1.9536 1.5176 2.2905-0.2233 4.0314-2.3188 2.3188-5.5681 0.96083-5.5681-2.327 0-1.8932 1.5069-3.047 3.109-3.0452zm-126.23 1.7974c2.8618-0.11693 4.7892 3.1662 2.2805 5.096-1.5299 1.1768-1.9664 1.231-3.8454 0.47578-2.0681-0.83127-1.8683-4.4626 0.29167-5.3001 0.43674-0.16934 0.86448-0.25491 1.2733-0.27161zm135.66 5.0057c2.9636 0 4.2424 3.2934 1.9122 4.9255-1.551 1.0863-1.4973 1.0863-3.5164-0.009-2.6673-1.447-1.5352-4.9164 1.6042-4.9164zm-144.38 2.3333c2.818 0 4.125 3.396 1.7883 4.6466-2.229 1.1929-4.705 0.17565-4.705-1.9332 0-1.7339 1.0524-2.7134 2.9167-2.7134zm72.518 0.6444c0.60719 0.031 1.1883 0.36742 1.7664 1.0062 1.3007 1.4373 1.2153 2.3295-0.34726 3.6331-1.7414 1.4527-2.312 1.4049-3.9375-0.32538l-1.3699-1.4583 1.3699-1.4583c0.9139-0.97281 1.7377-1.4371 2.5184-1.3973zm79.154 3.6012c0.34164-0.006 0.70811 0.0307 1.0956 0.11576 2.8432 0.62448 3.2012 4.4651 0.48399 5.1935-2.1113 0.56601-2.6394 0.42849-3.5939-0.93425-1.541-2.2001-0.37715-4.3323 2.0143-4.375zm-158.56 2.3133c2.1651 0.0514 3.7088 2.2497 2.358 4.3003-0.65254 0.99051-2.6089 1.3677-4.0742 0.78476-1.9279-0.76692-1.8333-3.8479 0.14583-4.7496 0.5378-0.24503 1.0708-0.34729 1.5704-0.33541zm79.221 22.024c-0.90741 0-1.1667 0.38889-1.1667 1.75s0.25926 1.75 1.1667 1.75c0.90741 0 1.1667-0.3889 1.1667-1.75s-0.25926-1.75-1.1667-1.75zm88.648 7.124c-0.8845 0.0536-1.9737 2.4854-1.534 3.6312 0.43705 1.1389 1.2015 1.164 2.11 0.0693 0.84852-1.0224 0.59343-3.3506-0.40287-3.6786-0.0566-0.0186-0.11421-0.0254-0.17318-0.0219zm-177.97 2.7927c-0.60157 0-0.69761 3.7038-0.11119 4.2902 0.70205 0.70205 1.634 0.0377 1.8311-1.3052 0.19219-1.3097-0.77283-2.985-1.7199-2.985zm89.02 20.178c-1.0024-0.002-2.0439 1.4712-3.5784 4.4971l-1.42 2.8 2.1091 3.4708c2.681 4.4133 3.4146 4.3698 5.6164-0.33542l1.781-3.8062-1.6333-3.2293c-1.136-2.2453-1.9903-3.3954-2.8747-3.397zm17.801 1.6971c-2.2171 0-3.0255 1.3795-1.7263 2.9449 0.38661 0.46583 1.1632 0.84674 1.7263 0.84674 1.3343 0 2.4833-1.4146 2.2276-2.7426-0.14819-0.76945-0.74154-1.0491-2.2276-1.0491zm-37.09 0.36003c-2.2068-0.004-3.4364 2.3386-1.8512 3.9238 0.39879 0.39878 1.3832 0.64816 2.1875 0.55416 2.0963-0.24497 2.1996-4.15 0.11758-4.4452-0.15526-0.022-0.30678-0.0326-0.45391-0.0328zm56.866 0.32721c-11.582 0.0552-13.355 12.024-2.2796 15.393 7.8854 2.3986 15.263-5.0859 11.155-11.317-1.897-2.8772-4.5515-4.0967-8.8758-4.076zm-74.782 0.38646c-1.4507 0.003-2.9985 0.25742-4.591 0.82214-7.8313 2.777-8.7299 12.332-1.3964 14.85 3.2792 1.1262 10.198-0.3008 12.682-2.6159 6.136-5.7198 1.139-13.07-6.6947-13.057zm98.701 4.2191c-0.45362-0.0213-0.93516 0.15586-1.3626 0.58333-1.0091 1.0091-1.0927 1.4431-0.54961 2.8583 0.6307 1.6436 3.3906 0.90506 3.6066-0.96523 0.16417-1.421-0.69643-2.4296-1.6944-2.4764zm-123.5 3.2658c-1.4263 0.0823-2.415 2.027-1.5868 3.3669 0.20955 0.33907 1.161 0.61706 2.1146 0.61706 3.144 0 2.9296-3.5957-0.23698-3.9749-0.0986-0.0118-0.19567-0.0146-0.29075-0.009zm140.88 2.3297c-0.73069 0.0336-1.6847 0.89139-2.9987 2.6122-2.3661 3.0987-2.5327 4.397-0.90781 7.062 2.628 4.3103 7.2795-2.9914 5.271-8.2742-0.36257-0.95362-0.79614-1.4262-1.3644-1.4zm-96.867 0.0292c-1.4954-0.0322-2.7643 2.1821-1.5094 3.6941 0.83799 1.0097 0.90288 1.0167 2.3479 0.24336 1.3659-0.73102 1.4677-2.4722 0.20508-3.52-0.34097-0.28299-0.69852-0.41002-1.0436-0.41745zm34.464 0.54323c-1.6888-0.053-2.4127 1.4894-1.3444 3.1199 1.1621 1.7736 1.5996 1.8117 3.0032 0.26068 1.2662-1.3991 0.61792-3.0585-1.3079-3.3478-0.12092-0.0182-0.23832-0.0293-0.35091-0.0328zm-94.394 2.9167c-0.12826-0.007-0.25487 0.0001-0.37917 0.0237-1.6816 0.31929-1.7088 5.2276-0.0419 7.4822 2.1006 2.8413 4.2235 2.2797 4.4443-1.1749 0.17712-2.7716-2.0993-6.2217-4.0232-6.331zm136.14 1.8275c-1.7093-0.0208-2.4737 1.7451-0.94245 3.4371 1.1805 1.3045 1.3005 1.3089 2.635 0.10117 1.4655-1.3263 1.336-2.4362-0.37461-3.2156-0.47849-0.21801-0.92352-0.31786-1.318-0.32265zm-118.01 2.368c-1.359-0.11464-2.2126 1.2084-1.4921 3.0862 0.44409 1.1573 2.6663 0.80928 3.4927-0.54688 0.51471-0.84463 0.41276-1.2265-0.51224-1.9132-0.52573-0.39027-1.0354-0.58796-1.4884-0.62617zm64.488 6.6172c14.47 0.0619 29.183 0.81986 37.322 2.2449 21.363 3.7404 31.227 8.1155 25.812 11.448-5.7698 3.551-27.398 7.115-49.146 8.0992-22.252 1.0071-51.764 0.43949-59.5-1.1448-1.6042-0.32853-4.3604-0.76027-6.125-0.95977-3.0832-0.34858-5.6365-0.98353-15.167-3.7707-10.614-3.104-7.9314-6.6261 7.5833-9.9586 1.4438-0.31011 4.3312-0.94264 6.4167-1.4055 2.0854-0.46283 6.0976-1.1183 8.9159-1.4565 2.8183-0.33824 6.4266-0.86195 8.019-1.1639 7.169-1.3596 21.397-1.9942 35.868-1.9323zm163.98 68.603c12.119-0.007 24.844 1.196 34.567 9.0052 10.156 7.7522 12.695 21.782 10.662 33.781-1.4527 10.954-9.5407 20.271-19.848 23.954-14.176 5.4393-29.643 3.1261-44.446 3.6358v39.836h-24.941v-110.15h38.86c1.6962-0.0347 3.4148-0.0601 5.1461-0.0611zm-365.03 0.0611h24.942v45.141c15.324-15.047 30.647-30.094 45.97-45.141h27.72c-17.638 17.344-35.276 34.688-52.915 52.032 19.547 19.373 39.092 38.747 58.638 58.12h-30.441c-16.324-16.16-32.648-32.32-48.973-48.48v48.48h-24.942v-110.15zm116.65 0h75.236v17.712h-50.295v26.046h47.296v17.713h-47.296v30.968h51.988v17.712h-76.929v-110.15zm102.19 0h75.236v17.712h-50.295v26.046h47.296v17.713h-47.296v30.968h51.988v17.712h-76.929v-110.15zm142.89 16.7c-4.4776 0.003-8.9834 0.32042-13.43 0.0902h-2.3333v33.002c-1.1186 3.9343 1.517 4.1146 4.7141 3.7333 8.4167-0.52165 17.516 1.5099 25.401-2.3926 6.8624-3.2359 9.7417-11.376 8.8038-18.547-0.38593-7.1355-5.8479-13.394-12.8-14.917-3.4068-0.78338-6.8725-0.97122-10.355-0.96888zm-333.78 155.84c11.726-0.16555 23.429 2.3676 33.982 7.6344v18.051c-7.4472-4.5833-15.847-7.7429-24.583-8.5832-11.574-1.4083-24.463 1.1817-32.47 10.245-9.7033 10.56-11.24 26.032-9.2622 39.662 1.7018 12.52 9.8972 24.567 22.224 28.574 14.725 4.6616 31.175 1.2232 44.091-6.8186v18.051c-14.606 7.3564-31.394 9.1507-47.43 6.4905-15.198-2.3325-29.633-10.872-37.612-24.258-8.2176-13.707-9.3622-30.518-6.6783-45.902 2.2468-12.893 9.8338-25.138 20.602-32.548 10.706-7.6267 24.108-10.547 37.137-10.599zm85.91 2.0727h32.051c13.6 36.717 27.2 73.434 40.8 110.15h-24.747c-2.4096-6.9726-4.8188-13.945-7.2288-20.918h-49.616c-2.4346 6.9728-4.8703 13.945-7.3053 20.918h-24.752c13.6-36.717 27.2-73.434 40.8-110.15zm88.207 0h24.942v92.439h51.987v17.712h-76.929v-110.15zm94.805 0h33.806c9.2282 21.686 18.456 43.372 27.685 65.058 9.2812-21.686 18.564-43.372 27.846-65.058h33.735v110.15h-23.327v-52.246c-0.26423-11.575 0.58371-23.205-0.53321-34.738 0.14285-4.9584-2.0992 1.7338-3.2703 3.1947-9.0916 20.451-17.642 41.164-26.525 61.717h-15.683l-14.297-33.456c-4.7914-10.54-8.583-21.567-14.141-31.733-1.8168-4.6157-1.2489 2.4193-1.7518 4.2228-0.32452 27.666-0.047 55.361-0.13945 83.038h-23.403v-110.15zm-166.94 17.415c-6.3486 18.394-12.696 36.788-19.045 55.182 12.666 0.00002 25.331 0 37.997 0-5.5837-16.258-11.167-32.515-16.751-48.773-0.73374-2.1365-1.4674-4.2729-2.2012-6.4094zm102.34 145.45c0.71661-0.0115 1.5128 0.0562 2.3279 0.1431 9.8307 0.31613 20.532-1.1104 29.517 3.799 7.6014 4.2181 11.325 13.185 10.677 21.623 0.0721 8.511-5.1211 17.098-13.25 20.29-10.2 3.7241-21.323 2.1296-31.948 2.5193v-44.497c-0.90874-3.0931 0.52625-3.842 2.676-3.8764zm-92.12 0.1431h13.74l17.865 48.231h-10.218c-1.0715-3.0989-2.1415-6.1983-3.2138-9.2969h-22.567c-1.0836 3.0987-2.1655 6.198-3.2484 9.2969h-10.222l17.865-48.231zm36.271 0h12.455c6.9218 12.941 13.652 25.985 20.708 38.854 0.19833-12.95 0.0443-25.903 0.093-38.854h9.676v48.231h-12.455c-6.9218-12.941-13.652-25.985-20.708-38.854-0.19834 12.95-0.0443 25.903-0.093 38.854h-9.676v-48.231zm-29.38 6.2617c-2.992 8.6678-5.9827 17.336-8.9742 26.004h17.905c-2.5368-7.3858-5.0732-14.772-7.6098-22.158-0.44021-1.2821-0.8805-2.5642-1.3207-3.8464zm97.544 0.70546c-1.1039 0.008-2.1881 0.0712-3.2311 0.17956h-1.4v33.937c5.7259-0.004 12.001 0.53788 17.099-2.6359 6.9571-4.1501 8.1706-13.523 6.1259-20.727-2.181-8.2101-10.866-10.812-18.594-10.753zm-255.81 92.284c11.726-0.1656 23.429 2.3676 33.982 7.6343v18.052c-7.4478-4.5831-15.848-7.7409-24.584-8.5832-11.574-1.4083-24.463 1.1817-32.47 10.245-9.7025 10.56-11.24 26.032-9.2613 39.662 1.7013 12.52 9.8963 24.567 22.223 28.574 14.725 4.6619 31.175 1.2225 44.092-6.8177v18.051c-12.526 6.3118-26.851 8.5774-40.769 7.3281-14.438-1.0394-28.845-6.6278-38.584-17.494-11.854-12.68-15-31.257-13.217-47.799 1.1536-12.871 6.8468-25.768 16.614-34.366 11.304-10.416 26.763-14.447 41.974-14.486zm211.76 2.0024c6.9693-0.02 13.927 0.1747 20.83 1.2196 9.5851 1.4013 20.118 5.8569 23.751 15.581 3.1207 8.849 3.2069 19.36-1.4401 27.72-4.534 8.0595-13.715 11.504-22.145 13.83-5.3018 0.9919 1.0141 1.5443 3.202 2.2531 7.6309 0.9519 13.483 6.6706 17.247 13.022 6.8489 11.831 12.241 24.446 18.496 36.595h-26.325c-2.3284-4.7461-4.6562-9.4918-6.9845-14.238-4.7022-8.4737-7.5188-18.564-15.057-25.118-6.7974-5.5515-16.203-3.8261-24.274-4.0952v43.451h-24.941v-110.15h16.741c6.9502 0.185 13.931-0.05 20.901-0.07zm115.72 0c6.9693-0.02 13.927 0.1747 20.83 1.2196 9.5851 1.4013 20.118 5.8569 23.751 15.581 3.1208 8.8491 3.2069 19.36-1.4401 27.72-4.5335 8.0595-13.714 11.504-22.144 13.83-5.3019 0.9919 1.0141 1.5443 3.202 2.2531 7.6234 0.9627 13.484 6.6674 17.246 13.022 6.8489 11.831 12.241 24.446 18.496 36.595h-26.325c-2.3283-4.7461-4.6562-9.4918-6.9845-14.238-4.7008-8.4731-7.5187-18.559-15.053-25.115-6.7984-5.5538-16.205-3.8297-24.279-4.098v43.451h-24.941v-110.15h16.741c6.9502 0.185 13.931-0.05 20.901-0.07zm-241.57 0.07h32.051c13.6 36.717 27.2 73.434 40.8 110.15h-24.746c-2.41-6.9727-4.8195-13.945-7.2297-20.918h-49.615c-2.4348 6.9729-4.871 13.945-7.3062 20.918h-24.752c13.6-36.717 27.2-73.434 40.8-110.15zm297.04 0h26.769c9.1416 14.304 18.283 28.609 27.425 42.913l27.426-42.913h26.845c-13.92 21.138-27.841 42.275-41.761 63.413v46.739h-24.942v-34.84c-0.26866-4.119 0.53063-8.558-0.38464-12.483l-41.377-62.829zm-170.15 16.74c-3.8324 0.01-7.699 0.2665-11.405 0.05h-2.3333v34.121c7.7593-0.3484 15.692 0.8322 23.334-0.9343 5.677-1.108 10.145-5.9828 10.811-11.72 1.057-6.6312 0.17403-14.997-6.2088-18.715-4.3995-2.3943-9.2704-2.8097-14.198-2.8027zm115.72 0c-3.8324 0.01-7.699 0.2665-11.405 0.05h-2.3333v34.121c7.7593-0.3484 15.692 0.8322 23.334-0.9343 5.6771-1.108 10.145-5.9828 10.811-11.72 1.057-6.6312 0.17407-14.997-6.2088-18.715-4.3994-2.3943-9.2704-2.8097-14.198-2.8027zm-226.54 0.6763c-6.3486 18.394-12.696 36.788-19.045 55.182h37.996c-5.5834-16.257-11.167-32.515-16.75-48.772l-2.2012-6.4093zm40.296 154.24c13.505 0.2217 27.719 3.8864 37.95 13.33 12.009 10.577 16.906 27.018 16.906 42.609 0.43054 15.715-3.8554 32.74-15.461 43.822-11.43 11.538-28.629 15.3-44.1 14.649-14.18-0.2326-29.388-4.9726-39.327-15.568-10.369-10.524-14.513-25.828-14.551-40.254-0.41165-15.815 3.8363-32.773 15.459-43.894 10.519-10.579 26.084-14.736 40.433-14.694 0.89264-0.015 1.7894-0.016 2.6897-0.0009zm76.357 2.0736h29.332c15.15 28.371 29.966 56.922 45.34 85.172 0.34529-28.388 0.0653-56.782 0.15587-85.172h23.404v110.15h-29.333c-15.149-28.371-29.966-56.923-45.34-85.172-0.34524 28.388-0.0653 56.782-0.15586 85.172h-23.404v-110.15zm-77.309 14.699c-0.30342 0-0.60707 0-0.91054 0.015-4.715-0.01-9.4904 0.8899-13.703 3.0643-10.852 5.5569-15.718 18.07-16.714 29.613-1.0684 13.051-0.14034 27.505 8.2742 38.191 7.8883 10.24 22.955 12.407 34.455 7.6316 10.894-4.6516 16.487-16.513 17.875-27.706 1.4657-12.698 0.97967-26.498-5.7887-37.732-4.7867-8.2081-14.082-13.073-23.487-13.078z"/>
 </g>
</svg>
