<?xml version="1.0" encoding="UTF-8" standalone="no"?>
<!-- Created with Inkscape (http://www.inkscape.org/) -->

<svg
   xmlns:dc="http://purl.org/dc/elements/1.1/"
   xmlns:cc="http://creativecommons.org/ns#"
   xmlns:rdf="http://www.w3.org/1999/02/22-rdf-syntax-ns#"
   xmlns:svg="http://www.w3.org/2000/svg"
   xmlns="http://www.w3.org/2000/svg"
   xmlns:sodipodi="http://sodipodi.sourceforge.net/DTD/sodipodi-0.dtd"
   xmlns:inkscape="http://www.inkscape.org/namespaces/inkscape"
   id="svg2"
   sodipodi:docname="heart banner1.svg"
   inkscape:export-filename="/Users/ceejay/Documents/Websites/Pixabella/Valentines Clipart/lace-heart-clip-art-remix.svg.png"
   viewBox="0 0 464.4503 328.69053"
   sodipodi:version="0.32"
   inkscape:export-xdpi="90"
   version="1.0"
   inkscape:output_extension="org.inkscape.output.svg.inkscape"
   inkscape:export-ydpi="90"
   inkscape:version="0.48.5 r10040"
   width="100%"
   height="100%">
  <defs
     id="defs2996" />
  <sodipodi:namedview
     id="base"
     bordercolor="#666666"
     inkscape:pageshadow="2"
     guidetolerance="10"
     pagecolor="#ffffff"
     gridtolerance="10000"
     inkscape:window-height="721"
     inkscape:zoom="0.2799099"
     objecttolerance="10"
     showgrid="false"
     borderopacity="1.0"
     inkscape:current-layer="layer1"
     inkscape:cx="66.108682"
     inkscape:cy="587.98628"
     showguides="true"
     inkscape:window-y="-4"
     inkscape:window-x="-4"
     inkscape:window-width="1366"
     inkscape:guide-bbox="true"
     inkscape:pageopacity="0.0"
     inkscape:document-units="px"
     inkscape:window-maximized="1"
     fit-margin-top="10"
     fit-margin-left="10"
     fit-margin-right="10"
     fit-margin-bottom="10"
     inkscape:object-nodes="true"
     inkscape:object-paths="true"
     inkscape:snap-global="true"
     inkscape:snap-smooth-nodes="true" />
  <g
     id="layer1"
     inkscape:label="Layer 1"
     inkscape:groupmode="layer"
     transform="translate(-60.011882,-2648.9148)">
    <path
       d="m 435.23533,2835.985 c 11.47639,-18.8093 39.69224,-18.455 64.20463,-15.0586 3.00981,0.417 7.84087,1.1445 10.65148,-1.1701 5.16395,-4.2527 1.00562,-8.6385 0.72257,-10.7571 l 1.2e-4,-4e-4 c 0,0 -26.12641,-2.3147 -46.34313,0.7166 -7.15464,1.0728 -16.76113,2.8005 -30.13172,5.6992 z"
       style="fill:#d76cff;stroke:#0e232e;stroke-width:3;stroke-linejoin:round;stroke-miterlimit:4;stroke-dasharray:none"
       sodipodi:nodetypes="cssccscc"
       inkscape:connector-curvature="0"
       id="path3903" />
    <path
       d="m 84.840595,2797.3918 -13.328714,-19.1311 c 0,0 21.615385,5.5222 37.671639,4.4241 16.05629,-1.0978 19.0371,-1.3514 25.37621,-3.9555 l 5.97055,1.3956 12.75959,19.3201 -65.893087,7.0641 z"
       style="fill:#f1caff;stroke:#0e232e;stroke-width:3;stroke-miterlimit:4;stroke-dasharray:none"
       sodipodi:nodetypes="ccsc"
       inkscape:connector-curvature="0"
       id="path3899" />
    <path
       inkscape:connector-curvature="0"
       style="fill:#d76cff;stroke:#0e232e;stroke-width:3;stroke-miterlimit:4;stroke-dasharray:none"
       sodipodi:nodetypes="cssc"
       d="m 139.07357,2792.0318 c -13.93016,8.5883 -35.18514,7.7064 -54.226753,5.1323 -3.081425,-0.4161 -7.852112,-1.0361 -10.651498,1.1702 -3.852949,3.0366 -0.985702,10.1877 0.103754,11.6297 l 15.608085,14.9169 75.020482,-4.0332 -18.67567,-31.902 z"
       id="path3901" />
    <path
       style="opacity:0.98000004;fill:#ba00ff;stroke:#0e232e;stroke-width:3.00000024;stroke-linecap:round;stroke-linejoin:round;stroke-miterlimit:4;stroke-opacity:1;stroke-dasharray:none;stroke-dashoffset:0"
       d="m 204.84781,2660.418 c -42.21065,0.3622 -80.83541,33.6578 -86.3232,75.6852 -4.87936,37.3679 11.48665,74.2837 37.56308,100.6354 43.12072,43.5762 95.95281,78.0362 130.77648,129.3667 6.88132,-7.3483 14.54061,-18.9088 22.29696,-27.471 39.53926,-43.6474 91.15567,-75.2457 126.72953,-122.4824 26.91708,-35.742 29.93756,-91.075 -0.84317,-126.0095 -28.6007,-32.4603 -81.11758,-39.4479 -116.55095,-14.5033 -12.89156,9.0756 -23.93824,20.9544 -31.23789,34.9676 -15.75511,-30.2773 -47.85255,-50.4856 -82.41084,-50.1887 z"
       id="path3905"
       inkscape:connector-curvature="0"
       sodipodi:nodetypes="ssscsssscs" />
    <path
       inkscape:connector-curvature="0"
       style="fill:#f1caff;stroke:#0e232e;stroke-width:3;stroke-miterlimit:4;stroke-dasharray:none"
       sodipodi:nodetypes="cccssccscc"
       d="m 510.86313,2808.9929 c 0,0 -31.93784,-2.6461 -54.46025,2.0969 -111.41895,17.3311 -227.07264,85.4859 -326.23241,88.4009 -17.4643,-0.082 -21.55086,2.3699 -27.92587,-8.9743 -6.374876,-11.3446 -11.149599,-24.4349 -18.398373,-44.7589 -3.522091,-9.8753 -10.283256,-31.4772 -9.547154,-35.7935 72.607537,32.1891 366.967547,-120.6589 407.474847,-89.0491 1.10488,2.9458 2.84678,-3.4795 8.60158,17.3782 5.75478,20.8577 20.49428,70.6996 20.49428,70.6996 z"
       id="path3907" />
    <path
       inkscape:connector-curvature="0"
       style="fill:#f1caff;stroke:#0e232e;stroke-width:3;stroke-miterlimit:4;stroke-dasharray:none"
       sodipodi:nodetypes="cccssc"
       d="m 435.23533,2835.985 c 11.47641,-18.8094 39.89313,-18.3745 64.39815,-14.9335 l 13.32869,19.1312 c 0,0 -21.61537,-5.5221 -37.67163,-4.424 -16.05629,1.0978 -19.0371,1.3514 -25.37621,3.9555 -6.33942,2.6042 -14.679,5.358 -14.679,-3.7292 z"
       id="path3909" />
  </g>
  <metadata
     id="metadata2994">
    <rdf:RDF>
      <cc:Work>
        <dc:format>image/svg+xml</dc:format>
        <dc:type
           rdf:resource="http://purl.org/dc/dcmitype/StillImage" />
        <cc:license
           rdf:resource="http://creativecommons.org/licenses/publicdomain/" />
        <dc:publisher>
          <cc:Agent
             rdf:about="http://openclipart.org/">
            <dc:title>Openclipart</dc:title>
          </cc:Agent>
        </dc:publisher>
        <dc:title></dc:title>
        <dc:date>2009-02-17T20:57:41</dc:date>
        <dc:description>Two pink hearts with a dark pink heart in the center.</dc:description>
        <dc:source>https://openclipart.org/detail/21619/two-pink-hearts-together-by-pixabella-21619</dc:source>
        <dc:creator>
          <cc:Agent>
            <dc:title>pixabella</dc:title>
          </cc:Agent>
        </dc:creator>
        <dc:subject>
          <rdf:Bag>
            <rdf:li>heart</rdf:li>
            <rdf:li>love</rdf:li>
            <rdf:li>love heart</rdf:li>
            <rdf:li>pink</rdf:li>
            <rdf:li>pink hearts</rdf:li>
            <rdf:li>romance</rdf:li>
            <rdf:li>romantic</rdf:li>
            <rdf:li>valentine</rdf:li>
            <rdf:li>valetine heart</rdf:li>
            <rdf:li>valetines day</rdf:li>
          </rdf:Bag>
        </dc:subject>
      </cc:Work>
      <cc:License
         rdf:about="http://creativecommons.org/licenses/publicdomain/">
        <cc:permits
           rdf:resource="http://creativecommons.org/ns#Reproduction" />
        <cc:permits
           rdf:resource="http://creativecommons.org/ns#Distribution" />
        <cc:permits
           rdf:resource="http://creativecommons.org/ns#DerivativeWorks" />
      </cc:License>
    </rdf:RDF>
  </metadata>
</svg>
