<?xml version="1.0" encoding="UTF-8" standalone="no"?>
<svg
   xmlns:dc="http://purl.org/dc/elements/1.1/"
   xmlns:cc="http://creativecommons.org/ns#"
   xmlns:rdf="http://www.w3.org/1999/02/22-rdf-syntax-ns#"
   xmlns:svg="http://www.w3.org/2000/svg"
   xmlns="http://www.w3.org/2000/svg"
   xmlns:sodipodi="http://sodipodi.sourceforge.net/DTD/sodipodi-0.dtd"
   xmlns:inkscape="http://www.inkscape.org/namespaces/inkscape"
   sodipodi:docname="Cartoon character in top hat.svg"
   inkscape:version="1.0 (4035a4fb49, 2020-05-01)"
   id="svg329"
   version="1.1"
   viewBox="0 0 93.66198 97.12986"
   height="97.12986mm"
   width="93.66198mm">
  <title
     id="title458">Cartoon character in top hat</title>
  <defs
     id="defs323" />
  <sodipodi:namedview
     inkscape:window-maximized="1"
     inkscape:window-y="-9"
     inkscape:window-x="-9"
     inkscape:window-height="1001"
     inkscape:window-width="1920"
     fit-margin-bottom="0"
     fit-margin-right="0"
     fit-margin-left="0"
     fit-margin-top="0"
     inkscape:snap-global="false"
     showgrid="false"
     inkscape:document-rotation="0"
     inkscape:current-layer="layer1"
     inkscape:document-units="mm"
     inkscape:cy="161.44181"
     inkscape:cx="173.25008"
     inkscape:zoom="1.4"
     inkscape:pageshadow="2"
     inkscape:pageopacity="0.0"
     borderopacity="1.0"
     bordercolor="#666666"
     pagecolor="#ffffff"
     id="base" />
  <metadata
     id="metadata326">
    <rdf:RDF>
      <cc:Work
         rdf:about="">
        <dc:format>image/svg+xml</dc:format>
        <dc:type
           rdf:resource="http://purl.org/dc/dcmitype/StillImage" />
        <dc:title>Cartoon character in top hat</dc:title>
        <cc:license
           rdf:resource="http://creativecommons.org/publicdomain/zero/1.0/" />
      </cc:Work>
      <cc:License
         rdf:about="http://creativecommons.org/publicdomain/zero/1.0/">
        <cc:permits
           rdf:resource="http://creativecommons.org/ns#Reproduction" />
        <cc:permits
           rdf:resource="http://creativecommons.org/ns#Distribution" />
        <cc:permits
           rdf:resource="http://creativecommons.org/ns#DerivativeWorks" />
      </cc:License>
    </rdf:RDF>
  </metadata>
  <g
     transform="translate(-16.70699,-196.00129)"
     id="layer1"
     inkscape:groupmode="layer"
     inkscape:label="Lager 1">
    <path
       transform="scale(0.26458333)"
       d="m 180.4375,740.79297 c -9.79767,-0.0221 -19.43958,0.4777 -24.9375,1.50781 -29.74794,5.57363 -36.30014,7.26184 -59.765625,15.41016 -11.74566,4.07864 -24.161031,10.79153 -29.162109,15.76758 l -3.427735,3.41015 6.808594,14.30664 c 6.982231,14.66982 11.895412,27.21 16.179687,41.30469 3.93718,12.95271 8.395777,30.25965 8.830079,34.27344 0.22176,2.0496 0.667878,5.30153 0.990234,7.22656 0.579009,3.4577 0.511487,3.5367 -5.527344,6.45703 -7.55252,3.6522 -13.45264,8.75802 -18.36914,15.89649 -3.304808,4.79852 -3.772263,6.20398 -3.822266,11.50976 -0.06624,7.03261 2.683444,12.13526 7.876953,14.61524 4.387419,2.09499 5.053242,3.23889 5.820313,10.02148 1.233732,10.90889 5.847852,22.33414 11.724609,29.02734 2.532351,2.8842 3.779421,3.54629 6.267578,3.33204 4.418012,-0.3806 5.576172,0.708 5.576172,5.24218 0,5.45001 2.76964,18.53336 4.95312,23.39844 2.39867,5.34452 6.78616,9.5678 12.92969,12.4453 4.50791,2.1114 5.15775,2.8187 5.92969,6.4629 0.47675,2.2506 0.56203,4.4455 0.19141,4.877 -0.92347,1.0754 -16.69098,4.8773 -21.00391,5.0644 l -3.5,0.1504 -0.30273,7.5 c -0.44382,11.0219 4.91771,39.6865 7.93945,42.4492 0.74993,0.6856 4.96328,2.4845 9.36328,3.9981 4.4,1.5136 16.84577,6.7558 27.65625,11.6484 27.38805,12.3952 28.19616,12.7382 38.84375,16.4688 14.53223,5.0916 14.0284,5.1844 30.5,-5.6563 5.5,-3.6199 14.37601,-8.9292 19.72461,-11.7988 5.34859,-2.8697 9.9665,-5.6084 10.26172,-6.086 0.29522,-0.4777 1.8352,-1.1534 3.42187,-1.5019 1.58666,-0.3485 3.68654,-1.5193 4.66602,-2.6016 1.64271,-1.8152 1.68523,-2.7886 0.55273,-12.5312 -0.92838,-7.9872 -0.94666,-10.9 -0.0742,-11.9512 2.63182,-3.1712 41.78642,-32.1324 46.44727,-34.3555 1.1,-0.5247 5.375,-3.6809 9.5,-7.0136 4.125,-3.3328 10.58938,-8.1429 14.36523,-10.6875 l 6.86524,-4.62699 -0.5957,-4.12696 c -3.2099,-22.24758 -3.702,-27.83986 -2.57227,-29.20117 2.53251,-3.05151 3.62487,-1.33417 5.61523,8.82422 1.78012,9.0853 1.84329,10.50569 0.55079,12.5 -1.31116,2.02322 -1.28615,2.25 0.24414,2.25 0.97267,0 2.1868,1.28542 2.83398,3 1.30934,3.46881 2.6553,3.8642 3.4043,1 0.66258,-2.53372 0.50225,-2.54379 12.07031,0.86523 15.51804,4.57301 16.1557,4.60373 20.21875,0.97852 3.53481,-3.1539 13.39211,-9.84375 14.50586,-9.84375 1.11432,0 11.97285,-7.73272 13.95117,-9.93555 2.30128,-2.56248 1.20425,-5.36014 -2.30859,-5.88281 C 401.46711,966.00593 400.5,965.36566 400.5,964.75977 400.5,962.99495 397.34271,960 395.48242,960 c -2.12954,0 -13.05359,4.91543 -19.9082,8.95703 C 372.73544,970.63083 369.83203,972 369.12305,972 367.40363,972 352.5,963.86964 352.5,962.93164 c 0,-0.4046 1.2375,-1.19288 2.75,-1.75195 4.91808,-1.81811 12.59277,-7.58093 15.91797,-11.95313 3.05586,-4.01813 5.2742,-10.61638 3.99805,-11.89258 -0.31587,-0.31566 -2.99948,-0.27236 -5.9629,0.0977 -5.84708,0.73062 -17.18864,6.55296 -26.51171,13.60938 -2.87766,2.17799 -5.89709,3.95898 -6.71094,3.95898 -0.81384,0 -1.48047,0.65924 -1.48047,1.46484 0,1.73001 -2.95281,3.46243 -4.78516,2.80664 -0.70665,-0.25288 -4.53165,1.9669 -8.5,4.9336 -3.96834,2.96681 -13.22571,9.64772 -20.57226,14.8457 -7.34655,5.19791 -15.44655,10.93481 -18,12.75 -21.28257,15.12928 -28.88981,20.09898 -30.86719,20.16208 -0.67338,0.021 -1.96788,-1.4254 -2.87695,-3.2129 -0.90907,-1.7875 -1.79322,-3.4097 -1.96485,-3.6055 -0.17164,-0.1958 -2.37385,0.4319 -4.89453,1.3946 -2.52068,0.9625 -4.81196,1.5218 -5.09179,1.2421 -0.27983,-0.2793 -0.78222,-2.8093 -1.11524,-5.621 -0.5264,-4.44477 -0.27778,-5.54079 1.90039,-8.39649 5.81071,-7.6182 16.05307,-30.84363 17.33399,-39.30664 1.24735,-8.24137 0.73624,-28.40655 -0.82227,-32.45703 -0.31744,-0.82503 -0.87492,-2.85001 -1.23828,-4.5 -0.36335,-1.64999 -1.27571,-4.35001 -2.0293,-6 -0.75359,-1.64999 -2.23859,-5.47498 -3.29883,-8.5 -1.06024,-3.02498 -2.54647,-7.03274 -3.30273,-8.90625 -1.12678,-2.79129 -1.13903,-3.4869 -0.0644,-3.85352 0.72124,-0.24608 5.14453,-4.25418 9.82812,-8.90625 12.2196,-12.13731 14.10039,-17.72165 7.82617,-23.23046 C 259.35338,855.81063 257.45002,855 254.67578,855 c -4.5725,0 -13.96436,2.37059 -20.04101,5.05859 -2.46963,1.09221 -4.81486,1.63952 -5.21289,1.21485 -1.87408,-1.99994 -3.54819,-37.93115 -4.39063,-94.27344 -0.1357,-9.07499 -0.31036,-17.04141 -0.38867,-17.70312 -0.23472,-1.98369 -8.99043,-5.27036 -18.33399,-6.88282 -6.12083,-1.05628 -16.07342,-1.599 -25.87109,-1.62109 z M 127.87305,755 c 2.06555,0 2.45148,1.00383 4.91797,12.75 1.4725,7.0125 3.81901,17.475 5.21484,23.25 1.39584,5.775 2.76283,12.12504 3.03711,14.11133 0.27428,1.98629 1.63134,8.5113 3.01562,14.5 1.38428,5.9887 2.91984,13.21074 3.41211,16.04883 0.49228,2.83819 1.4361,6.96766 2.09766,9.17578 0.6615,2.208 0.93202,4.72354 0.59961,5.58984 -0.72768,1.89627 -6.54274,2.16054 -7.13086,0.32422 -0.22019,-0.6875 -2.48192,-10.25003 -5.02539,-21.25 -2.54348,-11.00001 -5.54925,-23.59999 -6.67969,-28 -1.13043,-4.39997 -2.68993,-10.88829 -3.46484,-14.41992 -0.77491,-3.53159 -2.748,-11.02494 -4.38672,-16.65039 C 121.84174,764.80424 120.5,759.47022 120.5,758.57617 120.5,756.82145 124.2556,755 127.87305,755 Z m 68.63867,96.98047 c 0.28018,0.0337 0.61977,0.25451 1.01758,0.65625 1.03613,1.0464 3.19721,21.18746 2.41015,22.46094 -1.13771,1.84082 -4.20293,0.0296 -3.12695,-1.84766 0.23642,-0.4125 -0.0981,-5.16646 -0.74219,-10.56445 -0.89185,-7.47461 -0.77269,-10.85098 0.44141,-10.70508 z m -17.95899,0.0723 c 0.87047,0.1779 1.59308,2.63726 2.98243,9.16993 l 1.76172,8.27929 0.10156,-5.41797 c 0.15569,-8.28759 1.02928,-6.51891 2.67773,5.41797 1.0727,7.76686 1.07151,7.49868 0.01,7.51758 -0.50236,0.01 -1.03927,-1.16615 -1.19336,-2.61133 -0.45581,-4.27676 -1.60908,-4.2644 -1.2461,0.0117 v 0.002 c 0.32625,3.84324 -1.58216,6.32922 -2.61914,3.4121 -1.38059,-3.8838 -4.16895,-24.46043 -3.42382,-25.26562 0.35303,-0.38153 0.65906,-0.57492 0.94921,-0.51563 z M 169.89258,853 c 0.88385,0 1.60742,0.16334 1.60742,0.36328 0,0.1999 0.46128,2.78738 1.02539,5.75 0.56412,2.96258 1.20305,6.51173 1.41992,7.88672 0.21688,1.37499 0.69513,4.41251 1.0625,6.75 0.66603,4.23798 0.1678,4.96378 -2.32226,3.38477 -0.72305,-0.45854 -2.35783,-0.63441 -3.63282,-0.39063 -1.27497,0.2437 -2.60911,-0.0261 -2.96484,-0.60156 -1.26786,-2.05142 -4.42346,-21.65793 -3.61914,-22.48633 0.4506,-0.46435 1.65306,-0.68249 2.67187,-0.48633 1.4911,0.28721 2.19231,2.20733 3.59376,9.84375 l 1.74023,9.48633 -0.50781,-8.22266 c -0.27969,-4.52292 -0.7735,-8.91041 -1.09571,-9.75 C 168.49561,853.54882 168.86255,853 169.89258,853 Z m 38.47851,0 c 0.93886,0 2.10749,8.12381 2.1211,14.75 0.0101,4.92529 -1.94175,5.85843 -2.0918,1 -0.0552,-1.78749 -0.27624,-6.06248 -0.49023,-9.5 -0.21402,-3.43748 -0.007,-6.25 0.46093,-6.25 z m -25.61328,0.1543 c 0.16085,0.0356 0.42946,0.42247 0.86524,1.17187 0.58365,1.00381 0.86853,2.01643 0.63476,2.25 -0.70873,0.7087 -1.75869,-0.8081 -1.72656,-2.49219 0.0125,-0.65024 0.0657,-0.96527 0.22656,-0.92968 z m -24.70898,1.16797 c 1.8963,0.10791 2.14311,2.06099 3.90039,11.53906 1.80034,9.71021 1.8309,10.13867 0.70117,10.13867 -0.4674,0 -1.57093,-3.03752 -2.45312,-6.75 -1.59671,-6.71932 -1.60289,-6.72659 -1.11524,-1.48828 0.26943,2.89421 0.74654,5.93169 1.06055,6.75 0.38589,1.00573 -0.03,1.45097 -1.28516,1.375 -4.75469,-0.28872 -19.27439,-2.46969 -19.77539,-2.9707 -0.90617,-0.90618 -2.43662,-13.35391 -1.72851,-14.0586 0.67647,-0.67321 12.00209,-3.30916 18.33398,-4.26758 0.79667,-0.12057 1.43461,-0.23786 1.95898,-0.26562 0.14202,-0.008 0.27593,-0.009 0.40235,-0.002 z m 98.83594,2.91406 c 2.02568,0.0671 2.7693,0.78823 4.66211,2.81445 3.21671,3.4436 3.60844,5.50143 1.56054,8.19922 -1.91249,2.51932 -2.63875,2.1578 -2.00976,-1 0.30127,-1.51249 0.0514,-4.05196 -0.55469,-5.64258 l -1.10156,-2.89062 -7.22071,0.60547 c -3.9714,0.3335 -8.3457,0.85187 -9.7207,1.15234 -2.10614,0.46027 -2.02737,0.32871 0.5,-0.83399 1.65,-0.75907 5.8333,-1.68725 9.29688,-2.06445 1.53786,-0.16737 2.70455,-0.28955 3.63476,-0.33008 0.34883,-0.0152 0.66374,-0.0193 0.95313,-0.01 z m -38.01954,2.10937 c 0.0909,0.0138 0.19866,0.16766 0.31836,0.4668 0.28891,0.72189 0.25222,1.58575 -0.0801,1.91797 -0.33228,0.33229 -0.56874,-0.25839 -0.5254,-1.3125 0.03,-0.72813 0.13554,-1.09522 0.28711,-1.07227 z m -86.41015,0.6875 c 0.97154,-0.0575 1.95955,1.72306 2.5,4.70508 0.3749,2.0685 0.92363,4.77423 1.2207,6.01172 0.37421,1.55879 0.088,2.25 -0.93164,2.25 -0.99135,0 -1.88879,-1.9672 -2.75,-6.02539 -0.70319,-3.31359 -1.01958,-6.28326 -0.70312,-6.59961 0.21689,-0.2169 0.43986,-0.32852 0.66406,-0.3418 z M 128.35742,862 c 1.00433,0 3.5193,8.94569 2.73828,9.73633 -1.04771,1.04897 -8.43253,1.02658 -9.48632,-0.0273 -0.6103,-0.61028 -1.10938,-2.63141 -1.10938,-4.49218 0,-4.2466 2.09432,-3.86764 3.37891,0.61132 0.9945,3.46768 3.19748,4.48595 2.30273,1.06446 C 125.55851,866.50966 126.9826,862 128.35742,862 Z M 219.5,864 c 0.55,0 1,0.675 1,1.5 0,0.825 -0.45,1.5 -1,1.5 -0.55,0 -1,-0.675 -1,-1.5 0,-0.825 0.45,-1.5 1,-1.5 z m -108.07617,5 c 0.47389,0 1.12092,0.675 1.4375,1.5 0.31658,0.82503 0.18874,1.5 -0.28516,1.5 -0.47389,0 -1.12092,-0.67497 -1.4375,-1.5 -0.31658,-0.825 -0.18874,-1.5 0.28516,-1.5 z m -2.89258,1 c 0.53274,0 0.96875,0.675 0.96875,1.5 0,0.825 -0.17643,1.5 -0.39258,1.5 -0.21616,0 -0.65217,-0.675 -0.96875,-1.5 -0.31658,-0.825 -0.14015,-1.5 0.39258,-1.5 z m 85.60352,2.41797 c 0.0529,-0.0105 0.10723,-0.011 0.16406,0 0.0649,0.0126 0.13242,0.0396 0.20117,0.082 0.55,0.33989 1,1.2661 1,2.05859 0,0.79261 -0.45,1.44141 -1,1.44141 -0.55,0 -1,-0.92621 -1,-2.05859 0,-0.86716 0.26434,-1.45013 0.63477,-1.52344 z M 149.5,877.12695 c 1.925,-0.007 5.3,0.36143 7.5,0.81641 3.99584,0.82602 3.99427,0.82612 -1.5,0.87109 -3.025,0.0246 -6.4,-0.34174 -7.5,-0.81445 -1.62399,-0.69785 -1.34197,-0.86171 1.5,-0.87305 z M 226.09766,881 c 3.88905,0 4.57871,0.33485 5.45312,2.63477 2.17784,5.72817 10.23322,36.3938 13.04492,49.6582 2.64378,12.47218 2.85093,14.64511 1.85157,19.45898 -1.0543,5.07863 -4.86794,17.26406 -6.80665,21.74805 -4.90621,11.34762 -6.77285,15.25936 -7.98632,16.73047 -1.8887,2.28979 -10.31166,5.32829 -17.1543,6.18945 -3.025,0.38071 -6.5125,0.94222 -7.75,1.2461 -1.817,0.44621 -2.25,0.12925 -2.25,-1.64063 0,-3.0463 -2.16829,-2.04331 -3.32227,1.53711 -1.54394,4.7915 -2.5271,5.4872 -6.79492,4.8047 -2.39596,-0.3831 -3.88281,-0.2283 -3.88281,0.4062 0,1.3054 -6.91092,0.7161 -8.33789,-0.7109 -1.54514,-1.5451 -3.69127,-1.3012 -3.05859,0.3477 0.31457,0.8196 -0.22152,1.6306 -1.28125,1.9375 -5.88522,1.7047 -33.26693,1.1755 -42.32227,-0.8184 -6.7385,-1.4837 -11.85857,-5.34809 -14.42773,-10.88672 -7.52069,-16.213 -10.94965,-33.47282 -7.73438,-38.9336 1.13266,-1.9237 1.30525,-3.0124 0.55664,-3.5 -0.59764,-0.38921 -1.3896,-1.94649 -1.75976,-3.45898 -0.76076,-3.10851 -2.42993,-3.6245 -3.23438,-1 -1.39407,4.54809 -4.55697,10.37303 -5.91601,10.89453 -2.01814,0.7745 -3.923984,-0.94683 -6.857427,-6.19531 -4.158349,-7.44011 -5.900639,-14.23471 -6.017578,-23.4707 C 89.986846,918.30001 91.018438,916 95.480469,916 c 2.14408,0 4.244157,1.6746 9.718751,7.75 3.84098,4.26248 7.52647,8.77638 8.1914,10.0293 1.33382,2.51308 3.39003,2.11806 2.4004,-0.46094 -0.50972,-1.32832 -0.1429,-1.49639 2.04492,-0.94727 3.47068,0.87107 3.39896,0.1079 -0.83594,-8.9375 -1.925,-4.11159 -3.50286,-7.80467 -3.50586,-8.20507 -0.003,-0.40048 -0.59105,-1.85353 -1.30469,-3.22852 -2.87396,-5.53739 -2.81496,-5.84227 1.59961,-8.41016 4.40515,-2.56233 13.73987,-5.94581 19.71094,-7.14453 1.925,-0.38638 6.65,-1.69008 10.5,-2.89843 11.39995,-3.5782 16.16698,-4.45212 33,-6.04493 8.8,-0.8327 18.925,-2.17701 22.5,-2.98633 C 207.66934,882.66646 220.27647,881 226.09766,881 Z m 13.59375,1.13086 c 0.17183,0.0503 0.48957,0.43315 0.93164,1.19336 0.58405,1.00377 0.84926,2.03558 0.59179,2.29297 -0.25747,0.2575 -0.74884,-0.26255 -1.09179,-1.15625 -0.60311,-1.5717 -0.71803,-2.41391 -0.43164,-2.33008 z M 96.060547,882.375 c 0.0951,-0.002 0.160331,0.0119 0.191406,0.043 0.243542,0.24359 -1.601258,1.37547 -4.099609,2.51367 -4.658291,2.12209 -5.652344,2.40531 -5.652344,1.61524 0,-0.66349 8.134118,-4.14855 9.560547,-4.17188 z m 98.455073,5.34961 c -5.6767,0.0391 -6.51562,0.28515 -6.51562,1.91016 0,1.43879 0.87068,1.93779 3.80664,2.17968 l 3.80664,0.31446 -3.05664,3.125 c -1.68099,1.7193 -3.05664,4.13885 -3.05664,5.37695 0,2.98889 -1.68943,3.92635 -2.49609,1.38476 C 186.65224,900.90766 185.91524,900 185.36523,900 c -2.62032,0 4.44786,12.58071 9.61915,17.12109 1.93401,1.69811 3.51562,3.38692 3.51562,3.75391 0,0.36699 -2.025,1.77303 -4.5,3.125 -2.71384,1.48252 -4.5,3.16249 -4.5,4.23047 0,0.97402 0.20878,1.76953 0.46484,1.76953 0.25606,0 3.40223,-1.61363 6.99024,-3.58594 7.10959,-3.90788 7.43729,-5.28861 2.08594,-8.79492 -3.07137,-2.01248 -3.51687,-4.21026 -0.5293,-2.61133 1.10623,0.59195 2.56873,0.96299 3.25,0.82617 0.68128,-0.1367 2.4921,0.0835 4.02539,0.48829 1.61994,0.42776 3.50506,0.27892 4.5,-0.35547 1.41065,-0.89934 1.23862,-0.99239 -0.97656,-0.52539 -3.67597,0.77487 -4.36817,-0.85698 -1.0293,-2.42579 1.58795,-0.74603 2.1952,-1.46709 1.46094,-1.73242 -0.9344,-0.33789 -0.78305,-1.13679 0.58789,-3.11718 3.52621,-5.0939 3.45616,-6.12141 -0.69141,-10.14649 -2.13444,-2.07141 -4.50128,-4.04826 -5.25976,-4.39258 -1.0634,-0.48298 -1.09278,-0.75918 -0.12891,-1.20898 4.21637,-1.9677 -1.55332,-4.7493 -9.73438,-4.69336 z m -110.095698,0.40625 c 0.119922,0.0635 -0.170728,0.45076 -0.792969,1.20508 -0.754847,0.91498 -1.76735,1.66406 -2.25,1.66406 -1.527492,0 -0.953914,-0.88903 1.373047,-2.12891 1.02011,-0.54361 1.55,-0.80376 1.669922,-0.74023 z m 93.884768,1.4043 c -1.13455,0.0155 -3.10352,0.65945 -6.75586,2.08593 -6.95047,2.7148 -9.8544,5.26786 -8.49414,7.46875 0.35606,0.57638 1.39,0.7184 2.29687,0.31641 0.90687,-0.40188 4.57344,-1.7549 8.14844,-3.00781 6.44429,-2.25838 7.80423,-3.64529 6.12891,-6.2461 -0.26392,-0.40969 -0.64349,-0.62649 -1.32422,-0.61718 z m 20.15039,5.0039 c 0.46301,0.007 0.94283,0.0576 1.43945,0.15039 4.32442,0.80818 7.60547,4.05815 7.60547,7.53516 0,3.5438 -2.37164,8.32042 -4.54492,9.1543 -7.01309,2.69121 -13.79312,-3.79205 -11.43555,-10.93555 1.29637,-3.92806 3.69449,-5.95617 6.93555,-5.9043 z m -23.05664,3.32813 c -2.63866,-0.0353 -5.38873,0.98477 -7.67969,3.22461 -1.86462,1.82298 -3.43738,4.592 -3.83398,6.75 -0.36987,2.01237 -1.13951,3.96157 -1.70899,4.33008 -1.19836,0.77544 3.74668,7.76206 5.625,7.94726 0.65951,0.0651 -0.15078,0.43442 -1.80078,0.82031 -2.63857,0.6172 -2.2169,0.82811 3.5,1.75391 3.575,0.57887 6.63863,1.10977 6.80859,1.17969 0.16995,0.0701 0.0615,-0.27433 -0.24218,-0.76563 -0.30366,-0.49141 0.58678,-1.17969 1.98047,-1.5293 1.39364,-0.34975 2.3021,-1.01227 2.01757,-1.47265 -0.28452,-0.46031 0.35554,-1.62681 1.42188,-2.5918 2.6152,-2.3667 4.31275,-7.87053 3.52929,-11.4375 -1.13324,-5.15988 -5.21942,-8.15012 -9.61718,-8.20898 z m 21.20898,1.22265 c -1.11426,-0.10404 -2.19974,0.88759 -2.67187,3.4043 -0.36034,1.92079 -0.39434,4.17081 -0.0762,5 0.94719,2.46841 5.43943,1.89775 5.86132,-0.74414 0.68213,-4.27155 -1.25617,-7.48675 -3.11328,-7.66016 z m -20.94726,0.23633 c 0.78318,0.0303 1.47457,0.49522 2.72461,1.41992 3.93735,2.91262 5.23576,6.23319 4.07812,10.42579 -0.53593,1.94097 -1.75934,4.21134 -2.71875,5.04492 -5.77421,5.0169 -14.27927,1.0182 -14.22266,-6.6875 0.0271,-3.68652 2.3586,-6.74874 6.86329,-9.01563 1.61721,-0.81381 2.4922,-1.21779 3.27539,-1.1875 z m -3.15039,3.98438 c -0.45517,0.0328 -0.78667,0.31008 -1.1211,0.83789 -1.00093,1.5795 -1.11549,5.40117 -0.25781,8.60156 0.71115,2.65368 1.65322,2.82328 3.79687,0.67969 2.37627,-2.3763 2.04196,-8.1064 -0.55468,-9.4961 -0.8296,-0.44388 -1.40812,-0.65583 -1.86328,-0.62304 z M 215.5,911 c -0.0516,-0.0516 -0.45697,0.25114 -1.25,0.87305 -0.9625,0.75492 -1.75,1.5425 -1.75,1.75 0,0.8231 0.82058,0.29263 2.12695,-1.37305 0.62193,-0.79304 0.92467,-1.19839 0.87305,-1.25 z m 2.95312,10.41797 c -1.27411,0.13848 -5.03404,1.70574 -10.61523,4.62891 -11.19045,5.86094 -12.85593,7.16162 -12.00586,9.37695 0.89423,2.33027 1.96824,1.98862 7.50586,-2.38867 2.75987,-2.18151 7.62794,-5.6362 10.81641,-7.67578 4.36259,-2.79075 5.57298,-4.07989 4.29882,-3.94141 z m -51.03906,9.63867 c -0.72407,0.012 -0.93601,0.37947 -0.69531,1.10156 0.21199,0.63591 4.18764,2.63158 8.83398,4.43555 8.61349,3.34439 15.28962,4.27855 16.50586,2.31055 1.41191,-2.2845 -2.43078,-4.14271 -10.21093,-4.9375 -4.31667,-0.44111 -9.1138,-1.28762 -10.66211,-1.88282 -1.81053,-0.69605 -3.04741,-1.03935 -3.77149,-1.02734 z m -0.45898,3.80664 c -1.03614,-0.11169 -1.13792,2.99462 -0.41406,9.44922 2.01526,17.9701 9.56678,31.49352 19.48437,34.89453 6.35186,2.17837 8.87514,2.19733 14.69531,0.11133 4.16627,-1.49322 5.03984,-2.34559 7.42188,-7.25391 3.98824,-8.21809 3.76997,-16.99242 -0.67578,-27.06445 -1.82076,-4.12498 -3.6527,-7.89595 -4.07032,-8.38086 -0.41761,-0.48491 -1.43068,0.7227 -2.25,2.68359 -2.21654,5.30491 -8.67846,9.21804 -15.07617,9.12696 -7.20878,-0.1025 -12.62445,-3.17009 -15.64258,-8.85938 -1.61688,-3.04785 -2.76371,-4.63061 -3.47265,-4.70703 z m 201.47461,6.25 c 0.31709,-0.018 0.53097,0.0153 0.62109,0.10547 1.06618,1.0662 -2.35002,6.39295 -5.74219,8.95313 -1.81992,1.37359 -5.55859,3.77031 -8.30859,5.32812 -5.10075,2.88949 -9.5,6.35141 -9.5,7.47461 0,0.34371 1.4625,1.15601 3.25,1.80469 1.7875,0.64871 6.34504,3.43935 10.12891,6.20117 6.74956,4.92639 9.87099,6.04257 11.14062,3.98828 0.35069,-0.56742 6.04035,-3.74018 12.64453,-7.05078 9.97183,-4.9988 12.26602,-5.80496 13.52539,-4.75977 1.33353,1.1068 1.24916,1.47457 -0.69726,3.05078 -1.21739,0.98571 -3.30305,1.79297 -4.63477,1.79297 -1.33175,0 -3.9542,0.63887 -5.82812,1.42188 -3.72099,1.55471 -13.21459,8.28971 -15.40235,10.92578 C 367.84999,982.49067 366.06412,982.43039 359,980 c -3.19721,-1.09999 -6.64235,-2 -7.65625,-2 -2.84529,0 -2.1795,1.88883 0.90625,2.57031 6.1221,1.35202 15.24095,4.64845 15.25,5.51172 -0.002,1.3592 -1.71706,1.08159 -10,-1.61523 -4.125,-1.34302 -9.14361,-2.44374 -11.15234,-2.45508 l -3.65235,-0.01 -2.60742,-11.25 c -1.43369,-6.1875 -2.60257,-11.7369 -2.59766,-12.33203 0.0116,-1.40719 10.23608,-8.98763 16.00977,-11.86914 5.42472,-2.70741 12.71001,-5.31175 14.92969,-5.4375 z m -166.01367,0.77539 c 0.86934,0.10344 2.09093,1.27464 2.41796,2.86133 0.67797,3.28929 -1.63841,5.64864 -7.16406,7.29492 -2.01849,0.60132 -8.66956,1.34757 -14.7793,1.6582 -12.12508,0.61648 -12.07464,0.63577 -13.41796,-5.32031 -0.88464,-3.92239 0.13966,-4.31197 3.31836,-1.26367 3.521,3.37652 8.16688,4.88086 15.06054,4.88086 6.21686,0 6.527,-0.12318 10.03125,-4.00195 1.989,-2.20162 3.61719,-4.45159 3.61719,-5 0,-0.84885 0.39441,-1.17144 0.91602,-1.10938 z m 199.70507,27.28321 c 1.83682,0.0804 1.49994,1.3188 -1.12109,3.47265 -1.65003,1.35587 -4.73064,3.37269 -6.8457,4.48047 l -3.84571,2.01367 3.08789,-4.48828 c 2.12871,-3.09388 4.04509,-4.69774 6.16797,-5.16406 1.09117,-0.23965 1.94437,-0.34127 2.55664,-0.31445 z m -12.34375,1.10546 c 0.21545,-0.002 0.37814,0.0461 0.48047,0.14844 1.21693,1.2169 -3.55183,8.0687 -9.17773,13.1875 -5.68023,5.16832 -6.93938,5.71591 -10.83008,4.69922 -1.80895,-0.47278 -2.46474,-2.3125 -0.82422,-2.3125 0.50967,0 1.07217,-0.59675 1.25,-1.32812 0.78318,-3.22154 15.86988,-14.36359 19.10156,-14.39454 z m -159.96289,28.79688 c 1.56191,0.12111 1.67337,1.98218 1.64649,6.67578 l -0.0391,6.75 -8.21094,11.1992 c -4.5162,6.1594 -11.8109,15.9433 -16.2109,21.7422 -5.45517,7.1895 -8.63621,10.5508 -10,10.5508 -1.1,0 -5.825,-2.3116 -10.5,-5.1465 -4.675,-2.8348 -12.16815,-7.2228 -16.65039,-9.75 -14.81329,-8.3523 -18.8554,-10.9898 -22.31641,-14.5605 -3.94117,-4.0663 -3.64473,-4.1724 6.85157,-2.4454 10.71323,1.7627 11.11523,1.8843 11.11523,3.3711 0,2.0182 1.8532,2.9062 3.39453,1.627 0.7189,-0.5966 3.36761,-1.3659 5.88477,-1.7109 l 4.57617,-0.629 1.00781,3.877 c 0.55432,2.1318 1.31255,6.0125 1.68555,8.625 0.37298,2.6125 1.04507,4.75 1.49414,4.75 0.44906,0 2.73566,-3.6 5.08008,-8 2.34441,-4.4 4.80901,-8 5.47851,-8 1.23614,0 9.16103,7.8232 10.6875,10.5508 1.70747,3.0511 2.71094,0.092 2.71094,-7.9922 0,-9.1992 0.25251,-9.5127 7.69141,-9.543 3.23695,-0.014 5.12819,-1.3897 3.38867,-2.4648 -1.2796,-0.7908 -10.08008,-13.4263 -10.08008,-14.4727 0,-1.0025 4.99534,-2.0781 9.65625,-2.0781 1.87391,0 5.02355,-0.675 6.99805,-1.5 2.26327,-0.94564 3.72301,-1.49845 4.66015,-1.42578 z m -26.01367,4.94338 c 1.12434,0.016 9.69922,12.3517 9.69922,13.9531 0,0.405 -3.0375,1.2406 -6.75,1.8555 -3.7125,0.615 -8.15811,1.4018 -9.87891,1.748 -1.90128,0.3824 -3.40348,0.1851 -3.82812,-0.5019 -1.19823,-1.9387 8.35834,-17.0887 10.75781,-17.0547 z M 193.96875,1007 c 3.04672,0 3.10914,0.5412 0.54297,4.75 -2.38173,3.9063 -2.78674,3.9927 -3.59961,0.7539 -0.90285,-3.5972 0.15493,-5.5039 3.05664,-5.5039 z m -9.30078,1.1289 c 2.06328,-0.081 2.84577,1.4045 4.33789,6.5371 1.97109,6.7803 2.24904,6.5166 -9.83203,9.3008 -4.85404,1.1187 -9.01654,2.0332 -9.25,2.0332 -2.2625,0 10.30406,-16.8936 13.08594,-17.5918 0.63714,-0.1599 1.18206,-0.2607 1.6582,-0.2793 z m -10.16602,2.0234 c 1.16622,0.1007 0.61527,1.9354 -1.63476,5.584 -3.22729,5.2335 -4.74485,5.7202 -13.36719,4.2969 -8.293,-1.369 -22.47824,-3.3438 -24.70508,-3.4394 -1.44902,-0.062 -2.40961,-0.9142 -2.80469,-2.4883 -0.86876,-3.4615 0.37705,-4.0845 6.00977,-3.0039 8.4911,1.6297 30.78805,1.616 33.8457,-0.02 1.24109,-0.6638 2.12616,-0.9754 2.65625,-0.9297 z m 59.78321,5.3243 c 0.96717,0.1482 1.21484,5.3795 1.21484,16.4414 0,11.0688 -0.36299,17.082 -1.03125,17.082 -0.56727,0 -1.22435,-0.5625 -1.45898,-1.25 -0.23463,-0.6875 -1.50911,-4.4192 -2.83399,-8.293 l -2.41016,-7.0429 2.73438,-8.4121 c 1.84606,-5.6815 3.03291,-8.6408 3.78516,-8.5254 z m -105.51172,5.6699 c 0.39519,0.019 0.88024,0.1383 1.43359,0.375 0.98622,0.4218 2.94918,0.676 4.36133,0.5664 1.92045,-0.1494 4.33835,1.4413 9.59766,6.3105 l 7.03125,6.5098 0.67187,8.7246 c 0.50437,6.5617 0.35518,8.9253 -0.59961,9.5313 -0.69827,0.4431 -2.88695,0.8109 -4.86328,0.8222 -3.54191,0.015 -3.65693,-0.1187 -8.13281,-9.2363 -2.49747,-5.0875 -5.57059,-11.725 -6.82813,-14.75 -1.25755,-3.025 -2.72328,-6.0726 -3.25781,-6.7734 -0.97982,-1.2879 -0.59964,-2.136 0.58594,-2.0801 z m 98.48047,2.75 c 0.0293,0.011 0.0502,0.034 0.0625,0.07 0.71034,2.0919 -10.15943,30.0332 -11.6836,30.0332 -0.51633,0 -5.41063,3.375 -10.875,7.5 -13.20746,9.9702 -13.46381,9.9241 -5.58984,-1 18.09695,-25.1073 27.17766,-36.9435 28.08594,-36.6035 z M 226.59766,1037 c 0.79691,0 2.36995,3.9136 4.01953,10 0.67079,2.475 1.50462,4.8398 1.85351,5.2539 0.3489,0.4141 3.50881,-0.3734 7.02149,-1.75 6.87882,-2.6958 10.00781,-3.1395 10.00781,-1.4199 0,1.5906 -43.94588,45.6535 -43.97461,44.0918 -0.0135,-0.7289 1.73314,-5.9039 3.88281,-11.5 2.14967,-5.596 6.18434,-16.4758 8.9668,-24.1758 6.88904,-19.0643 7.46558,-20.5 8.22266,-20.5 z m -72.02735,2.1641 c 0.62811,0.049 1.60935,0.9771 3.03516,2.6543 21.27693,25.0269 32.62923,39.5452 38.26172,48.9316 1.28837,2.147 -1.58111,1.3789 -7.86719,-2.1074 -6.06872,-3.3658 -32.36741,-17.7501 -46.92188,-25.6641 -9.08834,-4.9418 -9.06541,-4.9737 4.72657,-7.0137 l 8.80273,-1.3027 -0.68164,-7.8301 c -0.47034,-5.3919 -0.40231,-7.7499 0.64453,-7.6679 z m 40.43946,0.58 c -0.55097,0.041 -1.10785,0.6171 -1.33399,1.7032 -0.18865,0.906 0.36349,1.5527 1.32422,1.5527 1.02994,0 1.52133,-0.6554 1.31055,-1.75 -0.20297,-1.0538 -0.74982,-1.5471 -1.30078,-1.5059 z m -32.4336,0.9727 c 0.70569,-0.099 6.96418,3.4157 25.17383,14.1016 1.5125,0.8875 2.75,1.9779 2.75,2.4238 0,0.8685 -10.87945,0.705 -13.25781,-0.1992 -1.56995,-0.5969 -14.72191,-15.1085 -14.73438,-16.2578 -4.1e-4,-0.038 0.0213,-0.062 0.0684,-0.068 z m 52.66406,16.2734 c 0.1778,0.022 0.25977,0.1375 0.25977,0.3379 0,0.6439 -5.25767,13.2805 -7.97656,19.1719 -1.52296,3.3 -3.36714,7.6875 -4.09766,9.75 -0.73053,2.0625 -1.67755,3.75 -2.10547,3.75 -0.96,0 -9.82415,-13.0905 -9.81054,-14.4883 0.0121,-1.2428 5.11811,-5.6587 14.98632,-12.9629 5.41239,-4.0061 7.97372,-5.6548 8.74414,-5.5586 z M 187,1060.166 c 4.125,0.048 7.5,0.5205 7.5,1.0508 0,0.5304 -1.2375,2.7148 -2.75,4.8535 -1.5125,2.1386 -3.28291,3.8988 -3.93359,3.9102 -1.1258,0.02 -8.31641,-8.0148 -8.31641,-9.293 0,-0.3347 3.375,-0.5695 7.5,-0.5215 z M 197.54883,1074 c -2.23735,0 -3.30775,2.3427 -1.77149,3.8789 1.59433,1.5944 3.40665,1.3879 4.11914,-0.4687 0.80749,-2.1043 -0.091,-3.4102 -2.34765,-3.4102 z m 219.59375,11.1582 c -0.15824,2.1422 -0.18118,3.8125 0,4.5508 z"
       style="fill:#000000;stroke-width:0.999999"
       id="path345" />
  </g>
</svg>
