<?xml version="1.0"?>
<svg xmlns:rdf="http://www.w3.org/1999/02/22-rdf-syntax-ns#" xmlns="http://www.w3.org/2000/svg" xmlns:cc="http://web.resource.org/cc/" xmlns:xlink="http://www.w3.org/1999/xlink" xmlns:dc="http://purl.org/dc/elements/1.1/" xmlns:svg="http://www.w3.org/2000/svg" id="svg2" style="enable-background:new 227.293 165.725 289.314 284.688" xml:space="preserve" viewBox="227.293 165.725 289.314 284.688" version="1.1" y="0px" x="0px">
<path id="path10" d="m330.99 208.08c-11.312 1.62-22.625 3.241-33.937 4.861 15.468 1.389 30.936 2.777 46.404 4.166-19.393 3.472-38.785 6.944-58.178 10.416 22.394 1.389 44.788 2.777 67.182 4.166-24.241 2.777-48.481 5.555-72.722 8.333l65.795 4.86c-22.625 3.935-45.25 7.87-67.874 11.805 20.316 1.852 40.632 3.704 60.949 5.555-19.854 3.009-39.708 6.018-59.563 9.026l56.792 4.86c-17.314 3.935-34.629 7.87-51.944 11.805 17.314 1.389 34.629 2.777 51.944 4.166l-44.325 10.416c15.699 1.852 31.397 3.704 47.096 5.555l-38.091 7.638c13.851 1.852 27.703 3.703 41.554 5.555-9.234 3.24-18.469 6.48-27.703 9.721 10.389 1.62 20.777 3.241 31.166 4.861-6.695 1.852-13.39 3.703-20.084 5.555 8.08 1.852 16.161 3.703 24.241 5.555-4.386 1.389-8.772 2.777-13.159 4.166 5.541 1.389 11.081 2.777 16.622 4.166-2.078 1.157-4.156 2.315-6.234 3.473 1.513 0.35 8.561 1.013 9.091 2.288 1.395 3.357 2.79 6.714 4.185 10.07 3.193 7.685 6.387 15.369 9.58 23.054-11.836-14.839-27.419-26.931-41.71-39.303-6.368-5.513-13.053-10.74-19.002-16.705-6.408-6.425-13.806-12.086-19.673-19.038-11.642-13.793-23.167-28.821-26.778-46.918-3.408-17.081-0.309-36.04 9.858-50.31 3.556-4.99 7.361-8.685 12.041-12.594 3.447-2.879 9.593-6.156 14.094-6.801 5.266-0.754 11.449-1.478 16.688-0.311 5.64 1.2 10.53 3.24 15.69 5.83m90.04 91.66c-18.007-7.87-36.015-15.739-54.021-23.609 4.376-2.7 8.751-5.399 13.126-8.099 1.615-0.996 3.229-1.992 4.844-2.989 0.248-0.153-2.312-6.146-2.528-6.708-3.14-8.185-6.778-15.81-10.982-23.537-8.502-15.628-19.72-30.196-35.909-38.314-8.413-4.218-15.867-7.149-25.471-7.149-8.479 0-16.999 1.209-24.806 4.86-15.957 7.462-27.835 22.614-33.333 39.152-11.455 34.461 4.521 72.229 29.02 96.785 13.354 13.387 27.508 25.815 41.684 38.323 6.438 5.681 13.135 11.081 19.2 17.162l20.424 20.476c3.144 3.151 5.614 7.37 8.195 10.993 2.813-3.763 5.479-7.547 8.08-11.459 2.24-3.367 6.095-6.266 8.818-9.337 6.075-6.85 12.4-13.04 19.162-19.204 14.043-12.802 28.679-25.05 43.049-37.493 12.68-10.979 25-24.171 33.047-38.965 4.517-8.305 8.287-16.599 10.584-25.804 2.286-9.16 2.617-18.921 2.617-28.344 0-3.92-1.445-8.146-2.214-12.006-0.763-3.83-1.752-9.479-4.133-12.659-2.703-3.611-4.569-7.556-7.504-10.955-2.798-3.241-5.474-6.39-8.749-9.206-7.212-6.198-15.315-10.178-24.266-13.168-8.437-2.819-17.086-2.624-25.856-2.624-12.024 0-23.705 4.333-34.629 9.027 7.003-5.616 14.359-10.08 22.176-14.435 3.97-2.212 8.301-3.341 12.748-4.233 4.308-0.864 8.674-2.163 13.073-2.163 8.759 0 18.489-0.277 26.797 3.053 8.856 3.55 16.732 7.212 24.291 13.106 13.812 10.771 24.424 26.845 27.312 44.25 0.683 4.112 1.731 8.119 1.731 12.301 0 5.025-0.248 9.925-0.605 14.941-0.586 8.235-2.538 16.395-5.593 24.052-7.053 17.684-17.505 32.85-29.895 47.183-5.711 6.606-11.287 12.824-17.711 18.728-7.079 6.505-14.114 13.052-21.134 19.621-13.223 12.372-27.193 23.893-39.982 36.716-6.391 6.408-12.709 12.267-18.382 19.378-2.711 3.398-5.341 6.839-7.641 10.528-2.392 3.838-3.073 8.216-4.502 12.498 0-8.374-6.856-17.625-12.189-23.642-5.871-6.624-11.883-12.736-18.375-18.745-13.3-12.308-26.691-24.523-40.169-36.637-14.033-12.611-29.355-25.145-40.703-40.312-5.404-7.224-10.734-14.335-15.624-21.959-4.716-7.354-9.319-16.086-11.425-24.528-0.439-1.761-1.877-3.363-2.133-5.156-0.349-2.446-0.686-4.754-1.362-7.124-1.282-4.5-1.504-9.072-1.813-13.722-0.312-4.683 0.428-9.203 0.428-13.895 0-4.312 1.631-8.034 2.15-12.193 2.244-17.994 14.492-34.503 28.119-45.89 12.626-10.551 30.419-20.886 47.468-20.886 9.074 0 18.396 0.659 27.221 2.872 8.478 2.126 16.404 5.84 23.863 10.321 12.816 7.699 23.918 18.307 32.551 30.552 8.953 12.7 15.629 26.648 21.472 40.967 6.233-3.472 12.466-6.944 18.699-10.416-2.8 19.91-5.57 39.81-8.34 59.72" fill="#C41230"/>
<metadata><rdf:RDF><cc:Work><dc:format>image/svg+xml</dc:format><dc:type rdf:resource="http://purl.org/dc/dcmitype/StillImage"/><cc:license rdf:resource="http://creativecommons.org/licenses/publicdomain/"/><dc:publisher><cc:Agent rdf:about="http://openclipart.org/"><dc:title>Openclipart</dc:title></cc:Agent></dc:publisher><dc:title>love is returned</dc:title><dc:date>2008-01-06T14:32:04</dc:date><dc:description>a symbolic representation of the power of love</dc:description><dc:source>http://openclipart.org/detail/10743/love-is-returned-by-johnny_automatic-10743</dc:source><dc:creator><cc:Agent><dc:title>johnny_automatic</dc:title></cc:Agent></dc:creator><dc:subject><rdf:Bag><rdf:li>clip art</rdf:li><rdf:li>clipart</rdf:li><rdf:li>heart</rdf:li><rdf:li>image</rdf:li><rdf:li>love</rdf:li><rdf:li>media</rdf:li><rdf:li>png</rdf:li><rdf:li>public domain</rdf:li><rdf:li>remix</rdf:li><rdf:li>svg</rdf:li><rdf:li>symbol</rdf:li></rdf:Bag></dc:subject></cc:Work><cc:License rdf:about="http://creativecommons.org/licenses/publicdomain/"><cc:permits rdf:resource="http://creativecommons.org/ns#Reproduction"/><cc:permits rdf:resource="http://creativecommons.org/ns#Distribution"/><cc:permits rdf:resource="http://creativecommons.org/ns#DerivativeWorks"/></cc:License></rdf:RDF></metadata></svg>
