<svg id="eByCUoA4zbc1" xmlns="http://www.w3.org/2000/svg" xmlns:xlink="http://www.w3.org/1999/xlink" viewBox="0 0 300 300" shape-rendering="geometricPrecision" text-rendering="geometricPrecision"><path d="M20.91556,45.61631c11.51946-4.79977,32.29125-16.25285,45.61631-13.58783c16.70085,3.34017,18.31482,26.89409,40.76351,19.41119c14.79189-4.93063,27.00928-17.47008,43.67519-17.47008c15.7571,0,27.18627,11.20121,41.73407,14.55839c12.14249,2.80211,23.20989-8.73504,34.94015-8.73504c8.69491,0,21.35734,13.59286,27.17567,19.41119c21.96855,21.96855-11.16257,47.74883-1.94112,69.8803c6.29659,15.11181,14.78168,22.36605,12.61728,40.76351-1.74448,14.82805-12.85525,23.50246-7.76448,39.79295c4.31853,13.8193,16.09641,21.77097,17.47007,36.88127.31682,3.48503-2.84306,6.90101-5.82336,8.73504-11.87538,7.30792-25.55184,7.49384-38.82239,9.7056-17.65769,2.94295-34.06237,14.78962-50.4691,21.35231-3.2352,1.29408-6.27738,3.25893-9.7056,3.88224-19.05658,3.46483-47.04711,5.83106-65.99806,0-17.54458-5.39833-14.77111-23.19593-27.17567-30.08735-23.03998-12.79999-31.39404,10.34002-57.26302-15.52895-2.41663-2.41663-13.38046-10.43563-14.5584-14.5584-6.05952-21.20831,11.69309-38.56732,7.76448-60.1747-2.01304-11.07171-10.67106-24.28437-7.76448-35.91071c2.40703-9.62813,13.20194-18.72423,9.7056-30.08735-6.09298-19.80218-25.63265-32.29232,1.94112-54.35134" transform="translate(.000001 0)" fill="none" stroke="#3f5787" stroke-width="0.6"/></svg>
