<svg width="1653.801" height="2325.818" xmlns="http://www.w3.org/2000/svg"><path style="display:inline;fill:#000;stroke-width:1.33333" d="M695.694 2559.034c-24.27-5.204-47.942-18.806-78.298-44.988-71.402-61.587-121.218-170.944-109.232-239.787 2.186-12.555 7.65-52.056 10.12-73.155 2.193-18.74 3.949-42.999 5.388-74.447 1.505-32.881 1.742-30.04-8.77-104.886-11.172-79.553-11.392-104.198-1.204-134.859 10.065-30.29 31.96-65.813 56.215-91.2l10.147-10.62-1.517-7.55c-.833-4.152-1.516-12.787-1.516-19.189v-11.64l-11.329-1.608c-15.892-2.256-21.46-5.426-26.935-15.334-6.801-12.309-11.373-27.774-11.431-38.667-.047-8.726 1.38-13.855 7.799-28.035.34-.753-2.243-2.427-5.742-3.72-10.523-3.89-23.654-12.417-32.052-20.814-20.218-20.218-30.941-60.263-23.704-88.52 1.28-4.998 2.118-9.236 1.861-9.417-.257-.181-4.367-2.015-9.133-4.076-17.239-7.452-51.662-25.145-60.729-31.213-5.172-3.461-10.074-7.896-11.087-10.03-2.64-5.561-2.094-24.37 1.205-41.565 1.541-8.035 5.73-27.596 9.308-43.467 7.705-34.184 10.178-48.284 11.307-64.476 2.576-36.954 15.038-80.023 34.72-120 9.628-19.554 10.235-20.416 27.28-38.667 39.008-41.771 49.236-58.58 50.387-82.807.681-14.345-1.06-21.564-9.853-40.866-9.295-20.404-11.78-32.43-11.78-56.993 0-16.97.533-22.796 2.985-32.57 1.642-6.546 2.521-12.297 1.954-12.78-.567-.482-8.83-5.572-18.364-11.31-39.59-23.83-89.689-59.434-123.333-87.651-69.476-58.269-124.658-126.128-142.646-175.416-9.142-25.05-6.489-32.219 15.832-42.77 23.08-10.908 63.964-16.388 160.147-21.464 28.233-1.49 59.133-3.324 68.667-4.075 85.322-6.723 278.115-40.99 367.599-65.338 68.796-18.718 156.874-45.668 199.067-60.909 51.763-18.698 81-31.135 156-66.36 121.872-57.24 197.908-89.427 225.334-95.39 12.18-2.647 13.681-4.726 25.482-35.273 9.802-25.373 22.681-40.555 42.405-49.985 16.94-8.1 27.925-10.043 56.78-10.043 27.132 0 34.52 1.28 49.961 8.649 30.33 14.475 47.87 46.975 49.66 92.018 1.156 29.086-2.424 39.018-23.067 64-20.685 25.032-21.208 33.625-3.892 64 12.13 21.276 18.19 41.187 22.93 75.333 2.193 15.793 2.372 27.29 2.006 129.334-.555 155.016 2.714 237.497 13.791 348 7.334 73.154 17.986 127.455 39.76 202.666 34.021 117.526 73.783 207.323 127.523 288 51.072 76.673 65.157 123.757 42.248 141.23-8.428 6.429-14.786 7.93-33.587 7.928-24.545 0-45.177-4.322-95.751-20.048-13.063-4.062-24.048-7.088-24.412-6.725-1.102 1.102 6.847 17.476 12.525 25.798 10.84 15.888 24.593 27.97 42.772 37.572l12.26 6.475-2.773 3.525c-3.826 4.864-22.688 13.889-33.955 16.246-5.326 1.115-16.638 1.963-26.348 1.976-19.05.025-23.992 1.494-34.062 10.113-7.967 6.82-10.225 13.807-8.356 25.855 2.767 17.833 11.647 34.237 23.09 42.652l5.531 4.067 2.234-5.884c8.357-22.016 26.648-24 52.33-5.673 11.007 7.854 18.661 16.576 23.522 26.801 4.845 10.192 6.329 18.989 7.44 44.092.777 17.59.55 21.404-1.885 31.644-8.806 37.04-37.046 90.637-73.251 139.023-23.88 31.916-40.652 48.972-72.245 73.471-73.472 56.976-159.935 133.349-198.862 175.655-20.896 22.71-28.885 33.571-39.651 53.904-4.942 9.334-15.487 28.32-23.434 42.193-17.88 31.214-25.866 48.046-31.365 66.11-10.21 33.543-12.264 39.426-17.52 50.183-6.65 13.612-15.678 23.531-23.57 25.896-5.007 1.5-6.046 1.344-12.529-1.883-3.888-1.935-13.069-8.34-20.402-14.23-54.943-44.143-84.17-86.13-93.519-134.352-1.773-9.145-2.208-18.393-2.047-43.514l.204-31.9-11.25-34.1c-14.177-42.97-17.046-54.147-17.236-67.148-.173-11.834.912-10.948-14.94-12.19-20.312-1.591-43.058-9.358-53.017-18.103l-4.57-4.013-4.36 6.796c-17.506 27.279-46.846 57.86-77.92 81.216-24.74 18.596-57.184 36.324-73.345 40.08-3.667.852-9.168 2.15-12.225 2.882-5.767 1.383-18.851 8.3-53.323 28.188-24.68 14.24-41.051 21.169-51.119 21.638-6.894.321-7.685.727-13.218 6.781-22.344 24.448-50.708 86.362-53.039 115.773-1.422 17.95 5.56 34.254 19.762 46.144 8.466 7.088 25.948 17.434 37.383 22.123 5.007 2.053 9.106 4.117 9.108 4.585.009 1.8-21.63 11.99-34.831 16.403-7.607 2.543-19.16 5.551-25.673 6.684-14.417 2.51-37.1 2.505-48.825-.013z" transform="translate(-222.788 -235.104)"/><path style="display:inline;fill:#fff;stroke-width:1.33333" d="M583.028 1485.944c-48.109.315-59.605 6.766-77.9 43.711-10.728 21.662-13.963 34.514-13.104 52.065.752 15.369 3.568 24.15 11.621 36.246 7.413 11.133 10.387 14.58 11.563 13.404.565-.566.003-8.058-1.249-16.648-3.881-26.635-2.404-46.919 3.5-48.051 6.023-1.155 10.854 9.144 13.02 27.76.778 6.687 2.654 14.244 4.58 18.45 3.235 7.066 15.959 21.01 26.172 28.682l4.87 3.66 4.087-2.486 4.086-2.484-5.477-7.242c-21.664-28.643-22.229-62.326-1.697-101.24l5.98-11.333-.693 6.666c-4.837 46.54-3.555 59.18 8.604 84.829 4.38 9.24 5.31 10.48 5.373 7.171.268-14.214 2.865-38.565 4.539-42.572 4.59-10.987 8.763-2.928 12.722 24.572 4 27.772 8.444 39.21 18.907 48.662 7.501 6.778 8.43 5.253 6.44-10.57-2.043-16.225-1.027-38.126 2.122-45.758 1.286-3.116 2.776-5.668 3.31-5.668.536 0 1.388 5.85 1.897 13 1.868 26.245 8.644 43.963 21.961 57.424 8.415 8.506 16.908 13.53 30.94 18.303 12.581 4.28 20.683 9.152 23.152 13.926 2.075 4.012 2.713 15.666.986 18.015-.538.734-4.279 1.395-8.312 1.471-5.584.105-22.485 4.49-25.002 6.488-.185.147.533 3.158 1.596 6.69 1.664 5.532 1.672 6.921.058 10.043-3.554 6.872-27.194 19.339-45.601 24.047-10.169 2.6-28.385 3.56-28.385 1.494 0-2.179 6.279-6.706 22.334-16.106 8.983-5.259 16.332-10.222 16.332-11.027 0-2.388-10.181-.348-25.205 5.049-21.14 7.593-25.973 13.02-25.977 29.183-.003 12.034 2.53 19.418 14.856 43.334 9.793 19 9.975 19.541 10.642 31.334.393 6.93-.226 20.45-1.467 32-2.92 27.196-4.487 45.417-6.875 80-3.243 46.979-6.756 76.202-9.82 81.676-1.675 2.993-5.166-2.277-7.775-11.734-1.984-7.19-2.37-13.995-2.346-41.276l.03-32.666 6.22-34.103c3.422-18.757 6.906-40.455 7.742-48.22 1.999-18.565.292-25.308-11.617-45.88l-8.973-15.498-4.533 5.184c-32.997 37.73-43.7 55.273-49.13 80.517-2.118 9.845-2.426 17.637-2.35 59.332.094 52.047 2.242 80.824 7.246 97.024 3.894 12.608 5.284 29.8 5.306 65.644.034 53.831-3.574 105.981-10.714 154.895-4.34 29.731-4.97 49.342-2.026 63.105 4.504 21.059 21.807 66.403 32.307 84.666 11.436 19.892 32.29 45.487 59.226 72.692 46.212 46.671 75.58 59.288 123.893 53.23 6.19-.776 12.009-2.036 12.93-2.8 2.73-2.266-.898-7.544-14.64-21.3-8.527-8.533-13.561-14.81-15.895-19.822-11.521-24.733-7.5-55.356 12.867-98 27.878-58.37 67.139-99.89 118.828-125.662 14.194-7.077 22.254-9.996 26.078-9.443l3.172.459-4 3.803c-2.2 2.091-13.381 10.001-24.848 17.576-28.536 18.851-47.409 34.788-44.564 37.633 1.234 1.234 12.086-4.6 35.959-19.332 25.758-15.896 50.092-28.305 66.049-33.684 15.47-5.215 26.446-10.686 42.072-20.973 34.996-23.038 72.537-59.945 94.64-93.043 34.737-52.013 57.847-116.275 82.114-228.336 14.33-66.178 26.06-107.374 36.537-128.332 6.033-12.068 17.826-30.117 22.584-34.564l3.457-3.232-.02 3.232c-.032 5.201-3.273 17.491-11.931 45.232-7.199 23.065-22.074 79.752-24.645 93.918l-.953 5.254 5.775-5.173c10.407-9.324 31.64-47.993 39.815-72.504 9.256-27.755 13.926-56.395 18.617-114.163 5.204-64.078 13.552-96.848 28.637-112.423 28.81-29.747 27.27-27.033 24.31-42.78l-1.605-8.537-12.326 14.086c-23.804 27.199-45.19 42.173-68.953 48.28-16.78 4.311-38.703 1.445-50.58-6.616-4.92-3.339-4.922-3.339-7.766-.69-1.565 1.458-3.938 2.998-5.275 3.423-1.338.424-2.432 1.25-2.432 1.836 0 1.681-19.411 17.292-24.275 19.523-4.286 1.966-7.417 4.072-17.19 11.563-2.629 2.014-5.912 5.765-7.295 8.333-1.383 2.569-2.978 4.67-3.545 4.67-.566 0-1.03 2.055-1.03 4.569 0 3.31-.936 5.308-3.398 7.244-3.784 2.977-9.547 10.991-11.392 15.846-.663 1.742-1.718 2.85-2.346 2.463-.628-.389-3.373 2.53-6.098 6.486-7.732 11.227-26.514 28.314-44.765 40.724-30.676 20.86-60.308 46.025-73.492 62.413-7.85 9.757-10.187 15.69-5.508 13.988 3.75-1.365 13.083-8.015 27.527-19.613 23.259-18.677 31.473-23.992 31.473-20.362 0 2.55-8.191 14.93-21.5 32.494-15.766 20.806-32.809 49.921-55.033 94.016-27.844 55.243-38.02 71.655-49.575 79.953-3.24 2.327-5.892 5.116-5.892 6.197 0 1.622-1.716 1.838-9.791 1.227-10.685-.808-28.875-5.66-28.875-7.701 0-.703-.896-1.278-1.99-1.278-1.095 0-3.644-1.866-5.666-4.148-2.023-2.282-5.028-4.667-6.678-5.3-3.794-1.457-3.885-5.527-.334-14.87 1.466-3.858 2.666-8.064 2.666-9.348 0-1.283.77-2.334 1.709-2.334 2.086 0 23.63-28.745 32.324-43.127 16.445-27.205 22.727-53.418 19.385-80.873-1.856-15.244-4.822-27.307-13.438-54.666-13.205-41.928-15.906-56.705-17.314-94.668-.612-16.5-1.546-30.9-2.074-32-.53-1.1-5.164-5.899-10.3-10.666l-9.335-8.666.844 5.332c2.22 14.038 3.78 44.413 3.082 60-1.124 25.066-3.395 30.703-8.795 21.823-5.864-9.642-10.705-43.38-6.59-45.924 2.363-1.46.48-12.16-3.97-22.565-9.995-23.363-36.164-64.728-55.886-88.334-8.742-10.464-9.693-9.924-12.332 7-3.096 19.867-9.18 20.253-21.013 1.334-11.363-18.166-60.475-55.796-86.295-66.119-7.473-2.987-9.582-3.188-32-3.04zm123.478 104.696c.89.07 2.066 1.286 3.76 3.666 4.663 6.548 10.46 20.753 20.74 50.822 5.426 15.87 12.293 35.324 15.262 43.228 6.327 16.843 19.1 46.022 20.162 46.057.405.013 2.154-11.825 3.887-26.309 1.733-14.483 3.519-27.73 3.967-29.439.565-2.155 1.89 1.805 4.324 12.922 4.52 20.642 14.153 44.69 36.394 90.851 18.835 39.09 26.027 56.307 26.022 62.29-.008 8.414-12.416 49.108-19.02 62.376-7.521 15.112-11.999 19.028-13.755 12.03-.457-1.818.407-9.467 1.92-17 5.308-26.448 7.719-55.803 5.603-68.239-1.583-9.301-5.143-13.738-11.957-14.896-16.4-2.786-17.552-4.275-10.607-13.719 5.901-8.025 4.202-8.83-11.403-5.398-13.616 2.995-16.464 2.534-14.896-2.407 1.062-3.347 10.084-8.37 15.033-8.37 7.396 0 9.905-6.97 3.418-9.493-3.843-1.495-18.099-.852-28.027 1.264-3.133.668-5.968.776-6.3.24-.33-.536 1.483-3.908 4.03-7.49 7.578-10.659 6.458-15.485-9.637-41.524-3.74-6.05-9.018-16.25-11.728-22.666-4.816-11.4-6.141-16.238-13.432-48.998-1.958-8.8-5.847-22.965-8.64-31.476-5.86-17.857-8.387-30.243-7.165-35.113.553-2.203 1.156-3.28 2.045-3.21zm473.834 49.13c3.707 0 5.146 5.708 5.041 20-.408 56.044-27.315 119.04-56.683 132.713-8.472 3.945-13.016 4.13-17.19.702-2.954-2.427-3.025-2.807-1.148-6.19 1.1-1.983 3.8-4.585 6-5.781 8.623-4.69 11.554-7.414 17.351-16.135 11.995-18.043 22.678-46.241 30.588-80.74 7.22-31.486 11.928-44.569 16.041-44.569zm-56.494 37.334c2.567 0 .638 4.742-13.35 32.827-7.99 16.045-15.541 32.173-16.779 35.84-4.333 12.838-6.12 26.922-7.357 58-.686 17.233-1.811 34.634-2.5 38.667-7.111 41.648-24.158 61.513-59.5 69.344-13.821 3.063-42.824 4.55-50.56 2.592-2.877-.728-6.027-1.985-7-2.793-3.95-3.278-.787-12.517 6.197-18.102 3.195-2.555 8.76-1.996 17.73 1.78 7.06 2.971 9.691 3.397 17.776 2.879 16.713-1.073 35.672-12.747 43.831-26.989 5.95-10.385 10.454-36.077 12.63-72.045 1.871-30.942 1.778-43.633-.34-46.53-1.604-2.194-2.124-1.947-6.813 3.243-5.964 6.601-10.43 16.229-12.545 27.04-2.064 10.55-7.9 22.295-20.234 40.728-12.945 19.344-25.008 32.632-33.559 36.965-8.626 4.371-18.154 6.122-24.213 4.449-9.05-2.499-7.184-10.69 2.854-12.531 7.148-1.312 16.22-7.598 26.138-18.112 9.689-10.27 13.32-16.433 14.754-25.044 1.335-8.012 15.612-35.694 28.12-54.52 11.584-17.437 24.99-31.608 47.677-50.395 15.526-12.856 35.12-27.293 37.043-27.293zm-400.394 56.067c2.431-.082 2.908.444 2.908 2 0 3.407-10.503 12.788-25.332 22.625-29.87 19.814-50.641 26.122-76.406 23.207-8.677-.982-12.928-2.78-12.928-5.47 0-2.487 12.37-6.631 23.094-7.737 13.628-1.406 27.019-6.007 42.77-14.694 22.937-12.65 36.7-18.981 42.755-19.664 1.3-.146 2.328-.24 3.139-.267zm12.6 22.894c.692-.024 1.256.04 1.67.198 4.227 1.622 1.53 4.575-9.028 9.884-6.05 3.043-15.2 8.726-20.334 12.63-17.193 13.072-31.757 19.702-57.606 26.228-18.87 4.764-25.69 5.158-28.853 1.662-1.214-1.341-2.207-3.031-2.207-3.754 0-2.398 9.107-5.708 23.644-8.596 22.755-4.52 38.25-10.96 66.602-27.687 10.084-5.95 21.262-10.395 26.111-10.565zm2.197 21.266c8.63.092-18.998 22.051-41.733 32.412-24.176 11.017-55.173 17.582-57.265 12.129-1.813-4.724 9.616-11.408 19.54-11.428 6.99-.013 23.906-6.746 48.801-19.422 13.623-6.936 26.42-12.969 28.436-13.408.91-.198 1.645-.29 2.22-.283zm1.355 30.207c1.463.042 2.254.716 2.508 1.996.66 3.325-8.454 11.508-18.05 16.207-8.112 3.972-19.034 6.067-19.034 3.65 0-2.492 11.782-11.843 21-16.666 6.827-3.571 11.137-5.257 13.576-5.187zm-54.887 18.553c1.676.005 1.55 2.182-.925 6.187-5.321 8.61-22.92 19.403-31.735 19.463-3.166.021-4.894-.874-6.543-3.39-2.127-3.247-2.105-3.554.41-6.069 1.66-1.659 5.612-3.068 10.575-3.77 9.757-1.379 15.63-3.809 22.425-9.275 2.658-2.138 4.647-3.15 5.793-3.146zm-100.543.562c.138 0 .268.012.393.037 4.334.876 3.069 13.025-2.822 27.1-2.759 6.59-6.898 17.081-9.2 23.314l-4.185 11.334v29.594c0 31.423-.85 36.102-5.318 29.281-3.17-4.836-8.34-20.689-10.165-31.168-3.302-18.966 1.142-45.575 10.946-65.521 5.949-12.104 16.096-23.974 20.351-23.97zm161.284 2.483c9.837-.083-2.927 10.612-22.004 18.435-11.325 4.644-15.76 5.257-15.76 2.174 0-4.475 29.434-20.54 37.764-20.61zm-59.952 20.824c4.68-.137 5.89.634 13.334 8.5 26.316 27.81 27.618 70.56 3.98 130.644-3.317 8.434-13.435 30.333-22.484 48.666-9.049 18.334-17.647 36.934-19.109 41.334-4.875 14.676-5.855 28.11-4.957 68 .462 20.534.34 40.334-.271 44l-1.112 6.666-2.746-5.332c-3.763-7.31-9.221-24.254-12.457-38.668-5.27-23.477-4.818-50.068 1.375-80.666 3.973-19.626 6.093-25.373 12.52-33.941 14.21-18.947 31.806-51.284 38.123-70.059 8.432-25.064 11.603-57.985 7.494-77.816-2.713-13.09-9.038-25.392-14.145-27.508-3.93-1.628-2.36-2.049-31.666 8.516-10.966 3.953-15.025 4.354-15.025 1.488 0-4.836 36.987-23.526 47.146-23.824zm-11.89 31.168c2.041.01 3.5.373 3.968 1.13 2.078 3.363-13.458 10.9-30.56 14.827-17.665 4.056-17.996 4.12-17.996 3.49 0-1.14 24.208-14.024 31.416-16.72 4.75-1.777 9.77-2.744 13.172-2.727zm-13.528 22.795c1.53.025 2.618.657 3.606 1.847 1.801 2.171.703 4.279-4.666 8.952-5.927 5.158-23.284 9.699-25.203 6.593-1.133-1.832 7.296-9.07 15.672-13.457 5.18-2.713 8.356-3.973 10.591-3.935zm84.504 12.158c.373-.021.727.027 1.053.152 2.742 1.053 2.558 5.137-.697 15.524-1.492 4.759-4.145 16.823-5.897 26.808-5.396 30.763-8.762 41.423-23.326 73.873-12.193 27.17-15.798 36.964-21.314 57.897-2.594 9.843-5.409 18.123-6.254 18.4-.862.283-2.545-2.531-3.832-6.408-4.661-14.032-1.908-25.551 20.677-86.49 6.538-17.639 15.54-44.138 20.006-58.887 4.466-14.749 9.233-28.997 10.594-31.664 2.776-5.438 6.383-9.057 8.99-9.205zm362.961 43.29c.178-.003.316.041.41.136 4.496 4.495-33.466 90.441-58.715 132.931-25.931 43.64-102.68 110.363-108.75 94.545-1.608-4.192 5.542-12.42 31.096-35.789 31.342-28.66 55.743-57.318 80.676-94.756 21.48-32.253 32.879-54.833 35.316-69.968.692-4.294 2.173-9.58 3.293-11.746 2.569-4.967 14.009-15.324 16.674-15.354zm-117.636 48.4c4.205 0 3.856 13.528-.954 37.068-5.762 28.206-13.615 47.456-30.867 75.662a99680.28 99680.28 0 0 0-18.039 29.51c-5.906 9.665-11.81 20.465-13.117 24-3.496 9.446-13.346 20.867-43.582 50.537-38.998 38.266-69.751 64.917-89.664 77.699-53.72 34.483-91.85 79.422-102.236 120.498-3.998 15.807-3.036 33.41 2.75 50.36 3.854 11.29 6.497 17.038 18.431 40.087 4.122 7.962 4.594 13.628 1.192 14.328-1.778.367-5.544-2.617-12.666-10.035-22.238-23.16-29.398-44.012-26.688-77.724 4.797-59.68 25.635-89.175 108.197-153.16 43.703-33.87 77.562-63.962 101.227-89.963 19.493-21.418 27.114-31.698 39.195-52.868 5.65-9.9 14.501-24.599 19.668-32.666 23.92-37.342 32.134-54.635 37.516-78.968 3.472-15.698 6.9-24.366 9.637-24.366zm-94.64 57.003c.253.06.334.699.354 1.823.103 5.764-3.642 25.13-7.06 36.507-9.89 32.922-28.604 66.184-57.764 102.666-6.447 8.067-30.036 33.278-52.418 56.022-52.545 53.395-64.845 67.556-90.525 104.227-8.274 11.815-16.497 22.849-18.274 24.517-3.19 2.998-3.23 3-3.23.254 0-4.834 7.614-26.311 13.426-37.87 12.083-24.032 29.306-45.492 74.08-92.31 90.797-94.94 103.978-112.33 128.496-169.525 3.463-8.078 7.851-17.678 9.752-21.334 1.853-3.565 2.744-5.076 3.164-4.977zm-126.876 60.215c1.594.5 1.351 7.396-.111 22.881-5.548 58.75-12.884 74.695-66.512 144.568-34.343 44.747-46.71 65.056-52.37 86-2.557 9.466-2.895 30.698-.837 52.666 1.33 14.202.485 26.232-1.899 27.016-.987.325-2.802-1.96-4.369-5.502-1.473-3.331-4.446-12.835-6.605-21.119-13.79-52.91-5.552-78.826 44.256-139.252 31.629-38.372 51.192-67.077 61.367-90.04 4.97-11.215 7.32-20.544 10.304-40.896 1.622-11.06 5.12-20.192 11.79-30.787 2.411-3.83 4.03-5.835 4.986-5.535z" transform="translate(-222.788 -235.104)"/><path style="display:inline;fill:#fff6d5;stroke-width:1.33333" d="M594.422 796.4c-1.73 1.068-2.622 7.874-3.945 30.06-1.942 32.57-7.345 49.718-30.289 96.137-14.726 29.792-22.897 49.096-27.918 65.949-2.833 9.507-3.57 14.833-3.68 26.558-.156 16.814.883 21.09 11.846 48.713 9.046 22.793 11.627 33.712 11.02 46.621-.831 17.673-9.366 31.798-35.856 59.332-50.033 52.009-64.284 79.59-76.467 148-1.828 10.267-5.19 29.167-7.468 42-5.717 32.192-12.26 60.94-18.44 81.034-10.477 34.063-10.535 41.185-.414 50.982 4.717 4.566 10.998 8.181 26.06 15 10.915 4.941 20.418 8.984 21.116 8.984.698 0 7.067-5.19 14.154-11.533 27.992-25.054 37.188-29.179 78.219-35.082 22.468-3.232 32.069-5.608 42.666-10.556 16.264-7.595 21.174-14.72 22.615-32.829 1.374-17.256 2.122-20.544 5.629-24.712 3.473-4.128 7.88-5.052 12.443-2.61 1.382.74 4.786 5.672 7.565 10.96 2.78 5.289 8.525 13.161 12.773 17.503 4.247 4.34 7.514 8.1 7.258 8.355-.255.256-3.773-.227-7.816-1.076-7.317-1.534-11.8-.99-11.8 1.436 0 2.935 6.992 9.195 15.821 14.162 5.198 2.924 9.466 5.682 9.483 6.13.028.763-13.332-1.103-28.627-3.997l-6.657-1.26 4.74 4.22c2.608 2.323 8.762 7.719 13.674 11.991 4.913 4.272 8.62 8.271 8.239 8.889-.864 1.397-7.725-.455-20.584-5.557-5.73-2.274-11.15-3.622-12.852-3.195-7.23 1.814-4.002 10.707 4.42 12.178 7.197 1.256 21.597 9.253 49.01 27.212 29.45 19.294 37.837 24.038 42.494 24.038 5.216 0 12.283 4.082 22.172 12.804 4.767 4.204 11.667 9.575 15.334 11.934 8.04 5.172 19.931 17.472 30.892 31.955 9.41 12.434 9.342 12.37 19.663 17.834 9.703 5.136 16.99 12.843 22.148 23.422 4.463 9.154 7.961 24.278 7.973 34.472.02 17.768 6.885 48.772 19.39 87.579 9.951 30.879 13.793 48.889 14.793 69.333.913 18.661-.505 30.815-5.533 47.413-6.048 19.964-24.3 51.995-44.129 77.45l-8.463 10.866 2.614 3.318c4.273 5.433 12.936 8.952 22.044 8.953 8.05 0 8.066 0 12.874-6.332 14.597-19.206 33.077-55.156 36.228-70.474 1.962-9.542 9.419-25.95 17.639-38.815 6.057-9.48 10.618-18.688 12.324-24.884 1.228-4.459 1.032-5.855-1.418-10.112-2.628-4.566-2.708-5.42-1.06-11.303 4.03-14.394 24.617-42.709 45.927-63.167 13.508-12.968 25.212-20.86 35.276-23.786 6.224-1.81 9.263-4.02 20.556-14.959 7.289-7.059 19.785-20.132 27.77-29.052 11.242-12.56 15.015-17.756 16.718-23.032 2.227-6.895 10.39-15.652 22.45-24.084a336.88 336.88 0 0 0 9.562-7c2.638-2.016 5.593-3.666 6.567-3.666 2.966 0 27.195-16.558 27.195-18.586 0-.55-1.264-2.144-2.809-3.54-10.043-9.083-11.047-25.044-3.41-54.19 6.759-25.792 9.947-30.84 14.746-23.35 3.208 5.007 4.853 13.477 6.858 35.32 1.969 21.464 3.502 28.683 6.924 32.604 1.9 2.178 3.398 2.649 13.833 4.344 2.645.43 7.573 2.612 10.952 4.85 4.034 2.672 7.417 3.922 9.857 3.642 3.658-.42 3.71-.555 3.404-8.678-.384-10.17.41-10.579 15.092-7.77 16.954 3.245 17.121 3.037 5.941-7.321-5.469-5.068-9.598-9.558-9.177-9.979.42-.42 6.239.455 12.93 1.945 12.969 2.89 18.859 3.392 18.859 1.61 0-.605-2.762-4.655-6.139-9-7.3-9.394-6.327-10.183 7.412-6.01 15.088 4.583 16.274 3.817 8.334-5.37-8.436-9.76-10.94-13.431-10.94-16.034 0-4.303 6.333-3.086 11.659 2.24 6.727 6.727 9.763 8.607 13.893 8.607 5.742 0 5.553-1.937-.932-9.535-9.677-11.337-9.712-16.525-.1-15.084 5.168.775 5.747.555 7.246-2.736 3.824-8.392 4.753-24.727 4.827-84.908.057-46.891-.308-61.315-1.584-62.594-1.324-1.326-5.051.027-18.454 6.701-9.236 4.6-16.566 8.59-16.29 8.865.275.276 7.98 2.55 17.119 5.055l16.617 4.553-5.334 2.281c-2.933 1.254-9.073 3.792-13.645 5.64-4.571 1.85-10.871 5.655-14 8.458-4.833 4.33-5.463 5.461-4.183 7.533 1.316 2.131 3.224 2.41 15.158 2.213 7.565-.124 13.136.283 12.494.914-.637.627-10.959 6.028-22.937 12.002-11.98 5.974-21.578 11.031-21.332 11.238.245.207 8.545-.706 18.445-2.027 9.9-1.322 20.7-2.42 24-2.442l6-.039-3.334 2.774c-7.31 6.08-19.97 11.386-49.19 20.613-3.956 1.25-.394 1.406 9.19.402 16.793-1.757 33.835-1.447 36.728.668 2.503 1.83 2.505 1.952.106 4.604-4.003 4.423-15.372 6.045-42.89 6.117-21.99.057-25.875.384-29 2.432-4.619 3.024-4.598 5.977.056 7.816 3.561 1.407 40.491.776 53-.906 12.49-1.68 10.366 4.418-4.004 11.492-4.508 2.22-11.84 4.55-16.291 5.18-9.828 1.389-13.44 3.185-15.078 7.492-1.802 4.74-7.079 6.25-19.293 5.527-14.016-.83-26.068-5.432-27.902-10.654-1.76-5.01 1.146-7.738 9.21-8.647 3.438-.387 6.553-1.491 6.922-2.453.37-.961-.881-3.785-2.779-6.273-4.27-5.599-4.457-11.75-.525-17.4 1.61-2.314 7.385-8.987 12.836-14.83 24.36-26.117 36.437-50.445 47.677-96.042 13.438-54.511 7.664-90.708-20.351-127.57-10.496-13.81-18.653-27.92-21.766-37.642l-1.67-5.211-1.78 3.21c-2.363 4.267-2.319 17.776.106 32.545 1.084 6.6 2.661 16.184 3.504 21.297.843 5.114 2.003 10.214 2.578 11.334 2.1 4.088 5.225 19.638 6.055 30.117.966 12.192.645 13.063-14.197 38.586-15.016 25.823-22.404 47.009-30.688 88-12.013 59.443-27.455 105.677-46.76 140-13.875 24.672-25.463 36.773-42.61 44.5-27.323 12.313-60.488 7.641-76.372-10.76-6.472-7.496-6.152-6.998-11.16-17.378-6.435-13.34-5.65-20.71 2.51-23.555 2.325-.81 6.448-1.475 9.164-1.475 6.466 0 13.167-4.598 17.113-11.746 5.968-10.81 6.996-21.91 8.164-88.254 1.045-59.34 1.239-62.684 4.518-77.998 5.944-27.76 21.446-74.296 26.586-79.81 1.623-1.741 4.749-5.716 6.949-8.834 2.2-3.118 5.95-7.17 8.334-9.004 2.383-1.834 4.334-4.1 4.334-5.035 0-.935.831-2.018 1.848-2.408 1.343-.516 1.684-2.466 1.252-7.143-2.75-29.746-14.713-58.675-34.13-82.539-19.53-24.003-23.048-28.631-32.35-42.56-18.402-27.56-21.7-38.821-19.339-66.02 1.657-19.087 4.566-40.832 8.147-60.9 1.464-8.207 2.294-16.385 1.845-18.174-1.72-6.855-9.864-11.943-56.816-35.494-25.918-13.001-66.624-33.509-90.457-45.575-45.704-23.138-85.338-41.507-141.188-65.433-56.661-24.275-101.082-40.965-104.084-39.11zm41.727 43.331c15.626.448 46.13 8.447 83.21 22.215 44.875 16.662 80.988 33.54 123.071 57.518 28.904 16.468 57.446 31.603 81.93 43.441 24.362 11.78 36.436 19.4 43.914 27.717 4.994 5.555 7.51 9.516 5.754 9.063-.183-.048-6.335-2.136-13.668-4.641-15.424-5.269-45.998-20.314-118-58.068-105.983-55.573-140.961-70.058-186.615-77.286-18.461-2.922-25.618-5.435-29.48-10.345-3.114-3.958-3.167-4.788-.475-7.479 1.594-1.595 5.15-2.284 10.359-2.135zm.254 32.438c12.433.208 27.932 2.068 42.36 5.676 29.49 7.374 65.16 23.859 120.93 55.888 41.697 23.946 73.098 39.896 93.335 47.41 17.587 6.531 26.766 10.87 29.197 13.8 4.483 5.4-4.022 6.146-23.486 2.058-6.76-1.42-17.439-4.445-23.733-6.723-13.237-4.79-52.612-24.516-85.312-42.742-75.363-42.004-112.172-56.547-150.938-59.63-15.488-1.233-23.525-3.843-26.304-8.546-2.952-4.994 7.965-7.459 23.95-7.191zm-28.145 25.064c10.34-.046 24.05 1.727 36.102 5.028 34.104 9.34 55.836 18.034 108 43.205 48.07 23.196 65.288 31.13 103.832 47.85 16.774 7.275 32.675 14.429 35.334 15.898l4.834 2.672-9.332-.754c-30.261-2.445-32.482-2.457-35.957-.18-2.11 1.383-3.377 3.453-3.377 5.516 0 2.93-.564 3.301-5 3.289-2.75-.01-11.6-2.32-19.666-5.137-8.067-2.817-37.68-14.268-65.805-25.447-68.301-27.15-102.534-38.324-130.863-42.711-19.609-3.037-36-8.466-36-11.924 0-4.27 21.758-5.358 40.826-2.041 36.954 6.428 66.619 15.403 89.842 27.178 19.731 10.004 61.156 26.946 89.332 36.535 22.201 7.555 29.334 9.25 29.334 6.965 0-2.053-9.08-6.992-24.526-13.342-6.522-2.682-24.824-10.918-40.668-18.303-44.556-20.768-55.334-25.23-86.806-35.933-31.475-10.706-60.642-17.665-82.46-19.672-9.911-.912-13.032-1.719-15.267-3.953-3.827-3.827-1.903-9.336 4.409-12.625 2.69-1.402 7.679-2.086 13.882-2.114zm-16.99 54.526c17.467-.583 57.624 9.075 94.29 23.506 29.591 11.646 77.01 37.634 87.446 47.925l4.645 4.58h-3.578c-1.969 0-6.642-.656-10.385-1.458-15.444-3.313-17.556 2.115-5.55 14.261 10.426 10.549 24.86 30.236 59.525 81.197 42.089 61.875 45.296 65.949 57.039 72.44 11.324 6.26 28.046 19.728 27.304 21.99-.747 2.278-7.525 2.405-13.293.25-7.846-2.931-23.4-13.542-30.433-20.764-14.464-14.849-32.212-38.327-60.174-79.601-34.906-51.523-51.989-73.512-70.387-90.61-5.923-5.504-11.517-12.073-13.058-15.333-3.219-6.807-11.62-12.323-30.073-19.745-17.044-6.854-33.469-11.371-55.212-15.185-28.995-5.086-39.746-8.313-46.014-13.809-2.889-2.533-2.961-4.814-.238-7.537 1.292-1.292 4.115-1.973 8.146-2.107zm21.912 36.158c6.75.248 16.057 2.606 32.932 8.057 38.494 12.433 59.19 24.072 80.248 45.13 15.533 15.533 26.62 30.008 54.646 71.334 52.662 77.657 75.54 102.172 104.022 111.473 22.044 7.199 27.812 16.378 12.52 19.926-6.828 1.584-11.479 1.427-21.362-.723-13.891-3.021-23.332-8.995-41.027-25.963-22.503-21.577-45.142-49.797-75.434-94.03-31.878-46.55-45.187-60.758-55.101-58.821-12.506 2.443-55.281 40.708-76.706 68.617-9.736 12.683-12.301 17.977-9.882 20.396.74.74 6.966 1.83 13.836 2.42 9.418.81 17.735 2.791 33.822 8.055 49.986 16.356 128.282 50.122 136 58.65 2.352 2.6 2.33 2.666-.977 2.666-4.708 0-21.7-5.054-58.357-17.363-35.922-12.061-82.233-25.924-124.785-37.351-31.88-8.562-36.635-10.204-42.215-14.594-7.12-5.6-3.756-9.91 10.334-13.244 9.262-2.192 18.096-9.07 24.193-18.836 10.175-16.296 21.404-30.25 38.32-47.612 9.468-9.716 16.906-17.666 16.53-17.666-2.469 0-32.396 7.317-38.934 9.52-9.882 3.33-14.778 5.83-20.775 10.611-7.44 5.932-11.533 7.002-14.692 3.844-4.408-4.408-3.45-10.287 2.618-16.059 10.227-9.73 30.872-15.231 54.74-14.59 31.285.842 39.582.434 44.887-2.206 7.552-3.76 8.444-6.253 3.92-10.975-4.396-4.588-15.696-9.824-19.907-9.225-2.13.304-2.791 1.19-2.494 3.342.592 4.282-5.847 5.584-35.205 7.113-28.155 1.467-38.341 2.805-52.223 6.862-5.328 1.557-10.05 2.468-10.494 2.025-2.74-2.74 5.753-16.523 13.127-21.305 5.821-3.774 12.666-5.675 30.051-8.347l11.672-1.795-18.668.638c-18.76.643-32.712-.726-36.104-3.54-1.54-1.28-1.521-2.102.125-5.286 2.46-4.756 24.36-19.536 30.715-20.728 1.867-.35 3.834-.503 6.084-.42zm84.196 92.182c.28 0 .497.074.646.222 1.417 1.417-5.497 13.769-12.656 22.612-14.454 17.852-23.127 29.685-23.87 32.566-2.197 8.524 5.126 4.099 18.338-11.082 9.943-11.424 16.246-16.703 17.932-15.018 3.64 3.64-10.793 27.004-20.021 32.413-6.855 4.016-18.055 5.315-28.889 3.347-6.666-1.21-11.828-3.495-11.828-5.234 0-1.986 7.589-11.603 17.58-22.278 19.928-21.29 38.553-37.562 42.768-37.548zm-137.682 100.466c45.012.318 145.077 23.869 218.553 51.438 36.394 13.656 68.284 24.393 82.521 27.783 11.694 2.785 16.26 4.64 16.26 6.61 0 3.826-21.294 5.496-85.334 6.695-35.929.672-63.113 1.741-66.666 2.619-3.3.815-13.8 5.346-23.334 10.07-12.123 6.008-19.886 8.988-25.826 9.91-10.954 1.7-14.37 4.063-18.309 12.668-4.47 9.764-6.175 20.435-5.648 35.346.416 11.78.864 13.583 5.988 24.066 3.046 6.234 7.713 14.334 10.37 18 21.14 29.19 24.037 36.494 24.07 60.668.016 12.164-.645 19.085-2.446 25.618-3.44 12.476-10.91 19.87-13.52 13.382-.516-1.283-1.422-11.633-2.013-23-1.481-28.485-3.882-34.834-22.764-60.193-14.851-19.946-21.251-37.165-21.217-57.088.027-15.307 2.658-25.504 11.348-44.006 7.2-15.33 8.328-18.713 6.236-18.713-.585 0-6.136 1.788-12.334 3.973-6.198 2.186-13.503 3.986-16.234 4-4.209.022-5.288-.598-7.086-4.074-1.942-3.757-1.942-4.379.03-7.387 2.186-3.337 5.494-5.112 17.261-9.264 12.293-4.336 20.202-15.248 11.053-15.248-5.886 0-13.042-10.809-22.953-34.668-4.58-11.026-8.64-16.381-14.541-19.181-2.956-1.403-12.51-2.942-25.871-4.168-23.157-2.125-38.027-5.81-40.256-9.975-2.502-4.674 2.693-6.022 22.662-5.88zm-40.725 25.914c5.87-.098 14.87.778 27.39 2.623 9.9 1.46 24.602 3.006 32.669 3.436 8.067.43 16.315 1.407 18.332 2.17 4.72 1.786 4.856 6.012.248 7.764-4.7 1.786-36.695 1.357-54.93-.737-20.651-2.37-32.318-6.712-32.318-12.027 0-2.056 2.74-3.13 8.61-3.229zm718.639 5.479c-1.937.044-3.841.645-5.617 1.889-6.506 4.556-2.147 10.567 8.709 12.007 4.133.549 6.994 1.596 6.994 2.563 0 .9-2.1 4.389-4.666 7.75-6.495 8.505-6.202 10.271 1.703 10.271 3.75 0 7.656-.902 9.496-2.191 2.762-1.934 3.04-2.934 2.371-8.574-1.616-13.65-10.599-23.907-18.99-23.715zm-677.377 22.49c23.103.1 45.563 1.556 47.828 3.82 3.173 3.174-23.958 7.34-61.7 9.477-25.145 1.423-31.542 1.445-42.25.143-7.576-.922-9.184-1.794-7.71-4.18 2.043-3.307 12.496-6.491 25.773-7.854 10.103-1.036 24.197-1.465 38.059-1.406zm206.832 16.826c-1.566-.038-3.547-.021-6.08.022-6.21.105-13.388.542-15.955.97-2.567.429-9.233 1.335-14.815 2.016-29.259 3.569-64.222 14.568-70.552 22.196-1.624 1.956-1.537 2.49.672 4.105 3.282 2.4 8.907 2.349 18.578-.17 4.277-1.114 9.402-3.183 11.388-4.598 5.22-3.716 15.404-7.487 31.035-11.49 12.56-3.216 14.376-3.375 21.948-1.902 6.201 1.206 9.388 1.232 12.808.103 3.197-1.055 5.63-1.093 8.166-.129 4.911 1.868 6.892 1.73 9.264-.642 1.109-1.109 3.701-1.899 5.762-1.756 7.436.515 11.078-.21 11.078-2.203 0-2.664-5.878-3.972-11.09-2.469-3.63 1.047-4.443.83-5.621-1.5-.927-1.833-1.888-2.438-6.586-2.553zm486.63 3.164c-9.2 0-12.931 5.216-7.792 10.895 2.745 3.033 10.738 3.23 14.83.363 3.671-2.571 3.883-8.006.385-9.879-1.419-.759-4.759-1.379-7.422-1.379zm-51.51.666 6.089 6.463c8.944 9.492 10.776 16.649 10.633 41.537-.318 55.32-24.31 119.674-44.451 119.229-2.618-.057-5.51-.408-6.426-.777-3.026-1.222-1.751-4.951 6.996-20.452 21.645-38.355 32.864-92.42 28.223-136l-1.065-10zm-625.657 4.655c8.104-.01 12.203 1.26 10.588 3.873-2.708 4.38-12.864 7.12-50.086 13.506-13.567 2.327-30.225 5.67-37.018 7.431-13.162 3.412-15.357 3.715-16.76 2.313-5.957-5.958 11.444-13.904 45.778-20.905 20.036-4.085 37.078-6.207 47.498-6.218zm684.537 15.326c-3.893.076-8.332 1.69-9.654 3.77-3.268 5.139 1.977 14.25 8.203 14.25 2.048 0 5.236-1.192 7.086-2.647 7.056-5.55 5.453-13.463-3.072-15.168a11.968 11.968 0 0 0-2.563-.205zm-698.143 11.469c2.954-.05 4.984.529 5.99 1.742 1.197 1.441 1.013 2.388-.816 4.217-5.714 5.714-30.618 13.979-49.86 16.547-6.163.822-13.193 1.804-15.62 2.18-2.427.375-6.67 2.723-9.432 5.218-6.01 5.43-10.538 7.312-17.574 7.312-3.608 0-5.248-.582-5.248-1.865 0-3.16 14.888-15.696 23.363-19.67 8.01-3.755 13.607-5.063 32.762-7.658 5.568-.754 14.868-2.887 20.666-4.738 6.644-2.122 11.972-3.223 15.77-3.285zm185.387 1.484c7.578.106 14.543.898 19.807 2.428 6.963 2.023 11.008 6.116 8.742 8.846-1.437 1.731-4.72 1.893-22.424 1.11-24.24-1.07-26.767-.436-48.072 12.048-14.932 8.75-35.224 18.865-40.152 20.017-2.522.59-3.719.213-4.325-1.367-3.218-8.386 25.473-30.936 48.477-38.101 10.987-3.423 25.318-5.157 37.947-4.981zm512.463 15.63c-5.207.132-10.41 2.816-10.41 6.901 0 6.123 13.597 8.94 18.668 3.87 1.466-1.467 2.666-3.267 2.666-4 0-.734-1.2-2.534-2.666-4-2.007-2.008-5.133-2.849-8.258-2.77zm-718.795 14.237c3.93.074 7.001.972 9.285 2.674 8.37 6.238 4.951 9.273-12.482 11.082-14.49 1.504-29.933 6.975-44.735 15.85-19.965 11.97-22.834 12.88-26.808 8.488-1.214-1.341-2.207-3.136-2.207-3.99 0-2.772 10.953-9.751 28.666-18.264 22.564-10.845 38.236-16.03 48.281-15.84zm720.348 6.069c-1.447-.015-2.882 1.179-5.492 3.789-5.12 5.12-4.796 9.702.754 10.666 2.139.371 4.097 1.303 4.353 2.072.255.768-1.936 4.616-4.871 8.55-6.063 8.127-5.535 10.72 2.187 10.72 3.184 0 5.522-1.03 7.721-3.403 6.012-6.486 5.582-25.18-.695-30.264-1.699-1.375-2.832-2.119-3.957-2.13zm-530.567.974c22.166-.07 17.93 10.473-5.382 13.4-13.037 1.638-23.826 7.287-38.948 20.393-6.651 5.765-13.788 11.358-15.861 12.43-3.466 1.792-3.879 1.742-5.152-.637-5.328-9.954 6.255-23.168 31.416-35.838 13.17-6.631 23.907-9.716 33.927-9.748zm-133.91 35.49c1.664.076 3.272.333 4.852.758 5.698 1.534 17.651 11.67 19.084 16.182 1.574 4.96-1.214 5.698-20.09 5.314-13.756-.28-18.801.092-21.725 1.604-4.802 2.483-11.024 9.51-19.879 22.453-7.057 10.315-14.471 16.594-23.054 19.521-7.194 2.454-22.654 3.106-28.006 1.18-3.574-1.285-4.767-2.533-5.088-5.324-.375-3.252.346-3.988 6.668-6.816 8.022-3.59 19.205-11.579 35.752-25.54 25.51-21.522 39.839-29.862 51.486-29.332zm-95.344.94c4.782.026 9.183.606 10.221 1.648 1.55 1.555-4.72 5.895-18.537 12.83-22.123 11.106-37.158 14.917-37.158 9.418 0-6.093 19.908-19.111 35.031-22.906 2.775-.696 6.725-1.01 10.443-.99zm2.145 28.144c4.816-.025 8.675 1.135 9.35 3.159.286.858-5.665 4.516-13.47 8.28-10.141 4.893-16.051 8.767-21.525 14.11-7.713 7.531-12.814 9.327-16.375 5.766-7.36-7.36 13.775-25.75 35.069-30.516a33 33 0 0 1 6.951-.799zm-18.219 40.946c10.164-.05 12.057 4.699 5.053 12.675-4.736 5.394-15.348 11.295-20.313 11.295-1.963 0-4.4-1.423-6.068-3.543-1.81-2.302-2.491-4.52-1.943-6.333 2.259-7.476 13.107-14.045 23.271-14.094zm796.983 163.25c-.211-.207-4.615 3.62-9.785 8.506-9.23 8.719-18.148 21.976-24.596 36.562-2.849 6.444-2.663 8.984.662 8.984 1.013 0 7.428-4.497 14.256-9.996 22.045-17.754 22.55-12.429 1.937 20.446-12.35 19.698-15.883 26.59-20.176 39.377-3.835 11.425-4.221 17.124-1.324 19.529 3.482 2.89 6.54-1.575 20.733-30.268 13.482-27.257 22.207-39.99 25.293-36.904 2.084 2.085-.695 8.456-22.323 51.15-22.061 43.552-27.4 57.65-18.048 47.666 1.545-1.65 6.744-9.814 11.552-18.144 10.546-18.269 17.265-27.742 30.739-43.336 10.55-12.21 12.697-15.902 12.697-21.834 0-1.911-3.326-13.325-7.39-25.363-4.065-12.039-8.843-27.313-10.618-33.944-1.774-6.63-3.398-12.225-3.61-12.431zM588.663 1655.3c-1.138.004-2.381.437-4.346 1.137-2.909 1.036-6.872 1.91-8.807 1.943-4.912.08-19.683 10.525-24.482 17.31-3.924 5.548-4 5.962-3.95 21.868.055 17.443 1.536 24.107 6.366 28.644 6.7 6.294 22.605 6.608 40.969.807 5.815-1.837 15.69-5.694 21.947-8.57 15.034-6.914 30.245-11.626 42.4-13.135 11.042-1.371 19.205-5.288 14.778-7.092-1.38-.563-8.211-3.224-15.178-5.914-24.336-9.397-46.816-21.245-62.043-32.697-4.155-3.126-5.758-4.309-7.654-4.301zm727.252 22.091c-6.085-2-41.883 49.862-61.792 89.516-8.96 17.848-12.472 27.425-15.556 42.438-7.326 35.663-30.858 73.915-64.041 104.093-3.024 2.75-5.498 6.2-5.498 7.666 0 1.68-.889 2.666-2.4 2.666-1.321 0-4.002.752-5.958 1.668-4.096 1.92-3.585 0-12.318 46.229-8.873 46.976-17.743 76.692-37.64 126.103-22.484 55.831-21.261 58.47 30.316 65.42 21.474 2.894 32.984 2.094 49.705-3.455 30.078-9.981 57.883-30.678 90.01-67 26.847-30.353 56.823-50.297 75.595-50.297 10.861 0 8.136 8.745-4.423 14.194-20.158 8.745-28.261 15.12-61.579 48.443-44.19 44.199-64.017 58.392-99.054 70.899-18.849 6.728-21.557 8.225-23.545 13.025-3.082 7.44 3.565 35.866 14.75 63.078 14.606 35.537 14.812 36.463 15.947 71.693.8 24.86 1.565 33.4 3.697 41.334 11.413 42.459 34.44 81.876 59.31 101.536 11.937 9.434 14.192 7.43 24.255-21.536 14.735-42.419 28.85-70.322 57.33-113.334 24.798-37.45 51.806-71.572 86.242-108.959 21.706-23.565 41.574-42.367 75.092-71.058 54.213-46.408 87.9-78.038 102.934-96.649 27.811-34.431 55.506-84.7 68.345-124.054 6.748-20.682 12.5-32.084 17.487-34.662 5.211-2.696 6.817-.14 6.734 10.72-.16 20.91-17.814 65.834-43.53 110.774-11.47 20.047-31.457 49.498-40.26 59.326-7.474 8.345-83.549 74.475-136.376 118.549-61.8 51.56-96.949 95.486-144.043 180.013-23.053 41.377-31.276 60.702-36.682 86.213-2.744 12.953-3.154 30.653-.808 34.87 2.358 4.237 6.72 3.327 10.418-2.174 1.636-2.435 3.958-9.036 5.16-14.668 4.729-22.158 6.518-28.244 13.592-46.24 15.978-40.652 38.767-82.307 66.379-121.333 4.15-5.866 9.397-14.567 11.66-19.334 9.306-19.607 79.065-82.501 165.78-149.468 110.074-85.005 172.703-163.491 192.577-241.328 4.04-15.823 6.774-37.222 7.053-55.204.222-14.364-.071-16.647-2.867-22.326-5.994-12.171-29.24-29.008-40.05-29.008-5.65 0-5.365 2.457 1.157 9.993 8.18 9.45 8.816 15.86 1.73 17.41-11.587 2.535-20.802 10.709-39.005 34.597-23.065 30.269-53.385 55.807-53.385 44.965 0-3.337 2.992-7.36 14.86-19.992 10.834-11.532 27.315-34.9 32.658-46.305 3.22-6.876 4.091-12.668 1.902-12.668-1.852 0-15.75 10.14-27.412 20-11.6 9.807-37.48 28.299-45.008 32.159-3.474 1.78-5 2.06-5 .916 0-.906 13.351-14.888 29.668-31.069 28.495-28.259 38.465-39.65 36.459-41.656-1.764-1.764-12.623 5.266-25.705 16.64-26.044 22.644-48.149 36.802-59.15 37.89-7.167.707-5.796-2.63 4.062-9.901 21.206-15.641 29.474-22.57 43.316-36.31 8.127-8.067 17.305-18.022 20.397-22.122 5.292-7.019 7.108-11.879 4.437-11.879-2.032 0-14.947 9.317-28.15 20.309-15.07 12.545-33.073 24.85-45.553 31.135-8.592 4.327-15.781 5.887-15.781 3.426 0-1.947 14.767-15.24 28.668-25.809 21.432-16.294 39.332-35.977 39.332-43.248 0-2.42-.727-3.147-3.152-3.147-3.793 0-7.648 2.832-20.987 15.42-18.925 17.861-50.322 35.987-54.718 31.59-1.966-1.965 8.982-12.018 32.525-29.869 11.55-8.757 21-16.723 21-17.701 0-.979-.962-2.578-2.137-3.553-1.819-1.51-3.357-1.141-10.336 2.477-4.509 2.337-13.898 8.46-20.863 13.605-21.007 15.515-39.71 23.881-45.191 20.213-3.624-2.425-.148-5.33 15.21-12.715 8.546-4.108 18.637-9.53 22.426-12.047 7.393-4.91 12.73-12.112 10.574-14.267-1.739-1.74-10.07 1.67-44.351 18.156-36.046 17.334-54.666 23.27-54.666 17.426 0-2.773 6.722-7.404 22.156-15.264 19.51-9.935 21.997-13.91 11.53-18.422-4.088-1.762-12.816-2.346-47.02-3.146-44.758-1.048-55.615-2.107-76.607-7.485-31.538-8.078-40.314-1.919-82.836 58.141-27.694 39.115-44.659 55.14-42.995 40.613.287-2.5 1.589-4.37 3.772-5.414 5.575-2.667 11.28-9.627 22.559-27.531 12.454-19.77 25.318-37.074 38.828-52.227 10.86-12.18 22.613-28.227 22.613-30.875 0-.985-.94-1.79-2.088-1.79-9.686 0-35.25 27.434-65.848 70.665-19.513 27.57-32.036 41.334-37.611 41.334-2.534 0-4.377-4.612-3.553-8.892.258-1.34 2.862-3.675 5.785-5.19 6.381-3.305 12.961-11.705 21.473-27.408 9.281-17.12 21.077-33.031 38.637-52.11 15.399-16.73 23.188-26.826 23.199-30.068.011-3.016-6.156-1.74-12.127 2.51-8.86 6.307-30.106 28.365-39.867 41.39-4.767 6.362-11.954 17.385-15.973 24.495-16.48 29.158-29.106 34.326-15.484 6.338 13.216-27.154 31.266-53.402 50.244-73.065 13.636-14.128 17.213-19.477 17.213-25.738 0-4.111-4.804-12.33-7.78-13.309zm-112.37 309.108c.964-.035 1.483.515 1.483 1.676 0 .955-2.453 6.805-5.45 13-2.996 6.194-10.854 23.863-17.46 39.263-26.606 62.022-44.22 89.012-60.487 92.68-3.168.715-4.962.494-5.982-.734-1.93-2.325.559-7.128 12.057-23.28 23.138-32.504 46.02-74.88 51.054-94.554 1.952-7.628 7.468-15.307 16.6-23.112 3.74-3.195 6.58-4.88 8.185-4.939zm27.787 37.63c.357.123.362.996.362 2.74 0 16.642-36.014 77.25-62.473 105.136-13.436 14.16-27.823 22.433-39.015 22.433-4.685 0-6.512-.524-6.512-1.863 0-2.287 6.105-7.73 18.172-16.205 28.995-20.364 40.366-33.592 61.832-71.932 10.773-19.24 20.847-34.672 25.162-38.54 1.407-1.262 2.116-1.89 2.473-1.768zm44.936 21.82c.23-.05.375 0 .428.161 2.226 6.678-28.32 50.377-49.81 71.258-22.255 21.624-47.192 39.908-47.192 34.602 0-6.69 89.45-104.517 96.574-106.022zm50.649 58.454c.513.012.777.232.777.67 0 4.067-44.954 42.377-76.477 65.174-20.772 15.022-27.744 18.832-37.14 20.295-4.611.718-11.04 2.186-14.287 3.266-6.746 2.242-11.593 2.522-12.7.732-1.129-1.827 4.668-5.507 23.985-15.225 18.889-9.502 44.43-26.067 72.619-47.097 23.754-17.722 39.626-27.896 43.223-27.815zm-10.89 31.15c.673.016 1 .366 1 1.04 0 4.485-23.69 28.465-44.624 45.172-32.43 25.88-64.562 41.38-73.723 35.564-1.26-.8-.928-1.768 1.332-3.873 4.001-3.725 28.145-17.977 38.653-22.816 5.249-2.418 17.792-11.446 33.695-24.25 26.357-21.223 40.037-30.917 43.668-30.836zm2.055 30.94c1.038.042 1.612.5 1.612 1.432 0 3.002-9.789 14.693-21.736 25.957-18.246 17.202-43.344 35.499-60.264 43.933-16.6 8.276-24.308 10.124-27.772 6.66-4.909-4.909-1.504-8.587 12.93-13.972 12.09-4.51 27.451-14.532 45.395-29.617 7.27-6.113 15.97-13.415 19.334-16.227 12.82-10.72 26.007-18.35 30.502-18.166zm33.946 26.617c3.476-.013 2.902 1.69-3.217 9.541-11.889 15.254-43.59 44.63-80.03 74.159-24.306 19.697-42.369 37.176-51.622 49.96-5.656 7.814-7.66 9.117-8.93 5.807-.924-2.407 1.685-12.038 5.045-18.623 4.777-9.364 25.268-28.789 59.086-56.012 18.333-14.758 40.411-33.134 49.06-40.836 20.72-18.45 27.784-23.988 30.608-23.996zm-27.074 2.99c.159.01.297.033.41.075 4.577 1.72-28.114 27.662-68.336 54.228-33.736 22.283-41.334 25.976-41.334 20.098 0-7.515 99.246-74.894 109.26-74.4zm85.726 20.768c.436-.056.683.169.774.637.755 3.923-8.399 17.178-53.356 77.264-57.708 77.126-77.736 107.714-83.156 127.001-2.664 9.479-5.225 14.906-8.969 19-3.646 3.988-6.033 3.785-7.803-.666-3.435-8.643 3.356-30.014 16.952-53.345 14.55-24.968 25.69-39.666 86.931-114.664 33.221-40.685 45.575-54.833 48.627-55.227zm-21.607 2.902c2.245 0 1.421 1.808-4.25 9.334-11.73 15.568-34.301 40.014-99.955 108.26-31.35 32.587-34.873 37.656-39.223 56.41-3.901 16.822-10.26 25.147-14.539 19.037-1.143-1.632-2.078-5.139-2.078-7.794 0-9.763 10.09-32.492 20.113-45.307 26.246-33.555 132.624-139.94 139.932-139.94zm-37.239 8.27c2.502.834-13.229 17.767-37.378 40.234-28.315 26.342-52.965 51.666-72.207 74.178-14.823 17.34-19.43 20.882-17.758 13.652 2.494-10.782 12.567-29.563 21.457-40.007 16.642-19.552 100.983-89.691 105.886-88.057z" transform="translate(-222.788 -235.104)"/><path style="display:inline;fill:#d7f4ee;stroke-width:1.33333" d="M679.72 1248.987c5.486-1.531 19.253-4.84 30.595-7.354 11.341-2.514 21.198-5.147 21.903-5.852 1.71-1.71-4.057-4.027-24.878-9.998-9.934-2.85-18.968-4.673-21.93-4.428-4.977.411-5.052.502-6.152 7.456-2.15 13.594-11.93 14.132-22.585 1.243-10.116-12.239-16.553-18.283-19.47-18.283-3.792 0-3.589 2.088 1.115 11.454 5.222 10.396 16.02 23.547 21.587 26.29 5.8 2.858 7.886 2.802 19.816-.528z" transform="translate(-222.788 -235.104)"/><path style="display:inline;fill:#fff;stroke-width:1.33333" d="M1003.29 988.052c-4.36.416-6.111 5.6-8.207 17.619-9.12 52.29 1.397 83.923 49.896 150.1 22.667 30.928 33.83 58.155 35.63 86.894.77 12.279.632 13.23-2.88 19.947-3.44 6.578-10.354 14.492-12.662 14.492-1.712 0-9.392 7.223-11.383 10.706-3.895 6.812-7.683 18.772-16.217 51.214-6.182 23.502-8.467 51.514-11.107 136.08-1.498 47.997-2.745 57.459-8.705 66.059-6.548 9.448-20.373 17.893-31.87 19.469-6.467.886-6.327.607-4.052 8.138.782 2.59 32.174 20.255 38.57 21.704 5.534 1.253 10.459.28 21.075-4.16 11.91-4.983 18.509-9.692 29.046-20.731 11.332-11.87 19.562-24.496 29.176-44.754 13.783-29.044 21.803-56.473 29.98-102.525 18.446-103.877 22.01-167.48 12.844-229.2-3.798-25.576-4.241-30.399-2.865-31.25 4.248-2.625 20.57 66.201 24.39 102.856 1.185 11.36 1.195 17.815.046 26.408-1.454 10.866-3.19 16.543-14.23 46.56-2.744 7.457-4.695 15.021-4.47 17.317l.399 4.076 3.539-3.83c1.946-2.107 9.399-14.1 16.564-26.65 7.166-12.551 14.126-24.414 15.467-26.363 3.4-4.943 3.386-15.98-.033-25.124-5.663-15.15-18.306-73.639-16.092-74.445.672-.244 1.22-2.713 1.22-5.486 0-3.024 1.07-6.4 2.669-8.432 1.466-1.864 2.666-4.046 2.666-4.848 0-.8.503-1.455 1.119-1.455 1.594 0 4.215-6.208 4.215-9.984 0-1.755.61-3.569 1.355-4.03.746-.46.942-1.545.438-2.411-.505-.866.384-.432 1.976.965 1.593 1.396 2.897 3.094 2.897 3.773 0 .678 3.687 6.616 8.193 13.195 11.955 17.454 23.01 25.666 33.524 24.899 7.575-.553 9.033-4.489 5.965-16.108-2.424-9.176-4.34-23.357-6.182-45.74-1.373-16.689-3.56-22.308-11.72-30.12-5.486-5.25-16.775-11.773-20.378-11.773-6.965 0-6.982 7.612-.068 30.666 5.192 17.316 6.595 27.064 4.113 28.598-2.338 1.445-9.112-5.92-14-15.223-7.21-13.722-10.143-23.182-11.51-37.12-.669-6.828-2.337-14.928-3.705-18-4.625-10.39-23.698-24.294-32.007-23.333-3.318.384-3.585.906-3.942 7.746-.283 5.427 1.042 12.36 5.096 26.666 3.013 10.634 5.812 22.12 6.218 25.524.66 5.516.425 6.289-2.16 7.11-10.387 3.296-22.625-25.654-24.785-58.634-.528-8.066-1.762-16.62-2.742-19.007-2.997-7.306-11.943-8.555-14.539-2.03-2.132 5.36-2.191 24.218-.174 55.516 3.15 48.88 3.216 48.738-6.639 14.223-10.701-37.482-15.165-58.976-16.423-79.088-1.124-17.962-2.552-20.63-11.698-21.858-4.32-.58-5.99-.105-9.12 2.588-3.359 2.889-3.904 4.401-4.401 12.213-.711 11.165 1.018 20.335 8.45 44.82 7.473 24.625 12.176 44.35 13.86 58.13 1.343 10.983.7 20.493-1.384 20.493-2.001 0-8.01-10.666-19.909-35.334-23.905-49.56-25.605-55.94-25.021-93.92.5-32.504.257-33.307-12.014-39.847-5.132-2.735-8.686-4.201-11.302-3.951zm236.228 146.386c-4.974 0 8.94 39.26 28.824 81.332 19.801 41.896 19.797 41.86 22.069 166 1.789 97.8 4.482 142.287 11.271 186.211 9.059 58.61 23.574 91.449 53.248 120.457 12.881 12.593 28.029 23.332 32.904 23.332 1.21 0 2.927-.875 3.815-1.945 2.398-2.89.73-8.618-7.969-27.387-30.563-65.938-34.597-95.598-34.637-254.668-.01-41.433-.637-81.933-1.394-90-2.025-21.58-5.475-34.182-17.88-65.332-13.524-33.955-21.428-58.364-23.331-72.05-2.422-17.416-17.49-41.58-27.492-44.09-8.987-2.256-7.162 8.39 8.135 47.472 10.562 26.985 12.288 32.559 9.834 31.74-2.51-.836-11.656-16.815-29.227-51.072-19.327-37.678-26.268-50-28.17-50zm-123.945 20.336c1.962.037 4.215 4.363 6.736 12.963 8.879 30.29 15.909 92.302 13.31 117.416-1.491 14.418-9.468 39.462-25.13 78.905-14.01 35.28-19.659 52.423-21.563 65.443-2.286 15.635-4.037 20.208-7.908 20.66-1.838.215-4.088-.354-5-1.266-2.584-2.584-1.988-8.832 2.283-23.892 8.736-30.804 23.874-72.117 36.36-99.233 13.976-30.351 14.338-38.462 4.34-97.332-7.48-44.044-9.124-58.573-7.463-65.964 1.16-5.165 2.509-7.729 4.035-7.7zm223.27 44.996c-4.76 0 1.088 26.668 16.017 73.038 9.976 30.984 13.416 45.671 15.484 66.083.965 9.526 1.332 49.075 1.074 116-.477 124.176-.955 119.663 19.055 180.213 14.103 42.676 24.408 61.543 41.887 76.692 9.085 7.874 31.498 22.44 39.107 25.416 7.566 2.958 7.32 2.932 9.293.959.88-.88 1.6-3.33 1.6-5.446 0-3.01-2.134-5.96-9.838-13.59-8.626-8.542-10.92-11.94-18.603-27.554-10.974-22.302-20.384-47.673-29.54-79.639-21.57-75.311-27.772-125.696-29.48-239.504-.716-47.735.036-65.334 2.793-65.334 2.215 0 7.13 14.236 11.3 32.733 4.05 17.96 7.363 25.933 10.776 25.933 1.547 0 1.897-2.36 1.777-12-.177-14.28-5.324-38.2-19.072-88.656-8.032-29.476-9.75-34.409-12.931-37.146-3.417-2.94-3.785-2.999-5.348-.862-2.945 4.028-3.603 16.71-2.066 39.846.822 12.383.992 23.414.376 24.514-1.495 2.673-13.425-16.59-16.431-26.53-11.317-37.424-22.91-65.166-27.23-65.166zm-248.483 4.668 4.066 11.332c2.237 6.234 5.934 18.235 8.217 26.668 3.687 13.619 4.16 17.422 4.227 34 .095 23.482-2.742 35.62-17.7 75.713-18.021 48.309-22.087 63.5-28.095 104.953-6.53 45.05-13.628 76-17.43 76-.655 0-1.792-1.123-2.527-2.498-6.552-12.242-4.332-126.267 3.365-172.836 2.291-13.863 4.9-22.609 9.543-32 3.376-6.828 7.939-12.666 9.9-12.666 2.314 0 .946 12.182-2.715 24.17-2.098 6.874-4.622 16.697-5.609 21.83-2.12 11.029-2.538 42.444-.574 43.14 2.595.917 26.482-65.372 33.562-93.14 6.756-26.496 7.176-43.37 2.416-97.334l-.646-7.332zm329.4 50c-4.132 0-3.476 4.603 2.387 16.737 11.569 23.944 12.336 29.403 13.402 95.263l.897 55.332 3.533 6c4.589 7.792 8.738 24.482 19.059 76.668 11.579 58.55 15.111 72.063 26.123 99.897 16.655 42.1 29.947 67.105 45.77 86.103 7.806 9.374 28.752 30.496 35.882 36.184 7.434 5.93 10.215 6.484 10.215 2.03 0-2.962-4.187-10.42-19.64-34.989-15.974-25.396-27.402-53.183-32.288-78.5-6.246-32.367-7.128-90.204-1.46-95.871 3.596-3.597 6.492 7.01 8.136 29.812 2.044 28.365 6.224 47.322 16.902 76.666 6.141 16.877 21.381 47.081 31.621 62.668 9.934 15.121 27.435 32.965 36.223 36.936 9.142 4.13 31.902 5.013 44.113 1.707 9.183-2.486 16.393-7.407 16.393-11.188 0-3.804-9.353-17.953-20.104-30.414-37.18-43.095-66.997-95.203-77.658-135.709-10.436-39.654-14.6-94.985-7.781-103.406 1.26-1.555 3.098-2.425 4.22-1.994 1.624.623 1.99 4.002 1.99 18.416 0 15.63.505 19.6 4.391 34.643 10.265 39.73 26.128 78.413 42.383 103.351 27.582 42.315 71.656 89.086 95.225 101.053 8.434 4.282 22.646 1.987 23.767-3.838.598-3.101-3.404-7.557-6.787-7.557-8.85 0-45.502-53.122-60.103-87.11-9.403-21.89-16.952-59.165-22.227-109.75-5.662-54.301-9.773-69.808-18.508-69.808-3.263 0-4.142 2.503-4.138 11.776 0 11.755 8.59 63.01 12.713 75.892 1.13 3.532-4.025 1.427-8.801-3.593-9.54-10.028-16.178-35.399-16.43-62.787-.145-15.782.052-17.11 3.514-23.792 2.017-3.891 3.666-8.727 3.666-10.746 0-5.45-4.84-8.914-11.51-8.236-2.287.232-3.165 4.63-4.424 22.154-2.07 28.823 1.423 72.225 7.889 97.99 3.715 14.804 4.047 24.01.867 24.01-1.015 0-3.946-2.326-6.514-5.168-14.508-16.058-17.615-30.388-19.697-90.814-1.976-57.36-3.975-69.106-13.527-79.469-6.94-7.528-14.104-12.062-16.024-10.142-2.775 2.775-3.971 28.043-3.2 67.593 1.22 62.684 4.865 112.324 10.94 149.047 6.612 39.966 9.486 74.437 5.907 70.858-.712-.713-3.684-10.394-6.604-21.514-2.919-11.12-8.605-30.687-12.636-43.482-10.791-34.25-13.274-51.417-15.455-106.909-.721-18.333-1.363-48.634-1.426-67.334-.064-18.7-.557-43.165-1.098-54.367-1.051-21.781-2.093-24.937-7.744-23.459-5.55 1.452-6.209 6.567-6.998 54.492-.548 33.315-1.2 46.13-2.459 48.334-5.453 9.548-10.224-4.406-17.592-51.46-4.167-26.616-5.887-33.056-7.172-26.854-.377 1.823-1.03 6.77-1.45 10.992-1.064 10.685-5.849 24.492-10.675 30.8-7.298 9.54-7.966 8.6-6.603-9.298 1.933-25.396 1.34-58.113-1.297-71.643-4.104-21.055-10.777-34.456-16.135-32.4-2.037.782-2.265 1.949-1.549 7.89.463 3.836 2.621 13.123 4.797 20.64 7.883 27.23 8.35 44.938 1.977 75.12-6.555 31.043-8.279 29.91-9.942-6.529-1.42-31.129-2.856-44.108-7.351-66.467-7.917-39.372-18.343-60.457-29.895-60.457zm75.237 52.203a5.918 5.918 0 0 0-1.059.05c-4.116.585-4.465 7.191-.824 15.654 3.617 8.407 7.054 8.943 13.11 2.046 2.275-2.592 4.136-5.591 4.136-6.666 0-4.052-9.768-10.87-15.363-11.083zm-80.915 117.13c-.58 0-1.055 1.95-1.054 4.333 0 4.074 13.58 95.396 18.088 121.633 7.25 42.21 17.191 72.871 37.027 114.217 15.8 32.934 41.973 65.851 59.455 74.78 5.958 3.042 8.285 2.623 10.44-1.872 2.244-4.682-.143-10.177-4.907-11.299-1.89-.445-4.852-2.08-6.582-3.634-3.844-3.453-23.397-29.423-29.732-39.49-28.54-45.357-44.725-99.176-53.131-176.669-4.178-38.515-8.265-56.633-15.039-66.666-3.425-5.072-13.171-15.334-14.564-15.334z" transform="translate(-222.788 -235.104)"/><path style="display:inline;fill:#ff0;stroke-width:1.33333" d="M253.584 677.104c-8.22 0-11.224 1.812-11.224 6.774 0 8.13 8.816 12.717 17.844 9.285 1.842-.7 4.401-2.876 5.685-4.836 2.312-3.529 2.293-3.6-1.951-7.392-3.389-3.029-5.557-3.83-10.354-3.83zm36.915 11.123a4.244 4.244 0 0 0-.791.088c-3.265.82-3.567 1.362-2.825 5.073 1.182 5.909-1.925 9.859-10.869 13.814-9.272 4.1-12.32 6.738-12.32 10.664 0 6.154 8.285 5.394 22.142-2.033 8.23-4.41 34.28-22.751 33.47-23.563-1.193-1.192-23.645-4.256-28.807-4.043zm45.882 12.877c-4.685 0-6.888 1.047-13.683 6.5-4.455 3.575-15.502 10.248-24.551 14.829-21.118 10.689-26.471 15.452-22.186 19.738 2.352 2.351 6.171 1.922 14.399-1.62 27.62-11.89 54.575-24.236 57.738-26.449 2.056-1.437 3.552-3.58 3.324-4.76-.716-3.721-8.963-8.238-15.04-8.238zm47.495 14.666c-2.962 0-5.964 1.662-10.864 6.014-7.796 6.924-19.544 13.11-36.652 19.297-28.752 10.399-40.04 20.96-31.201 29.193 6.23 5.804 13.583 4.593 14.996-2.47.889-4.444 1.4-4.728 16.873-9.377 5.5-1.653 18.4-6.744 28.666-11.315 21.584-9.609 35.321-14.384 39.619-13.771 8.116 1.157 1.176 10.54-14.016 18.949-4.548 2.518-16.97 7.674-27.603 11.459-22.974 8.178-35.635 14.359-39.203 19.139-2.26 3.025-2.379 3.929-.885 6.72 2.52 4.708 6.593 6.193 11.422 4.164 2.2-.924 19.6-9.01 38.666-17.968 36.649-17.219 56.426-27.547 62.799-32.8l3.867-3.187-3.332-2.724c-8.512-6.956-44.323-21.323-53.153-21.323zm67.367 25.834c-2.634.04-3.55 1.28-3.55 3.829 0 1.693-.912 4.382-2.028 5.976-5.508 7.864-44.55 29.745-75.471 42.297-15.737 6.388-25.166 12.53-25.166 16.39 0 2.509 3.777 7.012 5.873 7.003.803-.004 7.16-2.614 14.127-5.801 45.252-20.7 85.027-39.318 95.332-44.625 12.163-6.264 22-13.82 22-16.9 0-1.813-4.055-3.287-9.125-3.317-1.72-.01-7.278-1.28-12.352-2.82-4.503-1.368-7.592-2.063-9.64-2.032zm53.224 20.245c-8.422-.015-14.924 2.858-21.125 8.464-13.43 12.144-23.253 17.708-61.48 34.817-41.048 18.371-48.578 24.062-43.035 32.521 2.092 3.193 18.207 16.86 25.287 21.444 6.797 4.401 13.84 3.115 32.605-5.952 22.579-10.908 33.37-17.192 64.506-37.572 28.55-18.686 39.893-24.649 49.365-25.947 5.453-.747 6.35-.505 7.74 2.092 1.407 2.629.98 3.486-4.076 8.152-7.113 6.567-36.007 26.612-61.226 42.473-22.32 14.037-41.159 23.699-48.344 24.793-11.792 1.795-11.374 13.27.92 25.273 8.333 8.136 18.886 15.363 22.432 15.363 1.403 0 11.522-6.149 22.484-13.666 26.812-18.384 43.388-28.989 58.203-37.236 14.617-8.136 24.305-17.554 24.305-23.627 0-2.188-.542-4.314-1.203-4.723-2.1-1.297-15.728 6.763-53.13 31.422-50.653 33.397-62.898 39.264-64.11 30.702-.788-5.562 8.884-13.48 37.607-30.79 22.756-13.713 36.453-23.027 44.836-30.488 8.792-7.825 13.787-10.552 21.525-11.748 10.58-1.635 17.14-8.774 17.14-18.652 0-7.168-7.433-13.634-25.77-22.422-20.623-9.883-34.627-14.675-45.456-14.693zM521 771.77c3.357 0 4.029.532 4.029 3.182 0 11.426-66.42 54.47-102.994 66.748-10.02 3.363-21.51 4.493-22.897 2.25-1.129-1.827 1.86-3.915 37.89-26.476C491.914 783.107 512.74 771.77 521 771.77zm36.296 103.483c-6.402.257-20.695 7.377-34.978 17.957-11.801 8.741-26.623 22.157-26.623 24.098 0 2.524 7.985.855 17.37-3.633 21.022-10.052 49.324-32.03 47.581-36.95-.382-1.078-1.557-1.544-3.35-1.472zm1120.393 579.363c-4.18.086-4.957 6.349-4.225 29.822 1.313 42.051 12.915 96.103 24.69 115.024 5.175 8.315 7.627 7.076 7.203-3.64-.186-4.688-2.217-15.769-4.516-24.622-9.208-35.46-11.04-46.84-14.404-89.43-1.486-18.82-3.71-26.475-7.867-27.091a5.279 5.279 0 0 0-.881-.063zm33.176 34.51c-1.862.117-3.897 1.181-5.174 3.13-3.91 5.967-5.145 18.599-3.459 35.372 3.206 31.903 14.982 77.476 20.02 77.476.635 0 1.514-1.43 1.953-3.18.913-3.638-.473-15.58-4.578-39.486-2.047-11.916-2.999-24.01-3.34-42.435-.263-14.173-.844-26.923-1.291-28.334-.582-1.832-2.27-2.66-4.131-2.543zm32.842 32.644c-4.33 0-5.93 7.329-6.416 29.334-.795 36.007 3.835 57.223 15.265 69.936 6.391 7.109 10.403 8.485 11.809 4.055.547-1.724-1.1-6.906-4.627-14.565-7.387-16.036-9.313-26.495-10.072-54.705-.657-24.4-2.346-34.055-5.96-34.055zm24.357 27.83c-.522.053-.913.697-1.596 1.973-2.32 4.335-1.67 23.823 1.192 35.762 5.337 22.262 12.665 39.103 17.013 39.103 1.824 0 1.981-1.768 1.227-13.668-1.55-24.458-9.524-56.222-15.461-61.595-1.202-1.088-1.853-1.627-2.375-1.574zm35.309 31.026c-6.779.376-2.851 34.64 5.808 43.299 3.736 3.736 7.619 3.221 8.72-1.155 2.088-8.285-7.419-38.747-13.028-41.75-.55-.293-1.049-.42-1.5-.394z" transform="translate(-222.788 -235.104)"/><path style="display:inline;fill:#fc0;stroke-width:1.33333" d="M1433.514 350.929c-12.197-.03-24.045 1.013-31.385 3.142-24.185 7.016-62.318 23.789-135.77 59.717-75.335 36.85-133.816 61.625-214 90.662-103.352 37.427-186.316 62.1-297.405 88.443-59.857 14.195-86.865 18.85-213.26 36.768-51.025 7.233-79.112 9.642-133.68 11.463-41.739 1.393-73.23 3.73-97.9 7.266-15.302 2.192-61.1 10.95-62.008 11.857-.32.32 5.308 1.596 12.504 2.836 20.273 3.495 39.947 8.378 48.918 12.144 13.513 5.673 19.263 7.14 33.1 8.442 11.575 1.089 14.738 1.984 25.474 7.201 6.742 3.276 21.258 8.752 32.258 12.17 11 3.417 36.8 11.805 57.334 18.639 20.533 6.833 44.965 14.867 54.293 17.851 28.794 9.212 159.105 60.212 201.04 78.684 68.612 30.221 127.804 57.44 146 67.137 11.734 6.252 34.534 18.133 50.667 26.4 35.955 18.424 106.745 55.464 132 69.068 22.281 12.003 58.516 34.004 114.666 69.621 43.45 27.563 60.001 37.576 70.129 42.432 13.865 6.648 169.734 111.558 231.87 156.064 16.095 11.528 56.399 41.075 82.669 60.606 24.079 17.902 66.295 51.261 78.617 62.123 33.083 29.162 87.86 81.35 150.908 143.772 29.073 28.784 53.823 52.333 55 52.333 1.65 0 2.14-1.385 2.14-6.052 0-7.694-3.57-14.711-13.167-25.87-18.282-21.257-35.082-48.703-57.99-94.744-53.862-108.248-99.594-250.927-116.03-362-16.378-110.688-22.71-265.85-17.98-440.666 2.814-104.038-1.024-130.903-25.498-178.41-12.856-24.954-22.293-38.388-38.059-54.18-25.656-25.697-55.9-42.67-91.974-51.62-8.738-2.168-21.284-3.27-33.48-3.3zm-52.664 34.457c2.647.38 3.114 2.523 2.19 7.453-1.236 6.585-21.285 26.562-42.012 41.857-90.65 66.896-281.145 165.449-407.334 210.739-66.437 23.844-147.473 44.359-206.666 52.318-21.567 2.9-54.228 3.77-62 1.652-17.131-4.668-13.71-7.425 11.172-9.002 35.401-2.243 79.093-10.711 142.16-27.552 63.962-17.08 117.217-36.278 195.334-70.415 91.055-39.79 157.516-73.026 213.334-106.683 16.133-9.728 34.732-20.673 41.332-24.32 16.26-8.988 33.014-20.829 60-42.405 27.25-21.787 42.924-32.474 49.088-33.474 1.396-.227 2.52-.295 3.402-.168zm55.658 31.718c2.542 0 3.186.701 3.186 3.461 0 5.52-6.994 14.325-40.219 50.631-10.02 10.95-23.255 25.907-29.412 33.239-12.037 14.333-31.413 32.596-66.37 62.558-49.54 42.463-83.44 68.974-95.5 74.684-4.053 1.919-11.987 8.026-18.76 14.44-14.484 13.71-27.63 24.2-47.282 37.73a16843.19 16843.19 0 0 0-40.457 27.994c-13.933 9.67-29.533 20.153-34.666 23.297-32.697 20.026-82.057 42.852-118.64 54.861-21.624 7.098-46.334 11.844-47.96 9.213-1.245-2.015 8.734-7.17 31.932-16.496 27.667-11.124 50.02-21.367 74-33.906 57.47-30.054 98.763-56.828 113.154-73.374 5.052-5.808 8.234-8.295 11.364-8.882 6.726-1.262 14.118-6.588 41.423-29.844 13.9-11.84 28.002-22.893 31.334-24.565 10.155-5.094 17.33-10.333 33.363-24.357 8.45-7.39 27.962-24.264 43.362-37.496 35.163-30.213 61.645-55.14 104-97.895 34.259-34.58 46.593-45.293 52.148-45.293zm55.803 24c2.899 0 7.383 6.615 7.383 10.89 0 9.376-8.318 27.866-25.676 57.07-5.87 9.876-14.746 26.376-19.725 36.665-14.461 29.894-63.407 105.848-105.144 163.164-25.805 35.438-36.318 52.617-41.6 67.967-1.789 5.201-4.471 9.132-9.593 14.065-8.19 7.886-16.824 24.438-30.002 57.513-15.031 37.725-24.024 66.616-33.62 108-5.013 21.625-9.342 35.332-11.154 35.332-.364 0-1.065-.652-1.558-1.45-4.726-7.646-7.393-41.05-4.643-58.16.918-5.714 3.096-14.184 4.838-18.823 1.742-4.64 6.22-18.74 9.953-31.334 7.12-24.027 15.772-43.74 32.746-74.621 25.495-46.383 59.594-98.87 85.07-130.944 20.8-26.186 35.508-48.4 65.768-99.334 30.577-51.466 42.765-74.205 51.098-95.334 3.76-9.533 8.671-20.804 10.916-25.046 4.154-7.853 11.585-15.62 14.943-15.62zm63.549 38.778c.565.092 1.132.702 2.043 1.888 1.61 2.099 1.893 4.986 1.326 13.545-1.705 25.705-13.594 71.757-37.469 145.123-47.681 146.528-71.807 245.366-82.343 337.332-1.07 9.332-1.662 32.613-1.627 64 .048 44.124.362 51.285 2.978 67.801 4.563 28.803 3.645 35.788-3.174 24.153-13.89-23.704-18.465-55.04-18.392-125.954.067-64.525 4.5-107.505 14.515-140.666 8.564-28.353 19.264-65.678 28.67-100 14.67-53.526 22.57-79.296 43.33-141.334 10.553-31.533 23.383-72.033 28.512-90 9.398-32.925 15.874-50.982 19.603-54.666.901-.89 1.463-1.315 2.028-1.222zm35.396 21.123c2.34.305 5.026 5.628 7.93 16.158 5.418 19.646 2.7 60.896-14.176 215.275-14.105 129.028-19.415 217.506-16.086 268 6.336 96.086 27.355 210.659 45.528 248.153 6.362 13.127 7.882 21.653 4.72 26.478-2.84 4.335-3.84 4.243-8.03-.738-13.137-15.61-23.924-43.932-36.69-96.316-17.794-73.013-24.1-134.468-24.082-234.725.013-84.437 3.787-140.657 16.123-240.186 10.076-81.294 14.682-126.567 16.552-162.666 1.374-26.51 4.312-39.942 8.211-39.433z" transform="translate(-222.788 -235.104)"/><path style="display:inline;fill:#ff0;stroke-width:1.33333" d="M1544.77 251.694c-18.104.014-30.485 2.74-45.799 10.084-12.119 5.813-26.135 17.627-28.043 23.637-1.636 5.155-2.194 5.343 36.381-12.19 32.71-14.866 47.14-14.459 67.719 1.915 11.35 9.03 17.641 16.702 18.81 22.935.944 5.03-5.885 35.942-7.521 34.047-.483-.56-2.27-6.118-3.97-12.352-8.483-31.1-16.663-36.945-49.897-35.652-20.144.784-32.706 4.046-39.301 10.207-3.397 3.173-3.927 4.412-2.982 6.985 1.775 4.837 7.123 4.518 26.26-1.57 26.807-8.53 40.743-8.43 46.484.331 5.352 8.17 5.495 28.312.255 36-3.226 4.735-3.997 5.22-14.787 9.328-4.399 1.675-8.16 3.97-8.38 5.112-.933 4.84 44.615 50.593 50.365 50.593 1.333 0 5.47-2.408 9.193-5.351 14.513-11.472 21.624-24.39 23.977-43.557 3.69-30.062-8.19-64.119-29.133-83.508-13.462-12.462-26.748-17.01-49.631-16.994zm-80.406 63.4c-2.48-.018-4.597.292-6.004 1.02-6.694 3.462-4.093 11.623 4.559 14.303 5.916 1.833 20.163.728 24.13-1.871 2.667-1.748 3.09-2.699 2.055-4.633-2.4-4.483-15.886-8.752-24.74-8.818zm78.781.223a64.023 64.023 0 0 0-2.246.016c-18.525.426-43.871 14.065-43.871 23.607 0 1.63.72 3.685 1.6 4.565 2.415 2.415 11.217 1.92 16.787-.945 2.72-1.4 6.745-4.455 8.945-6.79 5.87-6.228 13.322-9.546 25.334-11.28l10.666-1.542-5.863-3.896c-4.309-2.863-6.517-3.676-11.352-3.735z" transform="translate(-222.788 -235.104)"/></svg>